<svg xmlns="http://www.w3.org/2000/svg" viewBox="0 0 446.08 73.86"><g id="Calque_2" data-name="Calque 2"><g id="OBJECTS"><path d="M250.57,24.53c-4.2-2.67-9.25-3-14.13-2.31a19.55,19.55,0,0,0-2,.39c-2.09-3.9-6-6.72-10.62-6.15a9.4,9.4,0,0,0-7.86,7.06c-3.72-1.45-7.86-1.7-12.39-1.53a1.27,1.27,0,0,0-1.83.72c-2.85,9-1.27,17.69,6.27,23.64,6.74,5.33,15.53,7.52,23.27,3l.1-.07c5-.56,9.51-1.8,12.71-6,3.9-5.07,6.46-11.27,8.2-17.37A1.25,1.25,0,0,0,250.57,24.53Zm-23,23.85c-5.49-1.5-9.93-5.48-14.24-9.09-4.61-3.86-6.87-8.8-8.85-14.29a41.84,41.84,0,0,1,24.71,22.58v.09A13.51,13.51,0,0,1,227.54,48.38Zm-6-17.89c3.39,3.93,6.25,8.44,7.27,13.48a43,43,0,0,0-22.17-19.52C212.31,24.54,217.36,25.73,221.49,30.49Zm7.18,6a.62.62,0,0,0,.61.22c7.41-1.35,13.37-6.05,19.28-10.46.26.14.52.29.77.45-2.16,3.19-4.2,6.55-6.66,9.51-3,3.61-7.25,5.17-11.77,6A27.14,27.14,0,0,0,228.67,36.49Zm8.11-11.78a20.08,20.08,0,0,1,10.51.94c-5.61,4.2-11.31,8.57-18.35,9.85a.52.52,0,0,0-.42.69,37.9,37.9,0,0,0-2.78-4.37C228.84,28.23,231.85,25.38,236.78,24.71Zm-12-5.83c3.28-.1,5.75,1.94,7.29,4.59-3.05,1.34-5.43,3.57-7.85,6.35-.3-.37-.61-.73-.93-1.09a18.51,18.51,0,0,0-5-4.11A6.91,6.91,0,0,1,224.74,18.88ZM209.53,44.36c-6-4.74-7.57-11.45-6.07-18.43,2,5.46,4.34,10.37,9,14.24,4,3.34,8.08,7,13,8.82C219.83,50.13,214.15,48,209.53,44.36Zm34.16-4.89c-3,4.79-6.76,6.63-12.06,7.32a24.1,24.1,0,0,0-.45-3.41c4.06-.69,8.22-2,11.21-5a41.25,41.25,0,0,0,5.42-7.07A50,50,0,0,1,243.69,39.47Z"/><path d="M210.57,13.16a1.27,1.27,0,0,0,1.25-1.25l0-.54a1.26,1.26,0,0,0-1.25-1.25,1.28,1.28,0,0,0-1.25,1.25l0,.54A1.26,1.26,0,0,0,210.57,13.16Z"/><path d="M217.11,2.5a1.25,1.25,0,0,0,0-2.5A1.25,1.25,0,0,0,217.11,2.5Z"/><path d="M229.52,11.08a1.25,1.25,0,0,0,0-2.5A1.25,1.25,0,0,0,229.52,11.08Z"/><path d="M242.33,11a1.27,1.27,0,0,0,1.25-1.25l0-.27a1.26,1.26,0,0,0-1.25-1.25,1.28,1.28,0,0,0-1.25,1.25l0,.27A1.27,1.27,0,0,0,242.33,11Z"/><path d="M194.42,42.22c-9.78,7-21.31,5.58-32,2,9.38-1.57,17.84-6,26-11.51.63-.42,0-1.43-.59-1-6.32,4.27-13,8.28-20.35,10.38a41.86,41.86,0,0,1-7.32,1.34c-2.75-1-5.43-2.12-8-3.25-4.73-2.07-9.41-4-14.17-5.55,11.38,2.08,27.3,3.49,35.62-5.93.49-.57-.33-1.4-.83-.83-6.17,7-17.39,7.49-26.06,6.78s-17.22-3.12-25.77-4.93a75.65,75.65,0,0,0-25.56-1.52,103.88,103.88,0,0,0-31.73-.26c-11.81,1.73-24.43,5-32.8,14.09a.6.6,0,0,0,.28,1,.61.61,0,0,0,.86.7A135.09,135.09,0,0,1,88.25,29.56,52.8,52.8,0,0,0,66,41.94c-7.53,3.39-14.94,6.71-23.39,8.16-7.72,1.33-16.72,2-23.38-2.89-8.45-6.26-5.71-19.44-2-27.65.31-.68-.7-1.27-1-.59a.69.69,0,0,1-.05.13C9.51,20.48,3,23,.88,30.11S.36,45.5,5.79,50.47c11.8,10.79,33.51,5.77,46.1-1.21,2.31-.73,4.51-1.52,6.55-2.32,1.66-.66,3.29-1.38,4.9-2.14-3.85,4.67-6.2,10.23-5.16,16.45C60.15,73,75,76.59,84.67,71.83c5.14-2.53,9.24-8.14,8.45-14.1a10.55,10.55,0,0,0-9.39-9.13.6.6,0,0,0-.85.78C88.73,60.62,74,72.19,65.37,62.21,59.64,55.62,64.24,48,69,42.09c2.76-1.35,5.54-2.66,8.42-3.77a104,104,0,0,1,23.86-6.09c1.54-.2,3.08-.35,4.63-.47,3,.8,6,1.71,9,2.74,12.31,4.24,24.56,9.53,37.73,10.25a43.65,43.65,0,0,0,7.26-.2c11.62,4.21,24.44,6.34,35.14-1.32C195.62,42.79,195,41.78,194.42,42.22ZM11.24,52.72c-7.41-3.56-10.71-11-9.88-19,.87-8.34,7-11.66,14.24-13.32-4.27,10.43-5.39,24.63,6.66,29.9,6.91,3,15.46,2.48,23.45.64C35,55.46,21.35,57.58,11.24,52.72Zm106.9-22.24c-1-.07-2-.13-3-.16-3-.08-5.92,0-8.87.22-.81-.22-1.63-.44-2.45-.64-1.53-.39-3.08-.73-4.63-1A78.86,78.86,0,0,1,118.14,30.48ZM71.57,28.22a98.89,98.89,0,0,1,15.69.2,136.4,136.4,0,0,0-55,13.82C42.08,32.1,58,29.15,71.57,28.22ZM61.64,53.35a12.16,12.16,0,0,0,7,12.76c10.59,4.76,19.67-6.57,15.72-16.24a9.59,9.59,0,0,1,7.37,11.69c-1.05,4.73-5,8.45-9.44,10-8.43,2.91-20.38.17-22.76-9.38-1.77-7.11,1.14-13.36,6.06-18.46l.9-.44C64.21,46.34,62.24,49.69,61.64,53.35ZM75.56,37.8c-1.57.62-3.12,1.28-4.64,2l1-1.13A.46.46,0,0,0,72,38.4a58.89,58.89,0,0,1,17-7.92c1.47-.4,2.93-.73,4.39-1h1.39a.56.56,0,0,0,.3-.09q3.7.61,7.36,1.47A104.76,104.76,0,0,0,75.56,37.8Zm68.78,4.74c-12-2.23-23.13-7.4-34.73-11a81,81,0,0,1,17.51,1.18c8.86,1.6,17,5.2,25.17,8.78,1.63.71,3.31,1.42,5,2.09A59.58,59.58,0,0,1,144.34,42.54Z"/><path d="M31.66,35.58c2-.91,2.21-3.61,1.35-5.39a3.7,3.7,0,0,0-4.47-2,.51.51,0,0,0-.76,0c-1.36,1.61-2,4-.82,5.94A3.85,3.85,0,0,0,31.66,35.58Zm-.91-.92a2.64,2.64,0,0,1-3.05-1.6,3.89,3.89,0,0,1,.46-3.33.61.61,0,0,0,.14-.07C31.56,27.28,34.14,33.87,30.75,34.66Z"/><path d="M96.4,37.84a.51.51,0,0,0-.76,0c-1.37,1.61-2,4-.82,5.94a3.85,3.85,0,0,0,4.7,1.39c2-.91,2.21-3.61,1.35-5.39A3.7,3.7,0,0,0,96.4,37.84Zm2.21,6.44a2.63,2.63,0,0,1-3-1.6A3.86,3.86,0,0,1,96,39.35a.51.51,0,0,0,.15-.07C99.42,36.9,102,43.49,98.61,44.28Z"/><path d="M42.05,21a3.83,3.83,0,0,0,4.74-1.33,3.82,3.82,0,0,0-1.27-5.05c-1.6-1.1-4.14-.78-4.78,1.25a.53.53,0,0,0,0,.33A3.48,3.48,0,0,0,42.05,21Zm3.51-1.65a2.66,2.66,0,0,1-3,.6A2.37,2.37,0,0,1,42,16.37a.44.44,0,0,0,0-.55C43.24,13.71,47.85,16.91,45.56,19.34Z"/><path d="M139.56,22.61a3.83,3.83,0,0,0,4.74-1.33A3.82,3.82,0,0,0,143,16.23c-1.6-1.1-4.14-.78-4.78,1.25a.53.53,0,0,0,0,.33A3.48,3.48,0,0,0,139.56,22.61ZM143.07,21a2.66,2.66,0,0,1-3,.6,2.37,2.37,0,0,1-.57-3.57.44.44,0,0,0,0-.55C140.75,15.33,145.36,18.53,143.07,21Z"/><path d="M445.2,30.11c-2.12-7.07-8.63-9.63-15.28-11l-.06-.13c-.31-.68-1.31-.09-1,.59,3.71,8.21,6.44,21.39-2,27.65-6.65,4.94-15.65,4.22-23.37,2.89-8.45-1.45-15.86-4.77-23.39-8.16a52.8,52.8,0,0,0-22.25-12.38,135.09,135.09,0,0,1,56.31,14.11A.62.62,0,0,0,415,43a.59.59,0,0,0,.27-1c-8.36-9.06-21-12.36-32.79-14.09a103.87,103.87,0,0,0-31.73.26,75.63,75.63,0,0,0-25.56,1.52c-8.56,1.81-17,4.21-25.77,4.93s-19.89.21-26.06-6.78c-.5-.57-1.33.26-.83.83,8.32,9.42,24.24,8,35.61,5.93-4.75,1.57-9.43,3.48-14.16,5.55-2.57,1.13-5.25,2.25-8,3.25a41.86,41.86,0,0,1-7.32-1.34c-7.39-2.1-14-6.11-20.36-10.38-.62-.42-1.21.59-.59,1,8.15,5.49,16.61,9.94,26,11.51-10.72,3.6-22.25,5-32-2-.62-.44-1.2.57-.59,1,10.7,7.66,23.52,5.53,35.14,1.32a43.65,43.65,0,0,0,7.26.2c13.17-.72,25.42-6,37.73-10.25,3-1,6-1.94,9-2.74,1.54.12,3.09.27,4.63.47a104,104,0,0,1,23.86,6.09c2.88,1.11,5.66,2.42,8.42,3.77,4.74,5.91,9.34,13.53,3.61,20.12-8.68,10-23.36-1.59-17.51-12.83a.6.6,0,0,0-.85-.78A10.55,10.55,0,0,0,353,57.73c-.8,6,3.3,11.57,8.45,14.1,9.66,4.76,24.52,1.13,26.49-10.58,1-6.22-1.31-11.78-5.16-16.45,1.61.76,3.24,1.48,4.9,2.14,2,.8,4.24,1.59,6.54,2.32,12.6,7,34.31,12,46.11,1.21C445.72,45.5,447.26,37,445.2,30.11Zm-70.69-1.89c13.57.93,29.48,3.88,39.35,14a136.31,136.31,0,0,0-55-13.82A98.89,98.89,0,0,1,374.51,28.22Zm-27.58.63c-1.55.32-3.1.66-4.63,1-.82.2-1.64.42-2.45.64-3-.21-5.91-.3-8.87-.22-1,0-2,.09-3,.16A78.86,78.86,0,0,1,346.93,28.85Zm-45.2,13.69a59.44,59.44,0,0,1-13,1.05c1.71-.67,3.39-1.38,5-2.09,8.21-3.58,16.3-7.18,25.17-8.78a80.92,80.92,0,0,1,17.51-1.18C324.87,35.14,313.73,40.31,301.73,42.54Zm68.79-4.74a104.76,104.76,0,0,0-26.88-6.91Q347.3,30,351,29.42a.53.53,0,0,0,.3.09h1.39c1.45.25,2.92.58,4.39,1a58.89,58.89,0,0,1,17,7.92.53.53,0,0,0,.12.22c.31.37.64.74,1,1.13C373.63,39.08,372.09,38.42,370.52,37.8Zm16,24.38c-2.38,9.55-14.33,12.29-22.76,9.38-4.49-1.55-8.39-5.27-9.44-10a9.59,9.59,0,0,1,7.37-11.69c-4,9.67,5.13,21,15.72,16.24a12.16,12.16,0,0,0,7-12.76c-.61-3.66-2.58-7-4.88-10.07l.9.44C385.38,48.82,388.29,55.07,386.52,62.18Zm48.32-9.46c-10.11,4.86-23.75,2.74-34.47-1.76,8,1.84,16.54,2.38,23.45-.64,12.05-5.27,10.92-19.47,6.66-29.9,7.27,1.66,13.36,5,14.24,13.32C445.55,41.75,442.24,49.16,434.84,52.72Z"/><path d="M414.41,35.58a3.85,3.85,0,0,0,4.7-1.39c1.2-1.91.55-4.33-.82-5.94a.49.49,0,0,0-.75,0,3.7,3.7,0,0,0-4.47,2C412.2,32,412.42,34.67,414.41,35.58Zm3.37-5.92a.46.46,0,0,0,.14.07,3.86,3.86,0,0,1,.45,3.33,2.63,2.63,0,0,1-3,1.6C411.94,33.87,414.52,27.28,417.78,29.66Z"/><path d="M349.68,37.84a3.7,3.7,0,0,0-4.47,2c-.86,1.78-.64,4.48,1.35,5.39a3.85,3.85,0,0,0,4.7-1.39c1.19-1.9.55-4.33-.82-5.94A.51.51,0,0,0,349.68,37.84Zm.84,4.84a2.63,2.63,0,0,1-3,1.6c-3.39-.79-.81-7.38,2.45-5a.51.51,0,0,0,.15.07A3.86,3.86,0,0,1,350.52,42.68Z"/><path d="M404,21a3.49,3.49,0,0,0,1.3-4.8.53.53,0,0,0,0-.33c-.64-2-3.17-2.35-4.77-1.25a3.81,3.81,0,0,0-1.27,5.05A3.83,3.83,0,0,0,404,21Zm0-5.17a.45.45,0,0,0,0,.55,2.37,2.37,0,0,1-.56,3.57,2.66,2.66,0,0,1-3-.6C398.23,16.91,402.83,13.71,404,15.82Z"/><path d="M306.52,22.61a3.49,3.49,0,0,0,1.3-4.8.53.53,0,0,0,0-.33c-.64-2-3.17-2.35-4.77-1.25a3.81,3.81,0,0,0-1.27,5.05A3.83,3.83,0,0,0,306.52,22.61Zm0-5.17a.45.45,0,0,0,0,.55,2.37,2.37,0,0,1-.56,3.57,2.66,2.66,0,0,1-3-.6C300.72,18.53,305.32,15.33,306.53,17.44Z"/></g></g></svg>