<svg xmlns="http://www.w3.org/2000/svg" viewBox="0 0 566.88 1149.09"><defs><style>.cls-1{fill:#0b3d2e;}</style></defs><g id="Calque_2" data-name="Calque 2"><g id="Objects"><path class="cls-1" d="M377.19,749.45a11.9,11.9,0,1,0,.83,16.82A11.91,11.91,0,0,0,377.19,749.45Z"/><path class="cls-1" d="M191.69,954.3a11.9,11.9,0,1,1,16.81-.84A11.91,11.91,0,0,1,191.69,954.3Z"/><path class="cls-1" d="M372.2,823.65A11.89,11.89,0,0,0,365.86,804c-9.81-3-21,5-22.8,16.31-2.38,15.38,15.71,25.9,30.87,20.8,12.9-4.34,24-19,18.41-35.3-6.44-18.91-26.13-24.78-39.71-19.76-16.12,6-28.18,21.55-31.16,41.06-2.3,15,4.61,31.54,13.49,43.79,7.14,9.88,14.84,13.33,14.84,13.33s-5.09-6.43-6.27-7.85a47.38,47.38,0,0,1-6.31-9.64c-6.51-13.38-9.9-28.68-5.08-42.7,4.62-13.43,16.06-28.63,32.26-26.49,12.67,1.67,21,15.37,14.32,26.83-3.4,5.79-9.53,8.29-16.1,6.91-5.07-1.07-9.14-4.62-9.3-9.31a11.77,11.77,0,0,0,2.07,2.48A11.9,11.9,0,0,0,372.2,823.65Z"/><path class="cls-1" d="M455.52,824.45a9.77,9.77,0,1,0-.69-13.79A9.76,9.76,0,0,0,455.52,824.45Z"/><path class="cls-1" d="M485.92,914a9.76,9.76,0,1,0-.69-13.79A9.76,9.76,0,0,0,485.92,914Z"/><path class="cls-1" d="M380.45,940.43l.71.16c-.24-.69-.23-.69-.23-.69-2.92-8.65-20.85-55.75-66.42-60.15l-.6-.06a3.73,3.73,0,0,0,.12.59C322.92,925.2,371.56,938.38,380.45,940.43Z"/><path class="cls-1" d="M399.84,957.51a2,2,0,0,0,.1.46c7,35.38,45.31,45.76,52.31,47.37l.56.13a4,4,0,0,1-.18-.55c-2.3-6.8-16.42-43.9-52.32-47.37Z"/><path class="cls-1" d="M478.25,900c-2.88-2.33-19.25-14.55-35.8-6.16l-.22.11a1.32,1.32,0,0,0,.17.18c12.8,13.44,32.31,7.38,35.8,6.15l.28-.1Z"/><path class="cls-1" d="M362.56,866c-8.87,24.18,10.64,44.74,14.31,48.32l.3.28a1.86,1.86,0,0,1,.09-.39c1.13-5,6.29-32.88-14.31-48.33l-.27-.2A1.39,1.39,0,0,0,362.56,866Z"/><path class="cls-1" d="M503.53,804.19c-27.42,5.6-27.78,46.09-27.78,46.09S486.88,830,509,837c0,0-4.19-8.13-12.81-8.72,0,0,24.39-22.68,43.53,16.8C539.67,845.1,541.08,796.51,503.53,804.19Z"/><path class="cls-1" d="M489.38,799.08c5.31-10.12,29.48-1.72,35.85-21,1.6-4.82,3-10.26,3-10.26C494.49,769.51,489.38,799.08,489.38,799.08Z"/><path class="cls-1" d="M505.8,727.78c-11.63-20.65-28-19.59-28-19.59,35.75,38.16,13.77,68.8,13.77,68.8,56.55-41.71,10.91-70.52,10.91-70.52C510.87,717.92,505.8,727.78,505.8,727.78Z"/><path class="cls-1" d="M456.1,715.8c21.76,5.74,28.61,21.58,28.61,21.58.06-19.21-12.8-28.93-30.48-44s-11.88-35.8-11.88-35.8c-12.78,7.2-12.84,26.41-12.84,26.41-10.78-3.51-10.18-16.93-10.18-16.93C397.61,698,434.34,710.06,456.1,715.8Z"/><path class="cls-1" d="M519.26,929.14c-.27-20.18-12.55-29.58-12.55-29.58,16.72,4.13,22.38,17.43,31.62,36.08s28.55,18.12,28.55,18.12c-9,9.55-25.76,5.42-25.76,5.42.7,10.15,12.51,12.55,12.51,12.55C522,983.9,519.52,949.32,519.26,929.14Z"/><path class="cls-1" d="M430,919.3a11.9,11.9,0,0,0-1.4,2.6,10.56,10.56,0,0,0-.76,3.3,11.9,11.9,0,1,0,21.63-5.78l.55.1c7.1,1.74,10.26,8,7.51,14.62-5.59,13.57-21.49,15.46-31.6,5.74-10.42-10-7.9-28.5-2.19-40.18a36.91,36.91,0,0,1,5.38-8.75c1.54-1.89,4-4.07,5.18-5.33l.34-.13c10.62-4.24,26.56-6.9,31.4-18.67,3.33-8.1-.25-17-4.56-23.93-4.47-7.23-11.64-13-15.51-20.46-4.91-9.52-5.25-21.66-4-32.12C431.07,800.2,428.27,815,428.27,815c-11.87-5-13.16-25.88-13.16-25.88-6.36,9-9.8,19.94-5,30.44,4,8.83,11.88,15.39,19.37,21.2,6.13,4.76,14.09,9.28,18.33,16,6.49,10.24-4.07,22.32-12.9,27.84a.42.42,0,0,0-.42-.11,39.84,39.84,0,0,0,3.31-9.23c2-8.89.77-16.44-3.71-25a35.33,35.33,0,0,0-28.78-18.53c-24.37-1.53-35.38,22.79-31.5,36,4.07,13.91,22.88,21.29,34.74,11,5.41-4.69,10-12.54,7-21.19-3.19-9.28-15.22-12.82-20.12-6.8a8.74,8.74,0,0,0-1.14,1.06,9.76,9.76,0,0,0,13.53,14,7.85,7.85,0,0,1-.26,1c-1.94,5.48-6.92,9.27-12.86,7.77-11.32-2.87-15.16-16.87-6.92-26.49,8.93-10.43,24.78-7.92,35.9,2.05,17.35,15.57,7.87,35.25,8.13,35.72-10.42.44-21,1.31-30.07,7.11-9.24,5.93-16.9,17-16.52,28.35.41,12.1,9.95,22.45,19.95,28.27-4-6-4.1-14.31-2.86-21.13a63,63,0,0,1,25-39.08c-10.93,8.8-21.49,28.08-15.55,44.38,5.55,15.22,22,28.95,39.25,22.36,16.56-6.32,25.59-25.77,12.29-38.94C453,907,437.43,907.52,430,919.3Zm-2-104.44-1.5-.63ZM423,812.8ZM426,814l-.48-.2Zm-1.36-.56-.5-.22Zm-.6-.26-.33-.14Zm-.5-.21h0Z"/><path class="cls-1" d="M539.83,656.27c-17.51-6.44-31.8.29-40.37,14.65-9.49,15.88.21,32.19,13.79,35.08s25.56-8.66,22.88-20.7c-1.19-5.35-8.27-10.46-14.2-9.47-3.16.53-8.52,4.46-8.15,8.12a7.15,7.15,0,0,0,12.44,5.29,7.43,7.43,0,0,0,1-1.53c.05.2.09.38.12.52.41,2.33-3.06,6.69-6.94,7.53-6.55,1.41-14.24-5.21-12.48-12.62,4-16.89,26.33-20.77,38.69-7.35s6.43,33.22-1.93,47.06c-7.05,11.67-14.11,17.95-21.51,28.89-6.36,9.41-7.55,14.2-7.35,14.36.45.46,7.16-10.4,20.76-24.65,7.8-8.16,17.18-16.51,22.5-26.66C571.05,692.07,565.86,665.85,539.83,656.27Z"/><path class="cls-1" d="M509.58,1030.53c18.61-1.24,28.92-13.21,30.92-29.81,2.2-18.37-13.3-29.32-26.88-26.43s-19.82,18.31-12.48,28.22c3.27,4.4,11.82,6.19,16.83,2.87,2.67-1.77,6-7.54,4.14-10.74a7.15,7.15,0,0,0-13.51.24,6.79,6.79,0,0,0-.34,1.82,4.29,4.29,0,0,1-.32-.43c-1.32-1.95.07-7.36,3.27-9.7,5.41-4,15.13-1,16.54,6.45,3.22,17.06-15.61,29.69-32.36,22.46S476,987.75,478,971.71c1.68-13.53,5.58-22.14,7.89-35.14,2-11.19,1.12-16.05.87-16.12-.6-.23-2.31,12.42-8.94,31-3.8,10.63-9,22.08-9.7,33.51C466.5,1010.54,481.91,1032.37,509.58,1030.53Z"/><path class="cls-1" d="M365.32,1047.21a9.76,9.76,0,1,1-13.79.68A9.76,9.76,0,0,1,365.32,1047.21Z"/><path class="cls-1" d="M383.65,1078.89c-20.1,1.73-30.67-9.56-30.67-9.56,5.76,16.23,19.55,20.55,39,27.9s20.86,26.62,20.86,26.62c8.6-9.95,2.85-26.18,2.85-26.18,10.16-.3,13.72,11.21,13.72,11.21C438.41,1076.24,403.76,1077.15,383.65,1078.89Z"/><path class="cls-1" d="M483.59,1059.23c.6,18.65-10.29,30.09-26.61,33.72-18.06,4-30.49-10.33-29-24.13s16.27-21.54,26.84-15.21c4.71,2.81,7.33,11.15,4.53,16.46-1.5,2.83-6.91,6.69-10.28,5.18a7.14,7.14,0,0,1,.68-14l-.46-.28c-2.07-1.12-7.31.8-9.33,4.22-3.4,5.77.47,15.15,8.06,15.81,17.29,1.52,28-18.46,19.15-34.41s-29.52-16.55-45.28-13c-13.3,3-21.48,7.75-34.19,11.33-10.93,3.08-15.86,2.7-15.95,2.46-.29-.57,12.13-3.52,29.94-12,10.2-4.83,21.07-11.11,32.38-13C459.43,1018.34,482.68,1031.52,483.59,1059.23Z"/><path class="cls-1" d="M201.56,656.53a9.76,9.76,0,1,1,13.79-.68A9.77,9.77,0,0,1,201.56,656.53Z"/><path class="cls-1" d="M183.23,624.85c20.1-1.73,30.67,9.56,30.67,9.56-5.76-16.23-19.55-20.54-39-27.89S154,579.89,154,579.89c-8.6,10-2.85,26.18-2.85,26.18-10.16.3-13.72-11.21-13.72-11.21C128.47,627.5,163.13,626.59,183.23,624.85Z"/><path class="cls-1" d="M83.3,644.51c-.61-18.65,10.28-30.09,26.6-33.72,18.06-4,30.49,10.34,29,24.13S122.6,656.46,112,650.13c-4.71-2.81-7.33-11.14-4.53-16.46,1.5-2.83,6.92-6.69,10.28-5.18a7.15,7.15,0,0,1,1.1,13.47,6.8,6.8,0,0,1-1.78.51l.46.28c2.07,1.12,7.32-.8,9.33-4.21,3.4-5.78-.47-15.16-8-15.82-17.3-1.52-28,18.46-19.16,34.42s29.52,16.54,45.28,13c13.3-3,21.48-7.75,34.19-11.33,10.93-3.08,15.86-2.7,16-2.46.29.57-12.13,3.52-29.93,11.95-10.21,4.84-21.08,11.11-32.39,13C107.45,685.4,84.2,672.23,83.3,644.51Z"/><path class="cls-1" d="M81,789.71a9.76,9.76,0,1,0,.69,13.79A9.77,9.77,0,0,0,81,789.71Z"/><path class="cls-1" d="M47.63,774.6c.26,20.18,12.54,29.58,12.54,29.58-16.72-4.13-22.38-17.43-31.62-36.08S0,750,0,750c9.05-9.55,25.76-5.42,25.76-5.42C25.06,734.41,13.25,732,13.25,732,44.85,719.84,47.36,754.42,47.63,774.6Z"/><path class="cls-1" d="M57.3,673.21C38.69,674.45,28.38,686.42,26.39,703c-2.21,18.37,13.29,29.32,26.87,26.43s19.82-18.31,12.48-28.21c-3.27-4.41-11.82-6.2-16.83-2.88-2.67,1.77-6,7.54-4.14,10.74a7.15,7.15,0,0,0,13.51-.24,6.79,6.79,0,0,0,.34-1.82c.13.16.24.31.32.43,1.32,1.95-.07,7.36-3.27,9.7-5.41,4-15.12,1-16.54-6.45C35.91,693.66,54.74,681,71.49,688.26S90.87,716,88.87,732c-1.68,13.53-5.58,22.14-7.88,35.14-2,11.19-1.13,16.05-.88,16.12.6.23,2.31-12.41,8.94-31,3.8-10.63,9-22.07,9.7-33.51C100.38,693.21,85,671.37,57.3,673.21Z"/><path class="cls-1" d="M415.56,722.41c6.77-1.55,12.85-4,19.94-3.89,3.31.06,8.86,2.25,8.86,2.25s-3.5-4-5.4-4.87c-7.71-3.46-16.66-.86-24.6.31-8.93,1.31-17.46,3.3-26.57,3.23-12.41-.09-32.34-9.76-28.52-24.85,2.44-9.63,15.12-19.41,25.08-14,5.36,2.92,8.19,10.39,4.12,15.51-2.48,3.12-7.64,5.17-11.42,2.45a6.82,6.82,0,0,1-1.89-2,6.41,6.41,0,0,0,7.61-10.25,6.15,6.15,0,0,0-1-.73,8.89,8.89,0,0,0-12.12,2c-8.23,11.48,6,24.21,17,20.54,14-4.65,19-20.33,12.29-31-7.51-12.07-23.16-16.83-35.5-10.69s-23.55,23.1-18,39.82c3.65,10.95,14.4,19.44,29.93,21.83C388.25,730,403.29,725.23,415.56,722.41Z"/><path class="cls-1" d="M491.91,845.56c-10.49,3.69-16.66,12.49-20,20.85a43.38,43.38,0,0,0-3,13.43s3.43-12.88,13.54-20.79c14.42-11.31,38.73-2.28,31.94,17.06-2.39,6.8-11.17,10-17.49,6.35-2.45-1.42-5.53-4.34-4.23-7.45a5.3,5.3,0,0,1,1-1.54,7.15,7.15,0,1,0,12.75-4.57c-3.22-4.51-7.57-7-12.82-4.85-10.18,4.17-12.85,16.27-4.29,25.11,9,9.24,23.52,8.12,32.56-4.77,8.68-12.37,5.5-24.78-4.83-33.75C510.74,845.15,499.32,843,491.91,845.56Z"/><path class="cls-1" d="M428.2,787.87c15.64.6,28-13.46,26.2-29.36-1.07-9.63-9.24-14.6-16.49-15.88-4.37-.77-8.51.26-10.8,3.07-.16.15-.32.29-.47.46a9.76,9.76,0,0,0,14.48,13.1,9.62,9.62,0,0,0,1.83-3c0,.25.09.5.11.76a16.22,16.22,0,0,1-4.71,13.66c-8.48,8.06-23.53,3-27-7.75-4.23-13.29,7.4-26.35,19.89-28.42,11.47-1.9,22.86,2.62,31.81,10.44,9.85,8.6,16,17.42,17.06,32.68.7,10.05-2.19,22.22-2.19,22.22s3.58-7.46,4.62-11.42c7.66-29.38-12.7-61.34-42.23-66.42-16.94-2.92-36.53,5.55-41.33,27.34C393.7,773.57,411,787.2,428.2,787.87Z"/><path class="cls-1" d="M273.15,1040.38a9.76,9.76,0,1,0-13.79.68A9.76,9.76,0,0,0,273.15,1040.38Z"/><path class="cls-1" d="M340.36,1006.49a.93.93,0,0,1-.09.22c-6.71,17.31,7.07,32.39,9.67,35l.2.21.08-.29c.88-3.59,5-23.61-9.67-35Z"/><path class="cls-1" d="M354.06,939.84a1.89,1.89,0,0,1,.39-.14l-.32-.26c-3.92-3.3-26.31-20.68-49.49-9.47l-.31.15.23.25C322,949.34,349.19,941.45,354.06,939.84Z"/><path class="cls-1" d="M300.18,1044.17s-40.26,4.36-43.12,32.2c-3.93,38.13,44.28,31.91,44.28,31.91-41.18-15.14-21-41.65-21-41.65,1.44,8.52,9.94,11.88,9.94,11.88C281.12,1057.24,300.18,1044.17,300.18,1044.17Z"/><path class="cls-1" d="M250.57,1062.79s-28.91,8-27.24,41.78c0,0,5.28-2,9.91-4C251.78,1092.3,241,1069.08,250.57,1062.79Z"/><path class="cls-1" d="M228.81,1067.15s-28.32,24.9-69.82-6.9c0,0,.56,16.39,22.26,25.93,0,0-9.31,6-21.54-1.21C159.71,1085,192.9,1127.54,228.81,1067.15Z"/><path class="cls-1" d="M141.94,1038.26c16.72,16.1,27.67,27.94,46.77,26,0,0-16.43-5.24-24.3-26.33s-23.51-56.44-52.1-31.78c0,0,13.29-1.92,17.85,8.46,0,0-19.11,2-25,15.39C105.15,1030,125.23,1022.16,141.94,1038.26Z"/><path class="cls-1" d="M370.65,963.31c6.67-1.91,15-2.66,21.32.76-6.79-9.37-18-17.85-30.11-17.06-11.3.74-21.59,9.46-26.58,19.24-4.87,9.56-4.69,20.21-4.1,30.63-.5-.22-19.14,11.17-36.35-4.57-11-10.07-15.08-25.6-5.58-35.52,8.75-9.14,23.06-6.71,27,4.28,2.08,5.75-1.2,11.09-6.46,13.56a7.21,7.21,0,0,1-.93.35,9.76,9.76,0,0,0-15.27-12.08,10.2,10.2,0,0,0-.95,1.24c-5.5,5.48-.79,17.1,8.77,19.35,8.9,2.1,16.26-3.2,20.39-9,9.06-12.81-.15-30.81-14.39-33.48-13.58-2.55-36.68,10.81-32.75,34.91A35.35,35.35,0,0,0,296,1002.68c9,3.6,16.6,4.11,25.25,1.22a39.51,39.51,0,0,0,8.85-4.21.42.42,0,0,0,.16.4c-4.62,9.34-15.6,21-26.43,15.59-7.08-3.56-12.37-11-17.7-16.65-6.53-6.89-13.83-14.07-23-17.18-10.91-3.71-21.46.8-29.78,8,0,0,20.93-.78,27.05,10.53,0,0-14.45,4.26-23.21,16.06,10.28-2.29,22.4-3.16,32.36.79,7.83,3.11,14.26,9.68,21.89,13.41,7.36,3.6,16.53,6.29,24.26,2.18,11.24-6,12.31-22.1,15.47-33.09l.1-.35c1.14-1.3,3.07-4,4.79-5.69a37,37,0,0,1,8.18-6.22c11.06-6.84,29.21-11.17,40.2-1.79,10.67,9.1,10.36,25.11-2.59,32-6.37,3.39-12.86.87-15.29-6a3.69,3.69,0,0,1-.15-.53,11.9,11.9,0,1,0,3.61-22.1,10.43,10.43,0,0,0-3.21,1.09,11.92,11.92,0,0,0-2.45,1.64c-11,8.6-9.94,24.18,1.13,33.34,14.43,11.93,32.89,1,37.54-16.09,4.84-17.82-10.44-32.82-26.13-36.84-16.81-4.3-34.95,8.11-42.63,19.86A63.08,63.08,0,0,1,370.65,963.31ZM259.59,999c.19.35.39.73.62,1.14Zm-1.92-3.56s0,0,0,0Zm1.51,2.81-.24-.45Zm-.69-1.29-.26-.48Zm-.32-.57A1.91,1.91,0,0,0,258,996,3.1,3.1,0,0,1,258.17,996.36Zm-.25-.49-.17-.3Z"/><path class="cls-1" d="M220.38,1092.41c-.18-.19-4.83,1.48-13.57,8.74-10.15,8.44-15.7,16.09-26.62,24.26-12.94,9.68-32.09,17.53-46.64,6.58s-12.92-33.58,3.49-39.24c7.2-2.48,14.55,4.52,13.79,11.17-.44,3.95-4.45,7.83-6.8,7.65a4.09,4.09,0,0,1-.53-.07,6.91,6.91,0,0,0,1.41-1.19,7.14,7.14,0,0,0-6.48-11.85c-3.69,0-7.07,5.71-7.28,8.91-.4,6,5.38,12.54,10.83,13.19,12.24,1.48,22.54-11.58,18.33-24.81s-21.41-21.27-36.27-10.26c-13.44,10-18.73,24.84-10.58,41.63,12.1,25,38.7,27.52,60.14,13.42,9.57-6.3,17-16.46,24.3-25C210.74,1100.56,220.88,1092.81,220.38,1092.41Z"/><path class="cls-1" d="M149.91,969.61c2.56-11.37-11.51-24.25-22.12-14.93a8.88,8.88,0,0,0-.82,12.26,6.41,6.41,0,1,0,10.27-7.68,6.94,6.94,0,0,1,2.22,1.69c3.08,3.49,1.55,8.82-1.31,11.6-4.69,4.56-12.4,2.48-15.84-2.56-6.4-9.38,2.08-23,11.43-26.34,14.63-5.29,26.22,13.59,27.55,25.92,1,9.06-.17,17.75-.6,26.77-.37,8-2.07,17.17,2.13,24.5,1,1.8,5.37,4.89,5.37,4.89s-2.72-5.31-3.11-8.58c-.82-7.06,1-13.34,1.9-20.24,1.59-12.49,4.87-27.93,1.64-40.48-3.92-15.22-13.43-25.08-24.69-27.62-17.18-3.89-33,9.08-37.84,21.83s1.39,28,14.15,34.27C131.56,990.49,146.67,984,149.91,969.61Z"/><path class="cls-1" d="M259.9,903.85c13.47-6.18,29-4.33,43,.83A47.79,47.79,0,0,1,313.11,910c1.52,1,8.43,5.46,8.43,5.46s-4.2-7.31-14.73-13.45c-13.08-7.62-30.19-12.87-44.92-9.09-19.12,4.9-33.44,18.43-37.77,35.06-3.66,14,4.13,33,23.59,37.56C264.5,969.46,278,957,281,943.75c3.57-15.59-8.68-32.56-23.75-28.66-11.1,2.87-18,14.84-14,24.29a11.71,11.71,0,0,0,3.34,5.21,11.9,11.9,0,0,0,16-17.65,12.21,12.21,0,0,0-2.67-1.81c4.68-.3,8.61,3.39,10.18,8.33,2,6.4.15,12.75-5.28,16.7-10.74,7.83-25.21.86-28.12-11.58C233,922.66,247,909.77,259.9,903.85Z"/><path class="cls-1" d="M309.56,1050c6.88-10.84,19.36-15.53,19.36-15.53a43.46,43.46,0,0,0-13.08,4.28c-8,4.17-16.13,11.18-18.76,22-1.85,7.63,1.45,18.78,7.54,24.53,9.95,9.38,22.61,11.32,34.06,1.47,11.94-10.27,11.61-24.88,1.53-32.87-9.64-7.65-21.42-3.8-24.56,6.74-1.62,5.44,1.28,9.53,6.09,12.28a7.15,7.15,0,1,0,3.29-13.14,5.61,5.61,0,0,1,1.43-1.15c3-1.6,6.18,1.18,7.83,3.48,4.27,5.92,1.95,15-4.59,18C311.13,1088.75,299.74,1065.46,309.56,1050Z"/><path class="cls-1" d="M303.63,761.56a11.9,11.9,0,0,1,16.81-.84,11.77,11.77,0,0,1,3.34,5.21c4,9.45-2.87,21.42-14,24.29-15.07,3.9-27.33-13.07-23.75-28.66,3-13.26,16.51-25.71,33.3-21.8,19.46,4.53,27.25,23.55,23.59,37.56-4.33,16.63-18.65,30.17-37.78,35.07-14.71,3.77-31.84-1.48-44.91-9.1-10.53-6.13-14.73-13.44-14.73-13.44s6.91,4.42,8.43,5.45a47.79,47.79,0,0,0,10.22,5.33c14,5.16,29.52,7,43,.84,12.91-5.93,26.9-18.82,23.18-34.73-2.91-12.45-17.38-19.42-28.12-11.59-5.43,4-7.31,10.3-5.28,16.7,1.57,4.94,5.5,8.64,10.18,8.34a12,12,0,0,1-2.67-1.82A11.9,11.9,0,0,1,303.63,761.56Z"/><path class="cls-1" d="M294.6,678.73a9.77,9.77,0,1,1,13.79-.69A9.77,9.77,0,0,1,294.6,678.73Z"/><path class="cls-1" d="M186.61,764.89l-.23-.68a3.88,3.88,0,0,0,.71.15c8.89,2,57.54,15.23,66.42,60.15,0,0,0,0,.12.59A2.87,2.87,0,0,1,253,825C207.46,820.64,189.53,773.54,186.61,764.89Z"/><path class="cls-1" d="M167.7,747.29l-.47,0c-35.9-3.47-50-40.57-52.32-47.37l-.18-.55.56.13c7,1.61,45.32,12,52.32,47.37C167.61,746.82,167.61,746.84,167.7,747.29Z"/><path class="cls-1" d="M217.13,663.58c2.6,2.63,16.38,17.71,9.67,35a1,1,0,0,0-.09.23,1.16,1.16,0,0,1-.19-.15c-14.65-11.41-10.55-31.43-9.67-35l.08-.29Z"/><path class="cls-1" d="M262.43,775.34c-23.18,11.21-45.57-6.17-49.5-9.47l-.31-.26.39-.13c4.87-1.62,32.09-9.51,49.5,9.46l.23.25Z"/><path class="cls-1" d="M310,628.94c-2.87,27.85-43.12,32.21-43.12,32.21s19.06-13.08,9.92-34.35c0,0,8.5,3.37,9.94,11.89,0,0,20.16-26.52-21-41.66C265.73,597,313.94,590.82,310,628.94Z"/><path class="cls-1" d="M316.5,642.52c9.54-6.29-1.21-29.5,17.33-37.75,4.63-2.06,9.91-4,9.91-4C345.41,634.52,316.5,642.52,316.5,642.52Z"/><path class="cls-1" d="M385.82,619.13c21.7,9.54,22.26,25.93,22.26,25.93-41.5-31.79-69.83-6.89-69.83-6.89,35.92-60.4,69.11-17.83,69.11-17.83C395.13,613.11,385.82,619.13,385.82,619.13Z"/><path class="cls-1" d="M201.61,680.19c-14.43-11.93-32.89-1-37.54,16.09-4.84,17.83,10.44,32.82,26.13,36.84,16.81,4.3,35-8.11,42.63-19.86A63,63,0,0,1,196.42,742c-6.67,1.92-15,2.66-21.32-.76,6.78,9.38,18,17.85,30.11,17.06,11.3-.73,21.59-9.46,26.57-19.24,4.88-9.56,4.7-20.21,4.11-30.63.49.22,19.14-11.16,36.35,4.57,11,10.07,15.08,25.6,5.58,35.52-8.75,9.14-23.06,6.71-27-4.28-2.08-5.75,1.2-11.09,6.46-13.55a6,6,0,0,1,.93-.36,9.76,9.76,0,0,0,15.27,12.08,9.2,9.2,0,0,0,.94-1.24c5.5-5.47.79-17.1-8.76-19.35-8.9-2.1-16.26,3.21-20.39,9-9.06,12.82.15,30.81,14.39,33.49,13.58,2.55,36.68-10.82,32.75-34.92a35.35,35.35,0,0,0-21.29-26.81c-9-3.6-16.6-4.11-25.25-1.21a39.06,39.06,0,0,0-8.85,4.21.43.43,0,0,0-.16-.41c4.62-9.34,15.6-21,26.43-15.59,7.08,3.56,12.37,11,17.7,16.66,6.53,6.88,13.83,14.06,23,17.18,10.92,3.7,21.47-.81,29.79-8,0,0-20.93.78-27.05-10.53,0,0,14.45-4.26,23.21-16.06-10.28,2.29-22.4,3.16-32.36-.79-7.83-3.11-14.26-9.68-21.89-13.41-7.36-3.6-16.53-6.29-24.26-2.17-11.24,6-12.31,22.1-15.47,33.08,0,.14-.07.25-.11.36-1.13,1.29-3.06,4-4.78,5.68a36.64,36.64,0,0,1-8.18,6.22c-11.06,6.84-29.21,11.18-40.2,1.8-10.67-9.11-10.36-25.12,2.59-32,6.37-3.39,12.86-.86,15.29,6,.05.16.11.34.15.53a11.9,11.9,0,1,0-3.61,22.1,10.43,10.43,0,0,0,3.21-1.09,11.92,11.92,0,0,0,2.45-1.64C213.72,704.94,212.68,689.36,201.61,680.19Zm106,26.44-.78-1.43Zm1.76,3.27s0,0,0,0Zm-1.27-2.36c-.08-.13-.16-.29-.25-.45C308,707.24,308.05,707.39,308.13,707.54Zm.71,1.32-.26-.48Zm.23.41c-.06-.09-.11-.19-.18-.31C309,709.07,309,709.18,309.07,709.27Zm.09.18h0Z"/><path class="cls-1" d="M453.61,578.19c8.15,16.79,2.86,31.68-10.58,41.63-14.86,11-32.06,3-36.27-10.26s6.09-26.29,18.33-24.81c5.44.65,11.23,7.2,10.83,13.19-.21,3.2-3.59,8.92-7.28,8.92A7.15,7.15,0,0,1,422.16,595a6.91,6.91,0,0,1,1.41-1.19l-.53-.07c-2.35-.18-6.36,3.71-6.81,7.65-.75,6.65,6.6,13.65,13.8,11.17,16.41-5.65,18.06-28.26,3.49-39.23s-33.7-3.11-46.64,6.57c-10.92,8.17-16.47,15.82-26.62,24.26-8.74,7.26-13.39,8.93-13.57,8.74-.5-.4,9.64-8.15,22.48-23.1,7.35-8.57,14.73-18.72,24.3-25C414.91,550.67,441.51,553.24,453.61,578.19Z"/><path class="cls-1" d="M270,644.6c-2.63,10.8-10.78,17.81-18.77,22a43.5,43.5,0,0,1-13.07,4.27s12.47-4.69,19.35-15.53c9.83-15.47-1.56-38.77-20.13-30.1-6.54,3-8.86,12.11-4.59,18,1.65,2.3,4.86,5.08,7.83,3.48a5.61,5.61,0,0,0,1.43-1.15,7.15,7.15,0,1,1,3.29-13.14c4.81,2.76,7.71,6.84,6.09,12.28-3.14,10.54-14.92,14.4-24.56,6.75-10.08-8-10.41-22.6,1.53-32.88,11.45-9.85,24.11-7.91,34.06,1.47C268.54,625.83,271.84,637,270,644.6Z"/><path class="cls-1" d="M97.76,881.55a9.76,9.76,0,1,1,.68,13.79A9.76,9.76,0,0,1,97.76,881.55Z"/><path class="cls-1" d="M124.84,811.32l-.22.11c-16.55,8.39-32.92-3.83-35.8-6.16l-.23-.18.28-.1c3.49-1.23,23-7.29,35.8,6.15A1.32,1.32,0,0,1,124.84,811.32Z"/><path class="cls-1" d="M189.81,791.1a2.55,2.55,0,0,0,.09-.4l.3.28c3.67,3.59,23.18,24.15,14.31,48.32a2.76,2.76,0,0,1-.12.32l-.27-.2C183.52,824,188.68,796.1,189.81,791.1Z"/><path class="cls-1" d="M91.32,855s-.36,40.49-27.78,46.1C26,908.8,27.4,860.22,27.4,860.22,46.54,899.7,70.93,877,70.93,877c-8.62-.58-12.81-8.72-12.81-8.72C80.19,875.29,91.32,855,91.32,855Z"/><path class="cls-1" d="M77.69,906.24s-5.11,29.56-38.88,31.23c0,0,1.43-5.44,3-10.26C48.21,908,72.38,916.35,77.69,906.24Z"/><path class="cls-1" d="M75.51,928.32s-22,30.65,13.77,68.8c0,0-16.37,1.06-28-19.59,0,0-5.07,9.86,3.33,21.31C64.6,998.84,19,970,75.51,928.32Z"/><path class="cls-1" d="M139.81,816c10.93-8.81,21.49-28.09,15.55-44.39-5.55-15.22-22-28.94-39.25-22.36-16.56,6.32-25.59,25.77-12.29,38.94C114,798.3,129.63,797.79,137.1,786a12.52,12.52,0,0,0,1.4-2.59,10.69,10.69,0,0,0,.76-3.31,11.9,11.9,0,1,0-21.63,5.78l-.55-.1c-7.1-1.74-10.26-7.95-7.51-14.62,5.59-13.57,21.49-15.46,31.6-5.74,10.42,10,7.9,28.5,2.19,40.18a36.72,36.72,0,0,1-5.38,8.75c-1.54,1.89-4,4.07-5.18,5.33l-.34.14c-10.63,4.23-26.56,6.89-31.4,18.67-3.33,8.09.25,17,4.56,23.92,4.47,7.23,11.64,13,15.51,20.46,4.91,9.52,5.25,21.66,4,32.12,10.87-9.88,13.68-24.68,13.68-24.68,11.87,5,13.16,25.88,13.16,25.88,6.36-9,9.8-19.94,5-30.44-4-8.83-11.88-15.38-19.37-21.2-6.13-4.75-14.09-9.28-18.33-16-6.49-10.24,4.07-22.32,12.91-27.84a.4.4,0,0,0,.41.11,39.55,39.55,0,0,0-3.31,9.23c-2,8.89-.77,16.44,3.71,25a35.33,35.33,0,0,0,28.77,18.53c24.38,1.53,35.39-22.78,31.51-36-4.07-13.91-22.89-21.29-34.74-11-5.41,4.69-10,12.54-7,21.19,3.18,9.28,15.22,12.82,20.12,6.81a10.37,10.37,0,0,0,1.14-1.06,9.76,9.76,0,0,0-13.53-14,8.37,8.37,0,0,1,.26-1c1.94-5.47,6.92-9.27,12.85-7.77,11.33,2.87,15.17,16.87,6.93,26.49-8.93,10.43-24.78,7.93-35.9-2-17.35-15.57-7.87-35.24-8.13-35.72,10.42-.44,21-1.31,30.07-7.11,9.24-5.93,16.9-17,16.52-28.35-.41-12.1-10-22.44-20-28.27,4,6,4.11,14.31,2.87,21.13A63.1,63.1,0,0,1,139.81,816Zm-.7,74.46,1.19.5Zm4.92,2.06Zm-2.46-1-.48-.2Zm1.38.58-.51-.21Zm.43.18-.33-.14Zm.49.2-.32-.13Z"/><path class="cls-1" d="M51.2,939.21c.2.16-1,4.95-7.36,14.36-7.39,10.94-14.45,17.22-21.5,28.89C14,996.3,8.07,1016.13,20.4,1029.52s34.7,9.54,38.7-7.35c1.75-7.41-5.93-14-12.48-12.62-3.88.84-7.35,5.21-6.94,7.53,0,.15.07.33.12.52a7,7,0,0,1,1.05-1.52,7.15,7.15,0,0,1,12.44,5.28c.37,3.66-5,7.59-8.15,8.12-5.93,1-13-4.12-14.2-9.47-2.68-12,9.3-23.58,22.88-20.7s23.28,19.2,13.79,35.08C59,1048.75,44.75,1055.48,27.24,1049c-26-9.58-31.22-35.8-19.3-58.52,5.32-10.15,14.7-18.49,22.5-26.66C44,949.61,50.75,938.75,51.2,939.21Z"/><path class="cls-1" d="M234.93,881.24c4.82-14,1.44-29.32-5.08-42.7a47.38,47.38,0,0,0-6.31-9.64c-1.19-1.42-6.27-7.85-6.27-7.85s7.69,3.46,14.84,13.33c8.88,12.25,15.79,28.77,13.49,43.79-3,19.51-15,35.1-31.16,41.06-13.58,5-33.27-.85-39.71-19.76-5.55-16.32,5.51-31,18.41-35.3,15.16-5.09,33.25,5.42,30.87,20.8-1.76,11.33-13,19.35-22.8,16.31a11.76,11.76,0,0,1-5.51-2.81,11.9,11.9,0,1,1,16-17.64,11.76,11.76,0,0,1,2.07,2.47c-.16-4.69-4.23-8.23-9.3-9.31-6.57-1.38-12.7,1.12-16.1,6.91-6.72,11.47,1.65,25.17,14.31,26.84C218.87,909.87,230.31,894.68,234.93,881.24Z"/><path class="cls-1" d="M84.6,846.26c10.11-7.91,13.54-20.79,13.54-20.79a43.32,43.32,0,0,1-3,13.43c-3.36,8.36-9.54,17.17-20,20.85-7.41,2.6-18.83.42-25.15-5.08-10.33-9-13.51-21.38-4.84-33.74,9-12.9,23.61-14,32.57-4.78,8.56,8.84,5.89,21-4.29,25.11-5.25,2.14-9.6-.34-12.82-4.85a7.15,7.15,0,1,1,12.75-4.57,5.3,5.3,0,0,0,1-1.54c1.3-3.11-1.78-6-4.23-7.45-6.32-3.65-15.1-.45-17.49,6.35C45.87,848.54,70.17,857.57,84.6,846.26Z"/><path class="cls-1" d="M169.08,1021.61c8,28.89,41.8,46,70.28,35.46,3.83-1.42,10.9-5.73,10.9-5.73s-11.83,4.08-21.89,4.38c-15.29.46-24.68-4.79-34.21-13.74-8.66-8.14-14.29-19-13.53-30.62.83-12.64,12.66-25.5,26.31-22.6,11,2.34,17.56,16.81,10.38,26.06a16.24,16.24,0,0,1-13.13,6,6.62,6.62,0,0,1-.77,0,9.76,9.76,0,1,0-11.71-15.22c-.15.17-.28.34-.41.51-2.57,2.56-3.19,6.78-2,11,2,7.09,7.75,14.73,17.43,14.85,16,.18,28.78-13.48,26.63-29-2.37-17-17.64-32.91-41.17-25.22C171,984.71,164.51,1005,169.08,1021.61Z"/><path class="cls-1" d="M377.19,399.64a11.9,11.9,0,1,1,.83-16.82A11.92,11.92,0,0,1,377.19,399.64Z"/><path class="cls-1" d="M191.69,194.79a11.9,11.9,0,1,0,16.81.84A11.91,11.91,0,0,0,191.69,194.79Z"/><path class="cls-1" d="M372.2,325.44a11.89,11.89,0,0,1-6.34,19.62c-9.81,3-21-5-22.8-16.31-2.38-15.38,15.71-25.89,30.87-20.8,12.9,4.34,24,19,18.41,35.3C385.9,362.16,366.21,368,352.63,363c-16.12-6-28.18-21.55-31.16-41.06-2.3-15,4.61-31.54,13.49-43.79,7.14-9.87,14.84-13.33,14.84-13.33s-5.09,6.43-6.27,7.85a47.66,47.66,0,0,0-6.31,9.64c-6.51,13.38-9.9,28.69-5.08,42.7,4.62,13.44,16.06,28.63,32.26,26.5,12.67-1.67,21-15.37,14.32-26.84-3.4-5.79-9.53-8.29-16.1-6.91-5.07,1.07-9.14,4.62-9.3,9.31a11.47,11.47,0,0,1,2.07-2.47A11.9,11.9,0,0,1,372.2,325.44Z"/><path class="cls-1" d="M455.52,324.64a9.77,9.77,0,1,1-.69,13.79A9.77,9.77,0,0,1,455.52,324.64Z"/><path class="cls-1" d="M485.92,235.06a9.76,9.76,0,1,1-.69,13.79A9.77,9.77,0,0,1,485.92,235.06Z"/><path class="cls-1" d="M380.45,208.67l.71-.17c-.24.7-.23.7-.23.7-2.92,8.64-20.85,55.74-66.42,60.15l-.6,0a3.1,3.1,0,0,1,.12-.58C322.92,223.9,371.56,210.71,380.45,208.67Z"/><path class="cls-1" d="M399.84,191.59a2.47,2.47,0,0,1,.1-.47c7-35.37,45.31-45.76,52.31-47.37l.56-.13a5.07,5.07,0,0,0-.18.55c-2.3,6.81-16.42,43.9-52.32,47.37Z"/><path class="cls-1" d="M478.25,249.05c-2.88,2.33-19.25,14.56-35.8,6.16l-.22-.11a1.32,1.32,0,0,1,.17-.18c12.8-13.44,32.31-7.38,35.8-6.15l.28.1Z"/><path class="cls-1" d="M362.56,283.08c-8.87-24.17,10.64-44.73,14.31-48.32l.3-.28a2.55,2.55,0,0,0,.09.4c1.13,5,6.29,32.87-14.31,48.32l-.27.2A1.17,1.17,0,0,1,362.56,283.08Z"/><path class="cls-1" d="M503.53,344.9c-27.42-5.6-27.78-46.09-27.78-46.09s11.13,20.26,33.2,13.27c0,0-4.19,8.13-12.81,8.71,0,0,24.39,22.68,43.53-16.79C539.67,304,541.08,352.58,503.53,344.9Z"/><path class="cls-1" d="M489.38,350c5.31,10.11,29.48,1.71,35.85,21,1.6,4.82,3,10.26,3,10.26C494.49,379.58,489.38,350,489.38,350Z"/><path class="cls-1" d="M505.8,421.31c-11.63,20.65-28,19.59-28,19.59,35.75-38.15,13.77-68.8,13.77-68.8,56.55,41.71,10.91,70.53,10.91,70.53C510.87,431.17,505.8,421.31,505.8,421.31Z"/><path class="cls-1" d="M456.1,433.29c21.76-5.74,28.61-21.57,28.61-21.57.06,19.2-12.8,28.92-30.48,44s-11.88,35.79-11.88,35.79c-12.78-7.2-12.84-26.41-12.84-26.41C418.73,468.58,419.33,482,419.33,482,397.61,451.11,434.34,439,456.1,433.29Z"/><path class="cls-1" d="M519.26,220c-.27,20.18-12.55,29.58-12.55,29.58,16.72-4.13,22.38-17.43,31.62-36.08s28.55-18.12,28.55-18.12c-9-9.55-25.76-5.42-25.76-5.42.7-10.15,12.51-12.55,12.51-12.55C522,165.2,519.52,199.77,519.26,220Z"/><path class="cls-1" d="M463.25,232c13.3-13.17,4.27-32.62-12.29-38.94-17.26-6.58-33.7,7.14-39.25,22.36-5.94,16.3,4.62,35.58,15.55,44.39a63.1,63.1,0,0,1-25-39.08c-1.24-6.83-1.17-15.15,2.86-21.14-10,5.82-19.54,16.17-19.95,28.27-.38,11.32,7.28,22.42,16.52,28.35,9,5.8,19.65,6.67,30.07,7.11-.26.48,9.22,20.15-8.13,35.72-11.12,10-27,12.48-35.9,2.05-8.24-9.62-4.4-23.61,6.92-26.49,5.94-1.5,10.92,2.3,12.86,7.77a8.37,8.37,0,0,1,.26,1,9.76,9.76,0,0,0-13.53,14,9.4,9.4,0,0,0,1.14,1.05c4.9,6,16.93,2.48,20.12-6.8,3-8.65-1.58-16.5-7-21.19-11.86-10.28-30.67-2.9-34.74,11-3.88,13.26,7.13,37.57,31.5,36a35.33,35.33,0,0,0,28.78-18.53c4.48-8.57,5.74-16.11,3.71-25a39.51,39.51,0,0,0-3.31-9.22.45.45,0,0,0,.42-.12c8.83,5.52,19.39,17.6,12.9,27.84-4.24,6.69-12.2,11.22-18.33,16-7.49,5.82-15.36,12.37-19.37,21.2-4.76,10.5-1.32,21.44,5,30.44,0,0,1.29-20.91,13.16-25.88,0,0,2.8,14.79,13.68,24.68-1.26-10.46-.92-22.6,4-32.12,3.87-7.49,11-13.23,15.51-20.46,4.31-7,7.89-15.83,4.56-23.92-4.84-11.78-20.78-14.44-31.4-18.67l-.34-.14c-1.17-1.26-3.64-3.44-5.18-5.33a36.91,36.91,0,0,1-5.38-8.75c-5.71-11.68-8.23-30.17,2.19-40.18,10.11-9.72,26-7.83,31.6,5.74,2.75,6.68-.41,12.89-7.51,14.62l-.55.1a11.9,11.9,0,1,0-21.63-5.78,10.69,10.69,0,0,0,.76,3.31,12.06,12.06,0,0,0,1.4,2.59C437.43,241.57,453,242.08,463.25,232Zm-36.79,102.9,1.5-.63ZM423,336.29Zm2.46-1,.48-.2Zm-1.38.58.5-.21Zm-.43.18.33-.14Zm-.19.08h0Z"/><path class="cls-1" d="M539.83,492.82c-17.51,6.44-31.8-.29-40.37-14.65-9.49-15.88.21-32.19,13.79-35.08s25.56,8.67,22.88,20.7c-1.19,5.35-8.27,10.46-14.2,9.47-3.16-.53-8.52-4.46-8.15-8.12a7.15,7.15,0,0,1,12.44-5.29,7.71,7.71,0,0,1,1,1.53c.05-.19.09-.37.12-.52.41-2.32-3.06-6.69-6.94-7.53-6.55-1.41-14.24,5.21-12.48,12.62,4,16.89,26.33,20.77,38.69,7.35s6.43-33.22-1.93-47.06c-7.05-11.67-14.11-17.95-21.51-28.89-6.36-9.4-7.55-14.2-7.35-14.36.45-.46,7.16,10.4,20.76,24.65,7.8,8.17,17.18,16.51,22.5,26.66C571.05,457,565.86,483.24,539.83,492.82Z"/><path class="cls-1" d="M509.58,118.56c18.61,1.24,28.92,13.21,30.92,29.81,2.2,18.37-13.3,29.32-26.88,26.43s-19.82-18.31-12.48-28.21c3.27-4.41,11.82-6.2,16.83-2.88,2.67,1.77,6,7.54,4.14,10.74a7.15,7.15,0,0,1-13.51-.24,6.8,6.8,0,0,1-.34-1.81,4.28,4.28,0,0,0-.32.42c-1.32,2,.07,7.36,3.27,9.7,5.41,3.95,15.13,1,16.54-6.45,3.22-17.06-15.61-29.69-32.36-22.46S476,161.34,478,177.38c1.68,13.54,5.58,22.14,7.89,35.14,2,11.19,1.12,16,.87,16.12-.6.24-2.31-12.42-8.94-31-3.8-10.63-9-22.07-9.7-33.51C466.5,138.56,481.91,116.72,509.58,118.56Z"/><path class="cls-1" d="M365.32,101.88a9.76,9.76,0,1,0-13.79-.68A9.76,9.76,0,0,0,365.32,101.88Z"/><path class="cls-1" d="M383.65,70.2C363.55,68.47,353,79.76,353,79.76c5.76-16.23,19.55-20.55,39-27.9s20.86-26.62,20.86-26.62c8.6,10,2.85,26.18,2.85,26.18,10.16.3,13.72-11.21,13.72-11.21C438.41,72.85,403.76,71.94,383.65,70.2Z"/><path class="cls-1" d="M483.59,89.86c.6-18.65-10.29-30.09-26.61-33.72-18.06-4-30.49,10.34-29,24.13s16.27,21.54,26.84,15.21c4.71-2.81,7.33-11.15,4.53-16.46-1.5-2.83-6.91-6.69-10.28-5.18A7.15,7.15,0,0,0,448,87.31a7.23,7.23,0,0,0,1.78.52l-.46.27c-2.07,1.12-7.31-.8-9.33-4.21-3.4-5.78.47-15.16,8.06-15.82,17.29-1.52,28,18.46,19.15,34.41s-29.52,16.55-45.28,13c-13.3-3-21.48-7.75-34.19-11.33-10.93-3.08-15.86-2.7-15.95-2.46-.29.57,12.13,3.52,29.94,12,10.2,4.84,21.07,11.11,32.38,13C459.43,130.75,482.68,117.58,483.59,89.86Z"/><path class="cls-1" d="M201.56,492.56a9.76,9.76,0,1,0,13.79.68A9.77,9.77,0,0,0,201.56,492.56Z"/><path class="cls-1" d="M183.23,524.24c20.1,1.73,30.67-9.56,30.67-9.56-5.76,16.23-19.55,20.55-39,27.9S154,569.2,154,569.2c-8.6-10-2.85-26.18-2.85-26.18-10.16-.3-13.72,11.21-13.72,11.21C128.47,521.59,163.13,522.5,183.23,524.24Z"/><path class="cls-1" d="M83.3,504.58c-.61,18.65,10.28,30.09,26.6,33.72,18.06,4,30.49-10.34,29-24.13S122.6,492.63,112,499c-4.71,2.81-7.33,11.15-4.53,16.46,1.5,2.83,6.92,6.69,10.28,5.18a7.15,7.15,0,0,0,1.1-13.47,7.2,7.2,0,0,0-1.78-.51l.46-.28c2.07-1.12,7.32.8,9.33,4.22,3.4,5.77-.47,15.15-8,15.81-17.3,1.52-28-18.46-19.16-34.41s29.52-16.55,45.28-13c13.3,3,21.48,7.75,34.19,11.33,10.93,3.08,15.86,2.7,16,2.46.29-.57-12.13-3.52-29.93-11.95-10.21-4.84-21.08-11.11-32.39-13C107.45,463.69,84.2,476.87,83.3,504.58Z"/><path class="cls-1" d="M81,359.38a9.76,9.76,0,1,1,.69-13.79A9.76,9.76,0,0,1,81,359.38Z"/><path class="cls-1" d="M47.63,374.49c.26-20.18,12.54-29.57,12.54-29.57C43.45,349,37.79,362.34,28.55,381S0,399.11,0,399.11c9.05,9.55,25.76,5.43,25.76,5.43-.7,10.14-12.51,12.54-12.51,12.54C44.85,429.25,47.36,394.67,47.63,374.49Z"/><path class="cls-1" d="M57.3,475.88c-18.61-1.24-28.92-13.21-30.91-29.81-2.21-18.36,13.29-29.32,26.87-26.43S73.08,438,65.74,447.86c-3.27,4.4-11.82,6.19-16.83,2.87-2.67-1.77-6-7.54-4.14-10.74a7.15,7.15,0,0,1,13.51.24,6.79,6.79,0,0,1,.34,1.82,4.29,4.29,0,0,0,.32-.43c1.32-1.95-.07-7.36-3.27-9.7-5.41-3.95-15.12-1-16.54,6.45-3.22,17.06,15.61,29.69,32.36,22.46s19.38-27.73,17.38-43.77c-1.68-13.53-5.58-22.14-7.88-35.14-2-11.19-1.13-16.05-.88-16.12.6-.23,2.31,12.42,8.94,31,3.8,10.64,9,22.08,9.7,33.51C100.38,455.89,85,477.72,57.3,475.88Z"/><path class="cls-1" d="M415.56,426.68c6.77,1.55,12.85,4,19.94,3.89,3.31-.06,8.86-2.24,8.86-2.24s-3.5,4-5.4,4.86c-7.71,3.46-16.66.86-24.6-.31-8.93-1.31-17.46-3.3-26.57-3.23-12.41.09-32.34,9.76-28.52,24.85,2.44,9.63,15.12,19.42,25.08,14,5.36-2.92,8.19-10.39,4.12-15.51-2.48-3.12-7.64-5.17-11.42-2.45a6.94,6.94,0,0,0-1.89,2,6.41,6.41,0,0,1,7.61,10.25,6.89,6.89,0,0,1-1,.74,8.88,8.88,0,0,1-12.12-2c-8.23-11.48,6-24.21,17-20.54,14,4.65,19,20.33,12.29,31-7.51,12.08-23.16,16.83-35.5,10.69s-23.55-23.1-18-39.82c3.65-10.95,14.4-19.44,29.93-21.83C388.25,419.08,403.29,423.87,415.56,426.68Z"/><path class="cls-1" d="M491.91,303.53c-10.49-3.68-16.66-12.49-20-20.85a43.32,43.32,0,0,1-3-13.43s3.43,12.88,13.54,20.8c14.42,11.3,38.73,2.27,31.94-17.07-2.39-6.8-11.17-10-17.49-6.35-2.45,1.42-5.53,4.34-4.23,7.45a5.3,5.3,0,0,0,1,1.54,7.15,7.15,0,1,1,12.75,4.57c-3.22,4.52-7.57,7-12.82,4.85-10.18-4.16-12.85-16.27-4.29-25.11,9-9.24,23.52-8.12,32.56,4.78,8.68,12.36,5.5,24.77-4.83,33.74C510.74,304,499.32,306.13,491.91,303.53Z"/><path class="cls-1" d="M428.2,361.23c15.64-.61,28,13.46,26.2,29.35-1.07,9.63-9.24,14.6-16.49,15.88-4.37.77-8.51-.26-10.8-3.06-.16-.16-.32-.3-.47-.47a9.76,9.76,0,0,1,14.48-13.1,9.62,9.62,0,0,1,1.83,2.95c0-.25.09-.5.11-.76a16.22,16.22,0,0,0-4.71-13.66c-8.48-8.06-23.53-3-27,7.75-4.23,13.3,7.4,26.35,19.89,28.42,11.47,1.9,22.86-2.62,31.81-10.44,9.85-8.6,16-17.42,17.06-32.68.7-10-2.19-22.22-2.19-22.22s3.58,7.46,4.62,11.42C490.24,390,469.88,422,440.35,427c-16.94,2.91-36.53-5.56-41.33-27.35C393.7,375.52,411,361.9,428.2,361.23Z"/><path class="cls-1" d="M273.15,108.72a9.76,9.76,0,1,1-13.79-.69A9.75,9.75,0,0,1,273.15,108.72Z"/><path class="cls-1" d="M340.36,142.61a1,1,0,0,0-.09-.23c-6.71-17.31,7.07-32.39,9.67-35a1.67,1.67,0,0,0,.2-.21l.08.29c.88,3.59,5,23.61-9.67,35Z"/><path class="cls-1" d="M354.06,209.26l.39.13-.32.26c-3.92,3.3-26.31,20.68-49.49,9.47l-.31-.15.23-.25C322,199.75,349.19,207.64,354.06,209.26Z"/><path class="cls-1" d="M300.18,104.93s-40.26-4.37-43.12-32.21c-3.93-38.12,44.28-31.91,44.28-31.91-41.18,15.14-21,41.66-21,41.66,1.44-8.52,9.94-11.89,9.94-11.89C281.12,91.85,300.18,104.93,300.18,104.93Z"/><path class="cls-1" d="M250.57,86.3s-28.91-8-27.24-41.78c0,0,5.28,2,9.91,4C251.78,56.8,241,80,250.57,86.3Z"/><path class="cls-1" d="M228.81,82S200.49,57,159,88.84c0,0,.56-16.39,22.26-25.93,0,0-9.31-6-21.54,1.21C159.71,64.12,192.9,21.55,228.81,82Z"/><path class="cls-1" d="M141.94,110.83c16.72-16.1,27.67-27.94,46.77-26,0,0-16.43,5.25-24.3,26.33S140.9,167.62,112.31,143c0,0,13.29,1.92,17.85-8.46,0,0-19.11-2-25-15.39C105.15,119.11,125.23,126.93,141.94,110.83Z"/><path class="cls-1" d="M334.24,157c7.68,11.75,25.82,24.16,42.63,19.86,15.69-4,31-19,26.13-36.84C398.35,123,379.89,112,365.46,124c-11.07,9.16-12.11,24.75-1.13,33.34a11.92,11.92,0,0,0,2.45,1.64A10.43,10.43,0,0,0,370,160a11.9,11.9,0,1,0-3.61-22.1,3.69,3.69,0,0,1,.15-.53c2.43-6.89,8.92-9.42,15.29-6,12.95,6.9,13.26,22.91,2.59,32-11,9.38-29.14,5-40.2-1.8a36.64,36.64,0,0,1-8.18-6.22c-1.72-1.72-3.65-4.39-4.79-5.68l-.1-.36c-3.16-11-4.23-27.11-15.47-33.09-7.73-4.11-16.9-1.42-24.26,2.18-7.63,3.73-14.06,10.3-21.89,13.41-10,3.95-22.08,3.08-32.36.79,8.76,11.8,23.21,16.06,23.21,16.06-6.12,11.32-27.05,10.53-27.05,10.53,8.32,7.22,18.87,11.73,29.78,8,9.19-3.12,16.49-10.3,23-17.18,5.33-5.63,10.62-13.1,17.7-16.66,10.83-5.45,21.81,6.25,26.43,15.59a.43.43,0,0,0-.16.41,39.06,39.06,0,0,0-8.85-4.21c-8.65-2.9-16.28-2.39-25.25,1.21a35.35,35.35,0,0,0-21.29,26.81c-3.93,24.1,19.17,37.47,32.75,34.92,14.24-2.68,23.45-20.67,14.39-33.49-4.13-5.84-11.49-11.15-20.39-9.05-9.56,2.25-14.27,13.87-8.77,19.35a10.2,10.2,0,0,0,.95,1.24,9.76,9.76,0,0,0,15.27-12.08,7.21,7.21,0,0,1,.93.35c5.26,2.47,8.54,7.81,6.46,13.56-4,11-18.29,13.42-27,4.28-9.5-9.92-5.44-25.45,5.58-35.52,17.21-15.74,35.85-4.35,36.35-4.57-.59,10.42-.77,21.08,4.1,30.63,5,9.78,15.28,18.51,26.58,19.24,12.08.79,23.32-7.68,30.11-17.06-6.37,3.42-14.65,2.68-21.32.76A63,63,0,0,1,334.24,157Zm-74-8.06c-.23.41-.43.79-.62,1.14Zm-2.54,4.7s0,0,0,0Zm1.27-2.35.24-.46C259.1,151,259,151.19,258.94,151.33Zm-.71,1.31.26-.48Zm-.23.41a2.27,2.27,0,0,0,.17-.31C258.11,152.85,258.06,153,258,153.05Zm-.25.47.17-.3Z"/><path class="cls-1" d="M220.38,56.68c-.18.19-4.83-1.47-13.57-8.74-10.15-8.44-15.7-16.09-26.62-24.26C167.25,14,148.1,6.15,133.55,17.11S120.63,50.68,137,56.34c7.2,2.48,14.55-4.52,13.79-11.17-.44-3.94-4.45-7.83-6.8-7.65a4.09,4.09,0,0,0-.53.07,6.91,6.91,0,0,1,1.41,1.19,7.15,7.15,0,0,1-6.48,11.86c-3.69,0-7.07-5.72-7.28-8.92-.4-6,5.38-12.54,10.83-13.19,12.24-1.48,22.54,11.59,18.33,24.81S138.9,74.61,124,63.6c-13.44-10-18.73-24.84-10.58-41.63C125.56-3,152.16-5.55,173.6,8.56c9.57,6.3,17,16.45,24.3,25C210.74,48.53,220.88,56.28,220.38,56.68Z"/><path class="cls-1" d="M149.91,179.48c2.56,11.37-11.51,24.25-22.12,14.93a8.88,8.88,0,0,1-.82-12.26,6.41,6.41,0,0,1,10.27,7.68,6.8,6.8,0,0,0,2.22-1.69c3.08-3.49,1.55-8.82-1.31-11.6-4.69-4.56-12.4-2.48-15.84,2.56-6.4,9.38,2.08,23,11.43,26.34,14.63,5.29,26.22-13.58,27.55-25.92,1-9.06-.17-17.75-.6-26.76-.37-8-2.07-17.18,2.13-24.5,1-1.81,5.37-4.9,5.37-4.9s-2.72,5.31-3.11,8.59c-.82,7.05,1,13.34,1.9,20.23,1.59,12.49,4.87,27.93,1.64,40.48-3.92,15.22-13.43,25.08-24.69,27.62-17.18,3.9-33-9.08-37.84-21.83s1.39-28,14.15-34.27C131.56,158.61,146.67,165.1,149.91,179.48Z"/><path class="cls-1" d="M259.9,245.25c13.47,6.18,29,4.32,43-.84a47.79,47.79,0,0,0,10.22-5.33c1.52-1,8.43-5.45,8.43-5.45s-4.2,7.31-14.73,13.44c-13.08,7.62-30.19,12.87-44.92,9.09-19.12-4.9-33.44-18.43-37.77-35.06-3.66-14,4.13-33,23.59-37.56,16.79-3.91,30.26,8.54,33.3,21.81,3.57,15.58-8.68,32.55-23.75,28.65-11.1-2.87-18-14.84-14-24.29a11.77,11.77,0,0,1,3.34-5.21,11.9,11.9,0,0,1,16,17.65,12.26,12.26,0,0,1-2.67,1.82c4.68.3,8.61-3.4,10.18-8.34,2-6.4.15-12.75-5.28-16.7-10.74-7.83-25.21-.86-28.12,11.59C233,226.43,247,239.32,259.9,245.25Z"/><path class="cls-1" d="M309.56,99.11c6.88,10.84,19.36,15.53,19.36,15.53a43.6,43.6,0,0,1-13.08-4.27c-8-4.18-16.13-11.19-18.76-22-1.85-7.63,1.45-18.78,7.54-24.53,9.95-9.38,22.61-11.32,34.06-1.47,11.94,10.27,11.61,24.88,1.53,32.88-9.64,7.65-21.42,3.79-24.56-6.75-1.62-5.44,1.28-9.52,6.09-12.28A7.15,7.15,0,1,1,325,89.37a5.61,5.61,0,0,0,1.43,1.15c3,1.6,6.18-1.18,7.83-3.48,4.27-5.92,1.95-15-4.59-18C311.13,60.34,299.74,83.63,309.56,99.11Z"/><path class="cls-1" d="M303.63,387.54a11.9,11.9,0,0,0,16.81.83,11.71,11.71,0,0,0,3.34-5.21c4-9.45-2.87-21.42-14-24.29-15.07-3.9-27.33,13.07-23.75,28.66,3,13.26,16.51,25.71,33.3,21.8,19.46-4.53,27.25-23.54,23.59-37.56-4.33-16.63-18.65-30.16-37.78-35.06-14.71-3.77-31.84,1.47-44.91,9.09-10.53,6.14-14.73,13.45-14.73,13.45s6.91-4.42,8.43-5.46a47.79,47.79,0,0,1,10.22-5.33c14-5.16,29.52-7,43-.83,12.91,5.92,26.9,18.81,23.18,34.73C327.44,394.8,313,401.77,302.23,394c-5.43-4-7.31-10.31-5.28-16.71,1.57-4.94,5.5-8.63,10.18-8.33a11.86,11.86,0,0,0-3.5,18.63Z"/><path class="cls-1" d="M294.6,470.37a9.76,9.76,0,1,0,13.79.68A9.77,9.77,0,0,0,294.6,470.37Z"/><path class="cls-1" d="M186.61,384.2l-.23.69a3.91,3.91,0,0,1,.71-.16c8.89-2.05,57.54-15.23,66.42-60.15,0,0,0,0,.12-.59a2.87,2.87,0,0,0-.59.06C207.46,328.45,189.53,375.55,186.61,384.2Z"/><path class="cls-1" d="M167.7,401.81l-.47,0c-35.9,3.47-50,40.57-52.32,47.38l-.18.54.56-.13c7-1.61,45.32-12,52.32-47.37Z"/><path class="cls-1" d="M217.13,485.51c2.6-2.63,16.38-17.71,9.67-35a1,1,0,0,1-.09-.23,1.16,1.16,0,0,0-.19.15c-14.65,11.41-10.55,31.43-9.67,35l.08.29Z"/><path class="cls-1" d="M262.43,373.75c-23.18-11.21-45.57,6.17-49.5,9.47l-.31.26.39.14c4.87,1.61,32.09,9.5,49.5-9.47l.23-.25Z"/><path class="cls-1" d="M310,520.15c-2.87-27.84-43.12-32.2-43.12-32.2S286,501,276.81,522.29c0,0,8.5-3.37,9.94-11.88,0,0,20.16,26.51-21,41.65C265.73,552.06,313.94,558.28,310,520.15Z"/><path class="cls-1" d="M316.5,506.57c9.54,6.29-1.21,29.51,17.33,37.75,4.63,2.06,9.91,4,9.91,4C345.41,514.58,316.5,506.57,316.5,506.57Z"/><path class="cls-1" d="M385.82,530c21.7-9.54,22.26-25.93,22.26-25.93-41.5,31.8-69.83,6.89-69.83,6.89,35.92,60.4,69.11,17.83,69.11,17.83C395.13,536,385.82,530,385.82,530Z"/><path class="cls-1" d="M202.74,435.56a11.92,11.92,0,0,0-2.45-1.64,10.15,10.15,0,0,0-3.21-1.08,11.9,11.9,0,1,0,3.61,22.09c0,.19-.1.37-.15.53-2.43,6.89-8.92,9.42-15.29,6-12.95-6.9-13.26-22.91-2.59-32,11-9.38,29.14-5.05,40.2,1.8a36.54,36.54,0,0,1,8.18,6.21c1.72,1.72,3.65,4.39,4.78,5.69,0,.11.07.21.11.35,3.16,11,4.23,27.11,15.47,33.09,7.73,4.11,16.9,1.42,24.26-2.18,7.63-3.73,14.06-10.3,21.89-13.41,10-3.94,22.08-3.08,32.36-.79-8.76-11.8-23.21-16.06-23.21-16.06,6.12-11.31,27.05-10.53,27.05-10.53-8.32-7.22-18.87-11.73-29.79-8-9.18,3.11-16.48,10.29-23,17.18-5.33,5.62-10.62,13.09-17.7,16.65-10.83,5.45-21.81-6.25-26.43-15.59a.42.42,0,0,0,.16-.4,39.51,39.51,0,0,0,8.85,4.21c8.65,2.9,16.28,2.38,25.25-1.22a35.35,35.35,0,0,0,21.29-26.81c3.93-24.1-19.17-37.46-32.75-34.91-14.24,2.67-23.45,20.67-14.39,33.48,4.13,5.84,11.49,11.16,20.39,9.06,9.55-2.26,14.26-13.88,8.76-19.36a9.2,9.2,0,0,0-.94-1.24,9.76,9.76,0,0,0-15.27,12.08,7.21,7.21,0,0,1-.93-.35c-5.26-2.47-8.54-7.81-6.46-13.56,4-11,18.29-13.42,27-4.28,9.5,9.92,5.44,25.45-5.58,35.52-17.21,15.74-35.86,4.35-36.35,4.57.59-10.42.77-21.07-4.11-30.63-5-9.78-15.27-18.5-26.57-19.24-12.09-.79-23.33,7.68-30.11,17.06,6.36-3.42,14.65-2.67,21.32-.76a63,63,0,0,1,36.41,28.74C225.15,424.08,207,411.67,190.2,416c-15.69,4-31,19-26.13,36.84,4.65,17.11,23.11,28,37.54,16.09C212.68,459.74,213.72,444.16,202.74,435.56Zm104.12,8.33.78-1.43Zm2.54-4.69c0-.05,0-.05,0,0Zm-1.52,2.8c.09-.15.17-.31.25-.45C308.05,441.7,308,441.85,307.88,442Zm.7-1.29.26-.48Zm.31-.57c.07-.12.12-.23.18-.32Zm.26-.48v0Z"/><path class="cls-1" d="M453.61,570.9c8.15-16.79,2.86-31.68-10.58-41.63-14.86-11-32.06-3-36.27,10.26s6.09,26.29,18.33,24.81c5.44-.65,11.23-7.2,10.83-13.19-.21-3.2-3.59-8.92-7.28-8.91a7.14,7.14,0,0,0-6.48,11.85,6.91,6.91,0,0,0,1.41,1.19,4.09,4.09,0,0,1-.53.07c-2.35.18-6.36-3.71-6.81-7.65-.75-6.65,6.6-13.65,13.8-11.17,16.41,5.66,18.06,28.26,3.49,39.24s-33.7,3.1-46.64-6.58C376,561,370.41,553.37,360.26,544.93c-8.74-7.26-13.39-8.92-13.57-8.74-.5.4,9.64,8.15,22.48,23.1,7.35,8.57,14.73,18.73,24.3,25C414.91,598.42,441.51,595.85,453.61,570.9Z"/><path class="cls-1" d="M270,504.5c-2.63-10.81-10.78-17.82-18.77-22a43.36,43.36,0,0,0-13.07-4.28s12.47,4.69,19.35,15.53c9.83,15.48-1.56,38.77-20.13,30.1-6.54-3.05-8.86-12.11-4.59-18,1.65-2.3,4.86-5.08,7.83-3.48A5.61,5.61,0,0,1,242,503.5a7.15,7.15,0,1,0,3.29,13.14c4.81-2.75,7.71-6.84,6.09-12.28-3.14-10.54-14.92-14.39-24.56-6.75-10.08,8-10.41,22.61,1.53,32.88,11.45,9.85,24.11,7.91,34.06-1.47C268.54,523.27,271.84,512.12,270,504.5Z"/><path class="cls-1" d="M97.76,267.54a9.76,9.76,0,1,0,.68-13.79A9.76,9.76,0,0,0,97.76,267.54Z"/><path class="cls-1" d="M124.84,337.77l-.22-.11c-16.55-8.39-32.92,3.83-35.8,6.16l-.23.18.28.1c3.49,1.24,23,7.29,35.8-6.15A1.32,1.32,0,0,0,124.84,337.77Z"/><path class="cls-1" d="M189.81,358a1.86,1.86,0,0,1,.09.39l.3-.28c3.67-3.58,23.18-24.14,14.31-48.32a2.76,2.76,0,0,0-.12-.32l-.27.2C183.52,325.12,188.68,353,189.81,358Z"/><path class="cls-1" d="M91.32,294.06S91,253.57,63.54,248C26,240.29,27.4,288.88,27.4,288.88c19.14-39.48,43.53-16.8,43.53-16.8-8.62.59-12.81,8.72-12.81,8.72C80.19,273.81,91.32,294.06,91.32,294.06Z"/><path class="cls-1" d="M77.69,242.86s-5.11-29.57-38.88-31.24c0,0,1.43,5.44,3,10.26C48.21,241.14,72.38,232.74,77.69,242.86Z"/><path class="cls-1" d="M75.51,220.77s-22-30.65,13.77-68.79c0,0-16.37-1.07-28,19.58,0,0-5.07-9.85,3.33-21.31C64.6,150.25,19,179.06,75.51,220.77Z"/><path class="cls-1" d="M164.81,372.19c1.24,6.82,1.17,15.14-2.87,21.13,10-5.82,19.55-16.17,20-28.27.38-11.32-7.28-22.42-16.52-28.35-9-5.79-19.65-6.67-30.07-7.11.26-.47-9.22-20.15,8.13-35.72,11.12-10,27-12.48,35.9-2.05,8.24,9.62,4.4,23.62-6.93,26.49-5.93,1.5-10.91-2.29-12.85-7.77a7.85,7.85,0,0,1-.26-1,9.76,9.76,0,0,0,13.53-14,8.74,8.74,0,0,0-1.14-1.06c-4.9-6-16.94-2.48-20.12,6.8-3,8.65,1.58,16.5,7,21.19,11.85,10.28,30.67,2.9,34.74-11,3.88-13.25-7.13-37.57-31.51-36A35.33,35.33,0,0,0,133,294c-4.48,8.57-5.74,16.12-3.71,25a39.36,39.36,0,0,0,3.31,9.23.4.4,0,0,0-.41.11c-8.84-5.52-19.4-17.6-12.91-27.84,4.24-6.69,12.2-11.21,18.33-16,7.49-5.82,15.36-12.36,19.37-21.2,4.76-10.5,1.32-21.44-5-30.44,0,0-1.29,20.91-13.16,25.88,0,0-2.81-14.79-13.68-24.68,1.26,10.46.92,22.61-4,32.12-3.87,7.49-11,13.23-15.51,20.46-4.31,7-7.89,15.83-4.56,23.93,4.84,11.77,20.77,14.43,31.4,18.67l.34.13c1.17,1.26,3.64,3.44,5.18,5.33a36.91,36.91,0,0,1,5.38,8.75c5.71,11.68,8.23,30.17-2.19,40.18-10.11,9.72-26,7.83-31.6-5.74-2.75-6.67.41-12.88,7.51-14.62l.55-.1A11.9,11.9,0,1,0,139.26,369a10.63,10.63,0,0,0-.76-3.3,12.34,12.34,0,0,0-1.4-2.6c-7.47-11.78-23.07-12.29-33.28-2.17-13.3,13.17-4.27,32.62,12.29,38.94,17.26,6.59,33.7-7.14,39.25-22.36,5.94-16.3-4.62-35.58-15.55-44.38A63.08,63.08,0,0,1,164.81,372.19Zm-24.51-114-1.19.5Zm3.73-1.56Zm-2.94,1.23.48-.2Zm1.35-.56L143,257Zm.61-.26.33-.14Zm.5-.21.32-.13Z"/><path class="cls-1" d="M51.2,209.88c.2-.16-1-4.95-7.36-14.36-7.39-10.94-14.45-17.22-21.5-28.89C14,152.79,8.07,133,20.4,119.57s34.7-9.54,38.7,7.35c1.75,7.41-5.93,14-12.48,12.62-3.88-.83-7.35-5.2-6.94-7.53,0-.14.07-.32.12-.52A7.06,7.06,0,0,0,40.85,133a7.15,7.15,0,0,0,12.44-5.29c.37-3.66-5-7.59-8.15-8.12-5.93-1-13,4.12-14.2,9.47-2.68,12,9.3,23.58,22.88,20.7s23.28-19.2,13.79-35.08C59,100.34,44.75,93.61,27.24,100.05c-26,9.58-31.22,35.8-19.3,58.52,5.32,10.15,14.7,18.5,22.5,26.66C44,199.48,50.75,210.34,51.2,209.88Z"/><path class="cls-1" d="M234.93,267.85c4.82,14,1.44,29.32-5.08,42.7a47.38,47.38,0,0,1-6.31,9.64c-1.19,1.42-6.27,7.85-6.27,7.85s7.69-3.45,14.84-13.33c8.88-12.25,15.79-28.77,13.49-43.79-3-19.51-15-35.1-31.16-41.06-13.58-5-33.27.85-39.71,19.76-5.55,16.33,5.51,31,18.41,35.3,15.16,5.1,33.25-5.42,30.87-20.8-1.76-11.33-13-19.35-22.8-16.31a11.9,11.9,0,1,0,10.47,20.46,12.07,12.07,0,0,0,2.07-2.48c-.16,4.69-4.23,8.24-9.3,9.31a14.51,14.51,0,0,1-16.1-6.91c-6.72-11.46,1.65-25.17,14.31-26.84C218.87,239.22,230.31,254.42,234.93,267.85Z"/><path class="cls-1" d="M84.6,302.83c10.11,7.92,13.54,20.79,13.54,20.79a43.38,43.38,0,0,0-3-13.43c-3.36-8.36-9.54-17.16-20-20.84-7.41-2.6-18.83-.42-25.15,5.07-10.33,9-13.51,21.38-4.84,33.75,9,12.89,23.61,14,32.57,4.77,8.56-8.84,5.89-20.94-4.29-25.11-5.25-2.14-9.6.34-12.82,4.85a7.15,7.15,0,1,0,12.75,4.57,5.3,5.3,0,0,1,1,1.54c1.3,3.11-1.78,6-4.23,7.45-6.32,3.66-15.1.45-17.49-6.35C45.87,300.55,70.17,291.52,84.6,302.83Z"/><path class="cls-1" d="M169.08,127.48c8-28.89,41.8-46,70.28-35.45,3.83,1.41,10.9,5.72,10.9,5.72s-11.83-4.08-21.89-4.38c-15.29-.46-24.68,4.79-34.21,13.74-8.66,8.14-14.29,19-13.53,30.62.83,12.64,12.66,25.5,26.31,22.61,11-2.35,17.56-16.82,10.38-26.06a16.25,16.25,0,0,0-13.13-6c-.26,0-.51,0-.77,0a9.76,9.76,0,1,1-11.71,15.22c-.15-.17-.28-.34-.41-.51-2.57-2.56-3.19-6.78-2-11.05,2-7.09,7.75-14.73,17.43-14.84,16-.19,28.78,13.47,26.63,29-2.37,17-17.64,32.91-41.17,25.22C171,164.38,164.51,144.05,169.08,127.48Z"/></g></g></svg>