<svg xmlns="http://www.w3.org/2000/svg" viewBox="0 0 526.66 688.49"><defs><style>.cls-1{fill:#0b3d2e;}.cls-2{fill:none;stroke:#0b3d2e;stroke-miterlimit:10;stroke-width:3px;}</style></defs><g id="Calque_2" data-name="Calque 2"><g id="Calque_1-2" data-name="Calque 1"><path class="cls-1" d="M43.13,206a20.55,20.55,0,0,1,20.26,18.12q.18,1.45-.84,1.62c-.69.1-1.12-.32-1.23-1.3a18.59,18.59,0,0,0-14.81-16,18.33,18.33,0,1,0,13,26.2c.15-.3.29-.62.46-.92a1,1,0,1,1,1.88.87,6.66,6.66,0,0,1-.39.86A20.42,20.42,0,1,1,43.13,206Z"/><path class="cls-1" d="M43.31,183.3c1.87,0,3.73,0,5.6,0a4,4,0,0,1,3.91,2.92,4.07,4.07,0,0,1-1.73,4.51,1.31,1.31,0,0,0-.51.93c0,2.47,0,4.94,0,7.41A3.6,3.6,0,0,1,46.64,203q-3.41,0-6.81,0a3.63,3.63,0,0,1-3.9-3.94q0-3.61,0-7.23a1.2,1.2,0,0,0-.6-1.19,3.91,3.91,0,0,1-1.65-4.43,4,4,0,0,1,3.77-2.88C39.41,183.27,41.36,183.3,43.31,183.3Zm5.13,8.12H38.07c0,2.74,0,5.43,0,8.12a1.35,1.35,0,0,0,1.42,1.33c2.5,0,5,0,7.49,0a1.36,1.36,0,0,0,1.43-1.32C48.46,196.86,48.44,194.17,48.44,191.42Z"/><path class="cls-1" d="M43.2,269.47H37.78A4,4,0,0,1,35.47,262a1.27,1.27,0,0,0,.43-.9c0-2.41,0-4.82,0-7.23,0-2.68,1.42-4.08,4.1-4.09h6.46c2.68,0,4.06,1.4,4.06,4.1,0,2.36,0,4.71,0,7.07a1.19,1.19,0,0,0,.62,1.17,4,4,0,0,1-2.1,7.34c-2,0-3.9,0-5.86,0Zm-5.15-8.14h10.4c0-2.72,0-5.38,0-8a1.42,1.42,0,0,0-1.54-1.4c-2.44,0-4.87,0-7.31,0a1.44,1.44,0,0,0-1.52,1.51c0,.63,0,1.27,0,1.9Z"/><path class="cls-1" d="M0,226.21c0-1.84,0-3.67,0-5.51a4,4,0,0,1,2.88-4,4.08,4.08,0,0,1,4.58,1.75,1.36,1.36,0,0,0,1,.49c2.47,0,4.94,0,7.41,0a3.59,3.59,0,0,1,3.87,3.86q0,3.45,0,6.89a3.61,3.61,0,0,1-3.89,3.86c-2.44,0-4.89,0-7.33,0a1.12,1.12,0,0,0-1.11.57,3.94,3.94,0,0,1-4.43,1.7A4,4,0,0,1,0,232C0,230.06,0,228.14,0,226.21Zm8.1,5.22h7.65c1.34,0,1.84-.52,1.84-1.89,0-2.21,0-4.42,0-6.63,0-1.35-.52-1.87-1.87-1.88-2.32,0-4.64,0-7,0-.22,0-.44,0-.66.07Z"/><path class="cls-1" d="M86.18,226.27c0,1.83,0,3.67,0,5.51a4,4,0,0,1-2.9,4A4.1,4.1,0,0,1,78.71,234a1.35,1.35,0,0,0-1-.45c-2.38,0-4.77,0-7.15,0-2.68,0-4.09-1.42-4.1-4.09q0-3.32,0-6.63a3.59,3.59,0,0,1,3.92-3.9q3.63,0,7.24,0a1.17,1.17,0,0,0,1.18-.61,3.91,3.91,0,0,1,4.43-1.67,4,4,0,0,1,2.92,3.83v5.78Zm-8.13,5.14V221c-2.72,0-5.38,0-8,0a1.4,1.4,0,0,0-1.41,1.45c0,2.49,0,5,0,7.48a1.36,1.36,0,0,0,1.33,1.43C72.62,231.43,75.31,231.41,78.05,231.41Z"/><path class="cls-1" d="M66.82,261.94a3.94,3.94,0,0,1-3.93-4.79,1.21,1.21,0,0,0-.4-1.27c-1.73-1.68-3.43-3.39-5.13-5.1a3.64,3.64,0,0,1,0-5.6c1.57-1.59,3.15-3.18,4.75-4.75a3.64,3.64,0,0,1,5.6,0c1.74,1.72,3.46,3.44,5.17,5.18A1,1,0,0,0,74,246a3.92,3.92,0,0,1,4.29,1.82,3.82,3.82,0,0,1-.38,4.64q-4.22,4.38-8.59,8.57a8.83,8.83,0,0,1-2.41,1.16Zm4.75-14.69c-1.83-1.83-3.66-3.68-5.53-5.51a1.49,1.49,0,0,0-2.35.1q-2.44,2.41-4.87,4.86a1.59,1.59,0,0,0,0,2.6c.9.92,1.83,1.82,2.73,2.74s1.76,1.79,2.59,2.64Z"/><path class="cls-1" d="M7.54,202.67a3.72,3.72,0,0,1,1.08-2.73c2.73-2.75,5.47-5.51,8.23-8.23a4,4,0,0,1,6.66,3.76,1,1,0,0,0,.36,1.12c1.74,1.72,3.46,3.44,5.18,5.18a3.64,3.64,0,0,1,0,5.55q-2.41,2.46-4.88,4.87a3.6,3.6,0,0,1-5.42,0c-1.76-1.74-3.51-3.48-5.23-5.25a1.16,1.16,0,0,0-1.2-.37A4,4,0,0,1,7.54,202.67Zm7.28,2.62c1.78,1.77,3.56,3.56,5.35,5.33a1.63,1.63,0,0,0,2.67,0l4.69-4.69c1-1,1-1.71,0-2.72-1.61-1.63-3.24-3.25-4.86-4.87-.16-.15-.34-.28-.45-.38Z"/><path class="cls-1" d="M78.65,202.69a3.92,3.92,0,0,1-4.75,3.9,1.26,1.26,0,0,0-1.34.44c-1.66,1.7-3.35,3.39-5,5.07a3.66,3.66,0,0,1-5.67,0c-1.59-1.58-3.18-3.17-4.75-4.76a3.61,3.61,0,0,1,0-5.48q2.59-2.64,5.24-5.24a1.06,1.06,0,0,0,.35-1.13,3.93,3.93,0,0,1,1.9-4.33,3.86,3.86,0,0,1,4.64.49c2.84,2.76,5.66,5.55,8.39,8.42a9.59,9.59,0,0,1,1.27,2.54ZM64,197.9c-1.86,1.86-3.74,3.7-5.58,5.59a1.45,1.45,0,0,0,.07,2.22q2.51,2.55,5.05,5a1.54,1.54,0,0,0,2.36,0c1.33-1.3,2.63-2.63,4-3.94.52-.52,1.07-1,1.56-1.48Z"/><path class="cls-1" d="M19.3,261.94a3.87,3.87,0,0,1-2.77-1.19c-2.68-2.68-5.36-5.35-8-8a4,4,0,0,1-.68-4.83,4.11,4.11,0,0,1,4.42-1.94,1.35,1.35,0,0,0,1-.32c1.76-1.7,3.46-3.44,5.19-5.16a3.66,3.66,0,0,1,5.67,0L28.69,245c1.92,1.92,1.93,4,0,5.85-1.68,1.69-3.36,3.38-5.07,5a1.14,1.14,0,0,0-.35,1.2A4,4,0,0,1,19.3,261.94Zm2.69-7.3c1.84-1.83,3.7-3.67,5.52-5.53a1.52,1.52,0,0,0-.09-2.35c-1.61-1.63-3.24-3.26-4.87-4.87a1.57,1.57,0,0,0-2.59,0c-1.1,1.09-2.18,2.21-3.29,3.29-.71.69-1.47,1.33-2.16,1.94Z"/><path class="cls-1" d="M43.13,310.7a20.56,20.56,0,0,1,20.26,18.12c.12,1-.16,1.52-.84,1.62s-1.12-.32-1.23-1.29a18.62,18.62,0,0,0-14.81-16,18.33,18.33,0,1,0,13,26.21c.15-.31.29-.62.46-.93a1,1,0,0,1,1.88.87,6.66,6.66,0,0,1-.39.86,20.42,20.42,0,1,1-18.3-29.43Z"/><path class="cls-1" d="M43.31,288.05c1.87,0,3.73,0,5.6,0A4,4,0,0,1,52.82,291a4.06,4.06,0,0,1-1.73,4.5,1.33,1.33,0,0,0-.51.94c0,2.47,0,4.94,0,7.41a3.6,3.6,0,0,1-3.91,3.91H39.83a3.63,3.63,0,0,1-3.9-3.94q0-3.62,0-7.24a1.18,1.18,0,0,0-.6-1.18,3.93,3.93,0,0,1-1.65-4.44,4,4,0,0,1,3.77-2.88C39.41,288,41.36,288.05,43.31,288.05Zm5.13,8.13H38.07c0,2.74,0,5.43,0,8.11a1.35,1.35,0,0,0,1.42,1.33c2.5,0,5,0,7.49,0a1.36,1.36,0,0,0,1.43-1.32C48.46,301.61,48.44,298.92,48.44,296.18Z"/><path class="cls-1" d="M43.2,374.23H37.78a4,4,0,0,1-2.31-7.48,1.25,1.25,0,0,0,.43-.89c0-2.41,0-4.83,0-7.24,0-2.67,1.42-4.08,4.1-4.08q3.22,0,6.46,0c2.68,0,4.06,1.39,4.06,4.1,0,2.35,0,4.7,0,7.06a1.2,1.2,0,0,0,.62,1.18,3.89,3.89,0,0,1,1.65,4.43,4,4,0,0,1-3.75,2.9c-2,0-3.9,0-5.86,0Zm-5.15-8.14h10.4c0-2.72,0-5.38,0-8a1.42,1.42,0,0,0-1.54-1.4c-2.44,0-4.87,0-7.31,0a1.44,1.44,0,0,0-1.52,1.52c0,.63,0,1.26,0,1.89Z"/><path class="cls-1" d="M0,331c0-1.84,0-3.68,0-5.52a4,4,0,0,1,2.88-4,4.08,4.08,0,0,1,4.58,1.75,1.33,1.33,0,0,0,1,.49c2.47,0,4.94,0,7.41,0a3.58,3.58,0,0,1,3.87,3.86q0,3.43,0,6.89a3.61,3.61,0,0,1-3.89,3.86c-2.44,0-4.89,0-7.33,0a1.11,1.11,0,0,0-1.11.58,4,4,0,0,1-4.43,1.7A4,4,0,0,1,0,336.74C0,334.81,0,332.89,0,331Zm8.1,5.21h7.65c1.34,0,1.84-.52,1.84-1.9,0-2.21,0-4.41,0-6.62,0-1.36-.52-1.88-1.87-1.88h-7c-.22,0-.44,0-.66.06Z"/><path class="cls-1" d="M86.18,331c0,1.84,0,3.68,0,5.51a4.06,4.06,0,0,1-2.9,4,4.1,4.1,0,0,1-4.57-1.79,1.43,1.43,0,0,0-1-.45c-2.38,0-4.77,0-7.15,0-2.68,0-4.09-1.42-4.1-4.09q0-3.31,0-6.63a3.58,3.58,0,0,1,3.92-3.89c2.42,0,4.83,0,7.24,0a1.17,1.17,0,0,0,1.18-.61,3.93,3.93,0,0,1,4.43-1.67,4,4,0,0,1,2.92,3.84V331Zm-8.13,5.14V325.79c-2.72,0-5.38,0-8,0a1.39,1.39,0,0,0-1.41,1.44c0,2.5,0,5,0,7.49a1.36,1.36,0,0,0,1.33,1.42C72.62,336.18,75.31,336.16,78.05,336.16Z"/><path class="cls-1" d="M66.82,366.69a3.94,3.94,0,0,1-3.93-4.79,1.19,1.19,0,0,0-.4-1.26c-1.73-1.69-3.43-3.39-5.13-5.1a3.65,3.65,0,0,1,0-5.61q2.35-2.39,4.75-4.75a3.65,3.65,0,0,1,5.6,0c1.74,1.72,3.46,3.44,5.17,5.18a1,1,0,0,0,1.12.35,3.89,3.89,0,0,1,4.29,1.82,3.82,3.82,0,0,1-.38,4.64q-4.22,4.36-8.59,8.56a8.55,8.55,0,0,1-2.41,1.16ZM71.57,352c-1.83-1.83-3.66-3.69-5.53-5.51a1.49,1.49,0,0,0-2.35.09c-1.63,1.61-3.25,3.24-4.87,4.87a1.59,1.59,0,0,0,0,2.6c.9.92,1.83,1.82,2.73,2.73s1.76,1.79,2.59,2.64Z"/><path class="cls-1" d="M7.54,307.42a3.75,3.75,0,0,1,1.08-2.73c2.73-2.75,5.47-5.5,8.23-8.22a4,4,0,0,1,6.66,3.76,1,1,0,0,0,.36,1.12c1.74,1.71,3.46,3.44,5.18,5.17a3.64,3.64,0,0,1,0,5.55q-2.41,2.46-4.88,4.87a3.59,3.59,0,0,1-5.42,0c-1.76-1.73-3.51-3.48-5.23-5.24a1.15,1.15,0,0,0-1.2-.37A4,4,0,0,1,7.54,307.42Zm7.28,2.63,5.35,5.33a1.63,1.63,0,0,0,2.67,0q2.36-2.32,4.69-4.68c1-1,1-1.72,0-2.72-1.61-1.63-3.24-3.25-4.86-4.87a5.39,5.39,0,0,0-.45-.38Z"/><path class="cls-1" d="M78.65,307.45a3.93,3.93,0,0,1-4.75,3.9,1.27,1.27,0,0,0-1.34.43c-1.66,1.71-3.35,3.39-5,5.07a3.65,3.65,0,0,1-5.67,0c-1.59-1.58-3.18-3.16-4.75-4.75a3.62,3.62,0,0,1,0-5.49c1.73-1.76,3.48-3.5,5.24-5.24a1,1,0,0,0,.35-1.12,3.94,3.94,0,0,1,1.9-4.34,3.86,3.86,0,0,1,4.64.49c2.84,2.77,5.66,5.56,8.39,8.43a9.3,9.3,0,0,1,1.27,2.54ZM64,302.65c-1.86,1.86-3.74,3.71-5.58,5.6a1.44,1.44,0,0,0,.07,2.21c1.67,1.7,3.35,3.39,5.05,5.05a1.55,1.55,0,0,0,2.36,0c1.33-1.31,2.63-2.64,4-3.95.52-.52,1.07-1,1.56-1.47Z"/><path class="cls-1" d="M19.3,366.69a3.83,3.83,0,0,1-2.77-1.19q-4-4-8-8a4,4,0,0,1-.68-4.84,4.11,4.11,0,0,1,4.42-1.93,1.36,1.36,0,0,0,1-.33c1.76-1.69,3.46-3.44,5.19-5.15a3.66,3.66,0,0,1,5.67,0l4.57,4.56c1.92,1.93,1.93,3.95,0,5.86-1.68,1.68-3.36,3.38-5.07,5a1.12,1.12,0,0,0-.35,1.19A4,4,0,0,1,19.3,366.69ZM22,359.4c1.84-1.84,3.7-3.67,5.52-5.53a1.53,1.53,0,0,0-.09-2.36c-1.61-1.63-3.24-3.25-4.87-4.87a1.58,1.58,0,0,0-2.59,0c-1.1,1.09-2.18,2.2-3.29,3.28-.71.69-1.47,1.33-2.16,2Z"/><path class="cls-1" d="M43.13,415.46a20.55,20.55,0,0,1,20.26,18.12q.18,1.46-.84,1.62c-.69.1-1.12-.32-1.23-1.3a18.59,18.59,0,0,0-14.81-16,18.33,18.33,0,1,0,13,26.2c.15-.31.29-.62.46-.92a1,1,0,1,1,1.88.87,6.66,6.66,0,0,1-.39.86,20.42,20.42,0,1,1-18.3-29.43Z"/><path class="cls-1" d="M43.31,392.81c1.87,0,3.73,0,5.6,0a4,4,0,0,1,3.91,2.92,4.07,4.07,0,0,1-1.73,4.51,1.31,1.31,0,0,0-.51.93c0,2.47,0,4.94,0,7.41a3.6,3.6,0,0,1-3.91,3.91q-3.41,0-6.81,0a3.63,3.63,0,0,1-3.9-3.94q0-3.62,0-7.23a1.2,1.2,0,0,0-.6-1.19,3.92,3.92,0,0,1-1.65-4.44,4,4,0,0,1,3.77-2.88C39.41,392.78,41.36,392.81,43.31,392.81Zm5.13,8.12H38.07c0,2.74,0,5.43,0,8.12a1.36,1.36,0,0,0,1.42,1.33c2.5,0,5,0,7.49,0a1.37,1.37,0,0,0,1.43-1.33C48.46,406.37,48.44,403.68,48.44,400.93Z"/><path class="cls-1" d="M43.2,479H37.78a4,4,0,0,1-2.31-7.47,1.27,1.27,0,0,0,.43-.9c0-2.41,0-4.82,0-7.23,0-2.68,1.42-4.09,4.1-4.09h6.46c2.68,0,4.06,1.39,4.06,4.1,0,2.35,0,4.71,0,7.06a1.2,1.2,0,0,0,.62,1.18,3.9,3.9,0,0,1,1.65,4.44,4,4,0,0,1-3.75,2.9c-2,0-3.9,0-5.86,0Zm-5.15-8.14h10.4c0-2.72,0-5.38,0-8a1.41,1.41,0,0,0-1.54-1.4c-2.44,0-4.87,0-7.31,0a1.44,1.44,0,0,0-1.52,1.51c0,.63,0,1.26,0,1.89Z"/><path class="cls-1" d="M0,435.72c0-1.84,0-3.68,0-5.51a4,4,0,0,1,2.88-4,4.08,4.08,0,0,1,4.58,1.75,1.36,1.36,0,0,0,1,.49c2.47,0,4.94,0,7.41,0a3.59,3.59,0,0,1,3.87,3.86c0,2.3,0,4.59,0,6.89a3.61,3.61,0,0,1-3.89,3.86c-2.44,0-4.89,0-7.33,0a1.11,1.11,0,0,0-1.11.57,3.94,3.94,0,0,1-4.43,1.7A4,4,0,0,1,0,441.49C0,439.57,0,437.64,0,435.72Zm8.1,5.21h7.65c1.34,0,1.84-.52,1.84-1.89,0-2.21,0-4.42,0-6.63,0-1.35-.52-1.87-1.87-1.88h-7a4.93,4.93,0,0,0-.66.07Z"/><path class="cls-1" d="M86.18,435.77c0,1.84,0,3.68,0,5.52a4.06,4.06,0,0,1-2.9,4,4.11,4.11,0,0,1-4.57-1.78,1.35,1.35,0,0,0-1-.45c-2.38,0-4.77,0-7.15,0-2.68,0-4.09-1.41-4.1-4.08,0-2.21,0-4.43,0-6.64a3.59,3.59,0,0,1,3.92-3.89c2.42,0,4.83,0,7.24,0a1.2,1.2,0,0,0,1.18-.62,3.91,3.91,0,0,1,4.43-1.66A4,4,0,0,1,86.18,430v5.77Zm-8.13,5.15V430.54c-2.72,0-5.38,0-8,0A1.39,1.39,0,0,0,68.6,432c0,2.49,0,5,0,7.48a1.35,1.35,0,0,0,1.33,1.42C72.62,440.94,75.31,440.92,78.05,440.92Z"/><path class="cls-1" d="M66.82,471.45a4,4,0,0,1-3.93-4.8,1.2,1.2,0,0,0-.4-1.26c-1.73-1.68-3.43-3.39-5.13-5.1a3.65,3.65,0,0,1,0-5.61c1.57-1.58,3.15-3.17,4.75-4.74a3.64,3.64,0,0,1,5.6,0q2.61,2.58,5.17,5.19a1,1,0,0,0,1.12.34,3.92,3.92,0,0,1,4.29,1.82,3.82,3.82,0,0,1-.38,4.64c-2.81,2.91-5.67,5.78-8.59,8.57a9.12,9.12,0,0,1-2.41,1.16Zm4.75-14.69c-1.83-1.83-3.66-3.69-5.53-5.51a1.49,1.49,0,0,0-2.35.1q-2.44,2.41-4.87,4.86a1.59,1.59,0,0,0,0,2.6c.9.92,1.83,1.82,2.73,2.74s1.76,1.78,2.59,2.63C66.69,461.67,69.09,459.25,71.57,456.76Z"/><path class="cls-1" d="M7.54,412.18a3.72,3.72,0,0,1,1.08-2.73q4.1-4.14,8.23-8.23A4,4,0,0,1,23.51,405a1,1,0,0,0,.36,1.12c1.74,1.72,3.46,3.44,5.18,5.17a3.65,3.65,0,0,1,0,5.56c-1.61,1.63-3.24,3.26-4.88,4.87a3.61,3.61,0,0,1-5.42,0c-1.76-1.74-3.51-3.48-5.23-5.25a1.15,1.15,0,0,0-1.2-.37A4,4,0,0,1,7.54,412.18Zm7.28,2.62,5.35,5.33a1.63,1.63,0,0,0,2.67,0l4.69-4.69c1-1,1-1.72,0-2.72-1.61-1.63-3.24-3.25-4.86-4.87-.16-.15-.34-.28-.45-.38Z"/><path class="cls-1" d="M78.65,412.2a3.93,3.93,0,0,1-4.75,3.9,1.26,1.26,0,0,0-1.34.44c-1.66,1.7-3.35,3.38-5,5.06a3.66,3.66,0,0,1-5.67,0c-1.59-1.58-3.18-3.17-4.75-4.76a3.62,3.62,0,0,1,0-5.49c1.73-1.75,3.48-3.5,5.24-5.23a1.07,1.07,0,0,0,.35-1.13,3.92,3.92,0,0,1,1.9-4.33,3.86,3.86,0,0,1,4.64.49c2.84,2.76,5.66,5.55,8.39,8.42a9.44,9.44,0,0,1,1.27,2.54ZM64,407.41c-1.86,1.85-3.74,3.7-5.58,5.59a1.45,1.45,0,0,0,.07,2.22q2.51,2.55,5.05,5a1.55,1.55,0,0,0,2.36,0c1.33-1.3,2.63-2.64,4-3.95.52-.51,1.07-1,1.56-1.47Z"/><path class="cls-1" d="M19.3,471.45a3.91,3.91,0,0,1-2.77-1.19c-2.68-2.68-5.36-5.35-8-8a4,4,0,0,1-.68-4.83,4.11,4.11,0,0,1,4.42-1.94,1.32,1.32,0,0,0,1-.33c1.76-1.69,3.46-3.43,5.19-5.15a3.66,3.66,0,0,1,5.67,0q2.29,2.26,4.57,4.56c1.92,1.92,1.93,3.94,0,5.85-1.68,1.69-3.36,3.38-5.07,5a1.14,1.14,0,0,0-.35,1.2A4,4,0,0,1,19.3,471.45Zm2.69-7.3c1.84-1.84,3.7-3.67,5.52-5.53a1.52,1.52,0,0,0-.09-2.35c-1.61-1.64-3.24-3.26-4.87-4.87a1.57,1.57,0,0,0-2.59,0c-1.1,1.09-2.18,2.21-3.29,3.28-.71.69-1.47,1.33-2.16,2Z"/><path class="cls-1" d="M43.13,520.21a20.56,20.56,0,0,1,20.26,18.12c.12,1-.16,1.52-.84,1.62s-1.12-.32-1.23-1.3a18.61,18.61,0,0,0-14.81-16,18.33,18.33,0,1,0,13,26.21c.15-.31.29-.63.46-.93a1,1,0,1,1,1.88.87,6.66,6.66,0,0,1-.39.86,20.42,20.42,0,1,1-18.3-29.43Z"/><path class="cls-1" d="M43.31,497.56c1.87,0,3.73,0,5.6,0a4,4,0,0,1,3.91,2.92A4.07,4.07,0,0,1,51.09,505a1.33,1.33,0,0,0-.51.94c0,2.46,0,4.93,0,7.4a3.59,3.59,0,0,1-3.91,3.91q-3.41,0-6.81,0a3.62,3.62,0,0,1-3.9-3.93q0-3.63,0-7.24a1.17,1.17,0,0,0-.6-1.18,3.93,3.93,0,0,1-1.65-4.44,4,4,0,0,1,3.77-2.88C39.41,497.53,41.36,497.56,43.31,497.56Zm5.13,8.12H38.07c0,2.74,0,5.43,0,8.12a1.35,1.35,0,0,0,1.42,1.33c2.5,0,5,0,7.49,0a1.36,1.36,0,0,0,1.43-1.32C48.46,511.12,48.44,508.43,48.44,505.68Z"/><path class="cls-1" d="M43.2,583.74H37.78a4,4,0,0,1-2.31-7.47,1.25,1.25,0,0,0,.43-.89c0-2.42,0-4.83,0-7.24,0-2.67,1.42-4.08,4.1-4.09h6.46c2.68,0,4.06,1.4,4.06,4.1,0,2.36,0,4.71,0,7.07a1.2,1.2,0,0,0,.62,1.18,3.89,3.89,0,0,1,1.65,4.43,4,4,0,0,1-3.75,2.9c-2,0-3.9,0-5.86,0Zm-5.15-8.14h10.4c0-2.72,0-5.39,0-8.05a1.42,1.42,0,0,0-1.54-1.4c-2.44,0-4.87,0-7.31,0a1.44,1.44,0,0,0-1.52,1.52c0,.63,0,1.26,0,1.89Z"/><path class="cls-1" d="M0,540.47c0-1.83,0-3.67,0-5.51a4,4,0,0,1,2.88-4,4.08,4.08,0,0,1,4.58,1.75,1.36,1.36,0,0,0,1,.49c2.47,0,4.94,0,7.41,0a3.59,3.59,0,0,1,3.87,3.86q0,3.45,0,6.9a3.62,3.62,0,0,1-3.89,3.86c-2.44,0-4.89,0-7.33,0a1.11,1.11,0,0,0-1.11.58,4,4,0,0,1-4.43,1.69A4,4,0,0,1,0,546.25C0,544.32,0,542.4,0,540.47Zm8.1,5.22h7.65c1.34,0,1.84-.51,1.84-1.89,0-2.21,0-4.42,0-6.62,0-1.36-.52-1.88-1.87-1.89h-7c-.22,0-.44.05-.66.07Z"/><path class="cls-1" d="M86.18,540.53c0,1.83,0,3.67,0,5.51a4,4,0,0,1-2.9,4,4.1,4.1,0,0,1-4.57-1.78,1.43,1.43,0,0,0-1-.45c-2.38,0-4.77,0-7.15,0-2.68,0-4.09-1.42-4.1-4.09q0-3.32,0-6.63a3.59,3.59,0,0,1,3.92-3.9c2.42,0,4.83,0,7.24,0a1.17,1.17,0,0,0,1.18-.61,3.92,3.92,0,0,1,4.43-1.67,4,4,0,0,1,2.92,3.83v5.78Zm-8.13,5.14V535.29c-2.72,0-5.38,0-8,0a1.4,1.4,0,0,0-1.41,1.45c0,2.5,0,5,0,7.49a1.36,1.36,0,0,0,1.33,1.42C72.62,545.69,75.31,545.67,78.05,545.67Z"/><path class="cls-1" d="M66.82,576.2a3.94,3.94,0,0,1-3.93-4.79,1.21,1.21,0,0,0-.4-1.27c-1.73-1.68-3.43-3.39-5.13-5.1a3.64,3.64,0,0,1,0-5.6q2.35-2.38,4.75-4.75a3.65,3.65,0,0,1,5.6,0c1.74,1.72,3.46,3.44,5.17,5.18a1,1,0,0,0,1.12.34A3.92,3.92,0,0,1,78.3,562a3.83,3.83,0,0,1-.38,4.65q-4.22,4.37-8.59,8.56a8.83,8.83,0,0,1-2.41,1.16Zm4.75-14.69c-1.83-1.82-3.66-3.68-5.53-5.5a1.49,1.49,0,0,0-2.35.09c-1.63,1.61-3.25,3.24-4.87,4.87a1.59,1.59,0,0,0,0,2.59c.9.92,1.83,1.83,2.73,2.74s1.76,1.79,2.59,2.64Z"/><path class="cls-1" d="M7.54,516.93a3.73,3.73,0,0,1,1.08-2.73c2.73-2.75,5.47-5.51,8.23-8.22a3.94,3.94,0,0,1,4.78-.6,4,4,0,0,1,1.88,4.35,1,1,0,0,0,.36,1.13c1.74,1.71,3.46,3.44,5.18,5.17a3.64,3.64,0,0,1,0,5.55q-2.41,2.46-4.88,4.87a3.6,3.6,0,0,1-5.42,0c-1.76-1.74-3.51-3.48-5.23-5.25a1.16,1.16,0,0,0-1.2-.37A4,4,0,0,1,7.54,516.93Zm7.28,2.63c1.78,1.76,3.56,3.55,5.35,5.32a1.63,1.63,0,0,0,2.67,0c1.57-1.55,3.13-3.12,4.69-4.68,1-1,1-1.72,0-2.73l-4.86-4.87c-.16-.15-.34-.28-.45-.38Z"/><path class="cls-1" d="M78.65,517a3.92,3.92,0,0,1-4.75,3.89,1.28,1.28,0,0,0-1.34.44c-1.66,1.71-3.35,3.39-5,5.07s-3.86,1.77-5.67,0c-1.59-1.58-3.18-3.16-4.75-4.76a3.61,3.61,0,0,1,0-5.48c1.73-1.76,3.48-3.5,5.24-5.24a1.06,1.06,0,0,0,.35-1.13,3.94,3.94,0,0,1,1.9-4.33,3.86,3.86,0,0,1,4.64.49c2.84,2.77,5.66,5.55,8.39,8.43a9.38,9.38,0,0,1,1.27,2.53ZM64,512.16c-1.86,1.86-3.74,3.71-5.58,5.59a1.45,1.45,0,0,0,.07,2.22q2.51,2.55,5.05,5a1.54,1.54,0,0,0,2.36,0c1.33-1.3,2.63-2.63,4-3.94.52-.52,1.07-1,1.56-1.48Z"/><path class="cls-1" d="M19.3,576.2A3.87,3.87,0,0,1,16.53,575c-2.68-2.67-5.36-5.34-8-8a4,4,0,0,1-.68-4.83,4.11,4.11,0,0,1,4.42-1.94,1.35,1.35,0,0,0,1-.32c1.76-1.7,3.46-3.44,5.19-5.16a3.66,3.66,0,0,1,5.67,0l4.57,4.56c1.92,1.92,1.93,4,0,5.85-1.68,1.69-3.36,3.38-5.07,5a1.14,1.14,0,0,0-.35,1.2A4,4,0,0,1,19.3,576.2ZM22,568.91c1.84-1.84,3.7-3.67,5.52-5.54a1.52,1.52,0,0,0-.09-2.35c-1.61-1.63-3.24-3.25-4.87-4.87a1.57,1.57,0,0,0-2.59,0c-1.1,1.08-2.18,2.2-3.29,3.28-.71.69-1.47,1.33-2.16,1.95Z"/><path class="cls-1" d="M43.13,625a20.54,20.54,0,0,1,20.26,18.11c.12,1-.16,1.52-.84,1.62s-1.12-.31-1.23-1.29a18.62,18.62,0,0,0-14.81-16,18.33,18.33,0,1,0,13,26.21c.15-.31.29-.62.46-.93a1,1,0,0,1,1.88.88,8.16,8.16,0,0,1-.39.86A20.42,20.42,0,1,1,43.13,625Z"/><path class="cls-1" d="M43.31,602.31c1.87,0,3.73,0,5.6,0a4,4,0,0,1,3.91,2.92,4.06,4.06,0,0,1-1.73,4.5,1.33,1.33,0,0,0-.51.94c0,2.47,0,4.94,0,7.41A3.6,3.6,0,0,1,46.64,622c-2.27,0-4.54,0-6.81,0a3.63,3.63,0,0,1-3.9-3.94q0-3.62,0-7.24a1.19,1.19,0,0,0-.6-1.18,3.93,3.93,0,0,1-1.65-4.44,4,4,0,0,1,3.77-2.88C39.41,602.29,41.36,602.31,43.31,602.31Zm5.13,8.13H38.07c0,2.74,0,5.43,0,8.12a1.36,1.36,0,0,0,1.42,1.33c2.5,0,5,0,7.49,0a1.37,1.37,0,0,0,1.43-1.33C48.46,615.87,48.44,613.18,48.44,610.44Z"/><path class="cls-1" d="M43.2,688.49H37.78A4,4,0,0,1,35.47,681a1.23,1.23,0,0,0,.43-.89c0-2.41,0-4.82,0-7.24,0-2.67,1.42-4.08,4.1-4.08h6.46c2.68,0,4.06,1.39,4.06,4.1,0,2.35,0,4.71,0,7.06a1.2,1.2,0,0,0,.62,1.18,3.89,3.89,0,0,1,1.65,4.43,4,4,0,0,1-3.75,2.91c-2,0-3.9,0-5.86,0Zm-5.15-8.14h10.4c0-2.72,0-5.38,0-8.05a1.42,1.42,0,0,0-1.54-1.4c-2.44,0-4.87,0-7.31,0a1.42,1.42,0,0,0-1.52,1.51c0,.63,0,1.26,0,1.89Z"/><path class="cls-1" d="M0,645.23c0-1.84,0-3.68,0-5.52a4,4,0,0,1,2.88-4,4.06,4.06,0,0,1,4.58,1.74,1.29,1.29,0,0,0,1,.49c2.47,0,4.94,0,7.41,0a3.58,3.58,0,0,1,3.87,3.86q0,3.44,0,6.89a3.61,3.61,0,0,1-3.89,3.86c-2.44,0-4.89,0-7.33,0a1.11,1.11,0,0,0-1.11.57,4,4,0,0,1-4.43,1.7A4,4,0,0,1,0,651C0,649.08,0,647.15,0,645.23Zm8.1,5.21h7.65c1.34,0,1.84-.52,1.84-1.9,0-2.2,0-4.41,0-6.62,0-1.36-.52-1.88-1.87-1.88h-7a4.93,4.93,0,0,0-.66.07Z"/><path class="cls-1" d="M86.18,645.28c0,1.84,0,3.68,0,5.52a4.06,4.06,0,0,1-2.9,4A4.11,4.11,0,0,1,78.71,653a1.4,1.4,0,0,0-1-.46c-2.38,0-4.77,0-7.15,0-2.68,0-4.09-1.42-4.1-4.08q0-3.33,0-6.64A3.58,3.58,0,0,1,70.41,638c2.42,0,4.83,0,7.24,0a1.2,1.2,0,0,0,1.18-.62,3.93,3.93,0,0,1,4.43-1.67,4,4,0,0,1,2.92,3.84v5.77Zm-8.13,5.14V640.05c-2.72,0-5.38,0-8,0a1.39,1.39,0,0,0-1.41,1.44c0,2.5,0,5,0,7.49a1.36,1.36,0,0,0,1.33,1.42C72.62,650.45,75.31,650.42,78.05,650.42Z"/><path class="cls-1" d="M66.82,681a3.94,3.94,0,0,1-3.93-4.79,1.19,1.19,0,0,0-.4-1.26c-1.73-1.69-3.43-3.39-5.13-5.1a3.65,3.65,0,0,1,0-5.61q2.35-2.38,4.75-4.75a3.65,3.65,0,0,1,5.6,0q2.61,2.58,5.17,5.18A1,1,0,0,0,74,665a3.91,3.91,0,0,1,4.29,1.82,3.82,3.82,0,0,1-.38,4.64q-4.22,4.37-8.59,8.57a8.81,8.81,0,0,1-2.41,1.15Zm4.75-14.68c-1.83-1.83-3.66-3.69-5.53-5.51a1.49,1.49,0,0,0-2.35.09l-4.87,4.87a1.59,1.59,0,0,0,0,2.6c.9.92,1.83,1.82,2.73,2.74s1.76,1.78,2.59,2.63Z"/><path class="cls-1" d="M7.54,621.68A3.75,3.75,0,0,1,8.62,619c2.73-2.75,5.47-5.5,8.23-8.22a4,4,0,0,1,6.66,3.76,1,1,0,0,0,.36,1.12c1.74,1.71,3.46,3.44,5.18,5.17a3.65,3.65,0,0,1,0,5.56c-1.61,1.63-3.24,3.26-4.88,4.87a3.6,3.6,0,0,1-5.42,0c-1.76-1.73-3.51-3.48-5.23-5.24a1.15,1.15,0,0,0-1.2-.37A4,4,0,0,1,7.54,621.68Zm7.28,2.63,5.35,5.33a1.64,1.64,0,0,0,2.67,0l4.69-4.69c1-1,1-1.72,0-2.72-1.61-1.63-3.24-3.25-4.86-4.87a5.39,5.39,0,0,0-.45-.38Z"/><path class="cls-1" d="M78.65,621.71a3.93,3.93,0,0,1-4.75,3.9,1.27,1.27,0,0,0-1.34.43c-1.66,1.71-3.35,3.39-5,5.07a3.66,3.66,0,0,1-5.67,0c-1.59-1.59-3.18-3.17-4.75-4.76a3.62,3.62,0,0,1,0-5.49q2.59-2.64,5.24-5.23a1.07,1.07,0,0,0,.35-1.13,3.94,3.94,0,0,1,1.9-4.34,3.87,3.87,0,0,1,4.64.49c2.84,2.77,5.66,5.56,8.39,8.43a9.3,9.3,0,0,1,1.27,2.54ZM64,616.91c-1.86,1.86-3.74,3.71-5.58,5.6a1.45,1.45,0,0,0,.07,2.22c1.67,1.69,3.35,3.38,5.05,5a1.55,1.55,0,0,0,2.36,0c1.33-1.3,2.63-2.64,4-4,.52-.52,1.07-1,1.56-1.47Z"/><path class="cls-1" d="M19.3,681a3.86,3.86,0,0,1-2.77-1.18c-2.68-2.68-5.36-5.35-8-8a4,4,0,0,1-.68-4.83A4.11,4.11,0,0,1,12.24,665a1.36,1.36,0,0,0,1-.33c1.76-1.69,3.46-3.43,5.19-5.15a3.66,3.66,0,0,1,5.67,0l4.57,4.56c1.92,1.93,1.93,4,0,5.86-1.68,1.69-3.36,3.38-5.07,5a1.13,1.13,0,0,0-.35,1.2A3.94,3.94,0,0,1,19.3,681ZM22,673.66c1.84-1.84,3.7-3.67,5.52-5.53a1.52,1.52,0,0,0-.09-2.35c-1.61-1.64-3.24-3.26-4.87-4.87a1.57,1.57,0,0,0-2.59,0c-1.1,1.09-2.18,2.21-3.29,3.28-.71.69-1.47,1.33-2.16,1.95Z"/><path class="cls-1" d="M165.94,206a20.56,20.56,0,0,1,20.27,18.12c.12,1-.17,1.51-.84,1.62s-1.13-.32-1.24-1.3a18.32,18.32,0,0,0-36.34-.68,18.31,18.31,0,0,0,34.5,10.86c.16-.3.3-.62.46-.92a1,1,0,1,1,1.89.87,6.66,6.66,0,0,1-.39.86A20.43,20.43,0,1,1,165.94,206Z"/><path class="cls-1" d="M166.13,183.3c1.86,0,3.73,0,5.6,0a4,4,0,0,1,3.91,2.92,4.09,4.09,0,0,1-1.73,4.51,1.36,1.36,0,0,0-.52.93c0,2.47,0,4.94,0,7.41a3.6,3.6,0,0,1-3.92,3.91q-3.39,0-6.8,0a3.63,3.63,0,0,1-3.91-3.94q0-3.61,0-7.23a1.21,1.21,0,0,0-.6-1.19,3.91,3.91,0,0,1-1.65-4.43,4,4,0,0,1,3.77-2.88C162.22,183.27,164.17,183.3,166.13,183.3Zm5.12,8.12H160.88c0,2.74,0,5.43,0,8.12a1.35,1.35,0,0,0,1.42,1.33c2.5,0,5,0,7.49,0a1.37,1.37,0,0,0,1.43-1.32C171.28,196.86,171.25,194.17,171.25,191.42Z"/><path class="cls-1" d="M166,269.47h-5.43a4,4,0,0,1-2.31-7.47,1.28,1.28,0,0,0,.44-.9c0-2.41,0-4.82,0-7.23,0-2.68,1.43-4.08,4.1-4.09h6.46c2.68,0,4.06,1.4,4.07,4.1,0,2.36,0,4.71,0,7.07a1.17,1.17,0,0,0,.62,1.17,4,4,0,0,1-2.1,7.34c-1.95,0-3.91,0-5.86,0Zm-5.16-8.14h10.4c0-2.72,0-5.38,0-8a1.42,1.42,0,0,0-1.54-1.4q-3.66,0-7.31,0a1.45,1.45,0,0,0-1.53,1.51c0,.63,0,1.27,0,1.9Z"/><path class="cls-1" d="M122.82,226.21c0-1.84,0-3.67,0-5.51a4,4,0,0,1,2.89-4,4.07,4.07,0,0,1,4.57,1.75,1.4,1.4,0,0,0,.95.49c2.47,0,4.94,0,7.41,0a3.58,3.58,0,0,1,3.87,3.86q0,3.45,0,6.89a3.6,3.6,0,0,1-3.89,3.86q-3.66,0-7.32,0a1.12,1.12,0,0,0-1.11.57,4,4,0,0,1-4.43,1.7,4,4,0,0,1-2.93-3.83C122.8,230.06,122.82,228.14,122.82,226.21Zm8.11,5.22h7.64c1.35,0,1.84-.52,1.85-1.89V222.9c0-1.35-.52-1.87-1.87-1.88-2.32,0-4.64,0-7,0-.21,0-.43,0-.65.07Z"/><path class="cls-1" d="M209,226.27c0,1.83,0,3.67,0,5.51a4,4,0,0,1-7.47,2.24,1.35,1.35,0,0,0-1-.45c-2.38,0-4.76,0-7.15,0-2.67,0-4.09-1.42-4.09-4.09,0-2.21,0-4.42,0-6.63a3.59,3.59,0,0,1,3.92-3.9c2.41,0,4.83,0,7.24,0a1.17,1.17,0,0,0,1.18-.61,3.9,3.9,0,0,1,4.43-1.67,4,4,0,0,1,2.92,3.83v5.78Zm-8.14,5.14V221c-2.71,0-5.37,0-8,0a1.39,1.39,0,0,0-1.4,1.45c0,2.49,0,5,0,7.48a1.35,1.35,0,0,0,1.33,1.43C195.44,231.43,198.12,231.41,200.86,231.41Z"/><path class="cls-1" d="M189.64,261.94a4,4,0,0,1-3.94-4.79,1.18,1.18,0,0,0-.4-1.27c-1.72-1.68-3.42-3.39-5.12-5.1a3.64,3.64,0,0,1,0-5.6c1.58-1.59,3.16-3.18,4.75-4.75a3.65,3.65,0,0,1,5.61,0c1.73,1.72,3.46,3.44,5.17,5.18a1,1,0,0,0,1.12.34,3.93,3.93,0,0,1,4.29,1.82,3.82,3.82,0,0,1-.38,4.64q-4.22,4.38-8.6,8.57a8.62,8.62,0,0,1-2.4,1.16Zm4.74-14.69c-1.83-1.83-3.66-3.68-5.53-5.51a1.48,1.48,0,0,0-2.34.1q-2.44,2.41-4.87,4.86a1.59,1.59,0,0,0,0,2.6l2.74,2.74,2.59,2.64Z"/><path class="cls-1" d="M130.36,202.67a3.68,3.68,0,0,1,1.08-2.73c2.73-2.75,5.46-5.51,8.23-8.23a4,4,0,0,1,6.65,3.76,1.06,1.06,0,0,0,.36,1.12c1.74,1.72,3.47,3.44,5.19,5.18a3.64,3.64,0,0,1,0,5.55c-1.62,1.64-3.24,3.26-4.88,4.87a3.6,3.6,0,0,1-5.42,0c-1.76-1.74-3.51-3.48-5.24-5.25a1.15,1.15,0,0,0-1.2-.37A3.94,3.94,0,0,1,130.36,202.67Zm7.28,2.62c1.77,1.77,3.56,3.56,5.35,5.33a1.63,1.63,0,0,0,2.67,0q2.35-2.34,4.68-4.69c1-1,1-1.71,0-2.72l-4.87-4.87c-.15-.15-.33-.28-.45-.38Z"/><path class="cls-1" d="M201.46,202.69a3.91,3.91,0,0,1-4.74,3.9,1.25,1.25,0,0,0-1.34.44c-1.67,1.7-3.36,3.39-5,5.07a3.66,3.66,0,0,1-5.67,0q-2.39-2.37-4.75-4.76a3.62,3.62,0,0,1,0-5.48q2.61-2.64,5.25-5.24a1,1,0,0,0,.34-1.13,3.94,3.94,0,0,1,1.91-4.33,3.86,3.86,0,0,1,4.64.49c2.84,2.76,5.66,5.55,8.39,8.42a9.88,9.88,0,0,1,1.26,2.54ZM186.8,197.9c-1.85,1.86-3.73,3.7-5.57,5.59a1.44,1.44,0,0,0,.07,2.22c1.66,1.7,3.35,3.38,5,5a1.53,1.53,0,0,0,2.35,0c1.34-1.3,2.64-2.63,4-3.94.52-.52,1.06-1,1.55-1.48Z"/><path class="cls-1" d="M142.12,261.94a3.85,3.85,0,0,1-2.77-1.19c-2.68-2.68-5.37-5.35-8-8a4,4,0,0,1-.68-4.83,4.11,4.11,0,0,1,4.42-1.94,1.36,1.36,0,0,0,1-.32c1.75-1.7,3.46-3.44,5.19-5.16a3.65,3.65,0,0,1,5.66,0c1.53,1.52,3.06,3,4.57,4.56,1.92,1.92,1.93,4,0,5.85-1.69,1.69-3.36,3.38-5.07,5a1.16,1.16,0,0,0-.36,1.2A3.94,3.94,0,0,1,142.12,261.94Zm2.68-7.3c1.84-1.83,3.7-3.67,5.53-5.53a1.52,1.52,0,0,0-.09-2.35c-1.62-1.63-3.24-3.26-4.87-4.87a1.58,1.58,0,0,0-2.6,0c-1.1,1.09-2.17,2.21-3.29,3.29-.71.69-1.47,1.33-2.16,1.94Z"/><path class="cls-1" d="M165.94,310.7a20.57,20.57,0,0,1,20.27,18.12c.12,1-.17,1.52-.84,1.62s-1.13-.32-1.24-1.29a18.32,18.32,0,0,0-36.34-.69,18.32,18.32,0,0,0,34.5,10.87c.16-.31.3-.62.46-.93a1,1,0,0,1,1.89.87,6.66,6.66,0,0,1-.39.86,20.43,20.43,0,1,1-18.31-29.43Z"/><path class="cls-1" d="M166.13,288.05c1.86,0,3.73,0,5.6,0a4,4,0,0,1,3.91,2.93,4.07,4.07,0,0,1-1.73,4.5,1.38,1.38,0,0,0-.52.94c0,2.47,0,4.94,0,7.41a3.61,3.61,0,0,1-3.92,3.91h-6.8a3.63,3.63,0,0,1-3.91-3.94q0-3.62,0-7.24a1.2,1.2,0,0,0-.6-1.18,3.93,3.93,0,0,1-1.65-4.44,4,4,0,0,1,3.77-2.88C162.22,288,164.17,288.05,166.13,288.05Zm5.12,8.13H160.88c0,2.74,0,5.43,0,8.11a1.35,1.35,0,0,0,1.42,1.33c2.5,0,5,0,7.49,0a1.36,1.36,0,0,0,1.43-1.32C171.28,301.61,171.25,298.92,171.25,296.18Z"/><path class="cls-1" d="M166,374.23h-5.43a4,4,0,0,1-2.31-7.48,1.26,1.26,0,0,0,.44-.89c0-2.41,0-4.83,0-7.24,0-2.67,1.43-4.08,4.1-4.08q3.24,0,6.46,0c2.68,0,4.06,1.39,4.07,4.1,0,2.35,0,4.7,0,7.06a1.18,1.18,0,0,0,.62,1.18,3.91,3.91,0,0,1,1.65,4.43,4,4,0,0,1-3.75,2.9c-1.95,0-3.91,0-5.86,0Zm-5.16-8.14h10.4c0-2.72,0-5.38,0-8a1.42,1.42,0,0,0-1.54-1.4q-3.66,0-7.31,0a1.45,1.45,0,0,0-1.53,1.52c0,.63,0,1.26,0,1.89Z"/><path class="cls-1" d="M122.82,331c0-1.84,0-3.68,0-5.52a4,4,0,0,1,2.89-4,4.07,4.07,0,0,1,4.57,1.75,1.36,1.36,0,0,0,.95.49c2.47,0,4.94,0,7.41,0a3.57,3.57,0,0,1,3.87,3.86q0,3.43,0,6.89a3.61,3.61,0,0,1-3.89,3.86c-2.44,0-4.88,0-7.32,0a1.11,1.11,0,0,0-1.11.58,4,4,0,0,1-4.43,1.7,4,4,0,0,1-2.93-3.83C122.8,334.81,122.82,332.89,122.82,331Zm8.11,5.21h7.64c1.35,0,1.84-.52,1.85-1.9v-6.62c0-1.36-.52-1.88-1.87-1.88h-7c-.21,0-.43,0-.65.06Z"/><path class="cls-1" d="M209,331c0,1.84,0,3.68,0,5.51a4,4,0,0,1-7.47,2.24,1.43,1.43,0,0,0-1-.45c-2.38,0-4.76,0-7.15,0-2.67,0-4.09-1.42-4.09-4.09,0-2.21,0-4.42,0-6.63a3.58,3.58,0,0,1,3.92-3.89c2.41,0,4.83,0,7.24,0a1.17,1.17,0,0,0,1.18-.61,3.93,3.93,0,0,1,4.43-1.67,4,4,0,0,1,2.92,3.84V331Zm-8.14,5.14V325.79c-2.71,0-5.37,0-8,0a1.38,1.38,0,0,0-1.4,1.44c0,2.5,0,5,0,7.49a1.35,1.35,0,0,0,1.33,1.42C195.44,336.18,198.12,336.16,200.86,336.16Z"/><path class="cls-1" d="M189.64,366.69a4,4,0,0,1-3.94-4.79,1.16,1.16,0,0,0-.4-1.26c-1.72-1.69-3.42-3.39-5.12-5.1a3.65,3.65,0,0,1,0-5.61q2.37-2.39,4.75-4.75a3.66,3.66,0,0,1,5.61,0c1.73,1.72,3.46,3.44,5.17,5.18a1,1,0,0,0,1.12.35,3.91,3.91,0,0,1,4.29,1.82,3.82,3.82,0,0,1-.38,4.64q-4.22,4.36-8.6,8.56a8.36,8.36,0,0,1-2.4,1.16ZM194.38,352c-1.83-1.83-3.66-3.69-5.53-5.51a1.48,1.48,0,0,0-2.34.09c-1.63,1.61-3.25,3.24-4.87,4.87a1.59,1.59,0,0,0,0,2.6c.91.92,1.83,1.82,2.74,2.73l2.59,2.64Z"/><path class="cls-1" d="M130.36,307.42a3.71,3.71,0,0,1,1.08-2.73c2.73-2.75,5.46-5.5,8.23-8.22a4,4,0,0,1,6.65,3.76,1.07,1.07,0,0,0,.36,1.12c1.74,1.71,3.47,3.44,5.19,5.17a3.64,3.64,0,0,1,0,5.55c-1.62,1.64-3.24,3.26-4.88,4.87a3.59,3.59,0,0,1-5.42,0q-2.64-2.59-5.24-5.24a1.13,1.13,0,0,0-1.2-.37A4,4,0,0,1,130.36,307.42Zm7.28,2.63,5.35,5.33a1.63,1.63,0,0,0,2.67,0q2.35-2.32,4.68-4.68c1-1,1-1.72,0-2.72l-4.87-4.87a3.37,3.37,0,0,0-.45-.38Z"/><path class="cls-1" d="M201.46,307.45a3.92,3.92,0,0,1-4.74,3.9,1.27,1.27,0,0,0-1.34.43c-1.67,1.71-3.36,3.39-5,5.07a3.65,3.65,0,0,1-5.67,0q-2.39-2.37-4.75-4.75a3.63,3.63,0,0,1,0-5.49c1.74-1.76,3.49-3.5,5.25-5.24a1,1,0,0,0,.34-1.12,4,4,0,0,1,1.91-4.34,3.86,3.86,0,0,1,4.64.49c2.84,2.77,5.66,5.56,8.39,8.43a9.57,9.57,0,0,1,1.26,2.54Zm-14.66-4.8c-1.85,1.86-3.73,3.71-5.57,5.6a1.43,1.43,0,0,0,.07,2.21c1.66,1.7,3.35,3.39,5,5.05a1.53,1.53,0,0,0,2.35,0c1.34-1.31,2.64-2.64,4-3.95.52-.52,1.06-1,1.55-1.47Z"/><path class="cls-1" d="M142.12,366.69a3.81,3.81,0,0,1-2.77-1.19c-2.68-2.67-5.37-5.34-8-8a4,4,0,0,1-.68-4.84,4.1,4.1,0,0,1,4.42-1.93,1.37,1.37,0,0,0,1-.33c1.75-1.69,3.46-3.44,5.19-5.15a3.65,3.65,0,0,1,5.66,0c1.53,1.52,3.06,3,4.57,4.56,1.92,1.93,1.93,3.95,0,5.86-1.69,1.68-3.36,3.38-5.07,5a1.14,1.14,0,0,0-.36,1.19A3.94,3.94,0,0,1,142.12,366.69Zm2.68-7.29c1.84-1.84,3.7-3.67,5.53-5.53a1.53,1.53,0,0,0-.09-2.36l-4.87-4.87a1.58,1.58,0,0,0-2.6,0c-1.1,1.09-2.17,2.2-3.29,3.28-.71.69-1.47,1.33-2.16,2Z"/><path class="cls-1" d="M165.94,415.46a20.56,20.56,0,0,1,20.27,18.12c.12,1-.17,1.51-.84,1.62s-1.13-.32-1.24-1.3a18.32,18.32,0,0,0-36.34-.69,18.31,18.31,0,0,0,34.5,10.87c.16-.31.3-.62.46-.92a1,1,0,1,1,1.89.87,6.66,6.66,0,0,1-.39.86,20.43,20.43,0,1,1-18.31-29.43Z"/><path class="cls-1" d="M166.13,392.81c1.86,0,3.73,0,5.6,0a4,4,0,0,1,3.91,2.92,4.09,4.09,0,0,1-1.73,4.51,1.36,1.36,0,0,0-.52.93c0,2.47,0,4.94,0,7.41a3.6,3.6,0,0,1-3.92,3.91q-3.39,0-6.8,0a3.63,3.63,0,0,1-3.91-3.94q0-3.62,0-7.23a1.21,1.21,0,0,0-.6-1.19,3.92,3.92,0,0,1-1.65-4.44,4,4,0,0,1,3.77-2.88C162.22,392.78,164.17,392.81,166.13,392.81Zm5.12,8.12H160.88c0,2.74,0,5.43,0,8.12a1.36,1.36,0,0,0,1.42,1.33c2.5,0,5,0,7.49,0a1.38,1.38,0,0,0,1.43-1.33C171.28,406.37,171.25,403.68,171.25,400.93Z"/><path class="cls-1" d="M166,479h-5.43a4,4,0,0,1-2.31-7.47,1.28,1.28,0,0,0,.44-.9c0-2.41,0-4.82,0-7.23,0-2.68,1.43-4.09,4.1-4.09h6.46c2.68,0,4.06,1.39,4.07,4.1,0,2.35,0,4.71,0,7.06a1.18,1.18,0,0,0,.62,1.18,3.92,3.92,0,0,1,1.65,4.44,4,4,0,0,1-3.75,2.9c-1.95,0-3.91,0-5.86,0Zm-5.16-8.14h10.4c0-2.72,0-5.38,0-8a1.41,1.41,0,0,0-1.54-1.4q-3.66,0-7.31,0a1.45,1.45,0,0,0-1.53,1.51c0,.63,0,1.26,0,1.89Z"/><path class="cls-1" d="M122.82,435.72c0-1.84,0-3.68,0-5.51a4,4,0,0,1,2.89-4,4.07,4.07,0,0,1,4.57,1.75,1.4,1.4,0,0,0,.95.49c2.47,0,4.94,0,7.41,0a3.58,3.58,0,0,1,3.87,3.86c0,2.3,0,4.59,0,6.89a3.61,3.61,0,0,1-3.89,3.86q-3.66,0-7.32,0a1.11,1.11,0,0,0-1.11.57,4,4,0,0,1-4.43,1.7,4,4,0,0,1-2.93-3.83C122.8,439.57,122.82,437.64,122.82,435.72Zm8.11,5.21h7.64c1.35,0,1.84-.52,1.85-1.89v-6.63c0-1.35-.52-1.87-1.87-1.88h-7a5,5,0,0,0-.65.07Z"/><path class="cls-1" d="M209,435.77c0,1.84,0,3.68,0,5.52a4,4,0,0,1-7.47,2.24,1.35,1.35,0,0,0-1-.45c-2.38,0-4.76,0-7.15,0-2.67,0-4.09-1.41-4.09-4.08,0-2.21,0-4.43,0-6.64a3.59,3.59,0,0,1,3.92-3.89c2.41,0,4.83,0,7.24,0a1.2,1.2,0,0,0,1.18-.62,3.91,3.91,0,0,1,4.43-1.66A4,4,0,0,1,209,430v5.77Zm-8.14,5.15V430.54c-2.71,0-5.37,0-8,0a1.39,1.39,0,0,0-1.4,1.45c0,2.49,0,5,0,7.48a1.35,1.35,0,0,0,1.33,1.42C195.44,440.94,198.12,440.92,200.86,440.92Z"/><path class="cls-1" d="M189.64,471.45a4,4,0,0,1-3.94-4.8,1.16,1.16,0,0,0-.4-1.26c-1.72-1.68-3.42-3.39-5.12-5.1a3.65,3.65,0,0,1,0-5.61c1.58-1.58,3.16-3.17,4.75-4.74a3.65,3.65,0,0,1,5.61,0c1.73,1.72,3.46,3.45,5.17,5.19a1,1,0,0,0,1.12.34,3.93,3.93,0,0,1,4.29,1.82,3.82,3.82,0,0,1-.38,4.64c-2.81,2.91-5.67,5.78-8.6,8.57a8.91,8.91,0,0,1-2.4,1.16Zm4.74-14.69c-1.83-1.83-3.66-3.69-5.53-5.51a1.48,1.48,0,0,0-2.34.1q-2.44,2.41-4.87,4.86a1.59,1.59,0,0,0,0,2.6l2.74,2.74,2.59,2.63Z"/><path class="cls-1" d="M130.36,412.18a3.68,3.68,0,0,1,1.08-2.73c2.73-2.76,5.46-5.51,8.23-8.23a4,4,0,0,1,6.65,3.76,1.07,1.07,0,0,0,.36,1.12q2.61,2.58,5.19,5.17a3.65,3.65,0,0,1,0,5.56c-1.62,1.63-3.24,3.26-4.88,4.87a3.61,3.61,0,0,1-5.42,0c-1.76-1.74-3.51-3.48-5.24-5.25a1.13,1.13,0,0,0-1.2-.37A3.94,3.94,0,0,1,130.36,412.18Zm7.28,2.62,5.35,5.33a1.63,1.63,0,0,0,2.67,0q2.35-2.34,4.68-4.69c1-1,1-1.72,0-2.72l-4.87-4.87c-.15-.15-.33-.28-.45-.38Z"/><path class="cls-1" d="M201.46,412.2a3.92,3.92,0,0,1-4.74,3.9,1.25,1.25,0,0,0-1.34.44c-1.67,1.7-3.36,3.38-5,5.06a3.66,3.66,0,0,1-5.67,0q-2.39-2.37-4.75-4.76a3.63,3.63,0,0,1,0-5.49c1.74-1.75,3.49-3.5,5.25-5.23a1,1,0,0,0,.34-1.13,3.93,3.93,0,0,1,1.91-4.33,3.86,3.86,0,0,1,4.64.49c2.84,2.76,5.66,5.55,8.39,8.42a9.72,9.72,0,0,1,1.26,2.54Zm-14.66-4.79c-1.85,1.85-3.73,3.7-5.57,5.59a1.44,1.44,0,0,0,.07,2.22c1.66,1.7,3.35,3.38,5,5a1.53,1.53,0,0,0,2.35,0c1.34-1.3,2.64-2.64,4-3.95.52-.51,1.06-1,1.55-1.47Z"/><path class="cls-1" d="M142.12,471.45a3.89,3.89,0,0,1-2.77-1.19c-2.68-2.68-5.37-5.35-8-8a4,4,0,0,1-.68-4.83,4.11,4.11,0,0,1,4.42-1.94,1.33,1.33,0,0,0,1-.33c1.75-1.69,3.46-3.43,5.19-5.15a3.65,3.65,0,0,1,5.66,0c1.53,1.51,3.06,3,4.57,4.56,1.92,1.92,1.93,3.94,0,5.85-1.69,1.69-3.36,3.38-5.07,5a1.16,1.16,0,0,0-.36,1.2A3.94,3.94,0,0,1,142.12,471.45Zm2.68-7.3c1.84-1.84,3.7-3.67,5.53-5.53a1.52,1.52,0,0,0-.09-2.35q-2.43-2.46-4.87-4.87a1.58,1.58,0,0,0-2.6,0c-1.1,1.09-2.17,2.21-3.29,3.28-.71.69-1.47,1.33-2.16,2Z"/><path class="cls-1" d="M165.94,520.21a20.57,20.57,0,0,1,20.27,18.12c.12,1-.17,1.52-.84,1.62s-1.13-.32-1.24-1.3a18.59,18.59,0,0,0-14.8-16,18.33,18.33,0,1,0,13,26.21c.16-.31.3-.63.46-.93a1,1,0,0,1,1.89.87,6.66,6.66,0,0,1-.39.86,20.43,20.43,0,1,1-18.31-29.43Z"/><path class="cls-1" d="M166.13,497.56c1.86,0,3.73,0,5.6,0a4,4,0,0,1,3.91,2.92,4.08,4.08,0,0,1-1.73,4.51,1.38,1.38,0,0,0-.52.94c0,2.46,0,4.93,0,7.4a3.6,3.6,0,0,1-3.92,3.91q-3.39,0-6.8,0a3.63,3.63,0,0,1-3.91-3.93q0-3.63,0-7.24a1.19,1.19,0,0,0-.6-1.18,3.93,3.93,0,0,1-1.65-4.44,4,4,0,0,1,3.77-2.88C162.22,497.53,164.17,497.56,166.13,497.56Zm5.12,8.12H160.88c0,2.74,0,5.43,0,8.12a1.35,1.35,0,0,0,1.42,1.33c2.5,0,5,0,7.49,0a1.37,1.37,0,0,0,1.43-1.32C171.28,511.12,171.25,508.43,171.25,505.68Z"/><path class="cls-1" d="M166,583.74h-5.43a4,4,0,0,1-2.31-7.47,1.26,1.26,0,0,0,.44-.89c0-2.42,0-4.83,0-7.24,0-2.67,1.43-4.08,4.1-4.09h6.46c2.68,0,4.06,1.4,4.07,4.1,0,2.36,0,4.71,0,7.07a1.18,1.18,0,0,0,.62,1.18,3.91,3.91,0,0,1,1.65,4.43,4,4,0,0,1-3.75,2.9c-1.95,0-3.91,0-5.86,0Zm-5.16-8.14h10.4c0-2.72,0-5.39,0-8.05a1.42,1.42,0,0,0-1.54-1.4q-3.66,0-7.31,0a1.45,1.45,0,0,0-1.53,1.52c0,.63,0,1.26,0,1.89Z"/><path class="cls-1" d="M122.82,540.47c0-1.83,0-3.67,0-5.51a4,4,0,0,1,2.89-4,4.07,4.07,0,0,1,4.57,1.75,1.4,1.4,0,0,0,.95.49c2.47,0,4.94,0,7.41,0a3.58,3.58,0,0,1,3.87,3.86q0,3.45,0,6.9a3.61,3.61,0,0,1-3.89,3.86q-3.66,0-7.32,0a1.11,1.11,0,0,0-1.11.58,4,4,0,0,1-4.43,1.69,4,4,0,0,1-2.93-3.82C122.8,544.32,122.82,542.4,122.82,540.47Zm8.11,5.22h7.64c1.35,0,1.84-.51,1.85-1.89v-6.62c0-1.36-.52-1.88-1.87-1.89h-7c-.21,0-.43.05-.65.07Z"/><path class="cls-1" d="M209,540.53c0,1.83,0,3.67,0,5.51a4,4,0,0,1-7.47,2.24,1.43,1.43,0,0,0-1-.45c-2.38,0-4.76,0-7.15,0-2.67,0-4.09-1.42-4.09-4.09,0-2.21,0-4.42,0-6.63a3.59,3.59,0,0,1,3.92-3.9c2.41,0,4.83,0,7.24,0a1.17,1.17,0,0,0,1.18-.61,3.91,3.91,0,0,1,4.43-1.67,4,4,0,0,1,2.92,3.83v5.78Zm-8.14,5.14V535.29c-2.71,0-5.37,0-8,0a1.39,1.39,0,0,0-1.4,1.45c0,2.5,0,5,0,7.49a1.35,1.35,0,0,0,1.33,1.42C195.44,545.69,198.12,545.67,200.86,545.67Z"/><path class="cls-1" d="M189.64,576.2a4,4,0,0,1-3.94-4.79,1.18,1.18,0,0,0-.4-1.27c-1.72-1.68-3.42-3.39-5.12-5.1a3.64,3.64,0,0,1,0-5.6q2.37-2.38,4.75-4.75a3.66,3.66,0,0,1,5.61,0c1.73,1.72,3.46,3.44,5.17,5.18a1,1,0,0,0,1.12.34,3.93,3.93,0,0,1,4.29,1.82,3.83,3.83,0,0,1-.38,4.65q-4.22,4.37-8.6,8.56a8.62,8.62,0,0,1-2.4,1.16Zm4.74-14.69c-1.83-1.82-3.66-3.68-5.53-5.5a1.48,1.48,0,0,0-2.34.09c-1.63,1.61-3.25,3.24-4.87,4.87a1.59,1.59,0,0,0,0,2.59l2.74,2.74,2.59,2.64Z"/><path class="cls-1" d="M130.36,516.93a3.69,3.69,0,0,1,1.08-2.73c2.73-2.75,5.46-5.51,8.23-8.22a4,4,0,0,1,6.65,3.75,1.08,1.08,0,0,0,.36,1.13c1.74,1.71,3.47,3.44,5.19,5.17a3.64,3.64,0,0,1,0,5.55c-1.62,1.64-3.24,3.26-4.88,4.87a3.6,3.6,0,0,1-5.42,0c-1.76-1.74-3.51-3.48-5.24-5.25a1.15,1.15,0,0,0-1.2-.37A3.94,3.94,0,0,1,130.36,516.93Zm7.28,2.63,5.35,5.32a1.63,1.63,0,0,0,2.67,0c1.57-1.55,3.13-3.12,4.68-4.68,1-1,1-1.72,0-2.73l-4.87-4.87c-.15-.15-.33-.28-.45-.38Z"/><path class="cls-1" d="M201.46,517a3.91,3.91,0,0,1-4.74,3.89,1.27,1.27,0,0,0-1.34.44c-1.67,1.71-3.36,3.39-5,5.07s-3.86,1.77-5.67,0c-1.59-1.58-3.17-3.16-4.75-4.76a3.62,3.62,0,0,1,0-5.48c1.74-1.76,3.49-3.5,5.25-5.24a1,1,0,0,0,.34-1.13,3.94,3.94,0,0,1,1.91-4.33,3.86,3.86,0,0,1,4.64.49c2.84,2.77,5.66,5.55,8.39,8.43a9.66,9.66,0,0,1,1.26,2.53Zm-14.66-4.8c-1.85,1.86-3.73,3.71-5.57,5.59a1.44,1.44,0,0,0,.07,2.22c1.66,1.7,3.35,3.38,5,5a1.53,1.53,0,0,0,2.35,0c1.34-1.3,2.64-2.63,4-3.94.52-.52,1.06-1,1.55-1.48Z"/><path class="cls-1" d="M142.12,576.2a3.85,3.85,0,0,1-2.77-1.19c-2.68-2.67-5.37-5.34-8-8a4,4,0,0,1-.68-4.83,4.11,4.11,0,0,1,4.42-1.94,1.36,1.36,0,0,0,1-.32c1.75-1.7,3.46-3.44,5.19-5.16a3.65,3.65,0,0,1,5.66,0c1.53,1.52,3.06,3,4.57,4.56,1.92,1.92,1.93,4,0,5.85-1.69,1.69-3.36,3.38-5.07,5a1.16,1.16,0,0,0-.36,1.2A3.94,3.94,0,0,1,142.12,576.2Zm2.68-7.29c1.84-1.84,3.7-3.67,5.53-5.54a1.52,1.52,0,0,0-.09-2.35l-4.87-4.87a1.58,1.58,0,0,0-2.6,0c-1.1,1.08-2.17,2.2-3.29,3.28-.71.69-1.47,1.33-2.16,1.95Z"/><path class="cls-1" d="M165.94,625a20.55,20.55,0,0,1,20.27,18.11c.12,1-.17,1.52-.84,1.62s-1.13-.31-1.24-1.29a18.32,18.32,0,0,0-36.34-.69,18.32,18.32,0,0,0,34.5,10.87c.16-.31.3-.62.46-.93a1,1,0,0,1,1.89.88,8.16,8.16,0,0,1-.39.86A20.43,20.43,0,1,1,165.94,625Z"/><path class="cls-1" d="M166.13,602.31c1.86,0,3.73,0,5.6,0a4,4,0,0,1,3.91,2.92,4.07,4.07,0,0,1-1.73,4.5,1.38,1.38,0,0,0-.52.94c0,2.47,0,4.94,0,7.41a3.61,3.61,0,0,1-3.92,3.91c-2.26,0-4.53,0-6.8,0a3.63,3.63,0,0,1-3.91-3.94q0-3.62,0-7.24a1.21,1.21,0,0,0-.6-1.18,3.93,3.93,0,0,1-1.65-4.44,4,4,0,0,1,3.77-2.88C162.22,602.29,164.17,602.31,166.13,602.31Zm5.12,8.13H160.88c0,2.74,0,5.43,0,8.12a1.36,1.36,0,0,0,1.42,1.33c2.5,0,5,0,7.49,0a1.38,1.38,0,0,0,1.43-1.33C171.28,615.87,171.25,613.18,171.25,610.44Z"/><path class="cls-1" d="M166,688.49h-5.43a4,4,0,0,1-2.31-7.48,1.24,1.24,0,0,0,.44-.89c0-2.41,0-4.82,0-7.24,0-2.67,1.43-4.08,4.1-4.08h6.46c2.68,0,4.06,1.39,4.07,4.1,0,2.35,0,4.71,0,7.06a1.18,1.18,0,0,0,.62,1.18,3.91,3.91,0,0,1,1.65,4.43,4,4,0,0,1-3.75,2.91c-1.95,0-3.91,0-5.86,0Zm-5.16-8.14h10.4c0-2.72,0-5.38,0-8.05a1.42,1.42,0,0,0-1.54-1.4c-2.44,0-4.88,0-7.31,0a1.44,1.44,0,0,0-1.53,1.51c0,.63,0,1.26,0,1.89Z"/><path class="cls-1" d="M122.82,645.23c0-1.84,0-3.68,0-5.52a4,4,0,0,1,2.89-4,4.05,4.05,0,0,1,4.57,1.74,1.33,1.33,0,0,0,.95.49c2.47,0,4.94,0,7.41,0a3.58,3.58,0,0,1,3.87,3.86q0,3.44,0,6.89a3.61,3.61,0,0,1-3.89,3.86c-2.44,0-4.88,0-7.32,0a1.11,1.11,0,0,0-1.11.57,4,4,0,0,1-4.43,1.7,4,4,0,0,1-2.93-3.83C122.8,649.08,122.82,647.15,122.82,645.23Zm8.11,5.21h7.64c1.35,0,1.84-.52,1.85-1.9v-6.62c0-1.36-.52-1.88-1.87-1.88h-7a5,5,0,0,0-.65.07Z"/><path class="cls-1" d="M209,645.28c0,1.84,0,3.68,0,5.52a4,4,0,0,1-7.47,2.24,1.4,1.4,0,0,0-1-.46c-2.38,0-4.76,0-7.15,0-2.67,0-4.09-1.42-4.09-4.08,0-2.22,0-4.43,0-6.64a3.58,3.58,0,0,1,3.92-3.89c2.41,0,4.83,0,7.24,0a1.2,1.2,0,0,0,1.18-.62,3.93,3.93,0,0,1,4.43-1.67,4,4,0,0,1,2.92,3.84v5.77Zm-8.14,5.14V640.05c-2.71,0-5.37,0-8,0a1.38,1.38,0,0,0-1.4,1.44c0,2.5,0,5,0,7.49a1.35,1.35,0,0,0,1.33,1.42C195.44,650.45,198.12,650.42,200.86,650.42Z"/><path class="cls-1" d="M189.64,681a4,4,0,0,1-3.94-4.79,1.16,1.16,0,0,0-.4-1.26c-1.72-1.69-3.42-3.39-5.12-5.1a3.65,3.65,0,0,1,0-5.61q2.37-2.38,4.75-4.75a3.66,3.66,0,0,1,5.61,0c1.73,1.72,3.46,3.45,5.17,5.18a1,1,0,0,0,1.12.35,3.92,3.92,0,0,1,4.29,1.82,3.82,3.82,0,0,1-.38,4.64q-4.22,4.37-8.6,8.57a8.61,8.61,0,0,1-2.4,1.15Zm4.74-14.68c-1.83-1.83-3.66-3.69-5.53-5.51a1.48,1.48,0,0,0-2.34.09l-4.87,4.87a1.59,1.59,0,0,0,0,2.6l2.74,2.74c.88.88,1.75,1.78,2.59,2.63Z"/><path class="cls-1" d="M130.36,621.68a3.71,3.71,0,0,1,1.08-2.73c2.73-2.75,5.46-5.5,8.23-8.22a4,4,0,0,1,6.65,3.76,1.07,1.07,0,0,0,.36,1.12c1.74,1.71,3.47,3.44,5.19,5.17a3.65,3.65,0,0,1,0,5.56c-1.62,1.63-3.24,3.26-4.88,4.87a3.6,3.6,0,0,1-5.42,0q-2.64-2.6-5.24-5.24a1.13,1.13,0,0,0-1.2-.37A4,4,0,0,1,130.36,621.68Zm7.28,2.63,5.35,5.33a1.64,1.64,0,0,0,2.67,0q2.35-2.34,4.68-4.69c1-1,1-1.72,0-2.72l-4.87-4.87A3.37,3.37,0,0,0,145,617Z"/><path class="cls-1" d="M201.46,621.71a3.92,3.92,0,0,1-4.74,3.9,1.27,1.27,0,0,0-1.34.43c-1.67,1.71-3.36,3.39-5,5.07a3.66,3.66,0,0,1-5.67,0l-4.75-4.76a3.63,3.63,0,0,1,0-5.49q2.61-2.64,5.25-5.23a1,1,0,0,0,.34-1.13,4,4,0,0,1,1.91-4.34,3.87,3.87,0,0,1,4.64.49c2.84,2.77,5.66,5.56,8.39,8.43a9.57,9.57,0,0,1,1.26,2.54Zm-14.66-4.8c-1.85,1.86-3.73,3.71-5.57,5.6a1.44,1.44,0,0,0,.07,2.22c1.66,1.69,3.35,3.38,5,5a1.54,1.54,0,0,0,2.35,0c1.34-1.3,2.64-2.64,4-4,.52-.52,1.06-1,1.55-1.47Z"/><path class="cls-1" d="M142.12,681a3.84,3.84,0,0,1-2.77-1.18c-2.68-2.68-5.37-5.35-8-8a4,4,0,0,1-.68-4.83,4.11,4.11,0,0,1,4.42-1.94,1.37,1.37,0,0,0,1-.33c1.75-1.69,3.46-3.43,5.19-5.15a3.65,3.65,0,0,1,5.66,0c1.53,1.52,3.06,3,4.57,4.56,1.92,1.93,1.93,4,0,5.86-1.69,1.69-3.36,3.38-5.07,5a1.15,1.15,0,0,0-.36,1.2A3.93,3.93,0,0,1,142.12,681Zm2.68-7.29c1.84-1.84,3.7-3.67,5.53-5.53a1.52,1.52,0,0,0-.09-2.35q-2.43-2.46-4.87-4.87a1.58,1.58,0,0,0-2.6,0c-1.1,1.09-2.17,2.21-3.29,3.28-.71.69-1.47,1.33-2.16,1.95Z"/><path class="cls-1" d="M360.78,206a20.57,20.57,0,0,1,20.27,18.12q.17,1.45-.84,1.62c-.69.1-1.13-.32-1.24-1.3a18.58,18.58,0,0,0-14.8-16,18.33,18.33,0,1,0,13,26.2c.15-.3.3-.62.46-.92a1,1,0,1,1,1.89.87,6.72,6.72,0,0,1-.4.86A20.42,20.42,0,1,1,360.78,206Z"/><path class="cls-1" d="M361,183.3c1.87,0,3.74,0,5.6,0a4,4,0,0,1,3.91,2.92,4.06,4.06,0,0,1-1.73,4.51,1.38,1.38,0,0,0-.51.93c0,2.47,0,4.94,0,7.41a3.6,3.6,0,0,1-3.92,3.91q-3.41,0-6.8,0a3.63,3.63,0,0,1-3.91-3.94c0-2.41,0-4.82,0-7.23a1.2,1.2,0,0,0-.61-1.19,3.91,3.91,0,0,1-1.65-4.43,4,4,0,0,1,3.78-2.88C357.06,183.27,359,183.3,361,183.3Zm5.13,8.12H355.72c0,2.74,0,5.43,0,8.12a1.35,1.35,0,0,0,1.42,1.33c2.49,0,5,0,7.48,0a1.37,1.37,0,0,0,1.44-1.32C366.11,196.86,366.09,194.17,366.09,191.42Z"/><path class="cls-1" d="M360.86,269.47h-5.43a4,4,0,0,1-2.31-7.47,1.32,1.32,0,0,0,.44-.9c0-2.41,0-4.82,0-7.23,0-2.68,1.42-4.08,4.1-4.09h6.46c2.68,0,4.06,1.4,4.07,4.1,0,2.36,0,4.71,0,7.07a1.17,1.17,0,0,0,.61,1.17,4,4,0,0,1-2.09,7.34c-2,0-3.91,0-5.86,0Zm-5.16-8.14h10.4c0-2.72,0-5.38,0-8a1.42,1.42,0,0,0-1.54-1.4q-3.66,0-7.32,0a1.45,1.45,0,0,0-1.52,1.51c0,.63,0,1.27,0,1.9Z"/><path class="cls-1" d="M317.66,226.21c0-1.84,0-3.67,0-5.51a4,4,0,0,1,2.89-4,4.07,4.07,0,0,1,4.57,1.75,1.38,1.38,0,0,0,.95.49c2.47,0,4.94,0,7.41,0a3.59,3.59,0,0,1,3.87,3.86q0,3.45,0,6.89a3.6,3.6,0,0,1-3.89,3.86q-3.66,0-7.32,0a1.15,1.15,0,0,0-1.12.57,3.93,3.93,0,0,1-4.42,1.7,4,4,0,0,1-2.93-3.83C317.64,230.06,317.66,228.14,317.66,226.21Zm8.11,5.22h7.64c1.34,0,1.84-.52,1.84-1.89q0-3.32,0-6.63c0-1.35-.51-1.87-1.86-1.88-2.32,0-4.65,0-7,0-.22,0-.43,0-.65.07Z"/><path class="cls-1" d="M403.84,226.27c0,1.83,0,3.67,0,5.51a4,4,0,0,1-2.9,4,4.1,4.1,0,0,1-4.57-1.78,1.33,1.33,0,0,0-1-.45c-2.38,0-4.77,0-7.15,0-2.68,0-4.09-1.42-4.1-4.09,0-2.21,0-4.42,0-6.63a3.6,3.6,0,0,1,3.93-3.9q3.62,0,7.24,0a1.17,1.17,0,0,0,1.17-.61,3.92,3.92,0,0,1,4.44-1.67,4,4,0,0,1,2.91,3.83,1,1,0,0,1,0,.17Zm-8.14,5.14V221c-2.72,0-5.38,0-8,0a1.39,1.39,0,0,0-1.4,1.45c0,2.49,0,5,0,7.48a1.35,1.35,0,0,0,1.32,1.43C390.27,231.43,393,231.41,395.7,231.41Z"/><path class="cls-1" d="M384.47,261.94a4,4,0,0,1-3.93-4.79,1.21,1.21,0,0,0-.4-1.27c-1.73-1.68-3.43-3.39-5.13-5.1a3.65,3.65,0,0,1,0-5.6c1.58-1.59,3.16-3.18,4.75-4.75a3.65,3.65,0,0,1,5.61,0c1.73,1.72,3.45,3.44,5.16,5.18a1,1,0,0,0,1.13.34,3.93,3.93,0,0,1,4.29,1.82,3.85,3.85,0,0,1-.38,4.64q-4.21,4.38-8.6,8.57a8.69,8.69,0,0,1-2.41,1.16Zm4.75-14.69c-1.83-1.83-3.66-3.68-5.53-5.51a1.48,1.48,0,0,0-2.34.1q-2.46,2.41-4.87,4.86a1.59,1.59,0,0,0,0,2.6l2.74,2.74c.88.89,1.75,1.79,2.58,2.64Z"/><path class="cls-1" d="M325.2,202.67a3.64,3.64,0,0,1,1.08-2.73c2.73-2.75,5.46-5.51,8.22-8.23a4,4,0,0,1,6.66,3.76,1,1,0,0,0,.36,1.12c1.74,1.72,3.47,3.44,5.19,5.18a3.65,3.65,0,0,1,0,5.55q-2.43,2.46-4.88,4.87a3.61,3.61,0,0,1-5.43,0c-1.75-1.74-3.5-3.48-5.23-5.25a1.15,1.15,0,0,0-1.2-.37A3.94,3.94,0,0,1,325.2,202.67Zm7.28,2.62c1.77,1.77,3.55,3.56,5.35,5.33a1.63,1.63,0,0,0,2.67,0c1.56-1.56,3.13-3.12,4.68-4.69,1-1,1-1.71,0-2.72l-4.87-4.87c-.16-.15-.33-.28-.45-.38Z"/><path class="cls-1" d="M396.3,202.69a3.92,3.92,0,0,1-4.75,3.9,1.24,1.24,0,0,0-1.33.44c-1.67,1.7-3.36,3.39-5.05,5.07a3.66,3.66,0,0,1-5.67,0q-2.38-2.37-4.75-4.76a3.62,3.62,0,0,1,0-5.48q2.61-2.64,5.25-5.24a1.06,1.06,0,0,0,.34-1.13,3.92,3.92,0,0,1,1.91-4.33,3.86,3.86,0,0,1,4.64.49c2.84,2.76,5.66,5.55,8.39,8.42a9.88,9.88,0,0,1,1.26,2.54Zm-14.66-4.79c-1.85,1.86-3.74,3.7-5.57,5.59a1.45,1.45,0,0,0,.06,2.22q2.5,2.55,5.05,5a1.54,1.54,0,0,0,2.36,0c1.33-1.3,2.64-2.63,4-3.94.53-.52,1.07-1,1.56-1.48Z"/><path class="cls-1" d="M337,261.94a3.85,3.85,0,0,1-2.77-1.19c-2.68-2.68-5.37-5.35-8-8a4,4,0,0,1-.68-4.83,4.11,4.11,0,0,1,4.42-1.94,1.38,1.38,0,0,0,1-.32c1.75-1.7,3.46-3.44,5.19-5.16a3.65,3.65,0,0,1,5.66,0l4.57,4.56c1.92,1.92,1.93,4,0,5.85-1.68,1.69-3.35,3.38-5.06,5a1.12,1.12,0,0,0-.36,1.2A3.94,3.94,0,0,1,337,261.94Zm2.68-7.3c1.84-1.83,3.7-3.67,5.53-5.53a1.52,1.52,0,0,0-.1-2.35c-1.61-1.63-3.23-3.26-4.86-4.87a1.58,1.58,0,0,0-2.6,0c-1.1,1.09-2.18,2.21-3.29,3.29-.71.69-1.47,1.33-2.16,1.94Z"/><path class="cls-1" d="M360.78,310.7a20.58,20.58,0,0,1,20.27,18.12c.11,1-.17,1.52-.84,1.62s-1.13-.32-1.24-1.29a18.61,18.61,0,0,0-14.8-16,18.33,18.33,0,1,0,13,26.21c.15-.31.3-.62.46-.93a1,1,0,0,1,1.89.87,6.72,6.72,0,0,1-.4.86,20.42,20.42,0,1,1-18.3-29.43Z"/><path class="cls-1" d="M361,288.05c1.87,0,3.74,0,5.6,0a4,4,0,0,1,3.91,2.93,4,4,0,0,1-1.73,4.5,1.41,1.41,0,0,0-.51.94c0,2.47,0,4.94,0,7.41a3.61,3.61,0,0,1-3.92,3.91h-6.8a3.63,3.63,0,0,1-3.91-3.94c0-2.41,0-4.82,0-7.24a1.19,1.19,0,0,0-.61-1.18,3.93,3.93,0,0,1-1.65-4.44,4,4,0,0,1,3.78-2.88C357.06,288,359,288.05,361,288.05Zm5.13,8.13H355.72c0,2.74,0,5.43,0,8.11a1.35,1.35,0,0,0,1.42,1.33c2.49,0,5,0,7.48,0a1.37,1.37,0,0,0,1.44-1.32C366.11,301.61,366.09,298.92,366.09,296.18Z"/><path class="cls-1" d="M360.86,374.23h-5.43a4,4,0,0,1-2.31-7.48,1.29,1.29,0,0,0,.44-.89c0-2.41,0-4.83,0-7.24,0-2.67,1.42-4.08,4.1-4.08,2.15,0,4.31,0,6.46,0,2.68,0,4.06,1.39,4.07,4.1,0,2.35,0,4.7,0,7.06a1.17,1.17,0,0,0,.61,1.18,3.91,3.91,0,0,1,1.66,4.43,4,4,0,0,1-3.75,2.9c-2,0-3.91,0-5.86,0Zm-5.16-8.14h10.4c0-2.72,0-5.38,0-8a1.42,1.42,0,0,0-1.54-1.4q-3.66,0-7.32,0a1.45,1.45,0,0,0-1.52,1.52c0,.63,0,1.26,0,1.89Z"/><path class="cls-1" d="M317.66,331c0-1.84,0-3.68,0-5.52a4,4,0,0,1,2.89-4,4.07,4.07,0,0,1,4.57,1.75,1.35,1.35,0,0,0,.95.49c2.47,0,4.94,0,7.41,0a3.58,3.58,0,0,1,3.87,3.86q0,3.43,0,6.89a3.61,3.61,0,0,1-3.89,3.86c-2.44,0-4.88,0-7.32,0a1.14,1.14,0,0,0-1.12.58,4,4,0,0,1-4.42,1.7,4,4,0,0,1-2.93-3.83C317.64,334.81,317.66,332.89,317.66,331Zm8.11,5.21h7.64c1.34,0,1.84-.52,1.84-1.9,0-2.21,0-4.41,0-6.62,0-1.36-.51-1.88-1.86-1.88h-7c-.22,0-.43,0-.65.06Z"/><path class="cls-1" d="M403.84,331c0,1.84,0,3.68,0,5.51a4.06,4.06,0,0,1-2.9,4,4.11,4.11,0,0,1-4.57-1.79,1.41,1.41,0,0,0-1-.45c-2.38,0-4.77,0-7.15,0-2.68,0-4.09-1.42-4.1-4.09,0-2.21,0-4.42,0-6.63a3.6,3.6,0,0,1,3.93-3.89c2.41,0,4.82,0,7.24,0a1.17,1.17,0,0,0,1.17-.61,4,4,0,0,1,4.44-1.67,4,4,0,0,1,2.91,3.84.91.91,0,0,1,0,.17Zm-8.14,5.14V325.79c-2.72,0-5.38,0-8,0a1.38,1.38,0,0,0-1.4,1.44c0,2.5,0,5,0,7.49a1.35,1.35,0,0,0,1.32,1.42C390.27,336.18,393,336.16,395.7,336.16Z"/><path class="cls-1" d="M384.47,366.69a3.94,3.94,0,0,1-3.93-4.79,1.19,1.19,0,0,0-.4-1.26c-1.73-1.69-3.43-3.39-5.13-5.1a3.66,3.66,0,0,1,0-5.61l4.75-4.75a3.66,3.66,0,0,1,5.61,0c1.73,1.72,3.45,3.44,5.16,5.18a1,1,0,0,0,1.13.35,3.91,3.91,0,0,1,4.29,1.82,3.85,3.85,0,0,1-.38,4.64q-4.21,4.36-8.6,8.56a8.42,8.42,0,0,1-2.41,1.16ZM389.22,352c-1.83-1.83-3.66-3.69-5.53-5.51a1.48,1.48,0,0,0-2.34.09c-1.64,1.61-3.26,3.24-4.87,4.87a1.59,1.59,0,0,0,0,2.6c.91.92,1.83,1.82,2.74,2.73s1.75,1.79,2.58,2.64Z"/><path class="cls-1" d="M325.2,307.42a3.67,3.67,0,0,1,1.08-2.73c2.73-2.75,5.46-5.5,8.22-8.22a4,4,0,0,1,6.66,3.76,1.05,1.05,0,0,0,.36,1.12c1.74,1.71,3.47,3.44,5.19,5.17a3.65,3.65,0,0,1,0,5.55q-2.43,2.46-4.88,4.87a3.6,3.6,0,0,1-5.43,0c-1.75-1.73-3.5-3.48-5.23-5.24a1.13,1.13,0,0,0-1.2-.37A4,4,0,0,1,325.2,307.42Zm7.28,2.63q2.65,2.65,5.35,5.33a1.63,1.63,0,0,0,2.67,0c1.56-1.55,3.13-3.11,4.68-4.68,1-1,1-1.72,0-2.72l-4.87-4.87a4.14,4.14,0,0,0-.45-.38Z"/><path class="cls-1" d="M396.3,307.45a3.93,3.93,0,0,1-4.75,3.9,1.26,1.26,0,0,0-1.33.43c-1.67,1.71-3.36,3.39-5.05,5.07a3.65,3.65,0,0,1-5.67,0q-2.38-2.37-4.75-4.75a3.63,3.63,0,0,1,0-5.49c1.74-1.76,3.49-3.5,5.25-5.24a1,1,0,0,0,.34-1.12,3.94,3.94,0,0,1,1.91-4.34,3.86,3.86,0,0,1,4.64.49c2.84,2.77,5.66,5.56,8.39,8.43a9.57,9.57,0,0,1,1.26,2.54Zm-14.66-4.8c-1.85,1.86-3.74,3.71-5.57,5.6a1.44,1.44,0,0,0,.06,2.21c1.67,1.7,3.35,3.39,5.05,5.05a1.55,1.55,0,0,0,2.36,0c1.33-1.31,2.64-2.64,4-3.95.53-.52,1.07-1,1.56-1.47Z"/><path class="cls-1" d="M337,366.69a3.81,3.81,0,0,1-2.77-1.19c-2.68-2.67-5.37-5.34-8-8a4,4,0,0,1-.68-4.84,4.1,4.1,0,0,1,4.42-1.93,1.38,1.38,0,0,0,1-.33c1.75-1.69,3.46-3.44,5.19-5.15a3.65,3.65,0,0,1,5.66,0l4.57,4.56c1.92,1.93,1.93,3.95,0,5.86-1.68,1.68-3.35,3.38-5.06,5a1.11,1.11,0,0,0-.36,1.19A3.94,3.94,0,0,1,337,366.69Zm2.68-7.29c1.84-1.84,3.7-3.67,5.53-5.53a1.53,1.53,0,0,0-.1-2.36q-2.42-2.44-4.86-4.87a1.58,1.58,0,0,0-2.6,0c-1.1,1.09-2.18,2.2-3.29,3.28-.71.69-1.47,1.33-2.16,2Z"/><path class="cls-1" d="M360.78,415.46a20.57,20.57,0,0,1,20.27,18.12q.17,1.46-.84,1.62c-.69.1-1.13-.32-1.24-1.3a18.58,18.58,0,0,0-14.8-16,18.33,18.33,0,1,0,13,26.2c.15-.31.3-.62.46-.92a1,1,0,0,1,1.89.87,6.72,6.72,0,0,1-.4.86,20.42,20.42,0,1,1-18.3-29.43Z"/><path class="cls-1" d="M361,392.81c1.87,0,3.74,0,5.6,0a4,4,0,0,1,3.91,2.92,4.06,4.06,0,0,1-1.73,4.51,1.38,1.38,0,0,0-.51.93c0,2.47,0,4.94,0,7.41a3.6,3.6,0,0,1-3.92,3.91q-3.41,0-6.8,0a3.63,3.63,0,0,1-3.91-3.94c0-2.41,0-4.82,0-7.23a1.2,1.2,0,0,0-.61-1.19,3.92,3.92,0,0,1-1.65-4.44,4,4,0,0,1,3.78-2.88C357.06,392.78,359,392.81,361,392.81Zm5.13,8.12H355.72c0,2.74,0,5.43,0,8.12a1.35,1.35,0,0,0,1.42,1.33c2.49,0,5,0,7.48,0a1.38,1.38,0,0,0,1.44-1.33C366.11,406.37,366.09,403.68,366.09,400.93Z"/><path class="cls-1" d="M360.86,479h-5.43a4,4,0,0,1-2.31-7.47,1.32,1.32,0,0,0,.44-.9c0-2.41,0-4.82,0-7.23,0-2.68,1.42-4.09,4.1-4.09h6.46c2.68,0,4.06,1.39,4.07,4.1,0,2.35,0,4.71,0,7.06a1.17,1.17,0,0,0,.61,1.18,3.92,3.92,0,0,1,1.66,4.44,4,4,0,0,1-3.75,2.9c-2,0-3.91,0-5.86,0Zm-5.16-8.14h10.4c0-2.72,0-5.38,0-8a1.41,1.41,0,0,0-1.54-1.4q-3.66,0-7.32,0a1.45,1.45,0,0,0-1.52,1.51c0,.63,0,1.26,0,1.89Z"/><path class="cls-1" d="M317.66,435.72c0-1.84,0-3.68,0-5.51a4,4,0,0,1,2.89-4,4.07,4.07,0,0,1,4.57,1.75,1.38,1.38,0,0,0,.95.49c2.47,0,4.94,0,7.41,0a3.59,3.59,0,0,1,3.87,3.86c0,2.3,0,4.59,0,6.89a3.61,3.61,0,0,1-3.89,3.86q-3.66,0-7.32,0a1.13,1.13,0,0,0-1.12.57,3.93,3.93,0,0,1-4.42,1.7,4,4,0,0,1-2.93-3.83C317.64,439.57,317.66,437.64,317.66,435.72Zm8.11,5.21h7.64c1.34,0,1.84-.52,1.84-1.89q0-3.32,0-6.63c0-1.35-.51-1.87-1.86-1.88h-7a4.78,4.78,0,0,0-.65.07Z"/><path class="cls-1" d="M403.84,435.77c0,1.84,0,3.68,0,5.52a4.06,4.06,0,0,1-2.9,4,4.12,4.12,0,0,1-4.57-1.78,1.33,1.33,0,0,0-1-.45c-2.38,0-4.77,0-7.15,0-2.68,0-4.09-1.41-4.1-4.08,0-2.21,0-4.43,0-6.64a3.6,3.6,0,0,1,3.93-3.89c2.41,0,4.82,0,7.24,0a1.19,1.19,0,0,0,1.17-.62,3.93,3.93,0,0,1,4.44-1.66,4,4,0,0,1,2.91,3.83,1,1,0,0,1,0,.17Zm-8.14,5.15V430.54c-2.72,0-5.38,0-8,0a1.39,1.39,0,0,0-1.4,1.45c0,2.49,0,5,0,7.48a1.34,1.34,0,0,0,1.32,1.42C390.27,440.94,393,440.92,395.7,440.92Z"/><path class="cls-1" d="M384.47,471.45a4,4,0,0,1-3.93-4.8,1.2,1.2,0,0,0-.4-1.26c-1.73-1.68-3.43-3.39-5.13-5.1a3.66,3.66,0,0,1,0-5.61c1.58-1.58,3.16-3.17,4.75-4.74a3.65,3.65,0,0,1,5.61,0q2.6,2.58,5.16,5.19a1.06,1.06,0,0,0,1.13.34,3.93,3.93,0,0,1,4.29,1.82,3.85,3.85,0,0,1-.38,4.64c-2.81,2.91-5.67,5.78-8.6,8.57a9,9,0,0,1-2.41,1.16Zm4.75-14.69c-1.83-1.83-3.66-3.69-5.53-5.51a1.48,1.48,0,0,0-2.34.1q-2.46,2.41-4.87,4.86a1.59,1.59,0,0,0,0,2.6l2.74,2.74,2.58,2.63C384.34,461.67,386.74,459.25,389.22,456.76Z"/><path class="cls-1" d="M325.2,412.18a3.64,3.64,0,0,1,1.08-2.73c2.73-2.76,5.46-5.51,8.22-8.23a4,4,0,0,1,6.66,3.76,1.05,1.05,0,0,0,.36,1.12q2.61,2.58,5.19,5.17a3.66,3.66,0,0,1,0,5.56c-1.62,1.63-3.25,3.26-4.88,4.87a3.62,3.62,0,0,1-5.43,0c-1.75-1.74-3.5-3.48-5.23-5.25a1.13,1.13,0,0,0-1.2-.37A3.94,3.94,0,0,1,325.2,412.18Zm7.28,2.62q2.65,2.65,5.35,5.33a1.63,1.63,0,0,0,2.67,0c1.56-1.56,3.13-3.12,4.68-4.69,1-1,1-1.72,0-2.72l-4.87-4.87c-.16-.15-.33-.28-.45-.38Z"/><path class="cls-1" d="M396.3,412.2a3.92,3.92,0,0,1-4.75,3.9,1.24,1.24,0,0,0-1.33.44c-1.67,1.7-3.36,3.38-5.05,5.06a3.66,3.66,0,0,1-5.67,0q-2.38-2.37-4.75-4.76a3.63,3.63,0,0,1,0-5.49c1.74-1.75,3.49-3.5,5.25-5.23a1.06,1.06,0,0,0,.34-1.13,3.92,3.92,0,0,1,1.91-4.33,3.86,3.86,0,0,1,4.64.49c2.84,2.76,5.66,5.55,8.39,8.42a9.72,9.72,0,0,1,1.26,2.54Zm-14.66-4.79c-1.85,1.85-3.74,3.7-5.57,5.59a1.45,1.45,0,0,0,.06,2.22q2.5,2.55,5.05,5a1.55,1.55,0,0,0,2.36,0c1.33-1.3,2.64-2.64,4-3.95.53-.51,1.07-1,1.56-1.47Z"/><path class="cls-1" d="M337,471.45a3.89,3.89,0,0,1-2.77-1.19c-2.68-2.68-5.37-5.35-8-8a4,4,0,0,1-.68-4.83,4.11,4.11,0,0,1,4.42-1.94,1.34,1.34,0,0,0,1-.33c1.75-1.69,3.46-3.43,5.19-5.15a3.65,3.65,0,0,1,5.66,0q2.3,2.26,4.57,4.56c1.92,1.92,1.93,3.94,0,5.85-1.68,1.69-3.35,3.38-5.06,5a1.12,1.12,0,0,0-.36,1.2A3.94,3.94,0,0,1,337,471.45Zm2.68-7.3c1.84-1.84,3.7-3.67,5.53-5.53a1.52,1.52,0,0,0-.1-2.35q-2.42-2.46-4.86-4.87a1.58,1.58,0,0,0-2.6,0c-1.1,1.09-2.18,2.21-3.29,3.28-.71.69-1.47,1.33-2.16,2Z"/><path class="cls-1" d="M360.78,520.21a20.58,20.58,0,0,1,20.27,18.12c.11,1-.17,1.52-.84,1.62s-1.13-.32-1.24-1.3a18.6,18.6,0,0,0-14.8-16,18.33,18.33,0,1,0,13,26.21c.15-.31.3-.63.46-.93a1,1,0,0,1,1.89.87,6.72,6.72,0,0,1-.4.86,20.42,20.42,0,1,1-18.3-29.43Z"/><path class="cls-1" d="M361,497.56c1.87,0,3.74,0,5.6,0a4,4,0,0,1,3.91,2.92,4.05,4.05,0,0,1-1.73,4.51,1.41,1.41,0,0,0-.51.94c0,2.46,0,4.93,0,7.4a3.6,3.6,0,0,1-3.92,3.91q-3.41,0-6.8,0a3.63,3.63,0,0,1-3.91-3.93c0-2.42,0-4.83,0-7.24a1.18,1.18,0,0,0-.61-1.18,3.93,3.93,0,0,1-1.65-4.44,4,4,0,0,1,3.78-2.88C357.06,497.53,359,497.56,361,497.56Zm5.13,8.12H355.72c0,2.74,0,5.43,0,8.12a1.35,1.35,0,0,0,1.42,1.33c2.49,0,5,0,7.48,0a1.37,1.37,0,0,0,1.44-1.32C366.11,511.12,366.09,508.43,366.09,505.68Z"/><path class="cls-1" d="M360.86,583.74h-5.43a4,4,0,0,1-2.31-7.47,1.29,1.29,0,0,0,.44-.89c0-2.42,0-4.83,0-7.24,0-2.67,1.42-4.08,4.1-4.09h6.46c2.68,0,4.06,1.4,4.07,4.1,0,2.36,0,4.71,0,7.07a1.17,1.17,0,0,0,.61,1.18,3.91,3.91,0,0,1,1.66,4.43,4,4,0,0,1-3.75,2.9c-2,0-3.91,0-5.86,0Zm-5.16-8.14h10.4c0-2.72,0-5.39,0-8.05a1.42,1.42,0,0,0-1.54-1.4q-3.66,0-7.32,0a1.45,1.45,0,0,0-1.52,1.52c0,.63,0,1.26,0,1.89Z"/><path class="cls-1" d="M317.66,540.47c0-1.83,0-3.67,0-5.51a4,4,0,0,1,2.89-4,4.07,4.07,0,0,1,4.57,1.75,1.38,1.38,0,0,0,.95.49c2.47,0,4.94,0,7.41,0a3.59,3.59,0,0,1,3.87,3.86q0,3.45,0,6.9a3.61,3.61,0,0,1-3.89,3.86q-3.66,0-7.32,0a1.14,1.14,0,0,0-1.12.58,3.94,3.94,0,0,1-4.42,1.69,4,4,0,0,1-2.93-3.82C317.64,544.32,317.66,542.4,317.66,540.47Zm8.11,5.22h7.64c1.34,0,1.84-.51,1.84-1.89q0-3.31,0-6.62c0-1.36-.51-1.88-1.86-1.89h-7c-.22,0-.43.05-.65.07Z"/><path class="cls-1" d="M403.84,540.53c0,1.83,0,3.67,0,5.51a4,4,0,0,1-2.9,4,4.1,4.1,0,0,1-4.57-1.78,1.41,1.41,0,0,0-1-.45c-2.38,0-4.77,0-7.15,0-2.68,0-4.09-1.42-4.1-4.09,0-2.21,0-4.42,0-6.63a3.6,3.6,0,0,1,3.93-3.9c2.41,0,4.82,0,7.24,0a1.17,1.17,0,0,0,1.17-.61,3.93,3.93,0,0,1,4.44-1.67,4,4,0,0,1,2.91,3.83,1.09,1.09,0,0,1,0,.18Zm-8.14,5.14V535.29c-2.72,0-5.38,0-8,0a1.39,1.39,0,0,0-1.4,1.45c0,2.5,0,5,0,7.49a1.35,1.35,0,0,0,1.32,1.42C390.27,545.69,393,545.67,395.7,545.67Z"/><path class="cls-1" d="M384.47,576.2a4,4,0,0,1-3.93-4.79,1.21,1.21,0,0,0-.4-1.27c-1.73-1.68-3.43-3.39-5.13-5.1a3.65,3.65,0,0,1,0-5.6l4.75-4.75a3.66,3.66,0,0,1,5.61,0c1.73,1.72,3.45,3.44,5.16,5.18a1,1,0,0,0,1.13.34A3.93,3.93,0,0,1,396,562a3.86,3.86,0,0,1-.38,4.65q-4.21,4.37-8.6,8.56a8.69,8.69,0,0,1-2.41,1.16Zm4.75-14.69c-1.83-1.82-3.66-3.68-5.53-5.5a1.48,1.48,0,0,0-2.34.09c-1.64,1.61-3.26,3.24-4.87,4.87a1.59,1.59,0,0,0,0,2.59l2.74,2.74c.88.89,1.75,1.79,2.58,2.64Z"/><path class="cls-1" d="M325.2,516.93a3.65,3.65,0,0,1,1.08-2.73c2.73-2.75,5.46-5.51,8.22-8.22a4,4,0,0,1,6.66,3.75,1.06,1.06,0,0,0,.36,1.13c1.74,1.71,3.47,3.44,5.19,5.17a3.65,3.65,0,0,1,0,5.55q-2.43,2.46-4.88,4.87a3.61,3.61,0,0,1-5.43,0c-1.75-1.74-3.5-3.48-5.23-5.25a1.15,1.15,0,0,0-1.2-.37A3.94,3.94,0,0,1,325.2,516.93Zm7.28,2.63c1.77,1.76,3.55,3.55,5.35,5.32a1.63,1.63,0,0,0,2.67,0l4.68-4.68c1-1,1-1.72,0-2.73l-4.87-4.87c-.16-.15-.33-.28-.45-.38Z"/><path class="cls-1" d="M396.3,517a3.92,3.92,0,0,1-4.75,3.89,1.26,1.26,0,0,0-1.33.44c-1.67,1.71-3.36,3.39-5.05,5.07s-3.86,1.77-5.67,0c-1.59-1.58-3.17-3.16-4.75-4.76a3.62,3.62,0,0,1,0-5.48c1.74-1.76,3.49-3.5,5.25-5.24a1.06,1.06,0,0,0,.34-1.13,3.93,3.93,0,0,1,1.91-4.33,3.86,3.86,0,0,1,4.64.49c2.84,2.77,5.66,5.55,8.39,8.43a9.66,9.66,0,0,1,1.26,2.53Zm-14.66-4.8c-1.85,1.86-3.74,3.71-5.57,5.59a1.45,1.45,0,0,0,.06,2.22q2.5,2.55,5.05,5a1.54,1.54,0,0,0,2.36,0c1.33-1.3,2.64-2.63,4-3.94.53-.52,1.07-1,1.56-1.48Z"/><path class="cls-1" d="M337,576.2a3.85,3.85,0,0,1-2.77-1.19c-2.68-2.67-5.37-5.34-8-8a4,4,0,0,1-.68-4.83,4.11,4.11,0,0,1,4.42-1.94,1.38,1.38,0,0,0,1-.32c1.75-1.7,3.46-3.44,5.19-5.16a3.65,3.65,0,0,1,5.66,0l4.57,4.56c1.92,1.92,1.93,4,0,5.85-1.68,1.69-3.35,3.38-5.06,5a1.12,1.12,0,0,0-.36,1.2A3.94,3.94,0,0,1,337,576.2Zm2.68-7.29c1.84-1.84,3.7-3.67,5.53-5.54a1.52,1.52,0,0,0-.1-2.35q-2.42-2.44-4.86-4.87a1.58,1.58,0,0,0-2.6,0c-1.1,1.08-2.18,2.2-3.29,3.28-.71.69-1.47,1.33-2.16,1.95Z"/><path class="cls-1" d="M360.78,625a20.56,20.56,0,0,1,20.27,18.11c.11,1-.17,1.52-.84,1.62s-1.13-.31-1.24-1.29a18.61,18.61,0,0,0-14.8-16,18.33,18.33,0,1,0,13,26.21c.15-.31.3-.62.46-.93a1,1,0,0,1,1.89.88,8.27,8.27,0,0,1-.4.86A20.42,20.42,0,1,1,360.78,625Z"/><path class="cls-1" d="M361,602.31c1.87,0,3.74,0,5.6,0a4,4,0,0,1,3.91,2.92,4,4,0,0,1-1.73,4.5,1.41,1.41,0,0,0-.51.94c0,2.47,0,4.94,0,7.41a3.61,3.61,0,0,1-3.92,3.91c-2.27,0-4.54,0-6.8,0a3.63,3.63,0,0,1-3.91-3.94c0-2.41,0-4.82,0-7.24a1.2,1.2,0,0,0-.61-1.18,3.93,3.93,0,0,1-1.65-4.44,4,4,0,0,1,3.78-2.88C357.06,602.29,359,602.31,361,602.31Zm5.13,8.13H355.72c0,2.74,0,5.43,0,8.12a1.35,1.35,0,0,0,1.42,1.33c2.49,0,5,0,7.48,0a1.38,1.38,0,0,0,1.44-1.33C366.11,615.87,366.09,613.18,366.09,610.44Z"/><path class="cls-1" d="M360.86,688.49h-5.43a4,4,0,0,1-2.31-7.48,1.27,1.27,0,0,0,.44-.89c0-2.41,0-4.82,0-7.24,0-2.67,1.42-4.08,4.1-4.08h6.46c2.68,0,4.06,1.39,4.07,4.1,0,2.35,0,4.71,0,7.06a1.17,1.17,0,0,0,.61,1.18,3.91,3.91,0,0,1,1.66,4.43,4,4,0,0,1-3.75,2.91c-2,0-3.91,0-5.86,0Zm-5.16-8.14h10.4c0-2.72,0-5.38,0-8.05a1.42,1.42,0,0,0-1.54-1.4c-2.44,0-4.88,0-7.32,0a1.44,1.44,0,0,0-1.52,1.51c0,.63,0,1.26,0,1.89Z"/><path class="cls-1" d="M317.66,645.23c0-1.84,0-3.68,0-5.52a4,4,0,0,1,2.89-4,4.05,4.05,0,0,1,4.57,1.74,1.31,1.31,0,0,0,.95.49c2.47,0,4.94,0,7.41,0a3.58,3.58,0,0,1,3.87,3.86q0,3.44,0,6.89a3.61,3.61,0,0,1-3.89,3.86c-2.44,0-4.88,0-7.32,0a1.13,1.13,0,0,0-1.12.57,4,4,0,0,1-4.42,1.7,4,4,0,0,1-2.93-3.83C317.64,649.08,317.66,647.15,317.66,645.23Zm8.11,5.21h7.64c1.34,0,1.84-.52,1.84-1.9q0-3.3,0-6.62c0-1.36-.51-1.88-1.86-1.88h-7a4.78,4.78,0,0,0-.65.07Z"/><path class="cls-1" d="M403.84,645.28c0,1.84,0,3.68,0,5.52a4.06,4.06,0,0,1-2.9,4,4.12,4.12,0,0,1-4.57-1.78,1.38,1.38,0,0,0-1-.46c-2.38,0-4.77,0-7.15,0-2.68,0-4.09-1.42-4.1-4.08,0-2.22,0-4.43,0-6.64a3.6,3.6,0,0,1,3.93-3.89c2.41,0,4.82,0,7.24,0a1.19,1.19,0,0,0,1.17-.62,4,4,0,0,1,4.44-1.67,4,4,0,0,1,2.91,3.84.91.91,0,0,1,0,.17Zm-8.14,5.14V640.05c-2.72,0-5.38,0-8,0a1.38,1.38,0,0,0-1.4,1.44c0,2.5,0,5,0,7.49a1.35,1.35,0,0,0,1.32,1.42C390.27,650.45,393,650.42,395.7,650.42Z"/><path class="cls-1" d="M384.47,681a3.94,3.94,0,0,1-3.93-4.79,1.19,1.19,0,0,0-.4-1.26c-1.73-1.69-3.43-3.39-5.13-5.1a3.66,3.66,0,0,1,0-5.61l4.75-4.75a3.66,3.66,0,0,1,5.61,0q2.6,2.58,5.16,5.18a1,1,0,0,0,1.13.35A3.92,3.92,0,0,1,396,666.8a3.85,3.85,0,0,1-.38,4.64q-4.21,4.37-8.6,8.57a8.67,8.67,0,0,1-2.41,1.15Zm4.75-14.68c-1.83-1.83-3.66-3.69-5.53-5.51a1.48,1.48,0,0,0-2.34.09q-2.46,2.43-4.87,4.87a1.59,1.59,0,0,0,0,2.6l2.74,2.74c.88.88,1.75,1.78,2.58,2.63Z"/><path class="cls-1" d="M325.2,621.68a3.67,3.67,0,0,1,1.08-2.73c2.73-2.75,5.46-5.5,8.22-8.22a4,4,0,0,1,6.66,3.76,1.05,1.05,0,0,0,.36,1.12c1.74,1.71,3.47,3.44,5.19,5.17a3.66,3.66,0,0,1,0,5.56c-1.62,1.63-3.25,3.26-4.88,4.87a3.61,3.61,0,0,1-5.43,0c-1.75-1.73-3.5-3.48-5.23-5.24a1.13,1.13,0,0,0-1.2-.37A4,4,0,0,1,325.2,621.68Zm7.28,2.63q2.65,2.66,5.35,5.33a1.64,1.64,0,0,0,2.67,0c1.56-1.56,3.13-3.12,4.68-4.69,1-1,1-1.72,0-2.72l-4.87-4.87a4.14,4.14,0,0,0-.45-.38Z"/><path class="cls-1" d="M396.3,621.71a3.93,3.93,0,0,1-4.75,3.9,1.26,1.26,0,0,0-1.33.43c-1.67,1.71-3.36,3.39-5.05,5.07a3.66,3.66,0,0,1-5.67,0l-4.75-4.76a3.63,3.63,0,0,1,0-5.49q2.61-2.64,5.25-5.23a1.06,1.06,0,0,0,.34-1.13,3.94,3.94,0,0,1,1.91-4.34,3.87,3.87,0,0,1,4.64.49c2.84,2.77,5.66,5.56,8.39,8.43a9.57,9.57,0,0,1,1.26,2.54Zm-14.66-4.8c-1.85,1.86-3.74,3.71-5.57,5.6a1.45,1.45,0,0,0,.06,2.22c1.67,1.69,3.35,3.38,5.05,5a1.55,1.55,0,0,0,2.36,0c1.33-1.3,2.64-2.64,4-4,.53-.52,1.07-1,1.56-1.47Z"/><path class="cls-1" d="M337,681a3.84,3.84,0,0,1-2.77-1.18c-2.68-2.68-5.37-5.35-8-8a4,4,0,0,1-.68-4.83A4.11,4.11,0,0,1,329.9,665a1.38,1.38,0,0,0,1-.33c1.75-1.69,3.46-3.43,5.19-5.15a3.65,3.65,0,0,1,5.66,0l4.57,4.56c1.92,1.93,1.93,4,0,5.86-1.68,1.69-3.35,3.38-5.06,5a1.12,1.12,0,0,0-.36,1.2A3.93,3.93,0,0,1,337,681Zm2.68-7.29c1.84-1.84,3.7-3.67,5.53-5.53a1.52,1.52,0,0,0-.1-2.35q-2.42-2.46-4.86-4.87a1.58,1.58,0,0,0-2.6,0c-1.1,1.09-2.18,2.21-3.29,3.28-.71.69-1.47,1.33-2.16,1.95Z"/><path class="cls-1" d="M483.6,206a20.55,20.55,0,0,1,20.26,18.12q.18,1.45-.84,1.62c-.69.1-1.12-.32-1.23-1.3a18.59,18.59,0,0,0-14.81-16,18.33,18.33,0,1,0,13,26.2c.15-.3.29-.62.46-.92a1,1,0,1,1,1.88.87,6.66,6.66,0,0,1-.39.86A20.42,20.42,0,1,1,483.6,206Z"/><path class="cls-1" d="M483.78,183.3c1.87,0,3.73,0,5.6,0a4,4,0,0,1,3.91,2.92,4.07,4.07,0,0,1-1.73,4.51,1.31,1.31,0,0,0-.51.93c0,2.47,0,4.94,0,7.41a3.6,3.6,0,0,1-3.91,3.91q-3.41,0-6.81,0a3.63,3.63,0,0,1-3.9-3.94q0-3.61,0-7.23a1.2,1.2,0,0,0-.6-1.19,3.91,3.91,0,0,1-1.65-4.43,4,4,0,0,1,3.77-2.88C479.88,183.27,481.83,183.3,483.78,183.3Zm5.13,8.12H478.54c0,2.74,0,5.43,0,8.12a1.35,1.35,0,0,0,1.42,1.33c2.5,0,5,0,7.49,0a1.36,1.36,0,0,0,1.43-1.32C488.93,196.86,488.91,194.17,488.91,191.42Z"/><path class="cls-1" d="M483.67,269.47h-5.42a4,4,0,0,1-2.31-7.47,1.27,1.27,0,0,0,.43-.9c0-2.41,0-4.82,0-7.23,0-2.68,1.42-4.08,4.09-4.09H487c2.68,0,4.06,1.4,4.06,4.1,0,2.36,0,4.71,0,7.07a1.19,1.19,0,0,0,.62,1.17,4,4,0,0,1-2.1,7.34c-1.95,0-3.9,0-5.86,0Zm-5.15-8.14h10.4c0-2.72,0-5.38,0-8a1.42,1.42,0,0,0-1.54-1.4c-2.44,0-4.87,0-7.31,0a1.44,1.44,0,0,0-1.52,1.51c0,.63,0,1.27,0,1.9Z"/><path class="cls-1" d="M440.48,226.21c0-1.84,0-3.67,0-5.51a4,4,0,0,1,2.88-4,4.08,4.08,0,0,1,4.58,1.75,1.36,1.36,0,0,0,.95.49c2.47,0,4.94,0,7.41,0a3.59,3.59,0,0,1,3.87,3.86q0,3.45,0,6.89a3.61,3.61,0,0,1-3.89,3.86c-2.44,0-4.89,0-7.33,0a1.12,1.12,0,0,0-1.11.57,3.94,3.94,0,0,1-4.43,1.7,4,4,0,0,1-2.93-3.83C440.46,230.06,440.48,228.14,440.48,226.21Zm8.1,5.22h7.65c1.34,0,1.84-.52,1.84-1.89,0-2.21,0-4.42,0-6.63,0-1.35-.52-1.87-1.87-1.88-2.32,0-4.64,0-7,0-.22,0-.44,0-.66.07Z"/><path class="cls-1" d="M526.65,226.27c0,1.83,0,3.67,0,5.51a4,4,0,0,1-2.9,4,4.1,4.1,0,0,1-4.57-1.78,1.35,1.35,0,0,0-1-.45c-2.38,0-4.77,0-7.15,0-2.68,0-4.09-1.42-4.1-4.09q0-3.32,0-6.63a3.59,3.59,0,0,1,3.92-3.9q3.63,0,7.24,0a1.17,1.17,0,0,0,1.18-.61,3.91,3.91,0,0,1,4.43-1.67,4,4,0,0,1,2.92,3.83v5.78Zm-8.13,5.14V221c-2.72,0-5.38,0-8,0a1.4,1.4,0,0,0-1.41,1.45c0,2.49,0,5,0,7.48a1.36,1.36,0,0,0,1.33,1.43C513.09,231.43,515.78,231.41,518.52,231.41Z"/><path class="cls-1" d="M507.29,261.94a3.94,3.94,0,0,1-3.93-4.79,1.21,1.21,0,0,0-.4-1.27c-1.73-1.68-3.43-3.39-5.13-5.1a3.64,3.64,0,0,1,0-5.6c1.57-1.59,3.15-3.18,4.75-4.75a3.64,3.64,0,0,1,5.6,0c1.74,1.72,3.46,3.44,5.17,5.18a1,1,0,0,0,1.12.34,3.92,3.92,0,0,1,4.29,1.82,3.82,3.82,0,0,1-.38,4.64q-4.21,4.38-8.59,8.57a8.83,8.83,0,0,1-2.41,1.16ZM512,247.25c-1.83-1.83-3.67-3.68-5.53-5.51a1.49,1.49,0,0,0-2.35.1q-2.45,2.41-4.87,4.86a1.6,1.6,0,0,0,0,2.6c.91.92,1.84,1.82,2.74,2.74s1.76,1.79,2.59,2.64Z"/><path class="cls-1" d="M448,202.67a3.72,3.72,0,0,1,1.08-2.73c2.73-2.75,5.47-5.51,8.23-8.23a4,4,0,0,1,6.66,3.76,1,1,0,0,0,.36,1.12c1.74,1.72,3.46,3.44,5.18,5.18a3.64,3.64,0,0,1,0,5.55q-2.42,2.46-4.88,4.87a3.6,3.6,0,0,1-5.42,0c-1.76-1.74-3.51-3.48-5.23-5.25a1.16,1.16,0,0,0-1.2-.37A4,4,0,0,1,448,202.67Zm7.28,2.62c1.78,1.77,3.56,3.56,5.35,5.33a1.63,1.63,0,0,0,2.67,0L468,205.9c1-1,1-1.71,0-2.72-1.61-1.63-3.24-3.25-4.86-4.87-.16-.15-.34-.28-.45-.38Z"/><path class="cls-1" d="M519.12,202.69a3.92,3.92,0,0,1-4.75,3.9A1.26,1.26,0,0,0,513,207c-1.66,1.7-3.35,3.39-5,5.07a3.66,3.66,0,0,1-5.67,0c-1.59-1.58-3.18-3.17-4.75-4.76a3.61,3.61,0,0,1,0-5.48q2.6-2.64,5.24-5.24a1.06,1.06,0,0,0,.35-1.13,3.93,3.93,0,0,1,1.9-4.33,3.86,3.86,0,0,1,4.64.49c2.84,2.76,5.66,5.55,8.39,8.42a9.59,9.59,0,0,1,1.27,2.54Zm-14.66-4.79c-1.86,1.86-3.74,3.7-5.58,5.59a1.45,1.45,0,0,0,.07,2.22q2.51,2.55,5.05,5a1.54,1.54,0,0,0,2.36,0c1.33-1.3,2.63-2.63,4-3.94.52-.52,1.07-1,1.56-1.48Z"/><path class="cls-1" d="M459.77,261.94a3.87,3.87,0,0,1-2.77-1.19c-2.68-2.68-5.37-5.35-8-8a4,4,0,0,1-.68-4.83,4.11,4.11,0,0,1,4.42-1.94,1.35,1.35,0,0,0,1-.32c1.76-1.7,3.46-3.44,5.19-5.16a3.66,3.66,0,0,1,5.67,0l4.57,4.56c1.92,1.92,1.93,4,0,5.85-1.68,1.69-3.36,3.38-5.07,5a1.14,1.14,0,0,0-.35,1.2A4,4,0,0,1,459.77,261.94Zm2.69-7.3c1.84-1.83,3.7-3.67,5.52-5.53a1.52,1.52,0,0,0-.09-2.35c-1.61-1.63-3.24-3.26-4.87-4.87a1.57,1.57,0,0,0-2.59,0c-1.1,1.09-2.18,2.21-3.29,3.29-.71.69-1.47,1.33-2.16,1.94Z"/><path class="cls-1" d="M483.6,310.7a20.56,20.56,0,0,1,20.26,18.12c.12,1-.16,1.52-.84,1.62s-1.12-.32-1.23-1.29a18.62,18.62,0,0,0-14.81-16,18.33,18.33,0,1,0,13,26.21c.15-.31.29-.62.46-.93a1,1,0,0,1,1.88.87,6.66,6.66,0,0,1-.39.86,20.42,20.42,0,1,1-18.3-29.43Z"/><path class="cls-1" d="M483.78,288.05c1.87,0,3.73,0,5.6,0a4,4,0,0,1,3.91,2.93,4.06,4.06,0,0,1-1.73,4.5,1.33,1.33,0,0,0-.51.94c0,2.47,0,4.94,0,7.41a3.6,3.6,0,0,1-3.91,3.91H480.3a3.63,3.63,0,0,1-3.9-3.94q0-3.62,0-7.24a1.18,1.18,0,0,0-.6-1.18,3.93,3.93,0,0,1-1.65-4.44,4,4,0,0,1,3.77-2.88C479.88,288,481.83,288.05,483.78,288.05Zm5.13,8.13H478.54c0,2.74,0,5.43,0,8.11a1.35,1.35,0,0,0,1.42,1.33c2.5,0,5,0,7.49,0a1.36,1.36,0,0,0,1.43-1.32C488.93,301.61,488.91,298.92,488.91,296.18Z"/><path class="cls-1" d="M483.67,374.23h-5.42a4,4,0,0,1-2.31-7.48,1.25,1.25,0,0,0,.43-.89c0-2.41,0-4.83,0-7.24,0-2.67,1.42-4.08,4.09-4.08,2.16,0,4.31,0,6.47,0,2.68,0,4.06,1.39,4.06,4.1,0,2.35,0,4.7,0,7.06a1.2,1.2,0,0,0,.62,1.18,3.89,3.89,0,0,1,1.65,4.43,4,4,0,0,1-3.75,2.9c-1.95,0-3.9,0-5.86,0Zm-5.15-8.14h10.4c0-2.72,0-5.38,0-8a1.42,1.42,0,0,0-1.54-1.4c-2.44,0-4.87,0-7.31,0a1.44,1.44,0,0,0-1.52,1.52c0,.63,0,1.26,0,1.89Z"/><path class="cls-1" d="M440.48,331c0-1.84,0-3.68,0-5.52a4,4,0,0,1,2.88-4,4.08,4.08,0,0,1,4.58,1.75,1.33,1.33,0,0,0,.95.49c2.47,0,4.94,0,7.41,0a3.58,3.58,0,0,1,3.87,3.86q0,3.43,0,6.89a3.61,3.61,0,0,1-3.89,3.86c-2.44,0-4.89,0-7.33,0a1.11,1.11,0,0,0-1.11.58,4,4,0,0,1-4.43,1.7,4,4,0,0,1-2.93-3.83C440.46,334.81,440.48,332.89,440.48,331Zm8.1,5.21h7.65c1.34,0,1.84-.52,1.84-1.9,0-2.21,0-4.41,0-6.62,0-1.36-.52-1.88-1.87-1.88h-7c-.22,0-.44,0-.66.06Z"/><path class="cls-1" d="M526.65,331c0,1.84,0,3.68,0,5.51a4.06,4.06,0,0,1-2.9,4,4.1,4.1,0,0,1-4.57-1.79,1.43,1.43,0,0,0-1-.45c-2.38,0-4.77,0-7.15,0-2.68,0-4.09-1.42-4.1-4.09q0-3.31,0-6.63a3.58,3.58,0,0,1,3.92-3.89c2.42,0,4.83,0,7.24,0a1.17,1.17,0,0,0,1.18-.61,3.93,3.93,0,0,1,4.43-1.67,4,4,0,0,1,2.92,3.84V331Zm-8.13,5.14V325.79c-2.72,0-5.38,0-8,0a1.39,1.39,0,0,0-1.41,1.44c0,2.5,0,5,0,7.49a1.36,1.36,0,0,0,1.33,1.42C513.09,336.18,515.78,336.16,518.52,336.16Z"/><path class="cls-1" d="M507.29,366.69a3.94,3.94,0,0,1-3.93-4.79,1.19,1.19,0,0,0-.4-1.26c-1.73-1.69-3.43-3.39-5.13-5.1a3.65,3.65,0,0,1,0-5.61q2.36-2.39,4.75-4.75a3.65,3.65,0,0,1,5.6,0c1.74,1.72,3.46,3.44,5.17,5.18a1,1,0,0,0,1.12.35,3.89,3.89,0,0,1,4.29,1.82,3.82,3.82,0,0,1-.38,4.64q-4.21,4.36-8.59,8.56a8.55,8.55,0,0,1-2.41,1.16ZM512,352c-1.83-1.83-3.67-3.69-5.53-5.51a1.49,1.49,0,0,0-2.35.09c-1.63,1.61-3.25,3.24-4.87,4.87a1.6,1.6,0,0,0,0,2.6c.91.92,1.84,1.82,2.74,2.73s1.76,1.79,2.59,2.64Z"/><path class="cls-1" d="M448,307.42a3.75,3.75,0,0,1,1.08-2.73c2.73-2.75,5.47-5.5,8.23-8.22a4,4,0,0,1,6.66,3.76,1,1,0,0,0,.36,1.12c1.74,1.71,3.46,3.44,5.18,5.17a3.64,3.64,0,0,1,0,5.55q-2.42,2.46-4.88,4.87a3.59,3.59,0,0,1-5.42,0c-1.76-1.73-3.51-3.48-5.23-5.24a1.15,1.15,0,0,0-1.2-.37A4,4,0,0,1,448,307.42Zm7.28,2.63,5.35,5.33a1.63,1.63,0,0,0,2.67,0q2.35-2.32,4.69-4.68c1-1,1-1.72,0-2.72-1.61-1.63-3.24-3.25-4.86-4.87a5.39,5.39,0,0,0-.45-.38Z"/><path class="cls-1" d="M519.12,307.45a3.93,3.93,0,0,1-4.75,3.9,1.27,1.27,0,0,0-1.34.43c-1.66,1.71-3.35,3.39-5,5.07a3.65,3.65,0,0,1-5.67,0c-1.59-1.58-3.18-3.16-4.75-4.75a3.62,3.62,0,0,1,0-5.49c1.73-1.76,3.48-3.5,5.24-5.24a1,1,0,0,0,.35-1.12,3.94,3.94,0,0,1,1.9-4.34,3.86,3.86,0,0,1,4.64.49c2.84,2.77,5.66,5.56,8.39,8.43a9.3,9.3,0,0,1,1.27,2.54Zm-14.66-4.8c-1.86,1.86-3.74,3.71-5.58,5.6a1.44,1.44,0,0,0,.07,2.21c1.67,1.7,3.35,3.39,5.05,5.05a1.55,1.55,0,0,0,2.36,0c1.33-1.31,2.63-2.64,4-3.95.52-.52,1.07-1,1.56-1.47Z"/><path class="cls-1" d="M459.77,366.69A3.83,3.83,0,0,1,457,365.5c-2.68-2.67-5.37-5.34-8-8a4,4,0,0,1-.68-4.84,4.11,4.11,0,0,1,4.42-1.93,1.36,1.36,0,0,0,1-.33c1.76-1.69,3.46-3.44,5.19-5.15a3.66,3.66,0,0,1,5.67,0l4.57,4.56c1.92,1.93,1.93,3.95,0,5.86-1.68,1.68-3.36,3.38-5.07,5a1.12,1.12,0,0,0-.35,1.19A4,4,0,0,1,459.77,366.69Zm2.69-7.29c1.84-1.84,3.7-3.67,5.52-5.53a1.53,1.53,0,0,0-.09-2.36c-1.61-1.63-3.24-3.25-4.87-4.87a1.58,1.58,0,0,0-2.59,0c-1.1,1.09-2.18,2.2-3.29,3.28-.71.69-1.47,1.33-2.16,2Z"/><path class="cls-1" d="M483.6,415.46a20.55,20.55,0,0,1,20.26,18.12Q504,435,503,435.2c-.69.1-1.12-.32-1.23-1.3a18.59,18.59,0,0,0-14.81-16,18.33,18.33,0,1,0,13,26.2c.15-.31.29-.62.46-.92a1,1,0,1,1,1.88.87,6.66,6.66,0,0,1-.39.86,20.42,20.42,0,1,1-18.3-29.43Z"/><path class="cls-1" d="M483.78,392.81c1.87,0,3.73,0,5.6,0a4,4,0,0,1,3.91,2.92,4.07,4.07,0,0,1-1.73,4.51,1.31,1.31,0,0,0-.51.93c0,2.47,0,4.94,0,7.41a3.6,3.6,0,0,1-3.91,3.91q-3.41,0-6.81,0a3.63,3.63,0,0,1-3.9-3.94q0-3.62,0-7.23a1.2,1.2,0,0,0-.6-1.19,3.92,3.92,0,0,1-1.65-4.44,4,4,0,0,1,3.77-2.88C479.88,392.78,481.83,392.81,483.78,392.81Zm5.13,8.12H478.54c0,2.74,0,5.43,0,8.12a1.36,1.36,0,0,0,1.42,1.33c2.5,0,5,0,7.49,0a1.37,1.37,0,0,0,1.43-1.33C488.93,406.37,488.91,403.68,488.91,400.93Z"/><path class="cls-1" d="M483.67,479h-5.42a4,4,0,0,1-2.31-7.47,1.27,1.27,0,0,0,.43-.9c0-2.41,0-4.82,0-7.23,0-2.68,1.42-4.09,4.09-4.09H487c2.68,0,4.06,1.39,4.06,4.1,0,2.35,0,4.71,0,7.06a1.2,1.2,0,0,0,.62,1.18,3.9,3.9,0,0,1,1.65,4.44,4,4,0,0,1-3.75,2.9c-1.95,0-3.9,0-5.86,0Zm-5.15-8.14h10.4c0-2.72,0-5.38,0-8a1.41,1.41,0,0,0-1.54-1.4c-2.44,0-4.87,0-7.31,0a1.44,1.44,0,0,0-1.52,1.51c0,.63,0,1.26,0,1.89Z"/><path class="cls-1" d="M440.48,435.72c0-1.84,0-3.68,0-5.51a4,4,0,0,1,2.88-4,4.08,4.08,0,0,1,4.58,1.75,1.36,1.36,0,0,0,.95.49c2.47,0,4.94,0,7.41,0a3.59,3.59,0,0,1,3.87,3.86c0,2.3,0,4.59,0,6.89a3.61,3.61,0,0,1-3.89,3.86c-2.44,0-4.89,0-7.33,0a1.11,1.11,0,0,0-1.11.57,3.94,3.94,0,0,1-4.43,1.7,4,4,0,0,1-2.93-3.83C440.46,439.57,440.48,437.64,440.48,435.72Zm8.1,5.21h7.65c1.34,0,1.84-.52,1.84-1.89,0-2.21,0-4.42,0-6.63,0-1.35-.52-1.87-1.87-1.88h-7a4.93,4.93,0,0,0-.66.07Z"/><path class="cls-1" d="M526.65,435.77c0,1.84,0,3.68,0,5.52a4.06,4.06,0,0,1-2.9,4,4.11,4.11,0,0,1-4.57-1.78,1.35,1.35,0,0,0-1-.45c-2.38,0-4.77,0-7.15,0-2.68,0-4.09-1.41-4.1-4.08,0-2.21,0-4.43,0-6.64a3.59,3.59,0,0,1,3.92-3.89c2.42,0,4.83,0,7.24,0a1.2,1.2,0,0,0,1.18-.62,3.91,3.91,0,0,1,4.43-1.66,4,4,0,0,1,2.92,3.83v5.77Zm-8.13,5.15V430.54c-2.72,0-5.38,0-8,0a1.39,1.39,0,0,0-1.41,1.45c0,2.49,0,5,0,7.48a1.35,1.35,0,0,0,1.33,1.42C513.09,440.94,515.78,440.92,518.52,440.92Z"/><path class="cls-1" d="M507.29,471.45a4,4,0,0,1-3.93-4.8,1.2,1.2,0,0,0-.4-1.26c-1.73-1.68-3.43-3.39-5.13-5.1a3.65,3.65,0,0,1,0-5.61c1.57-1.58,3.15-3.17,4.75-4.74a3.64,3.64,0,0,1,5.6,0q2.61,2.58,5.17,5.19a1,1,0,0,0,1.12.34,3.92,3.92,0,0,1,4.29,1.82,3.82,3.82,0,0,1-.38,4.64c-2.81,2.91-5.67,5.78-8.59,8.57a9.12,9.12,0,0,1-2.41,1.16ZM512,456.76c-1.83-1.83-3.67-3.69-5.53-5.51a1.49,1.49,0,0,0-2.35.1q-2.45,2.41-4.87,4.86a1.6,1.6,0,0,0,0,2.6c.91.92,1.84,1.82,2.74,2.74s1.76,1.78,2.59,2.63C507.16,461.67,509.56,459.25,512,456.76Z"/><path class="cls-1" d="M448,412.18a3.72,3.72,0,0,1,1.08-2.73q4.1-4.14,8.23-8.23A4,4,0,0,1,464,405a1,1,0,0,0,.36,1.12c1.74,1.72,3.46,3.44,5.18,5.17a3.65,3.65,0,0,1,0,5.56c-1.61,1.63-3.24,3.26-4.88,4.87a3.61,3.61,0,0,1-5.42,0c-1.76-1.74-3.51-3.48-5.23-5.25a1.15,1.15,0,0,0-1.2-.37A4,4,0,0,1,448,412.18Zm7.28,2.62,5.35,5.33a1.63,1.63,0,0,0,2.67,0l4.69-4.69c1-1,1-1.72,0-2.72-1.61-1.63-3.24-3.25-4.86-4.87-.16-.15-.34-.28-.45-.38Z"/><path class="cls-1" d="M519.12,412.2a3.93,3.93,0,0,1-4.75,3.9,1.26,1.26,0,0,0-1.34.44c-1.66,1.7-3.35,3.38-5,5.06a3.66,3.66,0,0,1-5.67,0c-1.59-1.58-3.18-3.17-4.75-4.76a3.62,3.62,0,0,1,0-5.49c1.73-1.75,3.48-3.5,5.24-5.23a1.07,1.07,0,0,0,.35-1.13,3.92,3.92,0,0,1,1.9-4.33,3.86,3.86,0,0,1,4.64.49c2.84,2.76,5.66,5.55,8.39,8.42a9.44,9.44,0,0,1,1.27,2.54Zm-14.66-4.79c-1.86,1.85-3.74,3.7-5.58,5.59a1.45,1.45,0,0,0,.07,2.22q2.51,2.55,5.05,5a1.55,1.55,0,0,0,2.36,0c1.33-1.3,2.63-2.64,4-3.95.52-.51,1.07-1,1.56-1.47Z"/><path class="cls-1" d="M459.77,471.45a3.91,3.91,0,0,1-2.77-1.19c-2.68-2.68-5.37-5.35-8-8a4,4,0,0,1-.68-4.83,4.11,4.11,0,0,1,4.42-1.94,1.32,1.32,0,0,0,1-.33c1.76-1.69,3.46-3.43,5.19-5.15a3.66,3.66,0,0,1,5.67,0q2.3,2.26,4.57,4.56c1.92,1.92,1.93,3.94,0,5.85-1.68,1.69-3.36,3.38-5.07,5a1.14,1.14,0,0,0-.35,1.2A4,4,0,0,1,459.77,471.45Zm2.69-7.3c1.84-1.84,3.7-3.67,5.52-5.53a1.52,1.52,0,0,0-.09-2.35c-1.61-1.64-3.24-3.26-4.87-4.87a1.57,1.57,0,0,0-2.59,0c-1.1,1.09-2.18,2.21-3.29,3.28-.71.69-1.47,1.33-2.16,2Z"/><path class="cls-1" d="M483.6,520.21a20.56,20.56,0,0,1,20.26,18.12c.12,1-.16,1.52-.84,1.62s-1.12-.32-1.23-1.3a18.61,18.61,0,0,0-14.81-16,18.33,18.33,0,1,0,13,26.21c.15-.31.29-.63.46-.93a1,1,0,1,1,1.88.87,6.66,6.66,0,0,1-.39.86,20.42,20.42,0,1,1-18.3-29.43Z"/><path class="cls-1" d="M483.78,497.56c1.87,0,3.73,0,5.6,0a4,4,0,0,1,3.91,2.92,4.07,4.07,0,0,1-1.73,4.51,1.33,1.33,0,0,0-.51.94c0,2.46,0,4.93,0,7.4a3.59,3.59,0,0,1-3.91,3.91q-3.41,0-6.81,0a3.62,3.62,0,0,1-3.9-3.93q0-3.63,0-7.24a1.17,1.17,0,0,0-.6-1.18,3.93,3.93,0,0,1-1.65-4.44,4,4,0,0,1,3.77-2.88C479.88,497.53,481.83,497.56,483.78,497.56Zm5.13,8.12H478.54c0,2.74,0,5.43,0,8.12a1.35,1.35,0,0,0,1.42,1.33c2.5,0,5,0,7.49,0a1.36,1.36,0,0,0,1.43-1.32C488.93,511.12,488.91,508.43,488.91,505.68Z"/><path class="cls-1" d="M483.67,583.74h-5.42a4,4,0,0,1-2.31-7.47,1.25,1.25,0,0,0,.43-.89c0-2.42,0-4.83,0-7.24,0-2.67,1.42-4.08,4.09-4.09H487c2.68,0,4.06,1.4,4.06,4.1,0,2.36,0,4.71,0,7.07a1.2,1.2,0,0,0,.62,1.18,3.89,3.89,0,0,1,1.65,4.43,4,4,0,0,1-3.75,2.9c-1.95,0-3.9,0-5.86,0Zm-5.15-8.14h10.4c0-2.72,0-5.39,0-8.05a1.42,1.42,0,0,0-1.54-1.4c-2.44,0-4.87,0-7.31,0a1.44,1.44,0,0,0-1.52,1.52c0,.63,0,1.26,0,1.89Z"/><path class="cls-1" d="M440.48,540.47c0-1.83,0-3.67,0-5.51a4,4,0,0,1,2.88-4,4.08,4.08,0,0,1,4.58,1.75,1.36,1.36,0,0,0,.95.49c2.47,0,4.94,0,7.41,0a3.59,3.59,0,0,1,3.87,3.86q0,3.45,0,6.9a3.62,3.62,0,0,1-3.89,3.86c-2.44,0-4.89,0-7.33,0a1.11,1.11,0,0,0-1.11.58,4,4,0,0,1-4.43,1.69,4,4,0,0,1-2.93-3.82C440.46,544.32,440.48,542.4,440.48,540.47Zm8.1,5.22h7.65c1.34,0,1.84-.51,1.84-1.89,0-2.21,0-4.42,0-6.62,0-1.36-.52-1.88-1.87-1.89h-7c-.22,0-.44.05-.66.07Z"/><path class="cls-1" d="M526.65,540.53c0,1.83,0,3.67,0,5.51a4,4,0,0,1-2.9,4,4.1,4.1,0,0,1-4.57-1.78,1.43,1.43,0,0,0-1-.45c-2.38,0-4.77,0-7.15,0-2.68,0-4.09-1.42-4.1-4.09q0-3.32,0-6.63a3.59,3.59,0,0,1,3.92-3.9c2.42,0,4.83,0,7.24,0a1.17,1.17,0,0,0,1.18-.61,3.92,3.92,0,0,1,4.43-1.67,4,4,0,0,1,2.92,3.83v5.78Zm-8.13,5.14V535.29c-2.72,0-5.38,0-8,0a1.4,1.4,0,0,0-1.41,1.45c0,2.5,0,5,0,7.49a1.36,1.36,0,0,0,1.33,1.42C513.09,545.69,515.78,545.67,518.52,545.67Z"/><path class="cls-1" d="M507.29,576.2a3.94,3.94,0,0,1-3.93-4.79,1.21,1.21,0,0,0-.4-1.27c-1.73-1.68-3.43-3.39-5.13-5.1a3.64,3.64,0,0,1,0-5.6q2.36-2.38,4.75-4.75a3.65,3.65,0,0,1,5.6,0c1.74,1.72,3.46,3.44,5.17,5.18a1,1,0,0,0,1.12.34,3.92,3.92,0,0,1,4.29,1.82,3.83,3.83,0,0,1-.38,4.65q-4.21,4.37-8.59,8.56a8.83,8.83,0,0,1-2.41,1.16ZM512,561.51c-1.83-1.82-3.67-3.68-5.53-5.5a1.49,1.49,0,0,0-2.35.09c-1.63,1.61-3.25,3.24-4.87,4.87a1.59,1.59,0,0,0,0,2.59l2.74,2.74c.89.89,1.76,1.79,2.59,2.64Z"/><path class="cls-1" d="M448,516.93a3.73,3.73,0,0,1,1.08-2.73c2.73-2.75,5.47-5.51,8.23-8.22a3.94,3.94,0,0,1,4.78-.6,4,4,0,0,1,1.88,4.35,1,1,0,0,0,.36,1.13c1.74,1.71,3.46,3.44,5.18,5.17a3.64,3.64,0,0,1,0,5.55q-2.42,2.46-4.88,4.87a3.6,3.6,0,0,1-5.42,0c-1.76-1.74-3.51-3.48-5.23-5.25a1.16,1.16,0,0,0-1.2-.37A4,4,0,0,1,448,516.93Zm7.28,2.63c1.78,1.76,3.56,3.55,5.35,5.32a1.63,1.63,0,0,0,2.67,0c1.57-1.55,3.13-3.12,4.69-4.68,1-1,1-1.72,0-2.73l-4.86-4.87c-.16-.15-.34-.28-.45-.38Z"/><path class="cls-1" d="M519.12,517a3.92,3.92,0,0,1-4.75,3.89,1.28,1.28,0,0,0-1.34.44c-1.66,1.71-3.35,3.39-5,5.07s-3.86,1.77-5.67,0c-1.59-1.58-3.18-3.16-4.75-4.76a3.61,3.61,0,0,1,0-5.48c1.73-1.76,3.48-3.5,5.24-5.24a1.06,1.06,0,0,0,.35-1.13,3.94,3.94,0,0,1,1.9-4.33,3.86,3.86,0,0,1,4.64.49c2.84,2.77,5.66,5.55,8.39,8.43a9.38,9.38,0,0,1,1.27,2.53Zm-14.66-4.8c-1.86,1.86-3.74,3.71-5.58,5.59A1.45,1.45,0,0,0,499,520q2.51,2.55,5.05,5a1.54,1.54,0,0,0,2.36,0c1.33-1.3,2.63-2.63,4-3.94.52-.52,1.07-1,1.56-1.48Z"/><path class="cls-1" d="M459.77,576.2A3.87,3.87,0,0,1,457,575c-2.68-2.67-5.37-5.34-8-8a4,4,0,0,1-.68-4.83,4.11,4.11,0,0,1,4.42-1.94,1.35,1.35,0,0,0,1-.32c1.76-1.7,3.46-3.44,5.19-5.16a3.66,3.66,0,0,1,5.67,0l4.57,4.56c1.92,1.92,1.93,4,0,5.85-1.68,1.69-3.36,3.38-5.07,5a1.14,1.14,0,0,0-.35,1.2A4,4,0,0,1,459.77,576.2Zm2.69-7.29c1.84-1.84,3.7-3.67,5.52-5.54a1.52,1.52,0,0,0-.09-2.35c-1.61-1.63-3.24-3.25-4.87-4.87a1.57,1.57,0,0,0-2.59,0c-1.1,1.08-2.18,2.2-3.29,3.28-.71.69-1.47,1.33-2.16,1.95Z"/><path class="cls-1" d="M483.6,625a20.54,20.54,0,0,1,20.26,18.11c.12,1-.16,1.52-.84,1.62s-1.12-.31-1.23-1.29a18.62,18.62,0,0,0-14.81-16,18.33,18.33,0,1,0,13,26.21c.15-.31.29-.62.46-.93a1,1,0,0,1,1.88.88,8.16,8.16,0,0,1-.39.86A20.42,20.42,0,1,1,483.6,625Z"/><path class="cls-1" d="M483.78,602.31c1.87,0,3.73,0,5.6,0a4,4,0,0,1,3.91,2.92,4.06,4.06,0,0,1-1.73,4.5,1.33,1.33,0,0,0-.51.94c0,2.47,0,4.94,0,7.41a3.6,3.6,0,0,1-3.91,3.91c-2.27,0-4.54,0-6.81,0a3.63,3.63,0,0,1-3.9-3.94q0-3.62,0-7.24a1.19,1.19,0,0,0-.6-1.18,3.93,3.93,0,0,1-1.65-4.44,4,4,0,0,1,3.77-2.88C479.88,602.29,481.83,602.31,483.78,602.31Zm5.13,8.13H478.54c0,2.74,0,5.43,0,8.12a1.36,1.36,0,0,0,1.42,1.33c2.5,0,5,0,7.49,0a1.37,1.37,0,0,0,1.43-1.33C488.93,615.87,488.91,613.18,488.91,610.44Z"/><path class="cls-1" d="M483.67,688.49h-5.42a4,4,0,0,1-2.31-7.48,1.23,1.23,0,0,0,.43-.89c0-2.41,0-4.82,0-7.24,0-2.67,1.42-4.08,4.09-4.08H487c2.68,0,4.06,1.39,4.06,4.1,0,2.35,0,4.71,0,7.06a1.2,1.2,0,0,0,.62,1.18,3.89,3.89,0,0,1,1.65,4.43,4,4,0,0,1-3.75,2.91c-1.95,0-3.9,0-5.86,0Zm-5.15-8.14h10.4c0-2.72,0-5.38,0-8.05a1.42,1.42,0,0,0-1.54-1.4c-2.44,0-4.87,0-7.31,0a1.42,1.42,0,0,0-1.52,1.51c0,.63,0,1.26,0,1.89Z"/><path class="cls-1" d="M440.48,645.23c0-1.84,0-3.68,0-5.52a4,4,0,0,1,2.88-4,4.06,4.06,0,0,1,4.58,1.74,1.29,1.29,0,0,0,.95.49c2.47,0,4.94,0,7.41,0a3.58,3.58,0,0,1,3.87,3.86q0,3.44,0,6.89a3.61,3.61,0,0,1-3.89,3.86c-2.44,0-4.89,0-7.33,0a1.11,1.11,0,0,0-1.11.57,4,4,0,0,1-4.43,1.7,4,4,0,0,1-2.93-3.83C440.46,649.08,440.48,647.15,440.48,645.23Zm8.1,5.21h7.65c1.34,0,1.84-.52,1.84-1.9,0-2.2,0-4.41,0-6.62,0-1.36-.52-1.88-1.87-1.88h-7a4.93,4.93,0,0,0-.66.07Z"/><path class="cls-1" d="M526.65,645.28c0,1.84,0,3.68,0,5.52a4.06,4.06,0,0,1-2.9,4,4.11,4.11,0,0,1-4.57-1.78,1.4,1.4,0,0,0-1-.46c-2.38,0-4.77,0-7.15,0-2.68,0-4.09-1.42-4.1-4.08q0-3.33,0-6.64a3.58,3.58,0,0,1,3.92-3.89c2.42,0,4.83,0,7.24,0a1.2,1.2,0,0,0,1.18-.62,3.93,3.93,0,0,1,4.43-1.67,4,4,0,0,1,2.92,3.84v5.77Zm-8.13,5.14V640.05c-2.72,0-5.38,0-8,0a1.39,1.39,0,0,0-1.41,1.44c0,2.5,0,5,0,7.49a1.36,1.36,0,0,0,1.33,1.42C513.09,650.45,515.78,650.42,518.52,650.42Z"/><path class="cls-1" d="M507.29,681a3.94,3.94,0,0,1-3.93-4.79,1.19,1.19,0,0,0-.4-1.26c-1.73-1.69-3.43-3.39-5.13-5.1a3.65,3.65,0,0,1,0-5.61q2.36-2.38,4.75-4.75a3.65,3.65,0,0,1,5.6,0q2.61,2.58,5.17,5.18a1,1,0,0,0,1.12.35,3.91,3.91,0,0,1,4.29,1.82,3.82,3.82,0,0,1-.38,4.64q-4.21,4.37-8.59,8.57a8.81,8.81,0,0,1-2.41,1.15ZM512,666.27c-1.83-1.83-3.67-3.69-5.53-5.51a1.49,1.49,0,0,0-2.35.09l-4.87,4.87a1.6,1.6,0,0,0,0,2.6c.91.92,1.84,1.82,2.74,2.74s1.76,1.78,2.59,2.63Z"/><path class="cls-1" d="M448,621.68a3.75,3.75,0,0,1,1.08-2.73c2.73-2.75,5.47-5.5,8.23-8.22a4,4,0,0,1,6.66,3.76,1,1,0,0,0,.36,1.12c1.74,1.71,3.46,3.44,5.18,5.17a3.65,3.65,0,0,1,0,5.56c-1.61,1.63-3.24,3.26-4.88,4.87a3.6,3.6,0,0,1-5.42,0c-1.76-1.73-3.51-3.48-5.23-5.24a1.15,1.15,0,0,0-1.2-.37A4,4,0,0,1,448,621.68Zm7.28,2.63,5.35,5.33a1.64,1.64,0,0,0,2.67,0l4.69-4.69c1-1,1-1.72,0-2.72-1.61-1.63-3.24-3.25-4.86-4.87a5.39,5.39,0,0,0-.45-.38Z"/><path class="cls-1" d="M519.12,621.71a3.93,3.93,0,0,1-4.75,3.9A1.27,1.27,0,0,0,513,626c-1.66,1.71-3.35,3.39-5,5.07a3.66,3.66,0,0,1-5.67,0c-1.59-1.59-3.18-3.17-4.75-4.76a3.62,3.62,0,0,1,0-5.49q2.6-2.64,5.24-5.23a1.07,1.07,0,0,0,.35-1.13,3.94,3.94,0,0,1,1.9-4.34,3.87,3.87,0,0,1,4.64.49c2.84,2.77,5.66,5.56,8.39,8.43a9.3,9.3,0,0,1,1.27,2.54Zm-14.66-4.8c-1.86,1.86-3.74,3.71-5.58,5.6a1.45,1.45,0,0,0,.07,2.22c1.67,1.69,3.35,3.38,5.05,5a1.55,1.55,0,0,0,2.36,0c1.33-1.3,2.63-2.64,4-4,.52-.52,1.07-1,1.56-1.47Z"/><path class="cls-1" d="M459.77,681a3.86,3.86,0,0,1-2.77-1.18c-2.68-2.68-5.37-5.35-8-8a4,4,0,0,1-.68-4.83,4.11,4.11,0,0,1,4.42-1.94,1.36,1.36,0,0,0,1-.33c1.76-1.69,3.46-3.43,5.19-5.15a3.66,3.66,0,0,1,5.67,0l4.57,4.56c1.92,1.93,1.93,4,0,5.86-1.68,1.69-3.36,3.38-5.07,5a1.13,1.13,0,0,0-.35,1.2A3.94,3.94,0,0,1,459.77,681Zm2.69-7.29c1.84-1.84,3.7-3.67,5.52-5.53a1.52,1.52,0,0,0-.09-2.35c-1.61-1.64-3.24-3.26-4.87-4.87a1.57,1.57,0,0,0-2.59,0c-1.1,1.09-2.18,2.21-3.29,3.28-.71.69-1.47,1.33-2.16,1.95Z"/><rect class="cls-1" x="224.11" y="139.07" width="78.43" height="549.42"/><rect class="cls-2" x="43.04" y="1.5" width="440.47" height="137.57"/><path class="cls-1" d="M263.18,33.6q25.31,0,50.6,0A4.33,4.33,0,0,1,317.12,35q6,6.15,12.19,12.2a3.73,3.73,0,0,1,1.2,2.85q0,17.25,0,34.49a3.73,3.73,0,0,1-1.2,2.85q-6.24,6.17-12.39,12.39a3.75,3.75,0,0,1-2.86,1.19q-50.88,0-101.77,0a3.72,3.72,0,0,1-2.85-1.19q-6.15-6.24-12.39-12.4a3.71,3.71,0,0,1-1.2-2.84q0-17.25,0-34.49a3.73,3.73,0,0,1,1.2-2.85c4.09-4,8.16-8.09,12.19-12.2a4.3,4.3,0,0,1,3.33-1.39Q237.88,33.64,263.18,33.6Zm-48.43,4.53c.12.44.18.72.26,1q7.88,23.63,15.74,47.26c.32,1,.85,1.11,1.73,1.11q30.69,0,61.39,0a1.54,1.54,0,0,0,1.79-1.24q7.75-23.44,15.58-46.88c.12-.38.21-.77.33-1.23Zm9.91,58.25h77q2.52-14.13,5-28.19a1.62,1.62,0,0,0-.67,1q-3.39,10.16-6.77,20.32c-.73,2.16-1.16,2.47-3.44,2.47H230.5c-2.29,0-2.72-.31-3.44-2.47q-3.27-9.84-6.54-19.66c-.19-.59-.42-1.17-.64-1.76l-.27.08Q222.13,82.24,224.66,96.38ZM209.2,82.9V41.34c-2.79,2.82-5.42,5.41-8,8.08a3.25,3.25,0,0,0-.85,2c0,10,0,20.1,0,30.15V82.9Zm116.8,0V81.27c0-9-.13-17.93.08-26.89.07-3-.67-5.19-3-7.12-2.09-1.74-3.86-3.85-6-6V82.92ZM220.11,96.44l-1.6-8.89H203.57c3,3,5.79,5.77,8.61,8.54a1.35,1.35,0,0,0,.86.33C215.32,96.45,217.6,96.44,220.11,96.44Zm87.73-8.91-1.59,8.91a46.05,46.05,0,0,1,4.86,0,5.14,5.14,0,0,0,4.73-2c2.13-2.37,4.48-4.54,6.94-7Zm-90.15-4.62L214,62.4l-.12,0V82.91Zm94.82-20.43-.19-.06q-1.83,10.22-3.65,20.45h3.84Z"/><path class="cls-1" d="M252,82.87V78.56h8.8v4.31Z"/><path class="cls-1" d="M274.37,78.57v4.3h-8.85v-4.3Z"/></g></g></svg>