<svg xmlns="http://www.w3.org/2000/svg" viewBox="0 0 401.9 565.64"><defs><style>.cls-1,.cls-3,.cls-4{fill:#0b3d2e;}.cls-2{fill:none;stroke:#0b3d2e;stroke-miterlimit:10;stroke-width:2.93px;}.cls-3{font-size:21.92px;}.cls-3,.cls-4{font-family:Poppins-Bold, Poppins;font-weight:700;}.cls-4{font-size:20px;}</style></defs><g id="Calque_2" data-name="Calque 2"><g id="Calque_1-2" data-name="Calque 1"><rect class="cls-1" x="170.64" y="102.37" width="57.53" height="463.26"/><rect class="cls-2" x="37.82" y="1.47" width="323.08" height="100.91"/><path class="cls-1" d="M199.3,25h37.11a3.19,3.19,0,0,1,2.45,1q4.41,4.51,8.94,8.95a2.69,2.69,0,0,1,.88,2.09v25.3a2.69,2.69,0,0,1-.88,2.09q-4.58,4.53-9.09,9.09a2.72,2.72,0,0,1-2.09.87H162a2.72,2.72,0,0,1-2.09-.87q-4.51-4.58-9.09-9.1a2.72,2.72,0,0,1-.88-2.08V37.07a2.76,2.76,0,0,1,.88-2.09c3-2.93,6-5.93,8.94-8.95a3.18,3.18,0,0,1,2.44-1Q180.74,25,199.3,25Zm-35.53,3.33c.09.32.14.52.19.73q5.79,17.32,11.55,34.66c.23.74.62.82,1.27.82h45a1.13,1.13,0,0,0,1.31-.91q5.69-17.19,11.43-34.39c.09-.28.15-.56.24-.9ZM171,71.06h56.48q1.84-10.36,3.67-20.68a1.21,1.21,0,0,0-.49.74q-2.44,7.43-4.92,14.89c-.53,1.59-.85,1.82-2.52,1.82H175.33c-1.68,0-2-.23-2.53-1.82Q170.4,58.8,168,51.59c-.14-.43-.31-.85-.47-1.29l-.2.06Q169.19,60.7,171,71.06ZM159.7,61.17V30.69c-2,2.07-4,4-5.87,5.93a2.35,2.35,0,0,0-.62,1.46V61.17Zm85.68,0V60c0-6.6-.1-13.15.05-19.73a5.89,5.89,0,0,0-2.2-5.22c-1.53-1.27-2.83-2.82-4.4-4.4V61.19ZM167.7,71.11l-1.17-6.53h-11c2.2,2.21,4.25,4.24,6.32,6.27a1,1,0,0,0,.63.24C164.19,71.15,165.86,71.11,167.7,71.11Zm64.35-6.56-1.16,6.53a35.23,35.23,0,0,1,3.56,0,3.76,3.76,0,0,0,3.47-1.46c1.57-1.74,3.29-3.33,5.09-5.14Zm-66.12-3.39-2.71-15h-.08v15Zm69.55-14.95-.14,0q-1.34,7.48-2.68,15h2.82Z"/><path class="cls-1" d="M191.1,61.15V58h6.45v3.16Z"/><path class="cls-1" d="M207.5,58v3.15H201V58Z"/><path class="cls-1" d="M31.64,155.4A15.07,15.07,0,0,1,46.5,168.69c.09.71-.12,1.11-.62,1.19s-.82-.24-.9-.95a13.65,13.65,0,0,0-10.86-11.74,13.44,13.44,0,1,0,9.53,19.22c.11-.22.22-.46.34-.68a.77.77,0,0,1,1-.37.76.76,0,0,1,.37,1h0a4.51,4.51,0,0,1-.29.63,15,15,0,1,1-13.42-21.58Z"/><path class="cls-1" d="M31.77,138.79h4.11a2.94,2.94,0,0,1,2.87,2.14,3,3,0,0,1-1.27,3.31,1,1,0,0,0-.38.68v5.43a2.64,2.64,0,0,1-2.39,2.87,1.93,1.93,0,0,1-.48,0h-5a2.65,2.65,0,0,1-2.86-2.44,3.38,3.38,0,0,1,0-.45V145a.88.88,0,0,0-.44-.87,2.87,2.87,0,0,1-1.21-3.25,2.94,2.94,0,0,1,2.76-2.12C28.91,138.76,30.34,138.79,31.77,138.79Zm3.76,6h-7.6v6a1,1,0,0,0,1,1h5.53a1,1,0,0,0,1-.94v0C35.55,148.73,35.53,146.76,35.53,144.74Z"/><path class="cls-1" d="M31.69,202h-4A2.93,2.93,0,0,1,26,196.53a.9.9,0,0,0,.31-.66v-5.3a2.7,2.7,0,0,1,3-3h4.74a2.66,2.66,0,0,1,3,3v5.18a.86.86,0,0,0,.45.86A2.94,2.94,0,0,1,36,202H31.69Zm-3.78-6h7.63v-5.86a1.05,1.05,0,0,0-1-1H29.05a1.07,1.07,0,0,0-1.12,1v1.51Z"/><path class="cls-1" d="M0,170.26v-4a2.93,2.93,0,0,1,2.11-2.93,3,3,0,0,1,3.36,1.28,1,1,0,0,0,.74.36h5.43a2.63,2.63,0,0,1,2.84,2.41,2.94,2.94,0,0,1,0,.42v5.05a2.64,2.64,0,0,1-2.48,2.8H6.22a.8.8,0,0,0-.81.42,2.89,2.89,0,0,1-3.25,1.24A2.92,2.92,0,0,1,0,174.49Zm5.94,3.83h5.61c1,0,1.35-.38,1.35-1.39v-4.86c0-1-.38-1.37-1.37-1.38H6.4a1.67,1.67,0,0,0-.49,0Z"/><path class="cls-1" d="M63.22,170.31v4a2.93,2.93,0,0,1-2.13,2.93,3,3,0,0,1-3.35-1.3,1,1,0,0,0-.74-.34H51.76a2.69,2.69,0,0,1-3-3v-4.86a2.63,2.63,0,0,1,2.38-2.86,2.78,2.78,0,0,1,.5,0h5.31a.84.84,0,0,0,.86-.45,2.87,2.87,0,0,1,3.25-1.22,2.94,2.94,0,0,1,2.17,2.82v4.24Zm-6,3.77v-7.62H51.38a1,1,0,0,0-1.06,1V173a1,1,0,0,0,1,1h6Z"/><path class="cls-1" d="M49,196.47a2.9,2.9,0,0,1-2.95-2.83,3.08,3.08,0,0,1,.07-.68.9.9,0,0,0-.29-.94q-1.91-1.85-3.76-3.74a2.67,2.67,0,0,1-.35-3.76,2.26,2.26,0,0,1,.35-.34c1.15-1.17,2.31-2.34,3.48-3.49a2.68,2.68,0,0,1,3.76-.35,3.85,3.85,0,0,1,.35.35c1.27,1.26,2.54,2.52,3.79,3.8a.74.74,0,0,0,.82.25,2.88,2.88,0,0,1,3.15,1.34,2.8,2.8,0,0,1-.28,3.4q-3.09,3.21-6.3,6.28a6.45,6.45,0,0,1-1.77.86Zm3.49-10.78c-1.34-1.34-2.69-2.7-4.06-4a1.09,1.09,0,0,0-1.54-.12.7.7,0,0,0-.18.2q-1.78,1.76-3.57,3.56a1.17,1.17,0,0,0-.29,1.63,1.28,1.28,0,0,0,.29.28c.66.67,1.34,1.33,2,2l1.9,1.93Z"/><path class="cls-1" d="M5.53,153a2.74,2.74,0,0,1,.8-2c2-2,4-4,6-6a2.94,2.94,0,0,1,4.89,2.78.73.73,0,0,0,.26.82c1.28,1.26,2.54,2.52,3.8,3.8a2.67,2.67,0,0,1,.31,3.76c-.1.11-.2.21-.31.31q-1.77,1.8-3.58,3.57a2.63,2.63,0,0,1-3.72.25,2,2,0,0,1-.25-.25c-1.3-1.28-2.58-2.55-3.84-3.85a.84.84,0,0,0-.88-.27,2.94,2.94,0,0,1-3.45-2.31A2.78,2.78,0,0,1,5.53,153Zm5.34,1.93c1.31,1.29,2.61,2.61,3.93,3.91a1.21,1.21,0,0,0,2,0l3.44-3.44c.73-.74.73-1.26,0-2l-3.57-3.57-.33-.28Z"/><path class="cls-1" d="M57.69,153a2.86,2.86,0,0,1-2.82,2.92,2.42,2.42,0,0,1-.66-.06.92.92,0,0,0-1,.32c-1.22,1.25-2.46,2.49-3.67,3.72a2.68,2.68,0,0,1-3.78.38,2.28,2.28,0,0,1-.38-.38q-1.76-1.74-3.49-3.49a2.64,2.64,0,0,1-.28-3.73,2.57,2.57,0,0,1,.28-.29q1.91-1.93,3.85-3.84a.77.77,0,0,0,.25-.83,2.9,2.9,0,0,1,1.4-3.18,2.82,2.82,0,0,1,3.4.36c2.08,2,4.15,4.07,6.16,6.18A7.2,7.2,0,0,1,57.9,153ZM47,149.5c-1.37,1.36-2.75,2.71-4.1,4.1a1.07,1.07,0,0,0-.08,1.5l.13.12q1.85,1.88,3.71,3.67a1.13,1.13,0,0,0,1.59.14.93.93,0,0,0,.14-.14c1-.95,1.93-1.93,2.93-2.89.39-.38.79-.73,1.15-1.08Z"/><path class="cls-1" d="M14.16,196.47a2.86,2.86,0,0,1-2-.87l-5.87-5.87a2.93,2.93,0,0,1-.5-3.54A3,3,0,0,1,9,184.76a1,1,0,0,0,.74-.23c1.29-1.25,2.53-2.53,3.8-3.79a2.68,2.68,0,0,1,3.78-.38,2.73,2.73,0,0,1,.38.38l3.35,3.35a2.7,2.7,0,0,1,0,4.29c-1.23,1.24-2.46,2.48-3.72,3.67a.83.83,0,0,0-.25.88,3,3,0,0,1-2.26,3.48A3.68,3.68,0,0,1,14.16,196.47Zm2-5.36c1.35-1.34,2.72-2.69,4.05-4.05a1.13,1.13,0,0,0,.1-1.58l-.17-.15c-1.18-1.19-2.37-2.39-3.57-3.57a1.15,1.15,0,0,0-1.6-.3,1.22,1.22,0,0,0-.3.3c-.8.8-1.6,1.62-2.41,2.42-.52.5-1.08,1-1.58,1.42Z"/><text class="cls-3" transform="translate(27.77 178.32)">1</text><path class="cls-1" d="M121.63,155.4a15.07,15.07,0,0,1,14.86,13.29c.09.71-.12,1.11-.61,1.19s-.83-.24-.91-.95a13.63,13.63,0,0,0-10.86-11.74,13.44,13.44,0,1,0,9.54,19.22c.11-.22.21-.46.33-.68a.77.77,0,0,1,1-.37.76.76,0,0,1,.37,1h0a4.46,4.46,0,0,1-.28.63,15,15,0,1,1-13.43-21.58Z"/><path class="cls-1" d="M121.76,138.79h4.11a2.94,2.94,0,0,1,2.87,2.14,3,3,0,0,1-1.27,3.31,1,1,0,0,0-.37.68v5.43a2.64,2.64,0,0,1-2.4,2.87,1.85,1.85,0,0,1-.47,0h-5a2.66,2.66,0,0,1-2.86-2.44,3.38,3.38,0,0,1,0-.45V145a.86.86,0,0,0-.44-.87,2.88,2.88,0,0,1-1.21-3.25,2.94,2.94,0,0,1,2.77-2.12C118.9,138.76,120.33,138.79,121.76,138.79Zm3.77,6h-7.61v6a1,1,0,0,0,1,1h5.54a1,1,0,0,0,1-.94v0C125.54,148.73,125.53,146.76,125.53,144.74Z"/><path class="cls-1" d="M121.68,202h-4a2.94,2.94,0,0,1-1.7-5.48.91.91,0,0,0,.32-.66v-5.3a2.69,2.69,0,0,1,3-3h4.73a2.66,2.66,0,0,1,3,3v5.18a.88.88,0,0,0,.46.86A2.94,2.94,0,0,1,126,202h-4.29Zm-3.77-6h7.62v-5.86a1,1,0,0,0-1-1H119a1.05,1.05,0,0,0-1.11,1v1.51Z"/><path class="cls-1" d="M90,170.26v-4a2.91,2.91,0,0,1,2.11-2.93,3,3,0,0,1,3.36,1.28,1,1,0,0,0,.73.36h5.44a2.62,2.62,0,0,1,2.83,2.41,2,2,0,0,1,0,.42v5.05a2.65,2.65,0,0,1-2.49,2.8H96.22a.81.81,0,0,0-.82.42,2.89,2.89,0,0,1-3.25,1.24A2.92,2.92,0,0,1,90,174.49Zm5.94,3.83h5.61c1,0,1.35-.38,1.35-1.39v-4.86c0-1-.38-1.37-1.37-1.38H96.39a1.57,1.57,0,0,0-.48,0Z"/><path class="cls-1" d="M153.21,170.31v4a2.93,2.93,0,0,1-2.13,2.93,3,3,0,0,1-3.35-1.3,1,1,0,0,0-.73-.34h-5.25a2.7,2.7,0,0,1-3-3v-4.86a2.64,2.64,0,0,1,2.39-2.86,2.67,2.67,0,0,1,.49,0h5.31a.85.85,0,0,0,.87-.45,2.85,2.85,0,0,1,3.24-1.22,2.93,2.93,0,0,1,2.17,2.82v4.24Zm-6,3.77v-7.62h-5.87a1,1,0,0,0-1.07,1V173a1,1,0,0,0,.95,1h6Z"/><path class="cls-1" d="M139,196.47a2.89,2.89,0,0,1-2.95-2.83,2.58,2.58,0,0,1,.07-.68.91.91,0,0,0-.3-.94c-1.27-1.23-2.51-2.48-3.76-3.74a2.68,2.68,0,0,1-.35-3.76,2.81,2.81,0,0,1,.35-.34c1.15-1.17,2.31-2.34,3.48-3.49a2.68,2.68,0,0,1,3.76-.35,2.89,2.89,0,0,1,.35.35c1.28,1.26,2.54,2.52,3.79,3.8a.74.74,0,0,0,.82.25,2.88,2.88,0,0,1,3.15,1.34,2.79,2.79,0,0,1-.28,3.4q-3.09,3.21-6.3,6.28a6.45,6.45,0,0,1-1.77.86Zm3.48-10.78c-1.34-1.34-2.68-2.7-4.05-4a1.09,1.09,0,0,0-1.54-.12.73.73,0,0,0-.19.2q-1.78,1.76-3.57,3.56a1.17,1.17,0,0,0-.28,1.63,1.24,1.24,0,0,0,.28.28c.66.67,1.34,1.33,2,2l1.9,1.93Z"/><path class="cls-1" d="M95.53,153a2.69,2.69,0,0,1,.79-2c2-2,4-4,6-6a2.93,2.93,0,0,1,4.88,2.78.74.74,0,0,0,.26.82c1.28,1.26,2.54,2.52,3.8,3.8a2.66,2.66,0,0,1,.31,3.76,3,3,0,0,1-.31.31c-1.17,1.2-2.37,2.39-3.58,3.57a2.63,2.63,0,0,1-3.72.25,3,3,0,0,1-.25-.25c-1.29-1.28-2.58-2.55-3.84-3.85a.84.84,0,0,0-.88-.27,2.94,2.94,0,0,1-3.45-2.31A2.78,2.78,0,0,1,95.53,153Zm5.34,1.93,3.92,3.91a1.2,1.2,0,0,0,1.67.29,1.33,1.33,0,0,0,.29-.29l3.44-3.44c.73-.74.73-1.26,0-2-1.18-1.2-2.38-2.38-3.57-3.57-.11-.11-.25-.21-.33-.28Z"/><path class="cls-1" d="M147.69,153a2.87,2.87,0,0,1-2.83,2.92,2.46,2.46,0,0,1-.66-.06.92.92,0,0,0-1,.32c-1.22,1.25-2.46,2.49-3.67,3.72a2.68,2.68,0,0,1-3.78.38,2.73,2.73,0,0,1-.38-.38c-1.16-1.16-2.33-2.32-3.48-3.49a2.65,2.65,0,0,1,0-4c1.26-1.29,2.55-2.57,3.84-3.84a.78.78,0,0,0,.26-.83,2.88,2.88,0,0,1,1.39-3.18,2.84,2.84,0,0,1,3.41.36c2.08,2,4.15,4.07,6.15,6.18a7.2,7.2,0,0,1,.93,1.86Zm-10.75-3.51c-1.36,1.36-2.74,2.71-4.09,4.1a1.06,1.06,0,0,0-.09,1.5.81.81,0,0,0,.14.12q1.84,1.88,3.7,3.67a1.13,1.13,0,0,0,1.59.14.93.93,0,0,0,.14-.14c1-.95,1.93-1.93,2.94-2.89.38-.38.78-.73,1.14-1.08Z"/><path class="cls-1" d="M104.15,196.47a2.86,2.86,0,0,1-2-.87l-5.87-5.87a2.94,2.94,0,0,1-.5-3.54A3,3,0,0,1,99,184.76a1,1,0,0,0,.73-.23c1.29-1.25,2.54-2.53,3.81-3.79a2.67,2.67,0,0,1,3.77-.38,3.5,3.5,0,0,1,.39.38l3.35,3.35a2.7,2.7,0,0,1,0,4.29c-1.24,1.24-2.47,2.48-3.72,3.67a.83.83,0,0,0-.26.88,2.93,2.93,0,0,1-2.26,3.48A3.68,3.68,0,0,1,104.15,196.47Zm2-5.36c1.35-1.34,2.71-2.69,4-4.05a1.11,1.11,0,0,0,.1-1.58l-.16-.15c-1.18-1.19-2.38-2.39-3.57-3.57a1.16,1.16,0,0,0-1.6-.3,1.22,1.22,0,0,0-.3.3c-.81.8-1.6,1.62-2.42,2.42-.52.5-1.07,1-1.58,1.42Z"/><text class="cls-3" transform="matrix(0.99, 0.11, -0.11, 0.99, 115.25, 177.59)">2</text><path class="cls-1" d="M31.64,228.12A15.08,15.08,0,0,1,46.5,241.41c.09.71-.12,1.11-.62,1.19s-.82-.23-.9-.95a13.65,13.65,0,0,0-10.86-11.74,13.45,13.45,0,1,0,9.53,19.22c.11-.22.22-.45.34-.67a.76.76,0,0,1,1.38.63h0a4.51,4.51,0,0,1-.29.63,15,15,0,1,1-13.42-21.58Z"/><path class="cls-1" d="M31.77,211.51h4.11a2.94,2.94,0,0,1,2.87,2.14A3,3,0,0,1,37.48,217a1,1,0,0,0-.38.68v5.44a2.64,2.64,0,0,1-2.39,2.86,1.93,1.93,0,0,1-.48,0h-5a2.65,2.65,0,0,1-2.86-2.44,3.38,3.38,0,0,1,0-.45v-5.3a.88.88,0,0,0-.44-.87,2.87,2.87,0,0,1-1.21-3.25,2.93,2.93,0,0,1,2.76-2.11C28.91,211.49,30.34,211.51,31.77,211.51Zm3.76,6h-7.6v5.95a1,1,0,0,0,1,1h5.53a1,1,0,0,0,1-1v0C35.55,221.46,35.53,219.48,35.53,217.47Z"/><path class="cls-1" d="M31.69,274.74h-4A2.94,2.94,0,0,1,26,269.26a.94.94,0,0,0,.31-.66v-5.31a2.7,2.7,0,0,1,3-3h4.74a2.66,2.66,0,0,1,3,3v5.19a.87.87,0,0,0,.45.86A2.93,2.93,0,0,1,36,274.73H31.69Zm-3.78-6h7.63V262.9a1,1,0,0,0-1-1H29.05a1.07,1.07,0,0,0-1.12,1v1.5Z"/><path class="cls-1" d="M0,243v-4A2.93,2.93,0,0,1,2.11,236a3,3,0,0,1,3.36,1.28,1,1,0,0,0,.74.36h5.43a2.63,2.63,0,0,1,2.84,2.41,2.94,2.94,0,0,1,0,.42v5.06a2.64,2.64,0,0,1-2.48,2.8H6.22a.82.82,0,0,0-.81.42A2.94,2.94,0,0,1,0,247.22Zm5.94,3.83h5.61c1,0,1.35-.38,1.35-1.38v-4.87c0-1-.38-1.37-1.37-1.38H6.4a1.4,1.4,0,0,0-.49.06Z"/><path class="cls-1" d="M63.22,243v4A2.93,2.93,0,0,1,61.09,250a3,3,0,0,1-3.35-1.3,1,1,0,0,0-.74-.33H51.76a2.69,2.69,0,0,1-3-3V240.5a2.64,2.64,0,0,1,2.38-2.86h5.81a.85.85,0,0,0,.86-.44A2.86,2.86,0,0,1,61.05,236a2.94,2.94,0,0,1,2.17,2.83V243Zm-6,3.77v-7.62H51.38a1,1,0,0,0-1.06,1v5.58a1,1,0,0,0,1,1.05h6Z"/><path class="cls-1" d="M49,269.19a2.89,2.89,0,0,1-2.95-2.83,3.08,3.08,0,0,1,.07-.68.89.89,0,0,0-.29-.93q-1.91-1.86-3.76-3.74a2.67,2.67,0,0,1-.35-3.76,1.93,1.93,0,0,1,.35-.35q1.72-1.75,3.48-3.49a2.67,2.67,0,0,1,3.76-.34,2.81,2.81,0,0,1,.35.34c1.27,1.27,2.54,2.53,3.79,3.8a.72.72,0,0,0,.82.25,2.88,2.88,0,0,1,3.15,1.34,2.8,2.8,0,0,1-.28,3.4q-3.09,3.21-6.3,6.29a6.42,6.42,0,0,1-1.77.85Zm3.49-10.77q-2-2-4.06-4.05a1.09,1.09,0,0,0-1.54-.12.86.86,0,0,0-.18.2c-1.19,1.18-2.38,2.36-3.57,3.56a1.17,1.17,0,0,0-.29,1.63,1.28,1.28,0,0,0,.29.28l2,2,1.9,1.94Z"/><path class="cls-1" d="M5.53,225.72a2.76,2.76,0,0,1,.8-2c2-2,4-4,6-6a2.94,2.94,0,0,1,4.89,2.78.73.73,0,0,0,.26.82c1.28,1.26,2.54,2.52,3.8,3.8a2.67,2.67,0,0,1,.31,3.76,3,3,0,0,1-.31.31q-1.77,1.8-3.58,3.57A2.63,2.63,0,0,1,14,233a2,2,0,0,1-.25-.25q-1.95-1.91-3.84-3.85A.86.86,0,0,0,9,228.6a2.94,2.94,0,0,1-3.45-2.31A2.76,2.76,0,0,1,5.53,225.72Zm5.34,1.92c1.31,1.3,2.61,2.61,3.93,3.91a1.21,1.21,0,0,0,2,0l3.44-3.44c.73-.74.73-1.26,0-2l-3.57-3.57c-.12-.11-.25-.2-.33-.28Z"/><path class="cls-1" d="M57.69,225.73a2.85,2.85,0,0,1-3.48,2.86.93.93,0,0,0-1,.33l-3.67,3.71a2.69,2.69,0,0,1-3.78.39,2.79,2.79,0,0,1-.38-.39c-1.17-1.15-2.33-2.32-3.49-3.49a2.64,2.64,0,0,1-.28-3.73,3.83,3.83,0,0,1,.28-.29q1.91-1.94,3.85-3.84a.77.77,0,0,0,.25-.83,2.9,2.9,0,0,1,1.4-3.18,2.83,2.83,0,0,1,3.4.36c2.08,2,4.15,4.07,6.16,6.18a7.2,7.2,0,0,1,.93,1.86ZM47,222.22c-1.37,1.36-2.75,2.71-4.1,4.1a1.07,1.07,0,0,0-.08,1.5,1.59,1.59,0,0,0,.13.13c1.23,1.24,2.47,2.47,3.71,3.66a1.13,1.13,0,0,0,1.59.14l.14-.14c1-1,1.93-1.92,2.93-2.89.39-.38.79-.73,1.15-1.08Z"/><path class="cls-1" d="M14.16,269.19a2.82,2.82,0,0,1-2-.87l-5.87-5.87a2.92,2.92,0,0,1-.5-3.54A3,3,0,0,1,9,257.48a1,1,0,0,0,.74-.23c1.29-1.25,2.53-2.52,3.8-3.78a2.69,2.69,0,0,1,3.78-.39,2.79,2.79,0,0,1,.38.39l3.35,3.34a2.7,2.7,0,0,1,0,4.29c-1.23,1.24-2.46,2.48-3.72,3.67a.83.83,0,0,0-.25.88,2.92,2.92,0,0,1-2.92,3.54Zm2-5.35c1.35-1.35,2.72-2.69,4.05-4.06a1.12,1.12,0,0,0,.1-1.57.8.8,0,0,0-.17-.15q-1.77-1.8-3.57-3.58a1.15,1.15,0,0,0-1.6-.29,1.18,1.18,0,0,0-.3.29c-.8.8-1.6,1.63-2.41,2.42-.52.5-1.08,1-1.58,1.42Z"/><text class="cls-3" transform="translate(25.77 251.05)">3</text><text class="cls-3" transform="translate(113.52 251.05)">4</text><path class="cls-1" d="M121.63,228.12a15.08,15.08,0,0,1,14.86,13.29c.09.71-.12,1.11-.61,1.19s-.83-.23-.91-.95a13.63,13.63,0,0,0-10.86-11.74,13.45,13.45,0,1,0,9.54,19.22c.11-.22.21-.45.33-.67a.76.76,0,0,1,1.38.63h0a4.46,4.46,0,0,1-.28.63,15,15,0,1,1-13.43-21.58Z"/><path class="cls-1" d="M121.76,211.51h4.11a2.94,2.94,0,0,1,2.87,2.14,3,3,0,0,1-1.27,3.31,1,1,0,0,0-.37.68v5.44a2.64,2.64,0,0,1-2.4,2.86,1.85,1.85,0,0,1-.47,0h-5a2.66,2.66,0,0,1-2.86-2.44,3.38,3.38,0,0,1,0-.45v-5.3a.86.86,0,0,0-.44-.87,2.88,2.88,0,0,1-1.21-3.25,2.93,2.93,0,0,1,2.77-2.11C118.9,211.49,120.33,211.51,121.76,211.51Zm3.77,6h-7.61v5.95a1,1,0,0,0,1,1h5.54a1,1,0,0,0,1-1v0C125.54,221.46,125.53,219.48,125.53,217.47Z"/><path class="cls-1" d="M121.68,274.74h-4a2.94,2.94,0,0,1-1.7-5.48,1,1,0,0,0,.32-.66v-5.31a2.69,2.69,0,0,1,3-3h4.73a2.66,2.66,0,0,1,3,3v5.19a.9.9,0,0,0,.46.86,2.93,2.93,0,0,1-1.54,5.38h-4.29Zm-3.77-6h7.62V262.9a1,1,0,0,0-1-1H119a1.05,1.05,0,0,0-1.11,1v1.5Z"/><path class="cls-1" d="M90,243v-4A2.91,2.91,0,0,1,92.11,236a3,3,0,0,1,3.36,1.28,1,1,0,0,0,.73.36h5.44a2.62,2.62,0,0,1,2.83,2.41,2,2,0,0,1,0,.42v5.06a2.66,2.66,0,0,1-2.49,2.8H96.22a.82.82,0,0,0-.82.42A2.91,2.91,0,0,1,92.15,250,2.94,2.94,0,0,1,90,247.22Zm5.94,3.83h5.61c1,0,1.35-.38,1.35-1.38v-4.87c0-1-.38-1.37-1.37-1.38H96.39a1.32,1.32,0,0,0-.48.06Z"/><path class="cls-1" d="M153.21,243v4a2.93,2.93,0,0,1-2.13,2.93,3,3,0,0,1-3.35-1.3,1,1,0,0,0-.73-.33h-5.25a2.7,2.7,0,0,1-3-3V240.5a2.64,2.64,0,0,1,2.39-2.86h5.8a.86.86,0,0,0,.87-.44A2.85,2.85,0,0,1,151,236a2.93,2.93,0,0,1,2.17,2.83V243Zm-6,3.77v-7.62h-5.87a1,1,0,0,0-1.07,1v5.58a1,1,0,0,0,.95,1.05h6Z"/><path class="cls-1" d="M139,269.19a2.88,2.88,0,0,1-2.95-2.83,2.58,2.58,0,0,1,.07-.68.89.89,0,0,0-.3-.93c-1.27-1.24-2.51-2.49-3.76-3.74a2.68,2.68,0,0,1-.35-3.76,2.32,2.32,0,0,1,.35-.35q1.73-1.75,3.48-3.49a2.67,2.67,0,0,1,3.76-.34,2.26,2.26,0,0,1,.35.34c1.28,1.27,2.54,2.53,3.79,3.8a.73.73,0,0,0,.82.25,2.88,2.88,0,0,1,3.15,1.34,2.79,2.79,0,0,1-.28,3.4q-3.09,3.21-6.3,6.29a6.42,6.42,0,0,1-1.77.85Zm3.48-10.77c-1.34-1.35-2.68-2.7-4.05-4.05a1.09,1.09,0,0,0-1.54-.12.9.9,0,0,0-.19.2c-1.19,1.18-2.38,2.36-3.57,3.56a1.17,1.17,0,0,0-.28,1.63,1.24,1.24,0,0,0,.28.28l2,2,1.9,1.94Z"/><path class="cls-1" d="M95.53,225.72a2.71,2.71,0,0,1,.79-2c2-2,4-4,6-6a2.92,2.92,0,0,1,4.14.09,3,3,0,0,1,.74,2.69.74.74,0,0,0,.26.82c1.28,1.26,2.54,2.52,3.8,3.8a2.66,2.66,0,0,1,.31,3.76,2.27,2.27,0,0,1-.31.31c-1.17,1.2-2.37,2.39-3.58,3.57A2.63,2.63,0,0,1,104,233l-.25-.25c-1.29-1.27-2.58-2.55-3.84-3.85a.86.86,0,0,0-.88-.27,2.94,2.94,0,0,1-3.45-2.31A2.75,2.75,0,0,1,95.53,225.72Zm5.34,1.92,3.92,3.91a1.2,1.2,0,0,0,1.67.29,1.33,1.33,0,0,0,.29-.29l3.44-3.44c.73-.74.73-1.26,0-2-1.18-1.19-2.38-2.38-3.57-3.57-.11-.11-.25-.2-.33-.28Z"/><path class="cls-1" d="M147.69,225.73a2.89,2.89,0,0,1-2.83,2.93,3,3,0,0,1-.66-.07.93.93,0,0,0-1,.33l-3.67,3.71a2.69,2.69,0,0,1-3.78.39,3.5,3.5,0,0,1-.38-.39c-1.16-1.15-2.33-2.32-3.48-3.49a2.65,2.65,0,0,1-.29-3.73l.29-.29c1.26-1.29,2.55-2.57,3.84-3.84a.78.78,0,0,0,.26-.83,2.88,2.88,0,0,1,1.39-3.18,2.85,2.85,0,0,1,3.41.36c2.08,2,4.15,4.07,6.15,6.18a7.2,7.2,0,0,1,.93,1.86Zm-10.75-3.51c-1.36,1.36-2.74,2.71-4.09,4.1a1.06,1.06,0,0,0-.09,1.5.86.86,0,0,0,.14.13c1.23,1.24,2.46,2.47,3.7,3.66a1.13,1.13,0,0,0,1.59.14.93.93,0,0,0,.14-.14c1-1,1.93-1.92,2.94-2.89.38-.38.78-.73,1.14-1.08Z"/><path class="cls-1" d="M104.15,269.19a2.82,2.82,0,0,1-2-.87l-5.87-5.87a2.94,2.94,0,0,1-.5-3.54A3,3,0,0,1,99,257.48a1,1,0,0,0,.73-.23c1.29-1.25,2.54-2.52,3.81-3.78a2.68,2.68,0,0,1,3.77-.39,3.59,3.59,0,0,1,.39.39l3.35,3.34a2.7,2.7,0,0,1,0,4.29c-1.24,1.24-2.47,2.48-3.72,3.67a.83.83,0,0,0-.26.88,2.92,2.92,0,0,1-2.92,3.54Zm2-5.35c1.35-1.35,2.71-2.69,4-4.06a1.1,1.1,0,0,0,.1-1.57.75.75,0,0,0-.16-.15c-1.18-1.2-2.38-2.39-3.57-3.58a1.15,1.15,0,0,0-1.6-.29,1.18,1.18,0,0,0-.3.29c-.81.8-1.6,1.63-2.42,2.42-.52.5-1.07,1-1.58,1.42Z"/><path class="cls-1" d="M31.64,300.85A15.07,15.07,0,0,1,46.5,314.14c.09.71-.12,1.1-.62,1.18s-.82-.23-.9-.95a13.63,13.63,0,0,0-10.86-11.73,13.44,13.44,0,1,0,9.53,19.21c.11-.22.22-.45.34-.67a.76.76,0,1,1,1.38.64h0a5.89,5.89,0,0,1-.29.63,15,15,0,1,1-13.42-21.59Z"/><path class="cls-1" d="M31.77,284.23h4.11a2.94,2.94,0,0,1,2.87,2.14,3,3,0,0,1-1.27,3.31,1,1,0,0,0-.38.68v5.44a2.64,2.64,0,0,1-2.39,2.87H29.24a2.66,2.66,0,0,1-2.86-2.45,3.23,3.23,0,0,1,0-.44v-5.31a.89.89,0,0,0-.44-.87,2.87,2.87,0,0,1-1.21-3.25,2.93,2.93,0,0,1,2.76-2.11C28.91,284.21,30.34,284.23,31.77,284.23Zm3.76,6h-7.6v5.95a1,1,0,0,0,1,1h5.53a1,1,0,0,0,1-.95v0C35.55,294.18,35.53,292.2,35.53,290.19Z"/><path class="cls-1" d="M31.69,347.46h-4A2.94,2.94,0,0,1,26,342a.94.94,0,0,0,.31-.66V336a2.69,2.69,0,0,1,3-3h4.74a2.66,2.66,0,0,1,3,3v5.19a.87.87,0,0,0,.45.86A2.93,2.93,0,0,1,36,347.45H31.69Zm-3.78-6h7.63v-5.87a1,1,0,0,0-1-1H29.05a1.08,1.08,0,0,0-1.12,1v1.51Z"/><path class="cls-1" d="M0,315.71v-4a3,3,0,0,1,2.11-2.93A3,3,0,0,1,5.47,310a1,1,0,0,0,.74.36h5.43a2.65,2.65,0,0,1,2.84,2.41,2.94,2.94,0,0,1,0,.42v5.06a2.64,2.64,0,0,1-2.48,2.8,1.77,1.77,0,0,1-.4,0H6.22a.82.82,0,0,0-.81.42,2.9,2.9,0,0,1-3.25,1.25A2.94,2.94,0,0,1,0,319.94Zm5.94,3.83h5.61c1,0,1.35-.39,1.35-1.39v-4.86c0-1-.38-1.38-1.37-1.38H6.4a1.67,1.67,0,0,0-.49,0Z"/><path class="cls-1" d="M63.22,315.75v4a3,3,0,0,1-2.13,2.94,3,3,0,0,1-3.35-1.31,1,1,0,0,0-.74-.33H51.76a2.69,2.69,0,0,1-3-3v-4.86a2.63,2.63,0,0,1,2.38-2.86,2.09,2.09,0,0,1,.5,0h5.31a.87.87,0,0,0,.86-.45,2.89,2.89,0,0,1,3.25-1.23,3,3,0,0,1,2.17,2.83v4.24Zm-6,3.77v-7.61H51.38a1,1,0,0,0-1.06,1v5.58a1,1,0,0,0,1,1h0C53.27,319.54,55.24,319.52,57.25,319.52Z"/><path class="cls-1" d="M49,341.91a2.89,2.89,0,0,1-2.95-2.82,3.23,3.23,0,0,1,.07-.69.89.89,0,0,0-.29-.93c-1.27-1.23-2.52-2.49-3.76-3.74a2.67,2.67,0,0,1-.35-3.76,2.32,2.32,0,0,1,.35-.35q1.72-1.75,3.48-3.48a2.67,2.67,0,0,1,3.76-.35,2.32,2.32,0,0,1,.35.35c1.27,1.26,2.54,2.52,3.79,3.8a.74.74,0,0,0,.82.25,2.86,2.86,0,0,1,3.15,1.33,2.8,2.8,0,0,1-.28,3.4q-3.09,3.22-6.3,6.29a6.42,6.42,0,0,1-1.77.85Zm3.49-10.77c-1.34-1.34-2.69-2.7-4.06-4A1.09,1.09,0,0,0,46.9,327a1.12,1.12,0,0,0-.18.2l-3.57,3.57a1.16,1.16,0,0,0-.29,1.62,1.1,1.1,0,0,0,.29.28c.66.68,1.34,1.34,2,2l1.9,1.94Z"/><path class="cls-1" d="M5.53,298.44a2.72,2.72,0,0,1,.8-2q3-3,6-6a2.94,2.94,0,0,1,4.89,2.78.73.73,0,0,0,.26.82c1.28,1.26,2.54,2.53,3.8,3.8a2.67,2.67,0,0,1,.31,3.76,2.27,2.27,0,0,1-.31.31q-1.77,1.81-3.58,3.57a2.63,2.63,0,0,1-3.72.25,1.48,1.48,0,0,1-.25-.25q-1.95-1.9-3.84-3.85a.86.86,0,0,0-.88-.27A2.93,2.93,0,0,1,5.59,299,2.86,2.86,0,0,1,5.53,298.44Zm5.34,1.92c1.31,1.3,2.61,2.61,3.93,3.91a1.21,1.21,0,0,0,2,0l3.44-3.44c.73-.73.73-1.25,0-2l-3.57-3.58c-.12-.11-.25-.2-.33-.28Z"/><path class="cls-1" d="M57.69,298.45a2.85,2.85,0,0,1-3.48,2.86.93.93,0,0,0-1,.33c-1.22,1.24-2.46,2.48-3.67,3.72a2.69,2.69,0,0,1-3.78.38,2.73,2.73,0,0,1-.38-.38l-3.49-3.49a2.66,2.66,0,0,1-.28-3.74,2.47,2.47,0,0,1,.28-.28q1.91-2,3.85-3.85a.77.77,0,0,0,.25-.83,2.89,2.89,0,0,1,1.4-3.17,2.82,2.82,0,0,1,3.4.36c2.08,2,4.15,4.07,6.16,6.17a7.11,7.11,0,0,1,.93,1.87ZM47,294.94c-1.37,1.37-2.75,2.71-4.1,4.1a1.07,1.07,0,0,0-.08,1.5l.13.13q1.85,1.88,3.71,3.67a1.14,1.14,0,0,0,1.59.14l.14-.14c1-1,1.93-1.93,2.93-2.89.39-.38.79-.74,1.15-1.09Z"/><path class="cls-1" d="M14.16,341.91a2.82,2.82,0,0,1-2-.87l-5.87-5.87a2.92,2.92,0,0,1-.5-3.54A3,3,0,0,1,9,330.21a1,1,0,0,0,.74-.24c1.29-1.24,2.53-2.52,3.8-3.78a2.68,2.68,0,0,1,3.78-.38,2.28,2.28,0,0,1,.38.38l3.35,3.34a2.7,2.7,0,0,1,0,4.29c-1.23,1.24-2.46,2.48-3.72,3.67a.83.83,0,0,0-.25.88,2.94,2.94,0,0,1-2.26,3.48A2.46,2.46,0,0,1,14.16,341.91Zm2-5.35c1.35-1.34,2.72-2.69,4.05-4.06a1.12,1.12,0,0,0,.1-1.57.8.8,0,0,0-.17-.15q-1.77-1.8-3.57-3.57a1.14,1.14,0,0,0-1.6-.3,1.07,1.07,0,0,0-.3.3c-.8.8-1.6,1.62-2.41,2.41-.52.51-1.08,1-1.58,1.42Z"/><text class="cls-3" transform="translate(24.77 323.77)">5</text><path class="cls-1" d="M121.63,300.85a15.07,15.07,0,0,1,14.86,13.29c.09.71-.12,1.1-.61,1.18s-.83-.23-.91-.95a13.61,13.61,0,0,0-10.86-11.73,13.44,13.44,0,1,0,9.54,19.21c.11-.22.21-.45.33-.67a.76.76,0,0,1,1.38.64h0a5.78,5.78,0,0,1-.28.63,15,15,0,1,1-13.43-21.59Z"/><path class="cls-1" d="M121.76,284.23h4.11a2.94,2.94,0,0,1,2.87,2.14,3,3,0,0,1-1.27,3.31,1,1,0,0,0-.37.68v5.44a2.65,2.65,0,0,1-2.4,2.87h-5.47a2.67,2.67,0,0,1-2.86-2.45,3.23,3.23,0,0,1,0-.44v-5.31a.87.87,0,0,0-.44-.87,2.88,2.88,0,0,1-1.21-3.25,2.93,2.93,0,0,1,2.77-2.11C118.9,284.21,120.33,284.23,121.76,284.23Zm3.77,6h-7.61v5.95a1,1,0,0,0,1,1h5.54a1,1,0,0,0,1-.95v0C125.54,294.18,125.53,292.2,125.53,290.19Z"/><path class="cls-1" d="M121.68,347.46h-4A2.94,2.94,0,0,1,116,342a1,1,0,0,0,.32-.66V336a2.68,2.68,0,0,1,3-3h4.73a2.66,2.66,0,0,1,3,3v5.19a.9.9,0,0,0,.46.86,2.92,2.92,0,0,1,.83,4.06,2.88,2.88,0,0,1-2.37,1.32h-4.29Zm-3.77-6h7.62v-5.87a1,1,0,0,0-1-1H119a1.06,1.06,0,0,0-1.11,1v1.51Z"/><path class="cls-1" d="M90,315.71v-4a2.92,2.92,0,0,1,2.11-2.93A3,3,0,0,1,95.47,310a1,1,0,0,0,.73.36h5.44a2.63,2.63,0,0,1,2.83,2.41,2,2,0,0,1,0,.42v5.06a2.66,2.66,0,0,1-2.49,2.8,1.79,1.79,0,0,1-.4,0H96.22a.82.82,0,0,0-.82.42,2.89,2.89,0,0,1-3.25,1.25A2.94,2.94,0,0,1,90,319.94Zm5.94,3.83h5.61c1,0,1.35-.39,1.35-1.39v-4.86c0-1-.38-1.38-1.37-1.38H96.39a1.57,1.57,0,0,0-.48,0Z"/><path class="cls-1" d="M153.21,315.75v4a3,3,0,0,1-2.13,2.94,3,3,0,0,1-3.35-1.31,1,1,0,0,0-.73-.33h-5.25a2.7,2.7,0,0,1-3-3v-4.86a2.64,2.64,0,0,1,2.39-2.86,2,2,0,0,1,.49,0h5.31a.89.89,0,0,0,.87-.45,2.87,2.87,0,0,1,3.24-1.23,2.94,2.94,0,0,1,2.17,2.83v4.24Zm-6,3.77v-7.61h-5.87a1,1,0,0,0-1.07,1v5.58a1,1,0,0,0,.95,1h0C143.26,319.54,145.24,319.52,147.25,319.52Z"/><path class="cls-1" d="M139,341.91a2.88,2.88,0,0,1-2.95-2.82,2.7,2.7,0,0,1,.07-.69.89.89,0,0,0-.3-.93c-1.27-1.23-2.51-2.49-3.76-3.74a2.68,2.68,0,0,1-.35-3.76,2.89,2.89,0,0,1,.35-.35q1.73-1.75,3.48-3.48a2.67,2.67,0,0,1,3.76-.35,1.93,1.93,0,0,1,.35.35c1.28,1.26,2.54,2.52,3.79,3.8a.74.74,0,0,0,.82.25,2.86,2.86,0,0,1,3.15,1.33,2.79,2.79,0,0,1-.28,3.4q-3.09,3.22-6.3,6.29a6.42,6.42,0,0,1-1.77.85Zm3.48-10.77c-1.34-1.34-2.68-2.7-4.05-4a1.09,1.09,0,0,0-1.54-.13,1.19,1.19,0,0,0-.19.2l-3.57,3.57a1.16,1.16,0,0,0-.28,1.62,1.07,1.07,0,0,0,.28.28c.66.68,1.34,1.34,2,2l1.9,1.94Z"/><path class="cls-1" d="M95.53,298.44a2.67,2.67,0,0,1,.79-2q3-3,6-6a2.93,2.93,0,0,1,4.88,2.78.74.74,0,0,0,.26.82c1.28,1.26,2.54,2.53,3.8,3.8a2.66,2.66,0,0,1,.31,3.76,1.82,1.82,0,0,1-.31.31c-1.17,1.21-2.37,2.4-3.58,3.57a2.63,2.63,0,0,1-3.72.25,2,2,0,0,1-.25-.25c-1.29-1.27-2.58-2.55-3.84-3.85a.86.86,0,0,0-.88-.27,2.93,2.93,0,0,1-3.45-2.3A2.84,2.84,0,0,1,95.53,298.44Zm5.34,1.92,3.92,3.91a1.2,1.2,0,0,0,1.67.29,1.33,1.33,0,0,0,.29-.29l3.44-3.44c.73-.73.73-1.25,0-2-1.18-1.2-2.38-2.39-3.57-3.58-.11-.11-.25-.2-.33-.28Z"/><path class="cls-1" d="M147.69,298.45a2.89,2.89,0,0,1-2.83,2.93,3,3,0,0,1-.66-.07.93.93,0,0,0-1,.33c-1.22,1.24-2.46,2.48-3.67,3.72a2.69,2.69,0,0,1-3.78.38,3.41,3.41,0,0,1-.38-.38l-3.48-3.49a2.66,2.66,0,0,1-.29-3.74,2.54,2.54,0,0,1,.29-.28c1.26-1.3,2.55-2.58,3.84-3.85a.77.77,0,0,0,.26-.83A2.87,2.87,0,0,1,137.4,290a2.84,2.84,0,0,1,3.41.36c2.08,2,4.15,4.07,6.15,6.17a7.11,7.11,0,0,1,.93,1.87Zm-10.75-3.51c-1.36,1.37-2.74,2.71-4.09,4.1a1.06,1.06,0,0,0-.09,1.5.86.86,0,0,0,.14.13q1.84,1.88,3.7,3.67a1.14,1.14,0,0,0,1.59.14l.14-.14c1-1,1.93-1.93,2.94-2.89.38-.38.78-.74,1.14-1.09Z"/><path class="cls-1" d="M104.15,341.91a2.82,2.82,0,0,1-2-.87l-5.87-5.87a2.94,2.94,0,0,1-.5-3.54A3,3,0,0,1,99,330.21a1,1,0,0,0,.73-.24c1.29-1.24,2.54-2.52,3.81-3.78a2.67,2.67,0,0,1,3.77-.38,2.79,2.79,0,0,1,.39.38l3.35,3.34a2.7,2.7,0,0,1,0,4.29c-1.24,1.24-2.47,2.48-3.72,3.67a.84.84,0,0,0-.26.88,2.93,2.93,0,0,1-2.26,3.48A2.46,2.46,0,0,1,104.15,341.91Zm2-5.35c1.35-1.34,2.71-2.69,4-4.06a1.1,1.1,0,0,0,.1-1.57.75.75,0,0,0-.16-.15c-1.18-1.2-2.38-2.39-3.57-3.57a1.15,1.15,0,0,0-1.6-.3,1.07,1.07,0,0,0-.3.3c-.81.8-1.6,1.62-2.42,2.41-.52.51-1.07,1-1.58,1.42Z"/><text class="cls-3" transform="translate(114.77 323.77)">6</text><path class="cls-1" d="M31.64,373.57A15.07,15.07,0,0,1,46.5,386.86c.09.71-.12,1.1-.62,1.19s-.82-.24-.9-1a13.64,13.64,0,0,0-10.86-11.73,13.44,13.44,0,1,0,9.53,19.22c.11-.22.22-.46.34-.68a.76.76,0,1,1,1.38.64h0a4.51,4.51,0,0,1-.29.63,15,15,0,1,1-13.42-21.59Z"/><path class="cls-1" d="M31.77,357h4.11a2.94,2.94,0,0,1,2.87,2.15,3,3,0,0,1-1.27,3.3,1,1,0,0,0-.38.69v5.43a2.64,2.64,0,0,1-2.39,2.87H29.24a2.66,2.66,0,0,1-2.86-2.45,3.23,3.23,0,0,1,0-.44v-5.3a.89.89,0,0,0-.44-.88,2.86,2.86,0,0,1-1.21-3.25A2.93,2.93,0,0,1,27.49,357C28.91,356.93,30.34,357,31.77,357Zm3.76,6h-7.6v6a1,1,0,0,0,1,1h5.53a1,1,0,0,0,1-.94v0C35.55,366.9,35.53,364.93,35.53,362.91Z"/><path class="cls-1" d="M31.69,420.18h-4A2.94,2.94,0,0,1,26,414.7a.92.92,0,0,0,.31-.66v-5.3a2.69,2.69,0,0,1,3-3h4.74a2.66,2.66,0,0,1,3,3v5.18a.87.87,0,0,0,.45.86A2.93,2.93,0,0,1,36,420.17H31.69Zm-3.78-6h7.63v-5.87a1.05,1.05,0,0,0-1-1H29.05a1.06,1.06,0,0,0-1.12,1v1.51Z"/><path class="cls-1" d="M0,388.43v-4a3,3,0,0,1,2.11-2.94,3,3,0,0,1,3.36,1.29,1,1,0,0,0,.74.36h5.43a2.63,2.63,0,0,1,2.84,2.41,2.94,2.94,0,0,1,0,.42V391a2.64,2.64,0,0,1-2.48,2.8,2.67,2.67,0,0,1-.4,0H6.22a.81.81,0,0,0-.81.41,2.88,2.88,0,0,1-3.25,1.25A2.93,2.93,0,0,1,0,392.66Zm5.94,3.83h5.61c1,0,1.35-.38,1.35-1.39V386c0-1-.38-1.37-1.37-1.38H6.4a1.67,1.67,0,0,0-.49.05Z"/><path class="cls-1" d="M63.22,388.47v4a2.94,2.94,0,0,1-2.13,2.94,3,3,0,0,1-3.35-1.31,1,1,0,0,0-.74-.33H51.76a2.69,2.69,0,0,1-3-3V386a2.63,2.63,0,0,1,2.38-2.86,2.09,2.09,0,0,1,.5,0h5.31a.86.86,0,0,0,.86-.45,2.87,2.87,0,0,1,3.25-1.22,2.93,2.93,0,0,1,2.17,2.82v4.24Zm-6,3.77v-7.61H51.38a1,1,0,0,0-1.06,1v5.57a1,1,0,0,0,1,1.05h0C53.27,392.26,55.24,392.24,57.25,392.24Z"/><path class="cls-1" d="M49,414.64a2.9,2.9,0,0,1-2.95-2.83,3.23,3.23,0,0,1,.07-.69.89.89,0,0,0-.29-.93q-1.91-1.85-3.76-3.74a2.67,2.67,0,0,1-.35-3.76,2.32,2.32,0,0,1,.35-.35c1.15-1.16,2.31-2.33,3.48-3.48a2.67,2.67,0,0,1,3.76-.35,2.89,2.89,0,0,1,.35.35c1.27,1.26,2.54,2.52,3.79,3.8a.74.74,0,0,0,.82.25,2.88,2.88,0,0,1,3.15,1.33,2.81,2.81,0,0,1-.28,3.41q-3.09,3.21-6.3,6.28a6.42,6.42,0,0,1-1.77.85Zm3.49-10.78c-1.34-1.34-2.69-2.7-4.06-4a1.09,1.09,0,0,0-1.54-.13,1.12,1.12,0,0,0-.18.2l-3.57,3.57a1.16,1.16,0,0,0-.29,1.62,1.33,1.33,0,0,0,.29.29c.66.67,1.34,1.33,2,2l1.9,1.93Z"/><path class="cls-1" d="M5.53,371.16a2.72,2.72,0,0,1,.8-2q3-3,6-6a2.94,2.94,0,0,1,4.89,2.78.72.72,0,0,0,.26.82l3.8,3.8a2.69,2.69,0,0,1,.31,3.77,2.91,2.91,0,0,1-.31.3q-1.77,1.82-3.58,3.58a2.64,2.64,0,0,1-3.72.25,2,2,0,0,1-.25-.25q-1.95-1.92-3.84-3.85A.85.85,0,0,0,9,374a2.93,2.93,0,0,1-3.45-2.3A2.78,2.78,0,0,1,5.53,371.16Zm5.34,1.92c1.31,1.3,2.61,2.62,3.93,3.91a1.19,1.19,0,0,0,1.66.3,1.07,1.07,0,0,0,.3-.3l3.44-3.44c.73-.73.73-1.25,0-2L16.63,368l-.33-.28Z"/><path class="cls-1" d="M57.69,371.18A2.89,2.89,0,0,1,54.21,374a.9.9,0,0,0-1,.32c-1.22,1.25-2.46,2.49-3.67,3.72a2.68,2.68,0,0,1-3.78.38,2.28,2.28,0,0,1-.38-.38c-1.17-1.16-2.33-2.33-3.49-3.49a2.66,2.66,0,0,1-.28-3.74l.28-.28q1.91-1.94,3.85-3.85a.75.75,0,0,0,.25-.82,2.9,2.9,0,0,1,1.4-3.18,2.82,2.82,0,0,1,3.4.36c2.08,2,4.15,4.07,6.16,6.18a7,7,0,0,1,.93,1.86ZM47,367.66c-1.37,1.37-2.75,2.72-4.1,4.1a1.08,1.08,0,0,0-.08,1.51l.13.12q1.85,1.88,3.71,3.67a1.13,1.13,0,0,0,1.59.14.93.93,0,0,0,.14-.14c1-.95,1.93-1.93,2.93-2.89.39-.38.79-.73,1.15-1.09Z"/><path class="cls-1" d="M14.16,414.64a2.83,2.83,0,0,1-2-.88L6.26,407.9a2.94,2.94,0,0,1-.5-3.55A3,3,0,0,1,9,402.93a1,1,0,0,0,.74-.23c1.29-1.25,2.53-2.53,3.8-3.79a2.68,2.68,0,0,1,3.78-.38,2.28,2.28,0,0,1,.38.38l3.35,3.35a2.7,2.7,0,0,1,0,4.29c-1.23,1.24-2.46,2.48-3.72,3.66a.84.84,0,0,0-.25.88,3,3,0,0,1-2.92,3.55Zm2-5.36c1.35-1.34,2.72-2.69,4.05-4a1.13,1.13,0,0,0,.1-1.58l-.17-.15c-1.18-1.19-2.37-2.39-3.57-3.57a1.15,1.15,0,0,0-1.6-.3,1.07,1.07,0,0,0-.3.3c-.8.8-1.6,1.62-2.41,2.41-.52.51-1.08,1-1.58,1.43Z"/><text class="cls-3" transform="translate(25.77 397.49)">7</text><path class="cls-1" d="M121.63,373.57a15.07,15.07,0,0,1,14.86,13.29c.09.71-.12,1.1-.61,1.19s-.83-.24-.91-1a13.62,13.62,0,0,0-10.86-11.73,13.44,13.44,0,1,0,9.54,19.22c.11-.22.21-.46.33-.68a.76.76,0,1,1,1.38.64h0a4.46,4.46,0,0,1-.28.63,15,15,0,1,1-13.43-21.59Z"/><path class="cls-1" d="M121.76,357h4.11a2.94,2.94,0,0,1,2.87,2.15,3,3,0,0,1-1.27,3.3,1,1,0,0,0-.37.69v5.43a2.65,2.65,0,0,1-2.4,2.87h-5.47a2.67,2.67,0,0,1-2.86-2.45,3.23,3.23,0,0,1,0-.44v-5.3a.88.88,0,0,0-.44-.88,2.88,2.88,0,0,1-1.21-3.25,2.93,2.93,0,0,1,2.77-2.11C118.9,356.93,120.33,357,121.76,357Zm3.77,6h-7.61v6a1,1,0,0,0,1,1h5.54a1,1,0,0,0,1-.94v0C125.54,366.9,125.53,364.93,125.53,362.91Z"/><path class="cls-1" d="M121.68,420.18h-4a2.94,2.94,0,0,1-1.7-5.48.93.93,0,0,0,.32-.66v-5.3a2.69,2.69,0,0,1,3-3h4.73a2.66,2.66,0,0,1,3,3v5.18a.9.9,0,0,0,.46.86,2.92,2.92,0,0,1,.83,4.06,2.88,2.88,0,0,1-2.37,1.32h-4.29Zm-3.77-6h7.62v-5.87a1,1,0,0,0-1-1H119a1,1,0,0,0-1.11,1v1.51Z"/><path class="cls-1" d="M90,388.43v-4a2.93,2.93,0,0,1,2.11-2.94,3,3,0,0,1,3.36,1.29,1,1,0,0,0,.73.36h5.44a2.62,2.62,0,0,1,2.83,2.41,2,2,0,0,1,0,.42V391a2.69,2.69,0,0,1-2.89,2.8H96.22a.82.82,0,0,0-.82.41,2.88,2.88,0,0,1-3.25,1.25A2.93,2.93,0,0,1,90,392.66Zm5.94,3.83h5.61c1,0,1.35-.38,1.35-1.39V386c0-1-.38-1.37-1.37-1.38H96.39a1.57,1.57,0,0,0-.48.05Z"/><path class="cls-1" d="M153.21,388.47v4a2.94,2.94,0,0,1-2.13,2.94,3,3,0,0,1-3.35-1.31,1,1,0,0,0-.73-.33h-5.25a2.7,2.7,0,0,1-3-3V386a2.64,2.64,0,0,1,2.39-2.86,2,2,0,0,1,.49,0h5.31a.87.87,0,0,0,.87-.45,2.85,2.85,0,0,1,3.24-1.22,2.92,2.92,0,0,1,2.17,2.82v4.24Zm-6,3.77v-7.61h-5.87a1,1,0,0,0-1.07,1v5.57a1,1,0,0,0,.95,1.05h0C143.26,392.26,145.24,392.24,147.25,392.24Z"/><path class="cls-1" d="M139,414.64a2.89,2.89,0,0,1-2.95-2.83,2.7,2.7,0,0,1,.07-.69.9.9,0,0,0-.3-.93c-1.27-1.23-2.51-2.48-3.76-3.74a2.68,2.68,0,0,1-.35-3.76,2.89,2.89,0,0,1,.35-.35c1.15-1.16,2.31-2.33,3.48-3.48a2.67,2.67,0,0,1,3.76-.35,2.32,2.32,0,0,1,.35.35c1.28,1.26,2.54,2.52,3.79,3.8a.74.74,0,0,0,.82.25,2.88,2.88,0,0,1,3.15,1.33,2.8,2.8,0,0,1-.28,3.41q-3.09,3.21-6.3,6.28a6.42,6.42,0,0,1-1.77.85Zm3.48-10.78c-1.34-1.34-2.68-2.7-4.05-4a1.09,1.09,0,0,0-1.54-.13,1.19,1.19,0,0,0-.19.2l-3.57,3.57a1.16,1.16,0,0,0-.28,1.62,1.28,1.28,0,0,0,.28.29c.66.67,1.34,1.33,2,2l1.9,1.93Z"/><path class="cls-1" d="M95.53,371.16a2.67,2.67,0,0,1,.79-2q3-3,6-6a2.93,2.93,0,0,1,4.88,2.78.73.73,0,0,0,.26.82l3.8,3.8a2.67,2.67,0,0,1,.31,3.77,2.2,2.2,0,0,1-.31.3c-1.17,1.21-2.37,2.4-3.58,3.58a2.64,2.64,0,0,1-3.72.25l-.25-.25c-1.29-1.28-2.58-2.56-3.84-3.85A.84.84,0,0,0,99,374a2.93,2.93,0,0,1-3.45-2.3A2.78,2.78,0,0,1,95.53,371.16Zm5.34,1.92c1.3,1.3,2.61,2.62,3.92,3.91a1.2,1.2,0,0,0,1.67.3,1.18,1.18,0,0,0,.29-.3l3.44-3.44c.73-.73.73-1.25,0-2-1.18-1.2-2.38-2.39-3.57-3.57-.11-.11-.25-.21-.33-.28Z"/><path class="cls-1" d="M147.69,371.18a2.89,2.89,0,0,1-2.83,2.92,3,3,0,0,1-.66-.06.9.9,0,0,0-1,.32c-1.22,1.25-2.46,2.49-3.67,3.72a2.68,2.68,0,0,1-3.78.38,2.73,2.73,0,0,1-.38-.38l-3.48-3.49a2.66,2.66,0,0,1-.29-3.74,3.83,3.83,0,0,1,.29-.28c1.26-1.29,2.55-2.57,3.84-3.85a.76.76,0,0,0,.26-.82,2.88,2.88,0,0,1,1.39-3.18,2.84,2.84,0,0,1,3.41.36c2.08,2,4.15,4.07,6.15,6.18a7,7,0,0,1,.93,1.86Zm-10.75-3.52c-1.36,1.37-2.74,2.72-4.09,4.1a1.07,1.07,0,0,0-.09,1.51l.14.12q1.84,1.88,3.7,3.67a1.13,1.13,0,0,0,1.59.14.93.93,0,0,0,.14-.14c1-.95,1.93-1.93,2.94-2.89.38-.38.78-.73,1.14-1.09Z"/><path class="cls-1" d="M104.15,414.64a2.83,2.83,0,0,1-2-.88l-5.87-5.86a3,3,0,0,1-.5-3.55A3,3,0,0,1,99,402.93a1,1,0,0,0,.73-.23c1.29-1.25,2.54-2.53,3.81-3.79a2.67,2.67,0,0,1,3.77-.38,2.79,2.79,0,0,1,.39.38l3.35,3.35a2.7,2.7,0,0,1,0,4.29c-1.24,1.24-2.47,2.48-3.72,3.66a.84.84,0,0,0-.26.88,2.92,2.92,0,0,1-2.26,3.48A3,3,0,0,1,104.15,414.64Zm2-5.36c1.35-1.34,2.71-2.69,4-4a1.11,1.11,0,0,0,.1-1.58l-.16-.15-3.57-3.57a1.16,1.16,0,0,0-1.6-.3,1.07,1.07,0,0,0-.3.3c-.81.8-1.6,1.62-2.42,2.41-.52.51-1.07,1-1.58,1.43Z"/><text class="cls-3" transform="translate(114.77 396.49)">8</text><path class="cls-1" d="M31.64,446.29A15.07,15.07,0,0,1,46.5,459.58c.09.71-.12,1.11-.62,1.19s-.82-.23-.9-.95a13.65,13.65,0,0,0-10.86-11.74,13.44,13.44,0,1,0,9.53,19.22c.11-.22.22-.46.34-.68a.77.77,0,0,1,1-.37.76.76,0,0,1,.37,1h0a4.51,4.51,0,0,1-.29.63,15,15,0,1,1-13.42-21.58Z"/><path class="cls-1" d="M31.77,429.68h4.11a2.94,2.94,0,0,1,2.87,2.14,3,3,0,0,1-1.27,3.31,1,1,0,0,0-.38.68v5.43a2.64,2.64,0,0,1-2.39,2.87,1.93,1.93,0,0,1-.48,0h-5a2.65,2.65,0,0,1-2.86-2.44,3.38,3.38,0,0,1,0-.45v-5.3a.88.88,0,0,0-.44-.87,2.87,2.87,0,0,1-1.21-3.25,2.94,2.94,0,0,1,2.76-2.12C28.91,429.65,30.34,429.68,31.77,429.68Zm3.76,5.95h-7.6v6a1,1,0,0,0,1,1h5.53a1,1,0,0,0,1-.94v0C35.55,439.62,35.53,437.65,35.53,435.63Z"/><path class="cls-1" d="M31.69,492.9h-4A2.93,2.93,0,0,1,26,487.43a.94.94,0,0,0,.31-.66v-5.31a2.7,2.7,0,0,1,3-3h4.74a2.66,2.66,0,0,1,3,3v5.19a.85.85,0,0,0,.45.85A2.94,2.94,0,0,1,36,492.9H31.69Zm-3.78-6h7.63v-5.86a1,1,0,0,0-1-1H29.05a1.07,1.07,0,0,0-1.12,1v1.51Z"/><path class="cls-1" d="M0,461.15v-4a2.93,2.93,0,0,1,2.11-2.93,3,3,0,0,1,3.36,1.28,1,1,0,0,0,.74.36h5.43a2.63,2.63,0,0,1,2.84,2.41,2.94,2.94,0,0,1,0,.42v5.05A2.64,2.64,0,0,1,12,466.5H6.22a.8.8,0,0,0-.81.42,2.89,2.89,0,0,1-3.25,1.24A2.92,2.92,0,0,1,0,465.38ZM5.94,465h5.61c1,0,1.35-.38,1.35-1.39v-4.86c0-1-.38-1.37-1.37-1.38H6.4a1.67,1.67,0,0,0-.49,0Z"/><path class="cls-1" d="M63.22,461.2v4a2.93,2.93,0,0,1-2.13,2.93,3,3,0,0,1-3.35-1.3,1,1,0,0,0-.74-.33H51.76a2.7,2.7,0,0,1-3-3v-4.87a2.63,2.63,0,0,1,2.38-2.86h5.81a.84.84,0,0,0,.86-.45,2.87,2.87,0,0,1,3.25-1.22A2.94,2.94,0,0,1,63.22,457v4.24Zm-6,3.77v-7.62H51.38a1,1,0,0,0-1.06,1v5.58a1,1,0,0,0,1,1h6Z"/><path class="cls-1" d="M49,487.36a2.9,2.9,0,0,1-2.95-2.83,3.08,3.08,0,0,1,.07-.68.9.9,0,0,0-.29-.94q-1.91-1.85-3.76-3.74a2.67,2.67,0,0,1-.35-3.76,2.26,2.26,0,0,1,.35-.34c1.15-1.17,2.31-2.34,3.48-3.49a2.68,2.68,0,0,1,3.76-.35,3.85,3.85,0,0,1,.35.35c1.27,1.26,2.54,2.52,3.79,3.8a.74.74,0,0,0,.82.25A2.88,2.88,0,0,1,57.43,477a2.8,2.8,0,0,1-.28,3.4q-3.09,3.21-6.3,6.29a6.72,6.72,0,0,1-1.77.85Zm3.49-10.78c-1.34-1.34-2.69-2.7-4.06-4a1.09,1.09,0,0,0-1.54-.12.86.86,0,0,0-.18.2q-1.78,1.75-3.57,3.56a1.17,1.17,0,0,0-.29,1.63,1.28,1.28,0,0,0,.29.28c.66.67,1.34,1.33,2,2l1.9,1.93Z"/><path class="cls-1" d="M5.53,443.88a2.74,2.74,0,0,1,.8-2c2-2,4-4,6-6a2.94,2.94,0,0,1,4.89,2.78.73.73,0,0,0,.26.82c1.28,1.26,2.54,2.52,3.8,3.8a2.67,2.67,0,0,1,.31,3.76c-.1.11-.2.21-.31.31q-1.77,1.8-3.58,3.57a2.63,2.63,0,0,1-3.72.25,2,2,0,0,1-.25-.25c-1.3-1.28-2.58-2.55-3.84-3.85a.84.84,0,0,0-.88-.27,2.94,2.94,0,0,1-3.45-2.31A2.78,2.78,0,0,1,5.53,443.88Zm5.34,1.93c1.31,1.29,2.61,2.61,3.93,3.91a1.21,1.21,0,0,0,2,0l3.44-3.44c.73-.74.73-1.26,0-2l-3.57-3.57-.33-.28Z"/><path class="cls-1" d="M57.69,443.9a2.86,2.86,0,0,1-2.82,2.92,2.42,2.42,0,0,1-.66-.06.92.92,0,0,0-1,.32c-1.22,1.25-2.46,2.49-3.67,3.72a2.68,2.68,0,0,1-3.78.38,2.28,2.28,0,0,1-.38-.38l-3.49-3.49a2.64,2.64,0,0,1-.28-3.73,2.57,2.57,0,0,1,.28-.29q1.91-1.94,3.85-3.84a.77.77,0,0,0,.25-.83,2.9,2.9,0,0,1,1.4-3.18,2.83,2.83,0,0,1,3.4.36c2.08,2,4.15,4.07,6.16,6.18a7.2,7.2,0,0,1,.93,1.86ZM47,440.39c-1.37,1.36-2.75,2.71-4.1,4.1a1.07,1.07,0,0,0-.08,1.5l.13.12q1.85,1.88,3.71,3.67a1.13,1.13,0,0,0,1.59.14l.14-.14c1-.95,1.93-1.93,2.93-2.89.39-.38.79-.73,1.15-1.08Z"/><path class="cls-1" d="M14.16,487.36a2.86,2.86,0,0,1-2-.87l-5.87-5.87a2.93,2.93,0,0,1-.5-3.54A3,3,0,0,1,9,475.65a1,1,0,0,0,.74-.23c1.29-1.25,2.53-2.53,3.8-3.79a2.68,2.68,0,0,1,3.78-.38,2.73,2.73,0,0,1,.38.38L21.05,475a2.7,2.7,0,0,1,0,4.29c-1.23,1.24-2.46,2.48-3.72,3.67a.83.83,0,0,0-.25.88,3,3,0,0,1-2.26,3.48A3.68,3.68,0,0,1,14.16,487.36Zm2-5.36c1.35-1.34,2.72-2.69,4.05-4.05a1.13,1.13,0,0,0,.1-1.58l-.17-.15c-1.18-1.19-2.37-2.39-3.57-3.57a1.15,1.15,0,0,0-1.6-.3,1.22,1.22,0,0,0-.3.3c-.8.8-1.6,1.62-2.41,2.42-.52.5-1.08,1-1.58,1.42Z"/><text class="cls-3" transform="translate(24.77 469.21)">9</text><path class="cls-1" d="M121.63,446.29a15.07,15.07,0,0,1,14.86,13.29c.09.71-.12,1.11-.61,1.19s-.83-.23-.91-.95a13.63,13.63,0,0,0-10.86-11.74,13.44,13.44,0,1,0,9.54,19.22c.11-.22.21-.46.33-.68a.77.77,0,0,1,1-.37.76.76,0,0,1,.37,1h0a4.46,4.46,0,0,1-.28.63,15,15,0,1,1-13.43-21.58Z"/><path class="cls-1" d="M121.76,429.68h4.11a2.94,2.94,0,0,1,2.87,2.14,3,3,0,0,1-1.27,3.31,1,1,0,0,0-.37.68v5.43a2.64,2.64,0,0,1-2.4,2.87,1.85,1.85,0,0,1-.47,0h-5a2.66,2.66,0,0,1-2.86-2.44,3.38,3.38,0,0,1,0-.45v-5.3a.86.86,0,0,0-.44-.87,2.88,2.88,0,0,1-1.21-3.25,2.94,2.94,0,0,1,2.77-2.12C118.9,429.65,120.33,429.68,121.76,429.68Zm3.77,5.95h-7.61v6a1,1,0,0,0,1,1h5.54a1,1,0,0,0,1-.94v0C125.54,439.62,125.53,437.65,125.53,435.63Z"/><path class="cls-1" d="M121.68,492.9h-4a2.93,2.93,0,0,1-1.7-5.47,1,1,0,0,0,.32-.66v-5.31a2.69,2.69,0,0,1,3-3h4.73a2.66,2.66,0,0,1,3,3v5.19a.87.87,0,0,0,.46.85A2.94,2.94,0,0,1,126,492.9h-4.29Zm-3.77-6h7.62v-5.86a1,1,0,0,0-1-1H119a1.05,1.05,0,0,0-1.11,1v1.51Z"/><path class="cls-1" d="M90,461.15v-4a2.91,2.91,0,0,1,2.11-2.93,3,3,0,0,1,3.36,1.28,1,1,0,0,0,.73.36h5.44a2.62,2.62,0,0,1,2.83,2.41,2,2,0,0,1,0,.42v5.05a2.65,2.65,0,0,1-2.49,2.8H96.22a.81.81,0,0,0-.82.42,2.89,2.89,0,0,1-3.25,1.24A2.92,2.92,0,0,1,90,465.38ZM95.94,465h5.61c1,0,1.35-.38,1.35-1.39v-4.86c0-1-.38-1.37-1.37-1.38H96.39a1.57,1.57,0,0,0-.48,0Z"/><path class="cls-1" d="M153.21,461.2v4a2.93,2.93,0,0,1-2.13,2.93,3,3,0,0,1-3.35-1.3,1,1,0,0,0-.73-.33h-5.25a2.7,2.7,0,0,1-3-3v-4.87a2.64,2.64,0,0,1,2.39-2.86h5.8a.85.85,0,0,0,.87-.45,2.85,2.85,0,0,1,3.24-1.22,2.93,2.93,0,0,1,2.17,2.82v4.24Zm-6,3.77v-7.62h-5.87a1,1,0,0,0-1.07,1v5.58a1,1,0,0,0,.95,1h6Z"/><path class="cls-1" d="M139,487.36a2.89,2.89,0,0,1-2.95-2.83,2.58,2.58,0,0,1,.07-.68.91.91,0,0,0-.3-.94c-1.27-1.23-2.51-2.48-3.76-3.74a2.68,2.68,0,0,1-.35-3.76,2.81,2.81,0,0,1,.35-.34c1.15-1.17,2.31-2.34,3.48-3.49a2.68,2.68,0,0,1,3.76-.35,2.89,2.89,0,0,1,.35.35c1.28,1.26,2.54,2.52,3.79,3.8a.74.74,0,0,0,.82.25,2.88,2.88,0,0,1,3.15,1.34,2.79,2.79,0,0,1-.28,3.4q-3.09,3.21-6.3,6.29a6.72,6.72,0,0,1-1.77.85Zm3.48-10.78c-1.34-1.34-2.68-2.7-4.05-4a1.09,1.09,0,0,0-1.54-.12.9.9,0,0,0-.19.2q-1.78,1.75-3.57,3.56a1.17,1.17,0,0,0-.28,1.63,1.24,1.24,0,0,0,.28.28c.66.67,1.34,1.33,2,2L137,482Z"/><path class="cls-1" d="M95.53,443.88a2.69,2.69,0,0,1,.79-2c2-2,4-4,6-6a2.93,2.93,0,0,1,4.88,2.78.74.74,0,0,0,.26.82c1.28,1.26,2.54,2.52,3.8,3.8a2.66,2.66,0,0,1,.31,3.76,3,3,0,0,1-.31.31c-1.17,1.2-2.37,2.39-3.58,3.57a2.63,2.63,0,0,1-3.72.25,3,3,0,0,1-.25-.25c-1.29-1.28-2.58-2.55-3.84-3.85a.84.84,0,0,0-.88-.27,2.94,2.94,0,0,1-3.45-2.31A2.78,2.78,0,0,1,95.53,443.88Zm5.34,1.93,3.92,3.91a1.2,1.2,0,0,0,1.67.29,1.33,1.33,0,0,0,.29-.29l3.44-3.44c.73-.74.73-1.26,0-2l-3.57-3.57c-.11-.11-.25-.21-.33-.28Z"/><path class="cls-1" d="M147.69,443.9a2.87,2.87,0,0,1-2.83,2.92,2.46,2.46,0,0,1-.66-.06.92.92,0,0,0-1,.32c-1.22,1.25-2.46,2.49-3.67,3.72a2.68,2.68,0,0,1-3.78.38,2.73,2.73,0,0,1-.38-.38c-1.16-1.16-2.33-2.32-3.48-3.49a2.65,2.65,0,0,1,0-4c1.26-1.29,2.55-2.57,3.84-3.84a.78.78,0,0,0,.26-.83,2.88,2.88,0,0,1,1.39-3.18,2.85,2.85,0,0,1,3.41.36c2.08,2,4.15,4.07,6.15,6.18a7.2,7.2,0,0,1,.93,1.86Zm-10.75-3.51c-1.36,1.36-2.74,2.71-4.09,4.1a1.06,1.06,0,0,0-.09,1.5.81.81,0,0,0,.14.12q1.84,1.88,3.7,3.67a1.13,1.13,0,0,0,1.59.14l.14-.14c1-.95,1.93-1.93,2.94-2.89.38-.38.78-.73,1.14-1.08Z"/><path class="cls-1" d="M104.15,487.36a2.86,2.86,0,0,1-2-.87l-5.87-5.87a2.94,2.94,0,0,1-.5-3.54A3,3,0,0,1,99,475.65a1,1,0,0,0,.73-.23c1.29-1.25,2.54-2.53,3.81-3.79a2.67,2.67,0,0,1,3.77-.38,3.5,3.5,0,0,1,.39.38l3.35,3.35a2.7,2.7,0,0,1,0,4.29c-1.24,1.24-2.47,2.48-3.72,3.67a.83.83,0,0,0-.26.88,2.93,2.93,0,0,1-2.26,3.48A3.68,3.68,0,0,1,104.15,487.36Zm2-5.36c1.35-1.34,2.71-2.69,4-4.05a1.11,1.11,0,0,0,.1-1.58l-.16-.15c-1.18-1.19-2.38-2.39-3.57-3.57a1.16,1.16,0,0,0-1.6-.3,1.22,1.22,0,0,0-.3.3c-.81.8-1.6,1.62-2.42,2.42-.52.5-1.07,1-1.58,1.42Z"/><text class="cls-3" transform="translate(110.77 469.21)">10</text><path class="cls-1" d="M31.64,519A15.08,15.08,0,0,1,46.5,532.3c.09.71-.12,1.11-.62,1.19s-.82-.23-.9-1A13.65,13.65,0,0,0,34.12,520.8,13.45,13.45,0,1,0,43.65,540c.11-.22.22-.45.34-.67a.76.76,0,0,1,1.38.63h0a4.51,4.51,0,0,1-.29.63A15,15,0,1,1,31.66,519Z"/><path class="cls-1" d="M31.77,502.4h4.11a2.94,2.94,0,0,1,2.87,2.14,3,3,0,0,1-1.27,3.31,1,1,0,0,0-.38.68V514a2.64,2.64,0,0,1-2.39,2.86,1.93,1.93,0,0,1-.48,0h-5a2.65,2.65,0,0,1-2.86-2.44,3.38,3.38,0,0,1,0-.45v-5.3a.88.88,0,0,0-.44-.87,2.87,2.87,0,0,1-1.21-3.25,2.93,2.93,0,0,1,2.76-2.11C28.91,502.38,30.34,502.4,31.77,502.4Zm3.76,6h-7.6v5.95a1,1,0,0,0,1,1h5.53a1,1,0,0,0,1-.95v0C35.55,512.35,35.53,510.37,35.53,508.36Z"/><path class="cls-1" d="M31.69,565.63h-4A2.94,2.94,0,0,1,26,560.15a.94.94,0,0,0,.31-.66v-5.31a2.7,2.7,0,0,1,3-3h4.74a2.66,2.66,0,0,1,3,3v5.19a.87.87,0,0,0,.45.86A2.93,2.93,0,0,1,36,565.62H31.69Zm-3.78-6h7.63v-5.87a1,1,0,0,0-1-1H29.05a1.07,1.07,0,0,0-1.12,1v1.5Z"/><path class="cls-1" d="M0,533.87v-4a2.94,2.94,0,0,1,2.11-2.93,3,3,0,0,1,3.36,1.28,1,1,0,0,0,.74.36h5.43A2.63,2.63,0,0,1,14.48,531a2.94,2.94,0,0,1,0,.42v5.06a2.62,2.62,0,0,1-2.88,2.79H6.22a.82.82,0,0,0-.81.42A2.94,2.94,0,0,1,0,538.11Zm5.94,3.83h5.61c1,0,1.35-.38,1.35-1.38v-4.87c0-1-.38-1.37-1.37-1.38H6.4a1.4,1.4,0,0,0-.49.06Z"/><path class="cls-1" d="M63.22,533.92v4a2.93,2.93,0,0,1-2.13,2.93,3,3,0,0,1-3.35-1.3,1,1,0,0,0-.74-.33H51.76a2.69,2.69,0,0,1-3-3v-4.87a2.65,2.65,0,0,1,2.38-2.86h5.81a.85.85,0,0,0,.86-.44,2.86,2.86,0,0,1,3.25-1.23,2.94,2.94,0,0,1,2.17,2.83v4.24Zm-6,3.77v-7.62H51.38a1,1,0,0,0-1.06,1v5.58a1,1,0,0,0,1,1.05h6Z"/><path class="cls-1" d="M49,560.08a2.89,2.89,0,0,1-2.95-2.83,3.08,3.08,0,0,1,.07-.68.89.89,0,0,0-.29-.93q-1.91-1.86-3.76-3.74a2.67,2.67,0,0,1-.35-3.76,1.93,1.93,0,0,1,.35-.35q1.72-1.75,3.48-3.49a2.67,2.67,0,0,1,3.76-.34,2.81,2.81,0,0,1,.35.34c1.27,1.27,2.54,2.53,3.79,3.8a.71.71,0,0,0,.82.25,2.88,2.88,0,0,1,3.15,1.34,2.8,2.8,0,0,1-.28,3.4q-3.09,3.21-6.3,6.29a6.42,6.42,0,0,1-1.77.85Zm3.49-10.77q-2-2-4.06-4a1.08,1.08,0,0,0-1.54-.13.86.86,0,0,0-.18.2l-3.57,3.56a1.17,1.17,0,0,0-.29,1.63,1.28,1.28,0,0,0,.29.28c.66.68,1.34,1.34,2,2l1.9,1.94Z"/><path class="cls-1" d="M5.53,516.61a2.76,2.76,0,0,1,.8-2c2-2,4-4,6-6a2.94,2.94,0,0,1,4.89,2.78.73.73,0,0,0,.26.82c1.28,1.26,2.54,2.52,3.8,3.8a2.67,2.67,0,0,1,.31,3.76,3,3,0,0,1-.31.31q-1.77,1.8-3.58,3.57a2.63,2.63,0,0,1-3.72.25,2,2,0,0,1-.25-.25q-1.95-1.9-3.84-3.85a.86.86,0,0,0-.88-.27,2.94,2.94,0,0,1-3.45-2.31A2.76,2.76,0,0,1,5.53,516.61Zm5.34,1.92c1.31,1.3,2.61,2.61,3.93,3.91a1.21,1.21,0,0,0,2,0L20.2,519c.73-.74.73-1.26,0-2l-3.57-3.57c-.12-.11-.25-.2-.33-.28Z"/><path class="cls-1" d="M57.69,516.62a2.85,2.85,0,0,1-3.48,2.86.93.93,0,0,0-1,.33l-3.67,3.71a2.69,2.69,0,0,1-3.78.39,2.79,2.79,0,0,1-.38-.39c-1.17-1.15-2.33-2.32-3.49-3.49a2.64,2.64,0,0,1-.28-3.73,3.83,3.83,0,0,1,.28-.29q1.91-1.93,3.85-3.84a.77.77,0,0,0,.25-.83,2.9,2.9,0,0,1,1.4-3.18,2.83,2.83,0,0,1,3.4.36c2.08,2,4.15,4.08,6.16,6.18a7.2,7.2,0,0,1,.93,1.86ZM47,513.11c-1.37,1.36-2.75,2.71-4.1,4.1a1.07,1.07,0,0,0-.08,1.5l.13.13c1.23,1.24,2.47,2.47,3.71,3.66a1.12,1.12,0,0,0,1.59.14.62.62,0,0,0,.14-.14c1-1,1.93-1.92,2.93-2.89.39-.38.79-.73,1.15-1.08Z"/><path class="cls-1" d="M14.16,560.08a2.82,2.82,0,0,1-2-.87l-5.87-5.87a2.92,2.92,0,0,1-.5-3.54A3,3,0,0,1,9,548.38a1,1,0,0,0,.74-.24c1.29-1.25,2.53-2.52,3.8-3.78a2.69,2.69,0,0,1,3.78-.39,2.79,2.79,0,0,1,.38.39l3.35,3.34a2.7,2.7,0,0,1,0,4.29c-1.23,1.24-2.46,2.48-3.72,3.67a.83.83,0,0,0-.25.88,2.92,2.92,0,0,1-2.92,3.54Zm2-5.35c1.35-1.35,2.72-2.69,4.05-4.06a1.12,1.12,0,0,0,.1-1.57.8.8,0,0,0-.17-.15q-1.77-1.8-3.57-3.57a1.14,1.14,0,0,0-1.6-.3,1.07,1.07,0,0,0-.3.3c-.8.79-1.6,1.62-2.41,2.41-.52.5-1.08,1-1.58,1.42Z"/><text class="cls-3" transform="translate(21.77 541.94)">21</text><path class="cls-1" d="M121.63,519a15.08,15.08,0,0,1,14.86,13.29c.09.71-.12,1.11-.61,1.19s-.83-.23-.91-1a13.63,13.63,0,0,0-10.86-11.74A13.45,13.45,0,1,0,133.65,540c.11-.22.21-.45.33-.67a.76.76,0,0,1,1.38.63h0a4.46,4.46,0,0,1-.28.63A15,15,0,1,1,121.65,519Z"/><path class="cls-1" d="M121.76,502.4h4.11a2.94,2.94,0,0,1,2.87,2.14,3,3,0,0,1-1.27,3.31,1,1,0,0,0-.37.68V514a2.64,2.64,0,0,1-2.4,2.86,1.85,1.85,0,0,1-.47,0h-5a2.66,2.66,0,0,1-2.86-2.44,3.38,3.38,0,0,1,0-.45v-5.3a.86.86,0,0,0-.44-.87,2.88,2.88,0,0,1-1.21-3.25,2.93,2.93,0,0,1,2.77-2.11C118.9,502.38,120.33,502.4,121.76,502.4Zm3.77,6h-7.61v5.95a1,1,0,0,0,1,1h5.54a1,1,0,0,0,1-.95v0C125.54,512.35,125.53,510.37,125.53,508.36Z"/><path class="cls-1" d="M121.68,565.63h-4a2.94,2.94,0,0,1-1.7-5.48,1,1,0,0,0,.32-.66v-5.31a2.69,2.69,0,0,1,3-3h4.73a2.66,2.66,0,0,1,3,3v5.19a.9.9,0,0,0,.46.86,2.93,2.93,0,0,1-1.54,5.38h-4.29Zm-3.77-6h7.62v-5.87a1,1,0,0,0-1-1H119a1.05,1.05,0,0,0-1.11,1v1.5Z"/><path class="cls-1" d="M90,533.87v-4a2.91,2.91,0,0,1,2.11-2.93,3,3,0,0,1,3.36,1.28,1,1,0,0,0,.73.36h5.44a2.62,2.62,0,0,1,2.83,2.41,2,2,0,0,1,0,.42v5.06a2.63,2.63,0,0,1-2.89,2.79H96.22a.82.82,0,0,0-.82.42,2.91,2.91,0,0,1-3.25,1.25A2.94,2.94,0,0,1,90,538.11Zm5.94,3.83h5.61c1,0,1.35-.38,1.35-1.38v-4.87c0-1-.38-1.37-1.37-1.38H96.39a1.32,1.32,0,0,0-.48.06Z"/><path class="cls-1" d="M153.21,533.92v4a2.93,2.93,0,0,1-2.13,2.93,3,3,0,0,1-3.35-1.3,1,1,0,0,0-.73-.33h-5.25a2.7,2.7,0,0,1-3-3v-4.87a2.65,2.65,0,0,1,2.39-2.86h5.8a.86.86,0,0,0,.87-.44,2.85,2.85,0,0,1,3.24-1.23,2.93,2.93,0,0,1,2.17,2.83v4.24Zm-6,3.77v-7.62h-5.87a1,1,0,0,0-1.07,1v5.58a1,1,0,0,0,.95,1.05h6Z"/><path class="cls-1" d="M139,560.08a2.88,2.88,0,0,1-2.95-2.83,2.58,2.58,0,0,1,.07-.68.89.89,0,0,0-.3-.93c-1.27-1.24-2.51-2.49-3.76-3.74a2.68,2.68,0,0,1-.35-3.76,2.32,2.32,0,0,1,.35-.35q1.73-1.75,3.48-3.49a2.67,2.67,0,0,1,3.76-.34,2.26,2.26,0,0,1,.35.34c1.28,1.27,2.54,2.53,3.79,3.8a.71.71,0,0,0,.82.25,2.88,2.88,0,0,1,3.15,1.34,2.79,2.79,0,0,1-.28,3.4q-3.09,3.21-6.3,6.29a6.42,6.42,0,0,1-1.77.85Zm3.48-10.77c-1.34-1.35-2.68-2.7-4.05-4a1.08,1.08,0,0,0-1.54-.13.9.9,0,0,0-.19.2l-3.57,3.56a1.17,1.17,0,0,0-.28,1.63,1.24,1.24,0,0,0,.28.28c.66.68,1.34,1.34,2,2l1.9,1.94Z"/><path class="cls-1" d="M95.53,516.61a2.71,2.71,0,0,1,.79-2c2-2,4-4,6-6a2.92,2.92,0,0,1,4.14.09,3,3,0,0,1,.74,2.69.74.74,0,0,0,.26.82c1.28,1.26,2.54,2.52,3.8,3.8a2.66,2.66,0,0,1,.31,3.76,2.27,2.27,0,0,1-.31.31c-1.17,1.2-2.37,2.39-3.58,3.57a2.63,2.63,0,0,1-3.72.25l-.25-.25c-1.29-1.27-2.58-2.55-3.84-3.85a.86.86,0,0,0-.88-.27,2.94,2.94,0,0,1-3.45-2.31A2.75,2.75,0,0,1,95.53,516.61Zm5.34,1.92,3.92,3.91a1.2,1.2,0,0,0,1.67.29,1.33,1.33,0,0,0,.29-.29l3.44-3.44c.73-.74.73-1.26,0-2l-3.57-3.57c-.11-.11-.25-.2-.33-.28Z"/><path class="cls-1" d="M147.69,516.62a2.89,2.89,0,0,1-2.83,2.93,3,3,0,0,1-.66-.07.93.93,0,0,0-1,.33l-3.67,3.71a2.69,2.69,0,0,1-3.78.39,3.5,3.5,0,0,1-.38-.39c-1.16-1.15-2.33-2.32-3.48-3.49a2.65,2.65,0,0,1-.29-3.73l.29-.29c1.26-1.29,2.55-2.57,3.84-3.84a.78.78,0,0,0,.26-.83,2.88,2.88,0,0,1,1.39-3.18,2.85,2.85,0,0,1,3.41.36c2.08,2,4.15,4.08,6.15,6.18a7.2,7.2,0,0,1,.93,1.86Zm-10.75-3.51c-1.36,1.36-2.74,2.71-4.09,4.1a1.06,1.06,0,0,0-.09,1.5.86.86,0,0,0,.14.13c1.23,1.24,2.46,2.47,3.7,3.66a1.12,1.12,0,0,0,1.59.14.62.62,0,0,0,.14-.14c1-1,1.93-1.92,2.94-2.89.38-.38.78-.73,1.14-1.08Z"/><path class="cls-1" d="M104.15,560.08a2.82,2.82,0,0,1-2-.87l-5.87-5.87a2.94,2.94,0,0,1-.5-3.54A3,3,0,0,1,99,548.38a1,1,0,0,0,.73-.24c1.29-1.25,2.54-2.52,3.81-3.78a2.68,2.68,0,0,1,3.77-.39,3.59,3.59,0,0,1,.39.39l3.35,3.34a2.7,2.7,0,0,1,0,4.29c-1.24,1.24-2.47,2.48-3.72,3.67a.83.83,0,0,0-.26.88,2.92,2.92,0,0,1-2.92,3.54Zm2-5.35c1.35-1.35,2.71-2.69,4-4.06a1.1,1.1,0,0,0,.1-1.57.75.75,0,0,0-.16-.15c-1.18-1.2-2.38-2.39-3.57-3.57a1.15,1.15,0,0,0-1.6-.3,1.07,1.07,0,0,0-.3.3c-.81.79-1.6,1.62-2.42,2.41-.52.5-1.07,1-1.58,1.42Z"/><text class="cls-4" transform="translate(110.77 541.94)">22</text><path class="cls-1" d="M280.32,155.4a15.06,15.06,0,0,1,14.86,13.29c.09.71-.11,1.11-.61,1.19s-.82-.24-.91-.95a13.63,13.63,0,0,0-10.86-11.74,13.44,13.44,0,1,0,9.54,19.22c.11-.22.21-.46.33-.68a.77.77,0,0,1,1-.37.76.76,0,0,1,.37,1h0a4.46,4.46,0,0,1-.28.63,15,15,0,1,1-13.43-21.58Z"/><path class="cls-1" d="M280.45,138.79h4.11a2.94,2.94,0,0,1,2.87,2.14,3,3,0,0,1-1.27,3.31,1,1,0,0,0-.37.68v5.43a2.64,2.64,0,0,1-2.39,2.87,1.93,1.93,0,0,1-.48,0h-5a2.66,2.66,0,0,1-2.86-2.44,3.38,3.38,0,0,1,0-.45V145a.86.86,0,0,0-.44-.87,2.88,2.88,0,0,1-1.21-3.25,2.94,2.94,0,0,1,2.77-2.12C277.59,138.76,279,138.79,280.45,138.79Zm3.77,6h-7.61v6a1,1,0,0,0,1,1h5.54a1,1,0,0,0,1-.94v0C284.23,148.73,284.22,146.76,284.22,144.74Z"/><path class="cls-1" d="M280.37,202h-4a2.94,2.94,0,0,1-1.7-5.48.91.91,0,0,0,.32-.66v-5.3a2.69,2.69,0,0,1,3-3h4.74a2.66,2.66,0,0,1,3,3v5.18a.88.88,0,0,0,.46.86,2.94,2.94,0,0,1-1.54,5.39h-4.29Zm-3.77-6h7.62v-5.86a1,1,0,0,0-1.05-1h-5.44a1.05,1.05,0,0,0-1.11,1v1.51Z"/><path class="cls-1" d="M248.69,170.26v-4a2.91,2.91,0,0,1,2.11-2.93,3,3,0,0,1,3.36,1.28,1,1,0,0,0,.73.36h5.44a2.63,2.63,0,0,1,2.84,2.41,2.94,2.94,0,0,1,0,.42v5.05a2.65,2.65,0,0,1-2.49,2.8h-5.77a.82.82,0,0,0-.82.42,2.89,2.89,0,0,1-3.25,1.24,2.92,2.92,0,0,1-2.15-2.78Zm5.94,3.83h5.61c1,0,1.35-.38,1.35-1.39v-4.86c0-1-.38-1.37-1.37-1.38h-5.14a1.57,1.57,0,0,0-.48,0Z"/><path class="cls-1" d="M311.9,170.31v4a2.93,2.93,0,0,1-2.13,2.93,3,3,0,0,1-3.35-1.3,1,1,0,0,0-.73-.34h-5.25a2.68,2.68,0,0,1-3-3v-4.86a2.62,2.62,0,0,1,2.38-2.86,2.67,2.67,0,0,1,.49,0h5.31a.85.85,0,0,0,.87-.45,2.86,2.86,0,0,1,3.25-1.22,2.93,2.93,0,0,1,2.16,2.82v4.24Zm-6,3.77v-7.62h-5.87a1,1,0,0,0-1.07,1V173a1,1,0,0,0,.95,1h6Z"/><path class="cls-1" d="M297.7,196.47a2.89,2.89,0,0,1-2.95-2.83,2.58,2.58,0,0,1,.07-.68.91.91,0,0,0-.3-.94c-1.27-1.23-2.51-2.48-3.76-3.74a2.68,2.68,0,0,1-.35-3.76,2.81,2.81,0,0,1,.35-.34c1.15-1.17,2.31-2.34,3.48-3.49a2.68,2.68,0,0,1,3.76-.35,2.89,2.89,0,0,1,.35.35c1.28,1.26,2.54,2.52,3.79,3.8a.76.76,0,0,0,.83.25,2.88,2.88,0,0,1,3.14,1.34,2.79,2.79,0,0,1-.28,3.4q-3.09,3.21-6.3,6.28a6.53,6.53,0,0,1-1.76.86Zm3.48-10.78c-1.34-1.34-2.68-2.7-4.05-4a1.09,1.09,0,0,0-1.54-.12.91.91,0,0,0-.19.2q-1.78,1.76-3.57,3.56a1.17,1.17,0,0,0-.28,1.63,1.24,1.24,0,0,0,.28.28c.66.67,1.34,1.33,2,2l1.9,1.93Z"/><path class="cls-1" d="M254.22,153a2.73,2.73,0,0,1,.79-2c2-2,4-4,6-6a2.93,2.93,0,0,1,4.88,2.78.73.73,0,0,0,.27.82c1.27,1.26,2.53,2.52,3.79,3.8a2.66,2.66,0,0,1,.31,3.76,2.27,2.27,0,0,1-.31.31c-1.17,1.2-2.37,2.39-3.57,3.57a2.64,2.64,0,0,1-3.73.25,3,3,0,0,1-.25-.25c-1.29-1.28-2.57-2.55-3.84-3.85a.84.84,0,0,0-.88-.27,2.94,2.94,0,0,1-3.45-2.31A3.68,3.68,0,0,1,254.22,153Zm5.34,1.93,3.92,3.91a1.2,1.2,0,0,0,1.67.29,1.33,1.33,0,0,0,.29-.29l3.44-3.44c.73-.74.73-1.26,0-2-1.18-1.2-2.38-2.38-3.56-3.57l-.33-.28Z"/><path class="cls-1" d="M306.38,153a2.87,2.87,0,0,1-2.83,2.92,2.46,2.46,0,0,1-.66-.06.92.92,0,0,0-1,.32c-1.22,1.25-2.46,2.49-3.67,3.72a2.68,2.68,0,0,1-3.78.38,2.73,2.73,0,0,1-.38-.38c-1.16-1.16-2.33-2.32-3.48-3.49a2.65,2.65,0,0,1,0-4q1.9-1.93,3.84-3.84a.78.78,0,0,0,.26-.83,2.88,2.88,0,0,1,1.39-3.18,2.84,2.84,0,0,1,3.41.36c2.08,2,4.15,4.07,6.15,6.18a6.9,6.9,0,0,1,.93,1.86Zm-10.75-3.51c-1.36,1.36-2.74,2.71-4.09,4.1a1.06,1.06,0,0,0-.09,1.5,1.49,1.49,0,0,0,.14.12q1.85,1.88,3.7,3.67a1.13,1.13,0,0,0,1.59.14.62.62,0,0,0,.14-.14c1-.95,1.93-1.93,2.94-2.89.38-.38.78-.73,1.14-1.08Z"/><path class="cls-1" d="M262.84,196.47a2.88,2.88,0,0,1-2-.87c-2-2-3.93-3.93-5.87-5.87a2.94,2.94,0,0,1-.5-3.54,3,3,0,0,1,3.25-1.43,1,1,0,0,0,.73-.23c1.29-1.25,2.54-2.53,3.81-3.79a2.67,2.67,0,0,1,3.77-.38,3.5,3.5,0,0,1,.39.38l3.35,3.35a2.7,2.7,0,0,1,0,4.29c-1.23,1.24-2.47,2.48-3.72,3.67a.85.85,0,0,0-.26.88,2.93,2.93,0,0,1-2.26,3.48A3.6,3.6,0,0,1,262.84,196.47Zm2-5.36c1.35-1.34,2.71-2.69,4.05-4.05a1.12,1.12,0,0,0,.09-1.58l-.16-.15c-1.18-1.19-2.38-2.39-3.57-3.57a1.16,1.16,0,0,0-1.6-.3,1.22,1.22,0,0,0-.3.3c-.81.8-1.6,1.62-2.42,2.42-.52.5-1.07,1-1.58,1.42Z"/><text class="cls-3" transform="translate(272.46 178.32)">11</text><path class="cls-1" d="M370.32,155.4a15.07,15.07,0,0,1,14.86,13.29c.08.71-.12,1.11-.62,1.19s-.82-.24-.9-.95a13.65,13.65,0,0,0-10.86-11.74,13.44,13.44,0,1,0,9.53,19.22c.11-.22.21-.46.34-.68a.76.76,0,0,1,1.38.64h0a4.51,4.51,0,0,1-.29.63,15,15,0,1,1-13.42-21.58Z"/><path class="cls-1" d="M370.45,138.79h4.11a2.93,2.93,0,0,1,2.86,2.14,3,3,0,0,1-1.27,3.31,1,1,0,0,0-.37.68v5.43a2.64,2.64,0,0,1-2.39,2.87,1.93,1.93,0,0,1-.48,0h-5a2.67,2.67,0,0,1-2.87-2.44,2.26,2.26,0,0,1,0-.45V145a.88.88,0,0,0-.44-.87,2.87,2.87,0,0,1-1.21-3.25,2.94,2.94,0,0,1,2.76-2.12C367.59,138.76,369,138.79,370.45,138.79Zm3.76,6H366.6v6a1,1,0,0,0,1,1h5.53a1,1,0,0,0,1.05-.94v0C374.23,148.73,374.21,146.76,374.21,144.74Z"/><path class="cls-1" d="M370.37,202h-4a2.93,2.93,0,0,1-1.69-5.48.9.9,0,0,0,.31-.66v-5.3a2.69,2.69,0,0,1,3-3h4.74a2.67,2.67,0,0,1,3,3v5.18a.86.86,0,0,0,.45.86,2.94,2.94,0,0,1-1.54,5.39h-4.28Zm-3.78-6h7.63v-5.86a1.05,1.05,0,0,0-1.05-1h-5.44a1.06,1.06,0,0,0-1.12,1v1.51Z"/><path class="cls-1" d="M338.68,170.26v-4a2.93,2.93,0,0,1,2.11-2.93,3,3,0,0,1,3.36,1.28,1,1,0,0,0,.74.36h5.43a2.63,2.63,0,0,1,2.84,2.41,2.94,2.94,0,0,1,0,.42v5.05a2.64,2.64,0,0,1-2.49,2.8H344.9a.8.8,0,0,0-.81.42,2.94,2.94,0,0,1-5.41-1.54Zm5.94,3.83h5.61c1,0,1.35-.38,1.35-1.39v-4.86c0-1-.38-1.37-1.37-1.38h-5.13a1.6,1.6,0,0,0-.49,0Z"/><path class="cls-1" d="M401.89,170.31v4a2.92,2.92,0,0,1-2.12,2.93,3,3,0,0,1-3.36-1.3,1,1,0,0,0-.73-.34h-5.24a2.69,2.69,0,0,1-3-3v-4.86a2.63,2.63,0,0,1,2.38-2.86,2.67,2.67,0,0,1,.49,0h5.31a.85.85,0,0,0,.87-.45,2.86,2.86,0,0,1,3.25-1.22,2.93,2.93,0,0,1,2.16,2.82v4.24Zm-6,3.77v-7.62h-5.87a1,1,0,0,0-1.06,1V173a1,1,0,0,0,.94,1h6Z"/><path class="cls-1" d="M387.69,196.47a2.9,2.9,0,0,1-2.95-2.83,3.08,3.08,0,0,1,.07-.68.9.9,0,0,0-.29-.94c-1.27-1.23-2.52-2.48-3.77-3.74a2.67,2.67,0,0,1-.34-3.76,2.73,2.73,0,0,1,.34-.34c1.16-1.17,2.31-2.34,3.49-3.49a2.68,2.68,0,0,1,3.76-.35c.12.11.24.23.35.35,1.27,1.26,2.53,2.52,3.79,3.8a.74.74,0,0,0,.82.25,2.89,2.89,0,0,1,3.15,1.34,2.82,2.82,0,0,1-.28,3.4q-3.1,3.21-6.3,6.28a6.59,6.59,0,0,1-1.77.86Zm3.49-10.78c-1.35-1.34-2.69-2.7-4.06-4a1.09,1.09,0,0,0-1.54-.12.7.7,0,0,0-.18.2q-1.8,1.76-3.58,3.56a1.18,1.18,0,0,0-.28,1.63,1.48,1.48,0,0,0,.28.28c.66.67,1.35,1.33,2,2l1.9,1.93Z"/><path class="cls-1" d="M344.21,153a2.77,2.77,0,0,1,.79-2c2-2,4-4,6-6a2.93,2.93,0,0,1,4.88,2.78.75.75,0,0,0,.27.82c1.28,1.26,2.54,2.52,3.8,3.8a2.67,2.67,0,0,1,.31,3.76c-.1.11-.2.21-.31.31q-1.77,1.8-3.58,3.57a2.64,2.64,0,0,1-3.73.25,3,3,0,0,1-.25-.25c-1.29-1.28-2.57-2.55-3.83-3.85a.84.84,0,0,0-.88-.27,2.94,2.94,0,0,1-3.45-2.31A2.78,2.78,0,0,1,344.21,153Zm5.34,1.93c1.31,1.29,2.61,2.61,3.92,3.91a1.2,1.2,0,0,0,1.67.29,1.33,1.33,0,0,0,.29-.29l3.44-3.44c.74-.74.74-1.26,0-2-1.18-1.2-2.37-2.38-3.56-3.57l-.33-.28Z"/><path class="cls-1" d="M396.37,153a2.86,2.86,0,0,1-2.82,2.92,2.39,2.39,0,0,1-.66-.06.93.93,0,0,0-1,.32c-1.21,1.25-2.45,2.49-3.66,3.72a2.68,2.68,0,0,1-3.78.38,2.28,2.28,0,0,1-.38-.38c-1.17-1.16-2.34-2.32-3.49-3.49a2.64,2.64,0,0,1-.28-3.73,1.92,1.92,0,0,1,.28-.29q1.91-1.93,3.85-3.84a.79.79,0,0,0,.25-.83,2.9,2.9,0,0,1,1.4-3.18,2.82,2.82,0,0,1,3.4.36c2.08,2,4.15,4.07,6.15,6.18a6.93,6.93,0,0,1,.94,1.86Zm-10.75-3.51c-1.36,1.36-2.74,2.71-4.09,4.1a1.06,1.06,0,0,0-.08,1.5.74.74,0,0,0,.13.12c1.23,1.25,2.46,2.47,3.71,3.67a1.13,1.13,0,0,0,1.59.14.93.93,0,0,0,.14-.14c1-.95,1.93-1.93,2.93-2.89.38-.38.79-.73,1.15-1.08Z"/><path class="cls-1" d="M352.84,196.47a2.9,2.9,0,0,1-2-.87l-5.86-5.87a2.93,2.93,0,0,1-.5-3.54,3,3,0,0,1,3.24-1.43,1,1,0,0,0,.73-.23c1.29-1.25,2.54-2.53,3.81-3.79a2.68,2.68,0,0,1,3.78-.38,2.73,2.73,0,0,1,.38.38l3.35,3.35a2.7,2.7,0,0,1,0,4.29c-1.23,1.24-2.46,2.48-3.72,3.67a.83.83,0,0,0-.25.88,3,3,0,0,1-2.26,3.48A3.68,3.68,0,0,1,352.84,196.47Zm2-5.36c1.35-1.34,2.71-2.69,4.05-4.05a1.12,1.12,0,0,0,.09-1.58,1.17,1.17,0,0,0-.16-.15c-1.18-1.19-2.37-2.39-3.57-3.57a1.16,1.16,0,0,0-1.6-.3,1.22,1.22,0,0,0-.3.3c-.81.8-1.6,1.62-2.41,2.42-.52.5-1.08,1-1.59,1.42Z"/><text class="cls-3" transform="translate(361.45 178.32)">12</text><path class="cls-1" d="M280.32,228.12a15.07,15.07,0,0,1,14.86,13.29c.09.71-.11,1.11-.61,1.19s-.82-.23-.91-.95a13.63,13.63,0,0,0-10.86-11.74,13.45,13.45,0,1,0,9.54,19.22c.11-.22.21-.45.33-.67a.76.76,0,0,1,1.38.63h0a4.46,4.46,0,0,1-.28.63,15,15,0,1,1-13.43-21.58Z"/><path class="cls-1" d="M280.45,211.51h4.11a2.94,2.94,0,0,1,2.87,2.14,3,3,0,0,1-1.27,3.31,1,1,0,0,0-.37.68v5.44a2.64,2.64,0,0,1-2.39,2.86,1.93,1.93,0,0,1-.48,0h-5a2.66,2.66,0,0,1-2.86-2.44,3.38,3.38,0,0,1,0-.45v-5.3a.86.86,0,0,0-.44-.87,2.88,2.88,0,0,1-1.21-3.25,2.93,2.93,0,0,1,2.77-2.11C277.59,211.49,279,211.51,280.45,211.51Zm3.77,6h-7.61v5.95a1,1,0,0,0,1,1h5.54a1,1,0,0,0,1-1v0C284.23,221.46,284.22,219.48,284.22,217.47Z"/><path class="cls-1" d="M280.37,274.74h-4a2.94,2.94,0,0,1-1.7-5.48,1,1,0,0,0,.32-.66v-5.31a2.69,2.69,0,0,1,3-3h4.74a2.66,2.66,0,0,1,3,3v5.19a.9.9,0,0,0,.46.86,2.93,2.93,0,0,1-1.54,5.38h-4.29Zm-3.77-6h7.62V262.9a1,1,0,0,0-1.05-1h-5.44a1.05,1.05,0,0,0-1.11,1v1.5Z"/><path class="cls-1" d="M248.69,243v-4A2.91,2.91,0,0,1,250.8,236a3,3,0,0,1,3.36,1.28,1,1,0,0,0,.73.36h5.44a2.63,2.63,0,0,1,2.84,2.41,2.94,2.94,0,0,1,0,.42v5.06a2.66,2.66,0,0,1-2.49,2.8h-5.77a.83.83,0,0,0-.82.42,2.91,2.91,0,0,1-3.25,1.25,2.94,2.94,0,0,1-2.15-2.78Zm5.94,3.83h5.61c1,0,1.35-.38,1.35-1.38v-4.87c0-1-.38-1.37-1.37-1.38h-5.14a1.32,1.32,0,0,0-.48.06Z"/><path class="cls-1" d="M311.9,243v4a2.93,2.93,0,0,1-2.13,2.93,3,3,0,0,1-3.35-1.3,1,1,0,0,0-.73-.33h-5.25a2.68,2.68,0,0,1-3-3V240.5a2.63,2.63,0,0,1,2.38-2.86h5.8a.86.86,0,0,0,.87-.44,2.85,2.85,0,0,1,3.25-1.23,2.93,2.93,0,0,1,2.16,2.83V243Zm-6,3.77v-7.62h-5.87a1,1,0,0,0-1.07,1v5.58a1,1,0,0,0,.95,1.05h6Z"/><path class="cls-1" d="M297.7,269.19a2.88,2.88,0,0,1-2.95-2.83,2.58,2.58,0,0,1,.07-.68.89.89,0,0,0-.3-.93c-1.27-1.24-2.51-2.49-3.76-3.74a2.68,2.68,0,0,1-.35-3.76,2.32,2.32,0,0,1,.35-.35q1.73-1.75,3.48-3.49a2.67,2.67,0,0,1,3.76-.34,2.26,2.26,0,0,1,.35.34c1.28,1.27,2.54,2.53,3.79,3.8a.74.74,0,0,0,.83.25,2.88,2.88,0,0,1,3.14,1.34,2.79,2.79,0,0,1-.28,3.4q-3.09,3.21-6.3,6.29a6.5,6.5,0,0,1-1.76.85Zm3.48-10.77c-1.34-1.35-2.68-2.7-4.05-4.05a1.09,1.09,0,0,0-1.54-.12,1.21,1.21,0,0,0-.19.2c-1.19,1.18-2.38,2.36-3.57,3.56a1.17,1.17,0,0,0-.28,1.63,1.24,1.24,0,0,0,.28.28l2,2,1.9,1.94Z"/><path class="cls-1" d="M254.22,225.72a2.75,2.75,0,0,1,.79-2c2-2,4-4,6-6a2.93,2.93,0,0,1,4.88,2.78.73.73,0,0,0,.27.82c1.27,1.26,2.53,2.52,3.79,3.8a2.66,2.66,0,0,1,.31,3.76,1.82,1.82,0,0,1-.31.31c-1.17,1.2-2.37,2.39-3.57,3.57a2.64,2.64,0,0,1-3.73.25,3,3,0,0,1-.25-.25q-1.94-1.91-3.84-3.85a.86.86,0,0,0-.88-.27,2.94,2.94,0,0,1-3.45-2.31A3.66,3.66,0,0,1,254.22,225.72Zm5.34,1.92,3.92,3.91a1.2,1.2,0,0,0,1.67.29,1.33,1.33,0,0,0,.29-.29l3.44-3.44c.73-.74.73-1.26,0-2l-3.56-3.57c-.12-.11-.25-.2-.33-.28Z"/><path class="cls-1" d="M306.38,225.73a2.89,2.89,0,0,1-2.83,2.93,3,3,0,0,1-.66-.07.93.93,0,0,0-1,.33l-3.67,3.71a2.69,2.69,0,0,1-3.78.39,3.5,3.5,0,0,1-.38-.39c-1.16-1.15-2.33-2.32-3.48-3.49a2.65,2.65,0,0,1-.29-3.73,4,4,0,0,1,.29-.29q1.9-1.94,3.84-3.84a.78.78,0,0,0,.26-.83,2.88,2.88,0,0,1,1.39-3.18,2.85,2.85,0,0,1,3.41.36c2.08,2,4.15,4.07,6.15,6.18a6.9,6.9,0,0,1,.93,1.86Zm-10.75-3.51c-1.36,1.36-2.74,2.71-4.09,4.1a1.06,1.06,0,0,0-.09,1.5l.14.13c1.23,1.24,2.46,2.47,3.7,3.66a1.13,1.13,0,0,0,1.59.14.62.62,0,0,0,.14-.14c1-1,1.93-1.92,2.94-2.89.38-.38.78-.73,1.14-1.08Z"/><path class="cls-1" d="M262.84,269.19a2.84,2.84,0,0,1-2-.87l-5.87-5.87a2.94,2.94,0,0,1-.5-3.54,3,3,0,0,1,3.25-1.43,1,1,0,0,0,.73-.23c1.29-1.25,2.54-2.52,3.81-3.78a2.68,2.68,0,0,1,3.77-.39,3.59,3.59,0,0,1,.39.39l3.35,3.34a2.7,2.7,0,0,1,0,4.29c-1.23,1.24-2.47,2.48-3.72,3.67a.85.85,0,0,0-.26.88,2.93,2.93,0,0,1-2.26,3.48A2.9,2.9,0,0,1,262.84,269.19Zm2-5.35c1.35-1.35,2.71-2.69,4.05-4.06a1.11,1.11,0,0,0,.09-1.57.75.75,0,0,0-.16-.15c-1.18-1.2-2.38-2.39-3.57-3.58a1.15,1.15,0,0,0-1.6-.29,1.18,1.18,0,0,0-.3.29c-.81.8-1.6,1.63-2.42,2.42-.52.5-1.07,1-1.58,1.42Z"/><text class="cls-3" transform="translate(270.46 251.05)">13</text><path class="cls-1" d="M370.32,228.12a15.08,15.08,0,0,1,14.86,13.29c.08.71-.12,1.11-.62,1.19s-.82-.23-.9-.95a13.65,13.65,0,0,0-10.86-11.74,13.45,13.45,0,1,0,9.53,19.22c.11-.22.21-.45.34-.67a.76.76,0,0,1,1.38.63h0a4.51,4.51,0,0,1-.29.63,15,15,0,1,1-13.42-21.58Z"/><path class="cls-1" d="M370.45,211.51h4.11a2.93,2.93,0,0,1,2.86,2.14,3,3,0,0,1-1.27,3.31,1,1,0,0,0-.37.68v5.44a2.64,2.64,0,0,1-2.39,2.86,1.93,1.93,0,0,1-.48,0h-5a2.67,2.67,0,0,1-2.87-2.44,2.26,2.26,0,0,1,0-.45v-5.3a.88.88,0,0,0-.44-.87,2.87,2.87,0,0,1-1.21-3.25,2.93,2.93,0,0,1,2.76-2.11C367.59,211.49,369,211.51,370.45,211.51Zm3.76,6H366.6v5.95a1,1,0,0,0,1,1h5.53a1,1,0,0,0,1.05-1v0C374.23,221.46,374.21,219.48,374.21,217.47Z"/><path class="cls-1" d="M370.37,274.74h-4a2.93,2.93,0,0,1-1.69-5.48.94.94,0,0,0,.31-.66v-5.31a2.69,2.69,0,0,1,3-3h4.74a2.67,2.67,0,0,1,3,3v5.19a.87.87,0,0,0,.45.86,2.93,2.93,0,0,1-1.54,5.38h-4.28Zm-3.78-6h7.63V262.9a1,1,0,0,0-1.05-1h-5.44a1.06,1.06,0,0,0-1.12,1v1.5Z"/><path class="cls-1" d="M338.68,243v-4a2.93,2.93,0,0,1,2.11-2.93,3,3,0,0,1,3.36,1.28,1,1,0,0,0,.74.36h5.43a2.63,2.63,0,0,1,2.84,2.41,2.94,2.94,0,0,1,0,.42v5.06a2.65,2.65,0,0,1-2.49,2.8H344.9a.82.82,0,0,0-.81.42,2.94,2.94,0,0,1-5.41-1.53Zm5.94,3.83h5.61c1,0,1.35-.38,1.35-1.38v-4.87c0-1-.38-1.37-1.37-1.38h-5.13a1.35,1.35,0,0,0-.49.06Z"/><path class="cls-1" d="M401.89,243v4a2.92,2.92,0,0,1-2.12,2.93,3,3,0,0,1-3.36-1.3,1,1,0,0,0-.73-.33h-5.24a2.69,2.69,0,0,1-3-3V240.5a2.63,2.63,0,0,1,2.38-2.86h5.8a.85.85,0,0,0,.87-.44,2.85,2.85,0,0,1,3.25-1.23,2.93,2.93,0,0,1,2.16,2.83V243Zm-6,3.77v-7.62h-5.87a1,1,0,0,0-1.06,1v5.58a1,1,0,0,0,.94,1.05h6Z"/><path class="cls-1" d="M387.69,269.19a2.89,2.89,0,0,1-2.95-2.83,3.08,3.08,0,0,1,.07-.68.89.89,0,0,0-.29-.93c-1.27-1.24-2.52-2.49-3.77-3.74a2.67,2.67,0,0,1-.34-3.76,2.26,2.26,0,0,1,.34-.35c1.16-1.17,2.31-2.33,3.49-3.49a2.67,2.67,0,0,1,3.76-.34,3.73,3.73,0,0,1,.35.34l3.79,3.8a.72.72,0,0,0,.82.25,2.89,2.89,0,0,1,3.15,1.34,2.82,2.82,0,0,1-.28,3.4q-3.1,3.21-6.3,6.29a6.56,6.56,0,0,1-1.77.85Zm3.49-10.77c-1.35-1.35-2.69-2.7-4.06-4.05a1.09,1.09,0,0,0-1.54-.12.86.86,0,0,0-.18.2c-1.2,1.18-2.39,2.36-3.58,3.56a1.18,1.18,0,0,0-.28,1.63,1.48,1.48,0,0,0,.28.28c.66.67,1.35,1.34,2,2l1.9,1.94Z"/><path class="cls-1" d="M344.21,225.72a2.79,2.79,0,0,1,.79-2c2-2,4-4,6-6a2.93,2.93,0,0,1,4.88,2.78.75.75,0,0,0,.27.82c1.28,1.26,2.54,2.52,3.8,3.8a2.67,2.67,0,0,1,.31,3.76,3,3,0,0,1-.31.31q-1.77,1.8-3.58,3.57a2.64,2.64,0,0,1-3.73.25,3,3,0,0,1-.25-.25q-1.94-1.91-3.83-3.85a.86.86,0,0,0-.88-.27,2.93,2.93,0,0,1-3.45-2.31A2.76,2.76,0,0,1,344.21,225.72Zm5.34,1.92,3.92,3.91a1.2,1.2,0,0,0,1.67.29,1.33,1.33,0,0,0,.29-.29l3.44-3.44c.74-.74.74-1.26,0-2l-3.56-3.57c-.12-.11-.25-.2-.33-.28Z"/><path class="cls-1" d="M396.37,225.73a2.88,2.88,0,0,1-2.82,2.93,2.84,2.84,0,0,1-.66-.07.94.94,0,0,0-1,.33c-1.21,1.24-2.45,2.48-3.66,3.71a2.69,2.69,0,0,1-3.78.39,2.79,2.79,0,0,1-.38-.39c-1.17-1.15-2.34-2.32-3.49-3.49a2.64,2.64,0,0,1-.28-3.73,2.54,2.54,0,0,1,.28-.29q1.91-1.94,3.85-3.84a.79.79,0,0,0,.25-.83,2.9,2.9,0,0,1,1.4-3.18,2.84,2.84,0,0,1,3.4.36c2.08,2,4.15,4.07,6.15,6.18a6.93,6.93,0,0,1,.94,1.86Zm-10.75-3.51c-1.36,1.36-2.74,2.71-4.09,4.1a1.06,1.06,0,0,0-.08,1.5.8.8,0,0,0,.13.13c1.23,1.24,2.46,2.47,3.71,3.66a1.13,1.13,0,0,0,1.59.14.93.93,0,0,0,.14-.14c1-1,1.93-1.92,2.93-2.89.38-.38.79-.73,1.15-1.08Z"/><path class="cls-1" d="M352.84,269.19a2.86,2.86,0,0,1-2-.87l-5.86-5.87a2.92,2.92,0,0,1-.5-3.54,3,3,0,0,1,3.24-1.43,1,1,0,0,0,.73-.23c1.29-1.25,2.54-2.52,3.81-3.78a2.69,2.69,0,0,1,3.78-.39,2.79,2.79,0,0,1,.38.39l3.35,3.34a2.7,2.7,0,0,1,0,4.29c-1.23,1.24-2.46,2.48-3.72,3.67a.83.83,0,0,0-.25.88,2.92,2.92,0,0,1-2.92,3.54Zm2-5.35c1.35-1.35,2.71-2.69,4.05-4.06a1.11,1.11,0,0,0,.09-1.57.57.57,0,0,0-.16-.15q-1.77-1.8-3.57-3.58a1.15,1.15,0,0,0-1.6-.29,1.18,1.18,0,0,0-.3.29c-.81.8-1.6,1.63-2.41,2.42-.52.5-1.08,1-1.59,1.42Z"/><text class="cls-3" transform="translate(359.45 251.05)">14</text><path class="cls-1" d="M280.32,300.85a15.06,15.06,0,0,1,14.86,13.29c.09.71-.11,1.1-.61,1.18s-.82-.23-.91-.95a13.61,13.61,0,0,0-10.86-11.73,13.44,13.44,0,1,0,9.54,19.21c.11-.22.21-.45.33-.67a.76.76,0,0,1,1.38.64h0a5.78,5.78,0,0,1-.28.63,15,15,0,1,1-13.43-21.59Z"/><path class="cls-1" d="M280.45,284.23h4.11a2.94,2.94,0,0,1,2.87,2.14,3,3,0,0,1-1.27,3.31,1,1,0,0,0-.37.68v5.44a2.64,2.64,0,0,1-2.39,2.87h-5.48a2.67,2.67,0,0,1-2.86-2.45,3.23,3.23,0,0,1,0-.44v-5.31a.87.87,0,0,0-.44-.87,2.88,2.88,0,0,1-1.21-3.25,2.93,2.93,0,0,1,2.77-2.11C277.59,284.21,279,284.23,280.45,284.23Zm3.77,6h-7.61v5.95a1,1,0,0,0,1,1h5.54a1,1,0,0,0,1-.95v0C284.23,294.18,284.22,292.2,284.22,290.19Z"/><path class="cls-1" d="M280.37,347.46h-4a2.94,2.94,0,0,1-1.7-5.48,1,1,0,0,0,.32-.66V336a2.68,2.68,0,0,1,3-3h4.74a2.65,2.65,0,0,1,3,3v5.19a.9.9,0,0,0,.46.86,2.93,2.93,0,0,1-1.54,5.38h-4.29Zm-3.77-6h7.62v-5.87a1,1,0,0,0-1.05-1h-5.44a1.06,1.06,0,0,0-1.11,1v1.51Z"/><path class="cls-1" d="M248.69,315.71v-4a2.92,2.92,0,0,1,2.11-2.93,3,3,0,0,1,3.36,1.28,1,1,0,0,0,.73.36h5.44a2.65,2.65,0,0,1,2.84,2.41,2.94,2.94,0,0,1,0,.42v5.06a2.66,2.66,0,0,1-2.49,2.8,1.8,1.8,0,0,1-.4,0h-5.37a.83.83,0,0,0-.82.42,2.89,2.89,0,0,1-3.25,1.25,2.94,2.94,0,0,1-2.15-2.78Zm5.94,3.83h5.61c1,0,1.35-.39,1.35-1.39v-4.86c0-1-.38-1.38-1.37-1.38h-5.14a1.57,1.57,0,0,0-.48,0Z"/><path class="cls-1" d="M311.9,315.75v4a3,3,0,0,1-2.13,2.94,3,3,0,0,1-3.35-1.31,1,1,0,0,0-.73-.33h-5.25a2.68,2.68,0,0,1-3-3v-4.86a2.62,2.62,0,0,1,2.38-2.86,2,2,0,0,1,.49,0h5.31a.89.89,0,0,0,.87-.45,2.88,2.88,0,0,1,3.25-1.23,2.94,2.94,0,0,1,2.16,2.83v4.24Zm-6,3.77v-7.61h-5.87a1,1,0,0,0-1.07,1v5.58a1,1,0,0,0,.95,1h0C302,319.54,303.93,319.52,305.94,319.52Z"/><path class="cls-1" d="M297.7,341.91a2.88,2.88,0,0,1-2.95-2.82,2.7,2.7,0,0,1,.07-.69.89.89,0,0,0-.3-.93c-1.27-1.23-2.51-2.49-3.76-3.74a2.68,2.68,0,0,1-.35-3.76,2.89,2.89,0,0,1,.35-.35q1.73-1.75,3.48-3.48a2.67,2.67,0,0,1,3.76-.35,1.93,1.93,0,0,1,.35.35c1.28,1.26,2.54,2.52,3.79,3.8a.76.76,0,0,0,.83.25,2.86,2.86,0,0,1,3.14,1.33,2.79,2.79,0,0,1-.28,3.4q-3.09,3.22-6.3,6.29a6.5,6.5,0,0,1-1.76.85Zm3.48-10.77c-1.34-1.34-2.68-2.7-4.05-4a1.09,1.09,0,0,0-1.54-.13,1.8,1.8,0,0,0-.19.2l-3.57,3.57a1.16,1.16,0,0,0-.28,1.62,1.07,1.07,0,0,0,.28.28c.66.68,1.34,1.34,2,2l1.9,1.94Z"/><path class="cls-1" d="M254.22,298.44a2.71,2.71,0,0,1,.79-2q3-3,6-6a2.93,2.93,0,0,1,4.88,2.78.73.73,0,0,0,.27.82q1.91,1.89,3.79,3.8a2.66,2.66,0,0,1,.31,3.76,1.52,1.52,0,0,1-.31.31c-1.17,1.21-2.37,2.4-3.57,3.57a2.64,2.64,0,0,1-3.73.25,2,2,0,0,1-.25-.25q-1.94-1.9-3.84-3.85a.86.86,0,0,0-.88-.27,2.93,2.93,0,0,1-3.45-2.3A3.79,3.79,0,0,1,254.22,298.44Zm5.34,1.92,3.92,3.91a1.2,1.2,0,0,0,1.67.29,1.33,1.33,0,0,0,.29-.29l3.44-3.44c.73-.73.73-1.25,0-2-1.18-1.2-2.38-2.39-3.56-3.58-.12-.11-.25-.2-.33-.28Z"/><path class="cls-1" d="M306.38,298.45a2.89,2.89,0,0,1-2.83,2.93,3,3,0,0,1-.66-.07.93.93,0,0,0-1,.33c-1.22,1.24-2.46,2.48-3.67,3.72a2.69,2.69,0,0,1-3.78.38,3.41,3.41,0,0,1-.38-.38l-3.48-3.49a2.66,2.66,0,0,1-.29-3.74,2.54,2.54,0,0,1,.29-.28q1.9-2,3.84-3.85a.77.77,0,0,0,.26-.83,2.87,2.87,0,0,1,1.39-3.17,2.84,2.84,0,0,1,3.41.36c2.08,2,4.15,4.07,6.15,6.17a6.81,6.81,0,0,1,.93,1.87Zm-10.75-3.51c-1.36,1.37-2.74,2.71-4.09,4.1a1.06,1.06,0,0,0-.09,1.5l.14.13q1.85,1.88,3.7,3.67a1.14,1.14,0,0,0,1.59.14.92.92,0,0,0,.14-.14c1-1,1.93-1.93,2.94-2.89.38-.38.78-.74,1.14-1.09Z"/><path class="cls-1" d="M262.84,341.91a2.84,2.84,0,0,1-2-.87l-5.87-5.87a2.94,2.94,0,0,1-.5-3.54,3,3,0,0,1,3.25-1.42,1,1,0,0,0,.73-.24c1.29-1.24,2.54-2.52,3.81-3.78a2.67,2.67,0,0,1,3.77-.38,2.79,2.79,0,0,1,.39.38l3.35,3.34a2.7,2.7,0,0,1,0,4.29c-1.23,1.24-2.47,2.48-3.72,3.67a.86.86,0,0,0-.26.88,2.93,2.93,0,0,1-2.26,3.48A2.42,2.42,0,0,1,262.84,341.91Zm2-5.35c1.35-1.34,2.71-2.69,4.05-4.06a1.11,1.11,0,0,0,.09-1.57.75.75,0,0,0-.16-.15c-1.18-1.2-2.38-2.39-3.57-3.57a1.15,1.15,0,0,0-1.6-.3,1.07,1.07,0,0,0-.3.3c-.81.8-1.6,1.62-2.42,2.41-.52.51-1.07,1-1.58,1.42Z"/><text class="cls-3" transform="translate(269.46 323.77)">15</text><path class="cls-1" d="M370.32,300.85a15.07,15.07,0,0,1,14.86,13.29c.08.71-.12,1.1-.62,1.18s-.82-.23-.9-.95a13.63,13.63,0,0,0-10.86-11.73,13.44,13.44,0,1,0,9.53,19.21c.11-.22.21-.45.34-.67a.76.76,0,0,1,1-.37.77.77,0,0,1,.37,1h0a5.89,5.89,0,0,1-.29.63,15,15,0,1,1-13.42-21.59Z"/><path class="cls-1" d="M370.45,284.23h4.11a2.93,2.93,0,0,1,2.86,2.14,3,3,0,0,1-1.27,3.31,1,1,0,0,0-.37.68v5.44a2.64,2.64,0,0,1-2.39,2.87h-5.47a2.67,2.67,0,0,1-2.87-2.45,2.14,2.14,0,0,1,0-.44v-5.31a.89.89,0,0,0-.44-.87,2.87,2.87,0,0,1-1.21-3.25,2.93,2.93,0,0,1,2.76-2.11C367.59,284.21,369,284.23,370.45,284.23Zm3.76,6H366.6v5.95a1,1,0,0,0,1,1h5.53a1,1,0,0,0,1.05-.95v0C374.23,294.18,374.21,292.2,374.21,290.19Z"/><path class="cls-1" d="M370.37,347.46h-4A2.93,2.93,0,0,1,364.7,342a.94.94,0,0,0,.31-.66V336a2.68,2.68,0,0,1,3-3h4.74a2.66,2.66,0,0,1,3,3v5.19a.87.87,0,0,0,.45.86,2.93,2.93,0,0,1-1.54,5.38h-4.28Zm-3.78-6h7.63v-5.87a1,1,0,0,0-1.05-1h-5.44a1.07,1.07,0,0,0-1.12,1v1.51Z"/><path class="cls-1" d="M338.68,315.71v-4a3,3,0,0,1,2.11-2.93,3,3,0,0,1,3.36,1.28,1,1,0,0,0,.74.36h5.43a2.65,2.65,0,0,1,2.84,2.41,2.94,2.94,0,0,1,0,.42v5.06a2.65,2.65,0,0,1-2.49,2.8,1.7,1.7,0,0,1-.39,0H344.9a.82.82,0,0,0-.81.42,2.9,2.9,0,0,1-3.25,1.25,2.94,2.94,0,0,1-2.16-2.78Zm5.94,3.83h5.61c1,0,1.35-.39,1.35-1.39v-4.86c0-1-.38-1.38-1.37-1.38h-5.13a1.6,1.6,0,0,0-.49,0Z"/><path class="cls-1" d="M401.89,315.75v4a2.93,2.93,0,0,1-2.12,2.94,3,3,0,0,1-3.36-1.31,1,1,0,0,0-.73-.33h-5.24a2.69,2.69,0,0,1-3-3v-4.86a2.63,2.63,0,0,1,2.38-2.86,2,2,0,0,1,.49,0h5.31a.88.88,0,0,0,.87-.45,2.88,2.88,0,0,1,3.25-1.23,2.94,2.94,0,0,1,2.16,2.83v4.24Zm-6,3.77v-7.61h-5.87a1,1,0,0,0-1.06,1v5.58a1,1,0,0,0,.94,1h0C392,319.54,393.92,319.52,395.93,319.52Z"/><path class="cls-1" d="M387.69,341.91a2.89,2.89,0,0,1-2.95-2.82,3.23,3.23,0,0,1,.07-.69.89.89,0,0,0-.29-.93c-1.27-1.23-2.52-2.49-3.77-3.74a2.67,2.67,0,0,1-.34-3.76,2.81,2.81,0,0,1,.34-.35c1.16-1.17,2.31-2.33,3.49-3.48a2.67,2.67,0,0,1,3.76-.35,2.89,2.89,0,0,1,.35.35c1.27,1.26,2.53,2.52,3.79,3.8a.74.74,0,0,0,.82.25,2.87,2.87,0,0,1,3.15,1.33,2.81,2.81,0,0,1-.28,3.4q-3.1,3.22-6.3,6.29a6.56,6.56,0,0,1-1.77.85Zm3.49-10.77c-1.35-1.34-2.69-2.7-4.06-4a1.09,1.09,0,0,0-1.54-.13,1.12,1.12,0,0,0-.18.2q-1.8,1.77-3.58,3.57a1.17,1.17,0,0,0-.28,1.62,1.24,1.24,0,0,0,.28.28c.66.68,1.35,1.34,2,2l1.9,1.94Z"/><path class="cls-1" d="M344.21,298.44a2.75,2.75,0,0,1,.79-2q3-3,6-6a2.93,2.93,0,0,1,4.88,2.78.75.75,0,0,0,.27.82c1.28,1.26,2.54,2.53,3.8,3.8a2.67,2.67,0,0,1,.31,3.76,2.27,2.27,0,0,1-.31.31q-1.77,1.81-3.58,3.57a2.64,2.64,0,0,1-3.73.25,2,2,0,0,1-.25-.25q-1.94-1.9-3.83-3.85a.86.86,0,0,0-.88-.27,2.92,2.92,0,0,1-3.45-2.3A2.86,2.86,0,0,1,344.21,298.44Zm5.34,1.92,3.92,3.91a1.2,1.2,0,0,0,1.67.29,1.33,1.33,0,0,0,.29-.29l3.44-3.44c.74-.73.74-1.25,0-2q-1.77-1.8-3.56-3.58c-.12-.11-.25-.2-.33-.28Z"/><path class="cls-1" d="M396.37,298.45a2.88,2.88,0,0,1-2.82,2.93,2.84,2.84,0,0,1-.66-.07.94.94,0,0,0-1,.33c-1.21,1.24-2.45,2.48-3.66,3.72a2.69,2.69,0,0,1-3.78.38,2.73,2.73,0,0,1-.38-.38l-3.49-3.49a2.65,2.65,0,0,1-.28-3.74,1.85,1.85,0,0,1,.28-.28q1.91-2,3.85-3.85a.79.79,0,0,0,.25-.83,2.89,2.89,0,0,1,1.4-3.17,2.82,2.82,0,0,1,3.4.36c2.08,2,4.15,4.07,6.15,6.17a6.84,6.84,0,0,1,.94,1.87Zm-10.75-3.51c-1.36,1.37-2.74,2.71-4.09,4.1a1.06,1.06,0,0,0-.08,1.5l.13.13c1.23,1.25,2.46,2.47,3.71,3.67a1.14,1.14,0,0,0,1.59.14,1.85,1.85,0,0,0,.14-.14c1-1,1.93-1.93,2.93-2.89.38-.38.79-.74,1.15-1.09Z"/><path class="cls-1" d="M352.84,341.91a2.86,2.86,0,0,1-2-.87c-2-2-3.93-3.92-5.86-5.87a2.92,2.92,0,0,1-.5-3.54,3,3,0,0,1,3.24-1.42,1,1,0,0,0,.73-.24c1.29-1.24,2.54-2.52,3.81-3.78a2.68,2.68,0,0,1,3.78-.38,2.28,2.28,0,0,1,.38.38l3.35,3.34a2.7,2.7,0,0,1,0,4.29c-1.23,1.24-2.46,2.48-3.72,3.67a.83.83,0,0,0-.25.88,2.94,2.94,0,0,1-2.26,3.48A2.46,2.46,0,0,1,352.84,341.91Zm2-5.35c1.35-1.34,2.71-2.69,4.05-4.06a1.11,1.11,0,0,0,.09-1.57.57.57,0,0,0-.16-.15q-1.77-1.8-3.57-3.57a1.15,1.15,0,0,0-1.6-.3,1.07,1.07,0,0,0-.3.3c-.81.8-1.6,1.62-2.41,2.41-.52.51-1.08,1-1.59,1.42Z"/><text class="cls-3" transform="translate(360.45 323.77)">16</text><path class="cls-1" d="M280.32,373.57a15.06,15.06,0,0,1,14.86,13.29c.09.71-.11,1.1-.61,1.19s-.82-.24-.91-1a13.62,13.62,0,0,0-10.86-11.73,13.44,13.44,0,1,0,9.54,19.22c.11-.22.21-.46.33-.68a.76.76,0,1,1,1.38.64h0a4.46,4.46,0,0,1-.28.63,15,15,0,1,1-13.43-21.59Z"/><path class="cls-1" d="M280.45,357h4.11a2.94,2.94,0,0,1,2.87,2.15,3,3,0,0,1-1.27,3.3,1,1,0,0,0-.37.69v5.43a2.64,2.64,0,0,1-2.39,2.87h-5.48a2.67,2.67,0,0,1-2.86-2.45,3.23,3.23,0,0,1,0-.44v-5.3a.88.88,0,0,0-.44-.88,2.88,2.88,0,0,1-1.21-3.25,2.93,2.93,0,0,1,2.77-2.11C277.59,356.93,279,357,280.45,357Zm3.77,6h-7.61v6a1,1,0,0,0,1,1h5.54a1,1,0,0,0,1-.94v0C284.23,366.9,284.22,364.93,284.22,362.91Z"/><path class="cls-1" d="M280.37,420.18h-4a2.94,2.94,0,0,1-1.7-5.48A.93.93,0,0,0,275,414v-5.3a2.69,2.69,0,0,1,3-3h4.74a2.66,2.66,0,0,1,3,3v5.18a.9.9,0,0,0,.46.86,2.93,2.93,0,0,1-1.54,5.38h-4.29Zm-3.77-6h7.62v-5.87a1,1,0,0,0-1.05-1h-5.44a1,1,0,0,0-1.11,1v1.51Z"/><path class="cls-1" d="M248.69,388.43v-4a2.93,2.93,0,0,1,2.11-2.94,3,3,0,0,1,3.36,1.29,1,1,0,0,0,.73.36h5.44a2.63,2.63,0,0,1,2.84,2.41,2.94,2.94,0,0,1,0,.42V391a2.69,2.69,0,0,1-2.89,2.8h-5.37a.82.82,0,0,0-.82.41,2.88,2.88,0,0,1-3.25,1.25,2.93,2.93,0,0,1-2.15-2.78Zm5.94,3.83h5.61c1,0,1.35-.38,1.35-1.39V386c0-1-.38-1.37-1.37-1.38h-5.14a1.57,1.57,0,0,0-.48.05Z"/><path class="cls-1" d="M311.9,388.47v4a2.94,2.94,0,0,1-2.13,2.94,3,3,0,0,1-3.35-1.31,1,1,0,0,0-.73-.33h-5.25a2.68,2.68,0,0,1-3-3V386a2.62,2.62,0,0,1,2.38-2.86,2,2,0,0,1,.49,0h5.31a.87.87,0,0,0,.87-.45,2.86,2.86,0,0,1,3.25-1.22,2.92,2.92,0,0,1,2.16,2.82v4.24Zm-6,3.77v-7.61h-5.87a1,1,0,0,0-1.07,1v5.57a1,1,0,0,0,.95,1.05h0C302,392.26,303.93,392.24,305.94,392.24Z"/><path class="cls-1" d="M297.7,414.64a2.89,2.89,0,0,1-2.95-2.83,2.7,2.7,0,0,1,.07-.69.9.9,0,0,0-.3-.93c-1.27-1.23-2.51-2.48-3.76-3.74a2.68,2.68,0,0,1-.35-3.76,2.89,2.89,0,0,1,.35-.35c1.15-1.16,2.31-2.33,3.48-3.48a2.67,2.67,0,0,1,3.76-.35,2.32,2.32,0,0,1,.35.35c1.28,1.26,2.54,2.52,3.79,3.8a.76.76,0,0,0,.83.25,2.87,2.87,0,0,1,3.14,1.33,2.8,2.8,0,0,1-.28,3.41q-3.09,3.21-6.3,6.28a6.5,6.5,0,0,1-1.76.85Zm3.48-10.78c-1.34-1.34-2.68-2.7-4.05-4a1.09,1.09,0,0,0-1.54-.13,1.8,1.8,0,0,0-.19.2l-3.57,3.57a1.16,1.16,0,0,0-.28,1.62,1.28,1.28,0,0,0,.28.29c.66.67,1.34,1.33,2,2l1.9,1.93Z"/><path class="cls-1" d="M254.22,371.16a2.71,2.71,0,0,1,.79-2q3-3,6-6a2.93,2.93,0,0,1,4.88,2.78.72.72,0,0,0,.27.82l3.79,3.8a2.67,2.67,0,0,1,.31,3.77,1.77,1.77,0,0,1-.31.3c-1.17,1.21-2.37,2.4-3.57,3.58a2.65,2.65,0,0,1-3.73.25l-.25-.25q-1.94-1.92-3.84-3.85a.84.84,0,0,0-.88-.28,2.93,2.93,0,0,1-3.45-2.3A3.68,3.68,0,0,1,254.22,371.16Zm5.34,1.92c1.3,1.3,2.61,2.62,3.92,3.91a1.2,1.2,0,0,0,1.67.3,1.18,1.18,0,0,0,.29-.3l3.44-3.44c.73-.73.73-1.25,0-2-1.18-1.2-2.38-2.39-3.56-3.57l-.33-.28Z"/><path class="cls-1" d="M306.38,371.18a2.89,2.89,0,0,1-2.83,2.92,3,3,0,0,1-.66-.06.9.9,0,0,0-1,.32c-1.22,1.25-2.46,2.49-3.67,3.72a2.68,2.68,0,0,1-3.78.38,2.73,2.73,0,0,1-.38-.38l-3.48-3.49a2.66,2.66,0,0,1-.29-3.74,3.83,3.83,0,0,1,.29-.28q1.9-1.94,3.84-3.85a.76.76,0,0,0,.26-.82,2.88,2.88,0,0,1,1.39-3.18,2.84,2.84,0,0,1,3.41.36c2.08,2,4.15,4.07,6.15,6.18a6.76,6.76,0,0,1,.93,1.86Zm-10.75-3.52c-1.36,1.37-2.74,2.72-4.09,4.1a1.07,1.07,0,0,0-.09,1.51l.14.12q1.85,1.88,3.7,3.67a1.13,1.13,0,0,0,1.59.14.62.62,0,0,0,.14-.14c1-.95,1.93-1.93,2.94-2.89.38-.38.78-.73,1.14-1.09Z"/><path class="cls-1" d="M262.84,414.64a2.85,2.85,0,0,1-2-.88l-5.87-5.86a3,3,0,0,1-.5-3.55,3,3,0,0,1,3.25-1.42,1,1,0,0,0,.73-.23c1.29-1.25,2.54-2.53,3.81-3.79a2.67,2.67,0,0,1,3.77-.38,2.79,2.79,0,0,1,.39.38l3.35,3.35a2.7,2.7,0,0,1,0,4.29c-1.23,1.24-2.47,2.48-3.72,3.66a.86.86,0,0,0-.26.88,3,3,0,0,1-2.92,3.55Zm2-5.36c1.35-1.34,2.71-2.69,4.05-4a1.12,1.12,0,0,0,.09-1.58l-.16-.15-3.57-3.57a1.16,1.16,0,0,0-1.6-.3,1.07,1.07,0,0,0-.3.3c-.81.8-1.6,1.62-2.42,2.41-.52.51-1.07,1-1.58,1.43Z"/><text class="cls-3" transform="translate(271.46 396.49)">17</text><path class="cls-1" d="M370.32,373.57a15.07,15.07,0,0,1,14.86,13.29c.08.71-.12,1.1-.62,1.19s-.82-.24-.9-1a13.64,13.64,0,0,0-10.86-11.73,13.44,13.44,0,1,0,9.53,19.22c.11-.22.21-.46.34-.68a.76.76,0,0,1,1-.37.77.77,0,0,1,.37,1h0a4.51,4.51,0,0,1-.29.63,15,15,0,1,1-13.42-21.59Z"/><path class="cls-1" d="M370.45,357h4.11a2.92,2.92,0,0,1,2.86,2.15,3,3,0,0,1-1.27,3.3,1,1,0,0,0-.37.69v5.43a2.64,2.64,0,0,1-2.39,2.87h-5.47a2.67,2.67,0,0,1-2.87-2.45,2.17,2.17,0,0,1,0-.44v-5.3a.89.89,0,0,0-.44-.88,2.86,2.86,0,0,1-1.21-3.25,2.93,2.93,0,0,1,2.76-2.11C367.59,356.93,369,357,370.45,357Zm3.76,6H366.6v6a1,1,0,0,0,1,1h5.53a1,1,0,0,0,1.05-.94v0C374.23,366.9,374.21,364.93,374.21,362.91Z"/><path class="cls-1" d="M370.37,420.18h-4a2.93,2.93,0,0,1-1.69-5.48A.92.92,0,0,0,365,414v-5.3a2.69,2.69,0,0,1,3-3h4.74a2.67,2.67,0,0,1,3,3v5.18a.87.87,0,0,0,.45.86,2.93,2.93,0,0,1-1.54,5.38h-4.28Zm-3.78-6h7.63v-5.87a1.05,1.05,0,0,0-1.05-1h-5.44a1.05,1.05,0,0,0-1.12,1v1.51Z"/><path class="cls-1" d="M338.68,388.43v-4a3,3,0,0,1,2.11-2.94,3,3,0,0,1,3.36,1.29,1,1,0,0,0,.74.36h5.43a2.63,2.63,0,0,1,2.84,2.41,2.94,2.94,0,0,1,0,.42V391a2.64,2.64,0,0,1-2.49,2.8,2.54,2.54,0,0,1-.39,0H344.9a.81.81,0,0,0-.81.41,2.88,2.88,0,0,1-3.25,1.25,2.93,2.93,0,0,1-2.16-2.78Zm5.94,3.83h5.61c1,0,1.35-.38,1.35-1.39V386c0-1-.38-1.37-1.37-1.38h-5.13a1.6,1.6,0,0,0-.49.05Z"/><path class="cls-1" d="M401.89,388.47v4a2.92,2.92,0,0,1-2.12,2.94,3,3,0,0,1-3.36-1.31,1,1,0,0,0-.73-.33h-5.24a2.69,2.69,0,0,1-3-3V386a2.63,2.63,0,0,1,2.38-2.86,2,2,0,0,1,.49,0h5.31a.86.86,0,0,0,.87-.45,2.86,2.86,0,0,1,3.25-1.22,2.92,2.92,0,0,1,2.16,2.82v4.24Zm-6,3.77v-7.61h-5.87a1,1,0,0,0-1.06,1v5.57a1,1,0,0,0,.94,1.05h0C392,392.26,393.92,392.24,395.93,392.24Z"/><path class="cls-1" d="M387.69,414.64a2.9,2.9,0,0,1-2.95-2.83,3.23,3.23,0,0,1,.07-.69.89.89,0,0,0-.29-.93c-1.27-1.23-2.52-2.48-3.77-3.74a2.67,2.67,0,0,1-.34-3.76,2.81,2.81,0,0,1,.34-.35c1.16-1.16,2.31-2.33,3.49-3.48a2.67,2.67,0,0,1,3.76-.35,3.85,3.85,0,0,1,.35.35c1.27,1.26,2.53,2.52,3.79,3.8a.74.74,0,0,0,.82.25,2.88,2.88,0,0,1,3.15,1.33,2.83,2.83,0,0,1-.28,3.41q-3.1,3.21-6.3,6.28a6.56,6.56,0,0,1-1.77.85Zm3.49-10.78c-1.35-1.34-2.69-2.7-4.06-4a1.09,1.09,0,0,0-1.54-.13,1.12,1.12,0,0,0-.18.2q-1.8,1.77-3.58,3.57a1.17,1.17,0,0,0-.28,1.62,1.54,1.54,0,0,0,.28.29c.66.67,1.35,1.33,2,2l1.9,1.93Z"/><path class="cls-1" d="M344.21,371.16a2.75,2.75,0,0,1,.79-2q3-3,6-6a2.94,2.94,0,0,1,4.15.1,2.9,2.9,0,0,1,.73,2.68.74.74,0,0,0,.27.82c1.28,1.27,2.54,2.53,3.8,3.8a2.69,2.69,0,0,1,.31,3.77,2.91,2.91,0,0,1-.31.3q-1.77,1.82-3.58,3.58a2.65,2.65,0,0,1-3.73.25l-.25-.25q-1.94-1.92-3.83-3.85a.85.85,0,0,0-.88-.28,2.92,2.92,0,0,1-3.45-2.3A2.78,2.78,0,0,1,344.21,371.16Zm5.34,1.92c1.31,1.3,2.61,2.62,3.92,3.91a1.2,1.2,0,0,0,1.67.3,1.18,1.18,0,0,0,.29-.3l3.44-3.44c.74-.73.74-1.25,0-2q-1.77-1.8-3.56-3.57l-.33-.28Z"/><path class="cls-1" d="M396.37,371.18a2.88,2.88,0,0,1-2.82,2.92,2.85,2.85,0,0,1-.66-.06.91.91,0,0,0-1,.32c-1.21,1.25-2.45,2.49-3.66,3.72a2.68,2.68,0,0,1-3.78.38,2.28,2.28,0,0,1-.38-.38l-3.49-3.49a2.65,2.65,0,0,1-.28-3.74,2.47,2.47,0,0,1,.28-.28q1.91-1.94,3.85-3.85a.77.77,0,0,0,.25-.82,2.9,2.9,0,0,1,1.4-3.18,2.82,2.82,0,0,1,3.4.36c2.08,2,4.15,4.07,6.15,6.18a6.78,6.78,0,0,1,.94,1.86Zm-10.75-3.52c-1.36,1.37-2.74,2.72-4.09,4.1a1.07,1.07,0,0,0-.08,1.51l.13.12c1.23,1.25,2.46,2.47,3.71,3.67a1.13,1.13,0,0,0,1.59.14.93.93,0,0,0,.14-.14c1-.95,1.93-1.93,2.93-2.89.38-.38.79-.73,1.15-1.09Z"/><path class="cls-1" d="M352.84,414.64a2.87,2.87,0,0,1-2-.88l-5.86-5.86a2.94,2.94,0,0,1-.5-3.55,3,3,0,0,1,3.24-1.42,1,1,0,0,0,.73-.23c1.29-1.25,2.54-2.53,3.81-3.79a2.68,2.68,0,0,1,3.78-.38,2.28,2.28,0,0,1,.38.38l3.35,3.35a2.7,2.7,0,0,1,0,4.29c-1.23,1.24-2.46,2.48-3.72,3.66a.84.84,0,0,0-.25.88,3,3,0,0,1-2.92,3.55Zm2-5.36c1.35-1.34,2.71-2.69,4.05-4a1.12,1.12,0,0,0,.09-1.58,1.17,1.17,0,0,0-.16-.15c-1.18-1.19-2.37-2.39-3.57-3.57a1.16,1.16,0,0,0-1.6-.3,1.07,1.07,0,0,0-.3.3c-.81.8-1.6,1.62-2.41,2.41-.52.51-1.08,1-1.59,1.43Z"/><text class="cls-3" transform="translate(360.45 396.49)">18</text><path class="cls-1" d="M280.32,446.29a15.06,15.06,0,0,1,14.86,13.29c.09.71-.11,1.11-.61,1.19s-.82-.23-.91-.95a13.63,13.63,0,0,0-10.86-11.74,13.44,13.44,0,1,0,9.54,19.22c.11-.22.21-.46.33-.68a.77.77,0,0,1,1-.37.76.76,0,0,1,.37,1h0a4.46,4.46,0,0,1-.28.63,15,15,0,1,1-13.43-21.58Z"/><path class="cls-1" d="M280.45,429.68h4.11a2.94,2.94,0,0,1,2.87,2.14,3,3,0,0,1-1.27,3.31,1,1,0,0,0-.37.68v5.43a2.64,2.64,0,0,1-2.39,2.87,1.93,1.93,0,0,1-.48,0h-5a2.66,2.66,0,0,1-2.86-2.44,3.38,3.38,0,0,1,0-.45v-5.3a.86.86,0,0,0-.44-.87,2.88,2.88,0,0,1-1.21-3.25,2.94,2.94,0,0,1,2.77-2.12C277.59,429.65,279,429.68,280.45,429.68Zm3.77,5.95h-7.61v6a1,1,0,0,0,1,1h5.54a1,1,0,0,0,1-.94v0C284.23,439.62,284.22,437.65,284.22,435.63Z"/><path class="cls-1" d="M280.37,492.9h-4a2.93,2.93,0,0,1-1.7-5.47,1,1,0,0,0,.32-.66v-5.31a2.69,2.69,0,0,1,3-3h4.74a2.66,2.66,0,0,1,3,3v5.19a.87.87,0,0,0,.46.85,2.94,2.94,0,0,1-1.54,5.39h-4.29Zm-3.77-6h7.62v-5.86a1,1,0,0,0-1.05-1h-5.44a1.05,1.05,0,0,0-1.11,1v1.51Z"/><path class="cls-1" d="M248.69,461.15v-4a2.91,2.91,0,0,1,2.11-2.93,3,3,0,0,1,3.36,1.28,1,1,0,0,0,.73.36h5.44a2.63,2.63,0,0,1,2.84,2.41,2.94,2.94,0,0,1,0,.42v5.05a2.65,2.65,0,0,1-2.49,2.8h-5.77a.82.82,0,0,0-.82.42,2.89,2.89,0,0,1-3.25,1.24,2.92,2.92,0,0,1-2.15-2.78Zm5.94,3.83h5.61c1,0,1.35-.38,1.35-1.39v-4.86c0-1-.38-1.37-1.37-1.38h-5.14a1.57,1.57,0,0,0-.48,0Z"/><path class="cls-1" d="M311.9,461.2v4a2.93,2.93,0,0,1-2.13,2.93,3,3,0,0,1-3.35-1.3,1,1,0,0,0-.73-.33h-5.25a2.69,2.69,0,0,1-3-3v-4.87a2.62,2.62,0,0,1,2.38-2.86h5.8a.85.85,0,0,0,.87-.45,2.86,2.86,0,0,1,3.25-1.22A2.93,2.93,0,0,1,311.9,457v4.24Zm-6,3.77v-7.62h-5.87a1,1,0,0,0-1.07,1v5.58a1,1,0,0,0,.95,1h6Z"/><path class="cls-1" d="M297.7,487.36a2.89,2.89,0,0,1-2.95-2.83,2.58,2.58,0,0,1,.07-.68.91.91,0,0,0-.3-.94c-1.27-1.23-2.51-2.48-3.76-3.74a2.68,2.68,0,0,1-.35-3.76,2.81,2.81,0,0,1,.35-.34c1.15-1.17,2.31-2.34,3.48-3.49a2.68,2.68,0,0,1,3.76-.35,2.89,2.89,0,0,1,.35.35c1.28,1.26,2.54,2.52,3.79,3.8a.76.76,0,0,0,.83.25,2.88,2.88,0,0,1,3.14,1.34,2.79,2.79,0,0,1-.28,3.4q-3.09,3.21-6.3,6.29a6.81,6.81,0,0,1-1.76.85Zm3.48-10.78c-1.34-1.34-2.68-2.7-4.05-4a1.09,1.09,0,0,0-1.54-.12,1.21,1.21,0,0,0-.19.2q-1.78,1.75-3.57,3.56a1.17,1.17,0,0,0-.28,1.63,1.24,1.24,0,0,0,.28.28c.66.67,1.34,1.33,2,2l1.9,1.93Z"/><path class="cls-1" d="M254.22,443.88a2.73,2.73,0,0,1,.79-2c2-2,4-4,6-6a2.93,2.93,0,0,1,4.88,2.78.73.73,0,0,0,.27.82c1.27,1.26,2.53,2.52,3.79,3.8a2.66,2.66,0,0,1,.31,3.76,2.27,2.27,0,0,1-.31.31c-1.17,1.2-2.37,2.39-3.57,3.57a2.64,2.64,0,0,1-3.73.25,3,3,0,0,1-.25-.25c-1.29-1.28-2.57-2.55-3.84-3.85a.84.84,0,0,0-.88-.27,2.94,2.94,0,0,1-3.45-2.31A3.68,3.68,0,0,1,254.22,443.88Zm5.34,1.93,3.92,3.91a1.2,1.2,0,0,0,1.67.29,1.33,1.33,0,0,0,.29-.29l3.44-3.44c.73-.74.73-1.26,0-2l-3.56-3.57-.33-.28Z"/><path class="cls-1" d="M306.38,443.9a2.87,2.87,0,0,1-2.83,2.92,2.46,2.46,0,0,1-.66-.06.92.92,0,0,0-1,.32c-1.22,1.25-2.46,2.49-3.67,3.72a2.68,2.68,0,0,1-3.78.38,2.73,2.73,0,0,1-.38-.38c-1.16-1.16-2.33-2.32-3.48-3.49a2.65,2.65,0,0,1,0-4q1.9-1.94,3.84-3.84a.78.78,0,0,0,.26-.83,2.88,2.88,0,0,1,1.39-3.18,2.85,2.85,0,0,1,3.41.36c2.08,2,4.15,4.07,6.15,6.18a6.9,6.9,0,0,1,.93,1.86Zm-10.75-3.51c-1.36,1.36-2.74,2.71-4.09,4.1a1.06,1.06,0,0,0-.09,1.5,1.49,1.49,0,0,0,.14.12q1.85,1.88,3.7,3.67a1.13,1.13,0,0,0,1.59.14.62.62,0,0,0,.14-.14c1-.95,1.93-1.93,2.94-2.89.38-.38.78-.73,1.14-1.08Z"/><path class="cls-1" d="M262.84,487.36a2.88,2.88,0,0,1-2-.87c-2-2-3.93-3.93-5.87-5.87a2.94,2.94,0,0,1-.5-3.54,3,3,0,0,1,3.25-1.43,1,1,0,0,0,.73-.23c1.29-1.25,2.54-2.53,3.81-3.79a2.67,2.67,0,0,1,3.77-.38,3.5,3.5,0,0,1,.39.38l3.35,3.35a2.7,2.7,0,0,1,0,4.29c-1.23,1.24-2.47,2.48-3.72,3.67a.85.85,0,0,0-.26.88,2.93,2.93,0,0,1-2.26,3.48A3.6,3.6,0,0,1,262.84,487.36Zm2-5.36c1.35-1.34,2.71-2.69,4.05-4.05a1.12,1.12,0,0,0,.09-1.58l-.16-.15c-1.18-1.19-2.38-2.39-3.57-3.57a1.16,1.16,0,0,0-1.6-.3,1.22,1.22,0,0,0-.3.3c-.81.8-1.6,1.62-2.42,2.42-.52.5-1.07,1-1.58,1.42Z"/><text class="cls-3" transform="translate(270.46 469.21)">19</text><path class="cls-1" d="M370.32,446.29a15.07,15.07,0,0,1,14.86,13.29c.08.71-.12,1.11-.62,1.19s-.82-.23-.9-.95a13.65,13.65,0,0,0-10.86-11.74,13.44,13.44,0,1,0,9.53,19.22c.11-.22.21-.46.34-.68a.76.76,0,1,1,1.38.64h0a4.51,4.51,0,0,1-.29.63,15,15,0,1,1-13.42-21.58Z"/><path class="cls-1" d="M370.45,429.68h4.11a2.93,2.93,0,0,1,2.86,2.14,3,3,0,0,1-1.27,3.31,1,1,0,0,0-.37.68v5.43a2.64,2.64,0,0,1-2.39,2.87,1.93,1.93,0,0,1-.48,0h-5a2.67,2.67,0,0,1-2.87-2.44,2.26,2.26,0,0,1,0-.45v-5.3a.88.88,0,0,0-.44-.87,2.87,2.87,0,0,1-1.21-3.25,2.94,2.94,0,0,1,2.76-2.12C367.59,429.65,369,429.68,370.45,429.68Zm3.76,5.95H366.6v6a1,1,0,0,0,1,1h5.53a1,1,0,0,0,1.05-.94v0C374.23,439.62,374.21,437.65,374.21,435.63Z"/><path class="cls-1" d="M370.37,492.9h-4a2.93,2.93,0,0,1-1.69-5.47.94.94,0,0,0,.31-.66v-5.31a2.69,2.69,0,0,1,3-3h4.74a2.67,2.67,0,0,1,3,3v5.19a.85.85,0,0,0,.45.85,2.94,2.94,0,0,1-1.54,5.39h-4.28Zm-3.78-6h7.63v-5.86a1,1,0,0,0-1.05-1h-5.44a1.06,1.06,0,0,0-1.12,1v1.51Z"/><path class="cls-1" d="M338.68,461.15v-4a2.93,2.93,0,0,1,2.11-2.93,3,3,0,0,1,3.36,1.28,1,1,0,0,0,.74.36h5.43a2.63,2.63,0,0,1,2.84,2.41,2.94,2.94,0,0,1,0,.42v5.05a2.64,2.64,0,0,1-2.49,2.8H344.9a.8.8,0,0,0-.81.42,2.94,2.94,0,0,1-5.41-1.54Zm5.94,3.83h5.61c1,0,1.35-.38,1.35-1.39v-4.86c0-1-.38-1.37-1.37-1.38h-5.13a1.6,1.6,0,0,0-.49,0Z"/><path class="cls-1" d="M401.89,461.2v4a2.92,2.92,0,0,1-2.12,2.93,3,3,0,0,1-3.36-1.3,1,1,0,0,0-.73-.33h-5.24a2.7,2.7,0,0,1-3-3v-4.87a2.63,2.63,0,0,1,2.38-2.86h5.8a.85.85,0,0,0,.87-.45,2.86,2.86,0,0,1,3.25-1.22,2.93,2.93,0,0,1,2.16,2.82v4.24Zm-6,3.77v-7.62h-5.87a1,1,0,0,0-1.06,1v5.58a1,1,0,0,0,.94,1h6Z"/><path class="cls-1" d="M387.69,487.36a2.9,2.9,0,0,1-2.95-2.83,3.08,3.08,0,0,1,.07-.68.9.9,0,0,0-.29-.94c-1.27-1.23-2.52-2.48-3.77-3.74a2.67,2.67,0,0,1-.34-3.76,2.73,2.73,0,0,1,.34-.34c1.16-1.17,2.31-2.34,3.49-3.49a2.68,2.68,0,0,1,3.76-.35c.12.11.24.23.35.35,1.27,1.26,2.53,2.52,3.79,3.8a.74.74,0,0,0,.82.25,2.89,2.89,0,0,1,3.15,1.34,2.82,2.82,0,0,1-.28,3.4q-3.1,3.21-6.3,6.29a6.88,6.88,0,0,1-1.77.85Zm3.49-10.78c-1.35-1.34-2.69-2.7-4.06-4a1.09,1.09,0,0,0-1.54-.12.86.86,0,0,0-.18.2q-1.8,1.75-3.58,3.56a1.18,1.18,0,0,0-.28,1.63,1.48,1.48,0,0,0,.28.28c.66.67,1.35,1.33,2,2l1.9,1.93Z"/><path class="cls-1" d="M344.21,443.88a2.77,2.77,0,0,1,.79-2c2-2,4-4,6-6a2.93,2.93,0,0,1,4.88,2.78.75.75,0,0,0,.27.82c1.28,1.26,2.54,2.52,3.8,3.8a2.67,2.67,0,0,1,.31,3.76c-.1.11-.2.21-.31.31q-1.77,1.8-3.58,3.57a2.64,2.64,0,0,1-3.73.25,3,3,0,0,1-.25-.25c-1.29-1.28-2.57-2.55-3.83-3.85a.84.84,0,0,0-.88-.27,2.94,2.94,0,0,1-3.45-2.31A2.78,2.78,0,0,1,344.21,443.88Zm5.34,1.93c1.31,1.29,2.61,2.61,3.92,3.91a1.2,1.2,0,0,0,1.67.29,1.33,1.33,0,0,0,.29-.29l3.44-3.44c.74-.74.74-1.26,0-2l-3.56-3.57-.33-.28Z"/><path class="cls-1" d="M396.37,443.9a2.86,2.86,0,0,1-2.82,2.92,2.39,2.39,0,0,1-.66-.06.93.93,0,0,0-1,.32c-1.21,1.25-2.45,2.49-3.66,3.72a2.68,2.68,0,0,1-3.78.38,2.28,2.28,0,0,1-.38-.38c-1.17-1.16-2.34-2.32-3.49-3.49a2.64,2.64,0,0,1-.28-3.73,1.92,1.92,0,0,1,.28-.29q1.91-1.94,3.85-3.84a.79.79,0,0,0,.25-.83,2.9,2.9,0,0,1,1.4-3.18,2.84,2.84,0,0,1,3.4.36c2.08,2,4.15,4.07,6.15,6.18a6.93,6.93,0,0,1,.94,1.86Zm-10.75-3.51c-1.36,1.36-2.74,2.71-4.09,4.1a1.06,1.06,0,0,0-.08,1.5.74.74,0,0,0,.13.12c1.23,1.25,2.46,2.47,3.71,3.67a1.13,1.13,0,0,0,1.59.14.93.93,0,0,0,.14-.14c1-.95,1.93-1.93,2.93-2.89.38-.38.79-.73,1.15-1.08Z"/><path class="cls-1" d="M352.84,487.36a2.9,2.9,0,0,1-2-.87l-5.86-5.87a2.93,2.93,0,0,1-.5-3.54,3,3,0,0,1,3.24-1.43,1,1,0,0,0,.73-.23c1.29-1.25,2.54-2.53,3.81-3.79a2.68,2.68,0,0,1,3.78-.38,2.73,2.73,0,0,1,.38.38l3.35,3.35a2.7,2.7,0,0,1,0,4.29c-1.23,1.24-2.46,2.48-3.72,3.67a.83.83,0,0,0-.25.88,3,3,0,0,1-2.26,3.48A3.68,3.68,0,0,1,352.84,487.36Zm2-5.36c1.35-1.34,2.71-2.69,4.05-4.05a1.12,1.12,0,0,0,.09-1.58,1.17,1.17,0,0,0-.16-.15c-1.18-1.19-2.37-2.39-3.57-3.57a1.16,1.16,0,0,0-1.6-.3,1.22,1.22,0,0,0-.3.3c-.81.8-1.6,1.62-2.41,2.42-.52.5-1.08,1-1.59,1.42Z"/><text class="cls-4" transform="translate(359.45 469.21)">20</text><path class="cls-1" d="M280.32,519a15.07,15.07,0,0,1,14.86,13.29c.09.71-.11,1.11-.61,1.19s-.82-.23-.91-1A13.63,13.63,0,0,0,282.8,520.8,13.45,13.45,0,1,0,292.34,540c.11-.22.21-.45.33-.67a.76.76,0,0,1,1.38.63h0a4.46,4.46,0,0,1-.28.63A15,15,0,1,1,280.34,519Z"/><path class="cls-1" d="M280.45,502.4h4.11a2.94,2.94,0,0,1,2.87,2.14,3,3,0,0,1-1.27,3.31,1,1,0,0,0-.37.68V514a2.64,2.64,0,0,1-2.39,2.86,1.93,1.93,0,0,1-.48,0h-5a2.66,2.66,0,0,1-2.86-2.44,3.38,3.38,0,0,1,0-.45v-5.3a.86.86,0,0,0-.44-.87,2.88,2.88,0,0,1-1.21-3.25,2.93,2.93,0,0,1,2.77-2.11C277.59,502.38,279,502.4,280.45,502.4Zm3.77,6h-7.61v5.95a1,1,0,0,0,1,1h5.54a1,1,0,0,0,1-.95v0C284.23,512.35,284.22,510.37,284.22,508.36Z"/><path class="cls-1" d="M280.37,565.63h-4a2.94,2.94,0,0,1-1.7-5.48,1,1,0,0,0,.32-.66v-5.31a2.69,2.69,0,0,1,3-3h4.74a2.66,2.66,0,0,1,3,3v5.19a.9.9,0,0,0,.46.86,2.93,2.93,0,0,1-1.54,5.38h-4.29Zm-3.77-6h7.62v-5.87a1,1,0,0,0-1.05-1h-5.44a1.05,1.05,0,0,0-1.11,1v1.5Z"/><path class="cls-1" d="M248.69,533.87v-4a2.91,2.91,0,0,1,2.11-2.93,3,3,0,0,1,3.36,1.28,1,1,0,0,0,.73.36h5.44a2.63,2.63,0,0,1,2.84,2.41,2.94,2.94,0,0,1,0,.42v5.06a2.66,2.66,0,0,1-2.49,2.8,2.71,2.71,0,0,1-.4,0h-5.37a.83.83,0,0,0-.82.42,2.91,2.91,0,0,1-3.25,1.25,2.94,2.94,0,0,1-2.15-2.78Zm5.94,3.83h5.61c1,0,1.35-.38,1.35-1.38v-4.87c0-1-.38-1.37-1.37-1.38h-5.14a1.32,1.32,0,0,0-.48.06Z"/><path class="cls-1" d="M311.9,533.92v4a2.93,2.93,0,0,1-2.13,2.93,3,3,0,0,1-3.35-1.3,1,1,0,0,0-.73-.33h-5.25a2.68,2.68,0,0,1-3-3v-4.87a2.63,2.63,0,0,1,2.38-2.86h5.8a.86.86,0,0,0,.87-.44,2.85,2.85,0,0,1,3.25-1.23,2.93,2.93,0,0,1,2.16,2.83v4.24Zm-6,3.77v-7.62h-5.87a1,1,0,0,0-1.07,1v5.58a1,1,0,0,0,.95,1.05h6Z"/><path class="cls-1" d="M297.7,560.08a2.88,2.88,0,0,1-2.95-2.83,2.58,2.58,0,0,1,.07-.68.89.89,0,0,0-.3-.93c-1.27-1.24-2.51-2.49-3.76-3.74a2.68,2.68,0,0,1-.35-3.76,2.32,2.32,0,0,1,.35-.35q1.73-1.75,3.48-3.49A2.67,2.67,0,0,1,298,544a2.26,2.26,0,0,1,.35.34c1.28,1.27,2.54,2.53,3.79,3.8a.73.73,0,0,0,.83.25,2.88,2.88,0,0,1,3.14,1.34,2.79,2.79,0,0,1-.28,3.4q-3.09,3.21-6.3,6.29a6.5,6.5,0,0,1-1.76.85Zm3.48-10.77c-1.34-1.35-2.68-2.7-4.05-4a1.08,1.08,0,0,0-1.54-.13,1.21,1.21,0,0,0-.19.2l-3.57,3.56a1.17,1.17,0,0,0-.28,1.63,1.24,1.24,0,0,0,.28.28c.66.68,1.34,1.34,2,2l1.9,1.94Z"/><path class="cls-1" d="M254.22,516.61a2.75,2.75,0,0,1,.79-2c2-2,4-4,6-6a2.93,2.93,0,0,1,4.88,2.78.73.73,0,0,0,.27.82c1.27,1.26,2.53,2.52,3.79,3.8a2.66,2.66,0,0,1,.31,3.76,1.82,1.82,0,0,1-.31.31c-1.17,1.2-2.37,2.39-3.57,3.57a2.64,2.64,0,0,1-3.73.25l-.25-.25q-1.94-1.9-3.84-3.85a.86.86,0,0,0-.88-.27,2.94,2.94,0,0,1-3.45-2.31A3.66,3.66,0,0,1,254.22,516.61Zm5.34,1.92,3.92,3.91a1.2,1.2,0,0,0,1.67.29,1.33,1.33,0,0,0,.29-.29l3.44-3.44c.73-.74.73-1.26,0-2l-3.56-3.57c-.12-.11-.25-.2-.33-.28Z"/><path class="cls-1" d="M306.38,516.62a2.89,2.89,0,0,1-2.83,2.93,3,3,0,0,1-.66-.07.93.93,0,0,0-1,.33l-3.67,3.71a2.69,2.69,0,0,1-3.78.39,3.5,3.5,0,0,1-.38-.39c-1.16-1.15-2.33-2.32-3.48-3.49a2.65,2.65,0,0,1-.29-3.73l.29-.29q1.9-1.93,3.84-3.84a.78.78,0,0,0,.26-.83,2.88,2.88,0,0,1,1.39-3.18,2.85,2.85,0,0,1,3.41.36c2.08,2,4.15,4.08,6.15,6.18a6.9,6.9,0,0,1,.93,1.86Zm-10.75-3.51c-1.36,1.36-2.74,2.71-4.09,4.1a1.06,1.06,0,0,0-.09,1.5l.14.13c1.23,1.24,2.46,2.47,3.7,3.66a1.12,1.12,0,0,0,1.59.14.47.47,0,0,0,.14-.14c1-1,1.93-1.92,2.94-2.89.38-.38.78-.73,1.14-1.08Z"/><path class="cls-1" d="M262.84,560.08a2.84,2.84,0,0,1-2-.87l-5.87-5.87a2.94,2.94,0,0,1-.5-3.54,3,3,0,0,1,3.25-1.42,1,1,0,0,0,.73-.24c1.29-1.25,2.54-2.52,3.81-3.78A2.68,2.68,0,0,1,266,544a3.59,3.59,0,0,1,.39.39l3.35,3.34a2.7,2.7,0,0,1,0,4.29c-1.23,1.24-2.47,2.48-3.72,3.67a.85.85,0,0,0-.26.88A2.93,2.93,0,0,1,263.5,560,2.9,2.9,0,0,1,262.84,560.08Zm2-5.35c1.35-1.35,2.71-2.69,4.05-4.06a1.11,1.11,0,0,0,.09-1.57.75.75,0,0,0-.16-.15c-1.18-1.2-2.38-2.39-3.57-3.57a1.15,1.15,0,0,0-1.6-.3,1.07,1.07,0,0,0-.3.3c-.81.79-1.6,1.62-2.42,2.41-.52.5-1.07,1-1.58,1.42Z"/><text class="cls-4" transform="translate(269.46 541.94)">23</text><path class="cls-1" d="M370.32,519a15.08,15.08,0,0,1,14.86,13.29c.08.71-.12,1.11-.62,1.19s-.82-.23-.9-1A13.65,13.65,0,0,0,372.8,520.8,13.45,13.45,0,1,0,382.33,540c.11-.22.21-.45.34-.67a.76.76,0,0,1,1.38.63h0a4.51,4.51,0,0,1-.29.63A15,15,0,1,1,370.34,519Z"/><path class="cls-1" d="M370.45,502.4h4.11a2.93,2.93,0,0,1,2.86,2.14,3,3,0,0,1-1.27,3.31,1,1,0,0,0-.37.68V514a2.64,2.64,0,0,1-2.39,2.86,1.93,1.93,0,0,1-.48,0h-5a2.67,2.67,0,0,1-2.87-2.44,2.26,2.26,0,0,1,0-.45v-5.3a.88.88,0,0,0-.44-.87,2.87,2.87,0,0,1-1.21-3.25,2.93,2.93,0,0,1,2.76-2.11C367.59,502.38,369,502.4,370.45,502.4Zm3.76,6H366.6v5.95a1,1,0,0,0,1,1h5.53a1,1,0,0,0,1.05-.95v0C374.23,512.35,374.21,510.37,374.21,508.36Z"/><path class="cls-1" d="M370.37,565.63h-4a2.93,2.93,0,0,1-1.69-5.48.94.94,0,0,0,.31-.66v-5.31a2.69,2.69,0,0,1,3-3h4.74a2.67,2.67,0,0,1,3,3v5.19a.87.87,0,0,0,.45.86,2.93,2.93,0,0,1-1.54,5.38h-4.28Zm-3.78-6h7.63v-5.87a1,1,0,0,0-1.05-1h-5.44a1.06,1.06,0,0,0-1.12,1v1.5Z"/><path class="cls-1" d="M338.68,533.87v-4a2.94,2.94,0,0,1,2.11-2.93,3,3,0,0,1,3.36,1.28,1,1,0,0,0,.74.36h5.43a2.63,2.63,0,0,1,2.84,2.41,2.94,2.94,0,0,1,0,.42v5.06a2.65,2.65,0,0,1-2.49,2.8,2.54,2.54,0,0,1-.39,0H344.9a.82.82,0,0,0-.81.42,2.94,2.94,0,0,1-5.41-1.53Zm5.94,3.83h5.61c1,0,1.35-.38,1.35-1.38v-4.87c0-1-.38-1.37-1.37-1.38h-5.13a1.35,1.35,0,0,0-.49.06Z"/><path class="cls-1" d="M401.89,533.92v4a2.92,2.92,0,0,1-2.12,2.93,3,3,0,0,1-3.36-1.3,1,1,0,0,0-.73-.33h-5.24a2.69,2.69,0,0,1-3-3v-4.87a2.64,2.64,0,0,1,2.38-2.86h5.8a.85.85,0,0,0,.87-.44,2.85,2.85,0,0,1,3.25-1.23,2.93,2.93,0,0,1,2.16,2.83v4.24Zm-6,3.77v-7.62h-5.87a1,1,0,0,0-1.06,1v5.58a1,1,0,0,0,.94,1.05h6Z"/><path class="cls-1" d="M387.69,560.08a2.89,2.89,0,0,1-2.95-2.83,3.08,3.08,0,0,1,.07-.68.89.89,0,0,0-.29-.93c-1.27-1.24-2.52-2.49-3.77-3.74a2.67,2.67,0,0,1-.34-3.76,2.26,2.26,0,0,1,.34-.35c1.16-1.17,2.31-2.33,3.49-3.49A2.67,2.67,0,0,1,388,544a3.73,3.73,0,0,1,.35.34l3.79,3.8a.71.71,0,0,0,.82.25,2.89,2.89,0,0,1,3.15,1.34,2.82,2.82,0,0,1-.28,3.4q-3.1,3.21-6.3,6.29a6.56,6.56,0,0,1-1.77.85Zm3.49-10.77c-1.35-1.35-2.69-2.7-4.06-4a1.08,1.08,0,0,0-1.54-.13.86.86,0,0,0-.18.2q-1.8,1.77-3.58,3.56a1.18,1.18,0,0,0-.28,1.63,1.48,1.48,0,0,0,.28.28c.66.68,1.35,1.34,2,2l1.9,1.94Z"/><path class="cls-1" d="M344.21,516.61a2.79,2.79,0,0,1,.79-2c2-2,4-4,6-6a2.93,2.93,0,0,1,4.88,2.78.75.75,0,0,0,.27.82c1.28,1.26,2.54,2.52,3.8,3.8a2.67,2.67,0,0,1,.31,3.76,3,3,0,0,1-.31.31q-1.77,1.8-3.58,3.57a2.64,2.64,0,0,1-3.73.25l-.25-.25q-1.94-1.9-3.83-3.85a.86.86,0,0,0-.88-.27,2.93,2.93,0,0,1-3.45-2.31A2.76,2.76,0,0,1,344.21,516.61Zm5.34,1.92,3.92,3.91a1.2,1.2,0,0,0,1.67.29,1.33,1.33,0,0,0,.29-.29l3.44-3.44c.74-.74.74-1.26,0-2l-3.56-3.57c-.12-.11-.25-.2-.33-.28Z"/><path class="cls-1" d="M396.37,516.62a2.88,2.88,0,0,1-2.82,2.93,2.84,2.84,0,0,1-.66-.07.94.94,0,0,0-1,.33c-1.21,1.24-2.45,2.48-3.66,3.71a2.69,2.69,0,0,1-3.78.39,2.79,2.79,0,0,1-.38-.39c-1.17-1.15-2.34-2.32-3.49-3.49a2.64,2.64,0,0,1-.28-3.73,2.54,2.54,0,0,1,.28-.29q1.91-1.93,3.85-3.84a.79.79,0,0,0,.25-.83,2.9,2.9,0,0,1,1.4-3.18,2.84,2.84,0,0,1,3.4.36c2.08,2,4.15,4.08,6.15,6.18a6.93,6.93,0,0,1,.94,1.86Zm-10.75-3.51c-1.36,1.36-2.74,2.71-4.09,4.1a1.06,1.06,0,0,0-.08,1.5l.13.13c1.23,1.24,2.46,2.47,3.71,3.66a1.12,1.12,0,0,0,1.59.14.62.62,0,0,0,.14-.14c1-1,1.93-1.92,2.93-2.89.38-.38.79-.73,1.15-1.08Z"/><path class="cls-1" d="M352.84,560.08a2.86,2.86,0,0,1-2-.87l-5.86-5.87a2.92,2.92,0,0,1-.5-3.54,3,3,0,0,1,3.24-1.42,1,1,0,0,0,.73-.24c1.29-1.25,2.54-2.52,3.81-3.78A2.69,2.69,0,0,1,356,544a2.79,2.79,0,0,1,.38.39l3.35,3.34a2.7,2.7,0,0,1,0,4.29c-1.23,1.24-2.46,2.48-3.72,3.67a.83.83,0,0,0-.25.88,2.92,2.92,0,0,1-2.92,3.54Zm2-5.35c1.35-1.35,2.71-2.69,4.05-4.06a1.11,1.11,0,0,0,.09-1.57.57.57,0,0,0-.16-.15q-1.77-1.8-3.57-3.57a1.15,1.15,0,0,0-1.6-.3,1.07,1.07,0,0,0-.3.3c-.81.79-1.6,1.62-2.41,2.41-.52.5-1.08,1-1.59,1.42Z"/><text class="cls-4" transform="translate(358.45 541.94)">24</text></g></g></svg>